<?xml version="1.0"?>
<!-- While we use it to generate TTF file, SVG Font is deprecated. Don't use this in browser -->
<svg xmlns="http://www.w3.org/2000/svg">
<defs>
<font id="ldi">
  <font-face units-per-em="1200" ascent="1100" descent="100"/>
  <missing-glyph horiz-adv-x="1200"/>
    <glyph unicode="&#xf000;" glyph-name="heart" d="M599.999-148.307a49.933 49.933 0 00-28.726 9.076c-5.27 3.698-130.5 92.106-257.449 225.158C238.481 164.89 178.24 243.289 134.771 318.94 78.52 416.837 49.999 511 49.999 598.808c0 107.925 32.914 198.452 95.185 261.793 28.365 28.853 61.848 51.127 99.52 66.202 35.655 14.27 73.503 21.505 112.49 21.505 36.903 0 72.958-6.491 107.165-19.292 35.327-13.22 66.965-32.547 94.04-57.443 15.819-14.547 29.74-30.698 41.659-48.303 23.28 34.43 54.231 63.37 91.879 85.063 44.887 25.866 96.614 39.688 149.59 39.97a309.51 309.51 0 001.649.005c53.375 0 105.407-13.818 150.595-40.007 47.367-27.452 86.452-68.394 113.03-118.4 28.845-54.27 43.378-118.605 43.198-191.217-.218-87.771-28.864-181.896-85.144-279.76-43.499-75.639-103.72-154.025-178.988-232.981-126.835-133.047-251.85-221.453-257.11-225.151a49.942 49.942 0 00-28.758-9.1zM357.193 848.308c-54.08 0-104.047-20.532-140.698-57.812C172.993 746.246 150 679.96 150 598.808c0-69.893 23.907-147.046 71.058-229.315 39.28-68.537 94.444-140.307 163.958-213.318 85.239-89.526 171.536-159.046 214.96-192.22C643.339-2.863 729.498 66.653 814.646 156.16c69.463 73.019 124.622 144.8 163.944 213.35 47.21 82.302 71.236 159.491 71.41 229.422.14 55.986-10.46 104.447-31.501 144.037-18.053 33.966-43.243 60.482-74.871 78.813-61.059 35.387-140.257 35.35-201.762-.093C682.624 787.552 650 727.18 650 651.693c0-27.614-22.386-50-50-50s-50 22.386-50 50c0 60.025-20.502 110.605-59.288 146.27-34.793 31.995-83.459 50.345-133.518 50.345zM1100 598.808h.01-.01z"/>
  <glyph unicode="&#xf001;" glyph-name="home" d="M1179.408 440.437l-550 400c-17.531 12.75-41.285 12.75-58.816 0l-550-400c-22.333-16.242-27.27-47.513-11.029-69.846 16.242-22.333 47.514-27.27 69.845-11.028L150 410.903V0c0-27.614 22.386-50 50-50h250c27.614 0 50 22.386 50 50v300h200V0c0-27.614 22.386-50 50-50h250c27.614 0 50 22.386 50 50v410.902l70.592-51.339a49.77 49.77 0 0129.367-9.566c15.453 0 30.693 7.14 40.478 20.594 16.242 22.333 11.304 53.604-11.029 69.846zM950 50H800v300c0 27.614-22.386 50-50 50H450c-27.614 0-50-22.386-50-50V50H250v433.63l350 254.545L950 483.63V50z"/>
  <glyph unicode="&#xf002;" glyph-name="building" d="M200-200h800c27.614 0 50 22.386 50 50V950c0 27.614-22.386 50-50 50H200c-27.614 0-50-22.386-50-50V-150c0-27.614 22.386-50 50-50zm599.999 100H400v200h400l-.001-200zM250 900h700V-100h-50v250c0 27.614-22.386 50-50 50H350c-27.614 0-50-22.386-50-50v-250h-50V900zm400-550c0 27.614 22.386 50 50 50h150c27.614 0 50-22.386 50-50s-22.386-50-50-50H700c-27.614 0-50 22.386-50 50zm-350 0c0 27.614 22.386 50 50 50h150c27.614 0 50-22.386 50-50s-22.386-50-50-50H350c-27.614 0-50 22.386-50 50zm350 200c0 27.614 22.386 50 50 50h150c27.614 0 50-22.386 50-50s-22.386-50-50-50H700c-27.614 0-50 22.386-50 50zm-350 0c0 27.614 22.386 50 50 50h150c27.614 0 50-22.386 50-50s-22.386-50-50-50H350c-27.614 0-50 22.386-50 50zm350 200c0 27.614 22.386 50 50 50h150c27.614 0 50-22.386 50-50s-22.386-50-50-50H700c-27.614 0-50 22.386-50 50zm-350 0c0 27.614 22.386 50 50 50h150c27.614 0 50-22.386 50-50s-22.386-50-50-50H350c-27.614 0-50 22.386-50 50z"/>
  <glyph unicode="&#xf003;" glyph-name="dart-up" d="M1150.025 49.999c-14.2-.001-28.304 6.015-38.194 17.704L600 672.593 88.17 67.704c-17.838-21.08-49.387-23.709-70.467-5.872s-23.71 49.386-5.872 70.466l550 650a49.998 49.998 0 0076.338 0l550-650c17.838-21.08 15.208-52.629-5.872-70.466A49.81 49.81 0 001150.025 50z"/>
  <glyph unicode="&#xf004;" glyph-name="dart-right" d="M300.025-200.001c-14.2-.001-28.303 6.015-38.194 17.704-17.838 21.08-15.208 52.629 5.872 70.466L872.593 400 267.704 911.83c-21.08 17.838-23.71 49.387-5.872 70.467 17.837 21.08 49.386 23.71 70.466 5.872l650-550a50 50 0 000-76.338l-650-550a49.811 49.811 0 00-32.272-11.832z"/>
  <glyph unicode="&#xf005;" glyph-name="dart-down" d="M600 0a49.998 49.998 0 00-38.17 17.703l-550 650c-17.836 21.08-15.207 52.629 5.873 70.466 21.08 17.837 52.629 15.209 70.466-5.872L600 127.407l511.83 604.89c17.837 21.08 49.387 23.71 70.467 5.872 21.08-17.837 23.71-49.386 5.872-70.466l-550-650A49.998 49.998 0 00600 0z"/>
  <glyph unicode="&#xf006;" glyph-name="dart-left" d="M899.975-200.001a49.799 49.799 0 00-32.272 11.832l-650 550a50 50 0 000 76.338l650 550c21.08 17.838 52.628 15.209 70.466-5.872 17.837-21.08 15.208-52.629-5.872-70.466L327.407 400l604.89-511.83c21.08-17.838 23.71-49.387 5.872-70.467-9.89-11.688-23.995-17.704-38.194-17.704z"/>
  <glyph unicode="&#xf007;" glyph-name="chevron-up" d="M1149.959 349.997a49.77 49.77 0 00-29.367 9.566L600 738.175 79.408 359.563c-22.33-16.241-53.603-11.305-69.845 11.028-16.242 22.333-11.304 53.604 11.029 69.846l550 400c17.531 12.75 41.285 12.75 58.816 0l550-400c22.333-16.242 27.27-47.513 11.029-69.846-9.785-13.453-25.025-20.594-40.478-20.594zM79.409-40.437L600 338.175l520.59-378.61c22.333-16.243 53.605-11.305 69.846 11.027 16.242 22.333 11.304 53.604-11.029 69.846L629.408 440.437c-17.531 12.75-41.285 12.75-58.816 0l-550-400C-1.741 24.195-6.678-7.076 9.563-29.409c9.786-13.455 25.024-20.595 40.478-20.594 10.197 0 20.49 3.11 29.367 9.566z"/>
  <glyph unicode="&#xf008;" glyph-name="chevron-right" d="M599.959-200.003a49.767 49.767 0 00-29.368 9.566c-22.332 16.242-27.27 47.513-11.028 69.846L938.175 400 559.563 920.591c-16.242 22.333-11.304 53.604 11.028 69.846 22.332 16.242 53.603 11.305 69.846-11.028l400-550c12.75-17.533 12.75-41.285 0-58.818l-400-550c-9.785-13.453-25.025-20.594-40.478-20.594zm-359.522 20.594l400 550c12.75 17.533 12.75 41.285 0 58.818l-400 550c-16.243 22.333-47.514 27.27-69.846 11.028-22.332-16.242-27.27-47.513-11.028-69.846L538.175 400 159.563-120.591c-16.242-22.333-11.304-53.604 11.028-69.846a49.767 49.767 0 0129.368-9.566c15.453 0 30.693 7.14 40.478 20.594z"/>
  <glyph unicode="&#xf009;" glyph-name="chevron-down" d="M599.999-50.001a49.93 49.93 0 00-29.41 9.564l-549.997 400c-22.333 16.242-27.27 47.513-11.029 69.846 16.242 22.332 47.513 27.27 69.845 11.028L600 61.824l520.593 378.613c22.329 16.242 53.601 11.305 69.845-11.028 16.242-22.333 11.304-53.604-11.029-69.846l-550-400.001A49.938 49.938 0 00600-50.001zm29.408 409.563l550.001 400.001c22.333 16.242 27.27 47.513 11.029 69.846-16.244 22.333-47.516 27.27-69.845 11.028L599.999 461.824 79.409 840.437c-22.333 16.242-53.604 11.304-69.846-11.028-16.242-22.333-11.304-53.604 11.029-69.846l549.998-400a49.93 49.93 0 0129.409-9.564 49.938 49.938 0 0129.408 9.563z"/>
  <glyph unicode="&#xf00a;" glyph-name="chevron-left" d="M600.041-200.003c-15.454-.001-30.692 7.14-40.478 20.594l-400 550c-12.75 17.533-12.75 41.285 0 58.818l400 550c16.242 22.332 47.512 27.27 69.845 11.028s27.27-47.513 11.029-69.846L261.825 400l378.612-520.591c16.242-22.333 11.304-53.604-11.029-69.846a49.778 49.778 0 00-29.367-9.566zm429.367 9.566c22.333 16.242 27.27 47.513 11.029 69.846L661.825 400l378.612 520.591c16.242 22.333 11.304 53.604-11.029 69.846s-53.603 11.304-69.845-11.028l-400-550c-12.75-17.533-12.75-41.285 0-58.818l400-550c9.786-13.455 25.024-20.595 40.478-20.594 10.197 0 20.49 3.11 29.367 9.566z"/>
  <glyph unicode="&#xf00b;" glyph-name="save" d="M1135.355 635.355l-300 300A50 50 0 01800 950H100c-27.614 0-50-22.386-50-50V-100c0-27.614 22.386-50 50-50h1000c27.614 0 50 22.386 50 50v700a50 50 0 01-14.645 35.355zM500 850V650H400v200h100zM400-50v361.539h400V-50H400zm650 0H900v411.539c0 27.614-22.386 50-50 50H350c-27.614 0-50-22.386-50-50V-50H150v900h150V600c0-27.614 22.386-50 50-50h200c27.614 0 50 22.386 50 50v250h179.29L1050 579.29V-50z"/>
  <glyph unicode="&#xf00c;" glyph-name="bars" d="M1200 700c0-27.614-22.386-50-50-50H50c-27.614 0-50 22.386-50 50s22.386 50 50 50h1100c27.614 0 50-22.386 50-50zm-50-250H50c-27.614 0-50-22.386-50-50s22.386-50 50-50h1100c27.614 0 50 22.386 50 50s-22.386 50-50 50zm0-300H50c-27.614 0-50-22.386-50-50s22.386-50 50-50h1100c27.614 0 50 22.386 50 50s-22.386 50-50 50z"/>
  <glyph unicode="&#xf00d;" glyph-name="check" d="M1185.355 785.355c19.527-19.526 19.527-51.184 0-70.71l-700-700C475.609 4.898 462.809 0 449.995 0c-12.274 0-24.56 4.493-34.192 13.523l-400 375c-20.146 18.887-21.166 50.528-2.28 70.674 18.886 20.145 50.528 21.166 70.674 2.28l364.68-341.889 665.768 665.767c19.527 19.527 51.183 19.527 70.71 0z"/>
  <glyph unicode="&#xf011;" glyph-name="lock" d="M1013.763 550H950v200c0 110.28-89.72 200-200 200H450c-110.28 0-200-89.72-200-200V550h-63.763C138.686 550 100 511.314 100 463.763V-63.763C100-111.314 138.686-150 186.237-150h827.526c47.551 0 86.237 38.686 86.237 86.237v527.526c0 47.551-38.686 86.237-86.237 86.237zM350 750c0 55.14 44.86 100 100 100h300c55.14 0 100-44.86 100-100V550H350v200zm650-800H200v500h800V-50zM450 350c0 27.614 22.386 50 50 50h200c27.614 0 50-22.386 50-50s-22.386-50-50-50h-50V200c0-27.614-22.386-50-50-50s-50 22.386-50 50v100h-50c-27.614 0-50 22.386-50 50z"/>
  <glyph unicode="&#xf012;" glyph-name="unlock" d="M1013.763 550H900v200c0 110.28-89.72 200-200 200H500c-110.28 0-200-89.72-200-200 0-27.614 22.386-50 50-50s50 22.386 50 50c0 55.14 44.86 100 100 100h200c55.14 0 100-44.86 100-100V550H186.237C138.686 550 100 511.314 100 463.763V-63.763C100-111.314 138.686-150 186.237-150h827.526c47.551 0 86.237 38.686 86.237 86.237v527.526c0 47.551-38.686 86.237-86.237 86.237zM1000-50H200v500h800V-50zM750 350c0-27.614-22.386-50-50-50h-50V200c0-27.614-22.386-50-50-50s-50 22.386-50 50v100h-50c-27.614 0-50 22.386-50 50s22.386 50 50 50h200c27.614 0 50-22.386 50-50z"/>
  <glyph unicode="&#xf013;" glyph-name="mail" d="M1150 900H50c-27.614 0-50-22.386-50-50V-50c0-27.614 22.386-50 50-50h1100c27.614 0 50 22.386 50 50v900c0 27.614-22.386 50-50 50zm-50-100V648.12L603.4 350h-6.8L100 648.12V800h1000zM100 0v531.484l457.01-274.352A49.998 49.998 0 01582.745 250h34.51a49.998 49.998 0 0125.735 7.132L1100 531.484V0H100z"/>
  <glyph unicode="&#xf014;" glyph-name="pen" d="M1084.944 888.756c-81.528 81.528-214.184 81.527-295.713 0l-76.272-76.272-486.516-486.515c-61.152-61.153-107.607-133.427-138.076-214.814C62.91 43.155 50.002-27.888 50.002-100c0-27.614 22.386-50 50-50 72.109 0 143.148 12.907 211.146 38.361l.01.004c81.388 30.47 153.662 76.926 214.813 138.077l486.515 486.515 76.272 76.272.315.318.927.944c38.924 39.59 60.231 91.967 59.996 147.485-.235 55.517-21.985 107.712-61.24 146.967l-3.812 3.813zM455.26 97.153C411.759 53.651 361.486 19.064 305.473-5.944L194.059 105.471c25.007 56.012 59.593 106.285 103.095 149.787l451.16 451.16L906.42 548.311 455.26 97.151zm563.416 563.43l-41.546-41.56-158.105 158.105 40.917 40.917c42.538 42.538 111.753 42.538 154.29.002l3.809-3.81.002-.002c42.18-42.18 42.471-111.1.633-153.652z"/>
  <glyph unicode="&#xf015;" glyph-name="phone" d="M935.355 285.355c-19.527 19.526-51.183 19.526-70.71 0l-68.994-68.994C644.785 334.1 522.662 455.981 416 595.288l69.356 69.357c19.527 19.526 19.527 51.184 0 70.71l-200 200c-19.527 19.526-51.183 19.526-70.71 0l-150-150a50.002 50.002 0 01-12.995-48.097c26.154-99.234 68.033-199.559 121.113-290.13 56.402-96.243 126.096-186.14 207.145-267.195 81.25-81.255 171.022-150.945 266.838-207.141.074-.044.148-.088.222-.13 90.193-52.874 190.571-94.719 290.284-121.01a50.003 50.003 0 0148.104 12.992l150 150c19.526 19.527 19.526 51.185 0 70.711l-200 200zm-.056-329.346c-81.86 24.11-163.453 59.383-237.58 102.816l-.182.108c-88.552 51.913-171.626 116.413-246.916 191.709-75.027 75.033-139.485 158.152-191.583 247.048-43.648 74.478-78.991 156.078-103.027 237.61L250 829.29 379.29 700l-64.645-64.645c-17.448-17.447-19.56-45.012-4.973-64.913 61.953-84.527 127.991-161.803 201.888-236.245 77.592-78.166 162.09-151.471 258.317-224.105 19.907-15.025 47.842-13.083 65.478 4.553L900 179.289 1029.29 50l-93.991-93.991z"/>
  <glyph unicode="&#xf016;" glyph-name="gear" d="M675-200H525c-41.355 0-75 33.645-75 75V-3.915a429.012 429.012 0 00-29.536 12.247l-85.629-85.63c-14.166-14.165-33-21.966-53.033-21.966s-38.868 7.801-53.033 21.967L122.703 28.769c-14.166 14.166-21.967 33-21.967 53.033s7.801 38.867 21.967 53.033l85.629 85.629A428.986 428.986 0 00196.085 250H75c-41.355 0-75 33.645-75 75v150c0 41.355 33.645 75 75 75h121.085a429.012 429.012 0 0012.247 29.536l-85.63 85.629c-14.165 14.166-21.966 33-21.966 53.033s7.801 38.867 21.967 53.033l106.066 106.066c29.243 29.243 76.824 29.242 106.066 0l85.629-85.629A429.007 429.007 0 00450 803.915V925c0 41.355 33.645 75 75 75h150c41.355 0 75-33.645 75-75V803.915a429.007 429.007 0 0029.536-12.247l85.629 85.63c29.242 29.242 76.823 29.241 106.066 0l106.066-106.067c14.166-14.165 21.967-33 21.967-53.033s-7.801-38.867-21.967-53.033l-85.629-85.629A429.012 429.012 0 001003.915 550H1125c41.355 0 75-33.645 75-75V325c0-41.355-33.645-75-75-75h-121.085a429.012 429.012 0 00-12.247-29.536l85.63-85.629c14.165-14.166 21.966-33 21.966-53.033s-7.801-38.868-21.967-53.033L971.231-77.297c-14.165-14.166-33-21.967-53.033-21.967s-38.867 7.801-53.033 21.967L779.536 8.332A429.012 429.012 0 00750-3.915V-125c0-41.355-33.645-75-75-75zM550-100h100V70.736l36.9 10.017a328.765 328.765 0 0177.357 32.073l33.181 19.025 120.76-120.76 70.71 70.711-120.76 120.76 19.026 33.18a328.765 328.765 0 0132.073 77.357L929.264 350H1100v100H929.264l-10.017 36.9a328.765 328.765 0 01-32.073 77.357l-19.025 33.181 120.76 120.76-70.71 70.71-120.761-120.76-33.18 19.026a328.763 328.763 0 01-77.357 32.073L650 729.264V900H550V729.264l-36.9-10.017a328.763 328.763 0 01-77.357-32.073l-33.18-19.025-120.761 120.76-70.71-70.711 120.76-120.76-19.026-33.18a328.765 328.765 0 01-32.073-77.357L270.736 450H100V350h170.736l10.017-36.9a328.765 328.765 0 0132.073-77.357l19.025-33.181-120.76-120.76 70.71-70.71 120.76 120.76 33.182-19.026a328.765 328.765 0 0177.356-32.073L550 70.736V-100zm50 250c-66.777 0-129.558 26.005-176.776 73.224C376.004 270.442 350 333.223 350 400s26.005 129.558 73.224 176.776C470.442 623.995 533.223 650 600 650s129.558-26.005 176.776-73.224C823.996 529.558 850 466.777 850 400s-26.005-129.558-73.224-176.776C729.558 176.005 666.777 150 600 150zm0 400c-82.71 0-150-67.29-150-150s67.29-150 150-150 150 67.29 150 150-67.29 150-150 150z"/>
  <glyph unicode="&#xf017;" glyph-name="legal" d="M1016.826 701.252c105.012 8.334 160.339 55.871 166.808 61.75l-67.268 73.995s.183.176.558.496C1115.13 835.962 1072.02 800 985 800H650v50c0 27.614-22.386 50-50 50s-50-22.386-50-50v-50H215c-87.023 0-130.13 35.962-131.923 37.492.375-.32.558-.496.558-.496l-67.27-73.992c6.469-5.88 61.793-53.418 166.809-61.752L52.108 264.367A50.002 50.002 0 01100 200h300a49.998 49.998 0 0147.892 64.367L317.202 700H550V0H450c-27.614 0-50-22.386-50-50s22.386-50 50-50h300c27.614 0 50 22.386 50 50S777.614 0 750 0H650v700h232.798l-130.69-435.633A50.002 50.002 0 01800 200h300a49.998 49.998 0 0147.892 64.367l-131.066 436.885zM167.201 300L250 575.995 332.799 300H167.2zm700 0L950 575.995 1032.799 300H867.2zM400 100c0-27.614-22.386-50-50-50H150c-27.614 0-50 22.386-50 50s22.386 50 50 50h200c27.614 0 50-22.386 50-50zm700 0c0-27.614-22.386-50-50-50H850c-27.614 0-50 22.386-50 50s22.386 50 50 50h200c27.614 0 50-22.386 50-50z"/>
  <glyph unicode="&#xf018;" glyph-name="link" d="M638.29 199.545c-61.017 0-122.564 20.888-170.935 62.583-20.917 18.03-23.256 49.601-5.227 70.517 18.029 20.916 49.601 23.257 70.517 5.227 57.538-49.596 148.612-51.114 203.785-3.641l271.694 271.693c55.746 55.746 55.746 146.453 0 202.2-27.005 27.004-62.91 41.876-101.1 41.876s-74.095-14.872-101.1-41.876l-.31-.309-120.57-118.478c-19.695-19.356-51.353-19.078-70.707.618-19.355 19.696-19.078 51.354.618 70.708l120.41 118.321C781.238 924.781 842.192 950 907.022 950c64.902 0 125.919-25.274 171.811-71.166 45.892-45.892 71.166-106.909 71.166-171.81s-25.273-125.918-71.166-171.81l-272.91-272.91a49.93 49.93 0 00-2.322-2.18c-45.919-40.411-105.36-60.579-165.312-60.579zM464.623-78.998L585.045 39.337c19.696 19.355 19.973 51.012.618 70.708-19.354 19.695-51.01 19.974-70.708.618L394.386-7.816a46.12 46.12 0 01-.31-.308C367.071-35.128 331.166-50 292.976-50s-74.095 14.873-101.1 41.877C164.872 18.882 150 54.787 150 92.977s14.872 74.094 41.876 101.099l271.457 271.456c56.844 47.526 147.761 46.32 203.554-2.994 20.692-18.29 52.29-16.34 70.576 4.35 18.288 20.69 16.34 52.289-4.35 70.577-93.777 82.886-241.47 84.127-336.238 2.825a50 50 0 01-2.8-2.593l-272.91-272.91C75.275 218.893 50 157.876 50 92.976S75.273-32.943 121.166-78.835c45.893-45.893 106.91-71.166 171.81-71.166 64.822 0 125.774 25.216 171.647 71.002z"/>
  <glyph unicode="&#xf024;" glyph-name="doc" d="M735.355 985.355A50 50 0 01700 1000H200c-27.614 0-50-22.386-50-50V-150c0-27.614 22.386-50 50-50h800c27.614 0 50 22.386 50 50v800a50 50 0 01-14.645 35.355l-300 300zM950-100H250V900h429.29L950 629.29V-100zM650 750c27.614 0 50-22.386 50-50s-22.386-50-50-50H400c-27.614 0-50 22.386-50 50s22.386 50 50 50h250zM400 550h400c27.614 0 50-22.386 50-50s-22.386-50-50-50H400c-27.614 0-50 22.386-50 50s22.386 50 50 50zm450-250c0-27.614-22.386-50-50-50H400c-27.614 0-50 22.386-50 50s22.386 50 50 50h400c27.614 0 50-22.386 50-50zm0-200c0-27.614-22.386-50-50-50H400c-27.614 0-50 22.386-50 50s22.386 50 50 50h400c27.614 0 50-22.386 50-50z"/>
  <glyph unicode="&#xf025;" glyph-name="undo" d="M1152.829 633.562C1184.129 559.56 1200 480.978 1200 400s-15.87-159.56-47.171-233.563c-30.223-71.453-73.478-135.615-128.565-190.702-55.087-55.086-119.248-98.341-190.701-128.563C759.558-184.128 680.977-200 600-200s-159.56 15.871-233.563 47.172c-71.453 30.222-135.614 73.477-190.701 128.563-55.087 55.087-98.342 119.25-128.564 190.703C15.87 240.44 0 319.022 0 400c0 27.614 22.386 50 50 50s50-22.386 50-50c0-275.701 224.299-500 500-500s500 224.299 500 500-224.299 500-500 500c-92.15 0-180.915-25.163-257.806-71.482l93.161-93.163a50 50 0 0010.839-54.489A50 50 0 00400 650H150c-27.614 0-50 22.386-50 50v250a50.001 50.001 0 0085.355 35.355l84.34-84.338C366.608 965.007 480.946 1000 600 1000c80.978 0 159.56-15.871 233.563-47.172 71.453-30.222 135.614-73.477 190.701-128.563 55.087-55.087 98.342-119.25 128.565-190.702z"/>
  <glyph unicode="&#xf026;" glyph-name="print" d="M1066.667 700H950v166.667c0 45.95-37.383 83.333-83.333 83.333H333.333C287.383 950 250 912.617 250 866.667V700H133.333C87.383 700 50 663.151 50 617.857V232.143C50 186.849 87.383 150 133.333 150H250V-97.172c0-29.13 23.699-52.828 52.829-52.828H897.17c29.13 0 52.829 23.698 52.829 52.828V150h116.667c45.95 0 83.333 36.849 83.333 82.143v385.714c0 45.294-37.383 82.143-83.333 82.143zM350 850h500V700H350v150zm500-649.749c0-.084-.006-.167-.006-.251s.006-.167.006-.251V-50H350v350h500v-99.749zM1050 250H950v100c0 27.614-22.386 50-50 50H300c-27.614 0-50-22.386-50-50V250H150v350h900V250zm-650-50c0 27.614 22.386 50 50 50h300c27.614 0 50-22.386 50-50s-22.386-50-50-50H450c-27.614 0-50 22.386-50 50zm350 300c0 27.614 22.386 50 50 50h100c27.614 0 50-22.386 50-50s-22.386-50-50-50H800c-27.614 0-50 22.386-50 50zM400 50c0 27.614 22.386 50 50 50h100c27.614 0 50-22.386 50-50S577.614 0 550 0H450c-27.614 0-50 22.386-50 50z"/>
  <glyph unicode="&#xf029;" glyph-name="plus" d="M1150 400c0-27.614-22.386-50-50-50H650v-450c0-27.614-22.386-50-50-50s-50 22.386-50 50v450H100c-27.614 0-50 22.386-50 50s22.386 50 50 50h450v450c0 27.614 22.386 50 50 50s50-22.386 50-50V450h450c27.614 0 50-22.386 50-50z"/>
  <glyph unicode="&#xf02a;" glyph-name="alert" d="M1188.857 13.503l-525.54 851.18C649.661 886.8 625.991 900.004 600 900.004s-49.662-13.203-63.316-35.32L11.143 13.504c-14.16-22.935-14.8-51.805-1.67-75.344 13.131-23.54 38.032-38.162 64.986-38.162h1051.082c26.954 0 51.855 14.623 64.985 38.162 13.131 23.539 12.492 52.41-1.669 75.344zM120.328-.003L600 776.887 1079.672-.003H120.328zM600 599.993c27.614 0 50-22.385 50-50v-300c0-27.614-22.386-50-50-50s-50 22.386-50 50v300c0 27.615 22.386 50 50 50zm50-499.24v-1.52c0-27.614-22.386-50-50-50s-50 22.386-50 50v1.52c0 27.615 22.386 50 50 50s50-22.385 50-50z"/>
  <glyph unicode="&#xf02b;" glyph-name="bell" d="M1050 50h-6.714c-2.15 2.53-7.06 9.646-12.617 26.627-7.086 21.662-12.965 52.566-17.474 91.853-9.002 78.437-13.195 195.356-13.195 367.952 0 47.608-10.498 94.386-31.202 139.035-20.041 43.217-48.573 82.162-84.803 115.753C820.198 850.368 738.487 887.107 650 897.176V950c0 27.614-22.386 50-50 50s-50-22.386-50-50v-52.824c-88.487-10.07-170.198-46.808-233.994-105.956-36.23-33.59-64.763-72.536-84.804-115.753C210.498 630.818 200 584.04 200 536.432c0-172.596-4.193-289.515-13.195-367.952-4.508-39.287-10.388-70.19-17.474-91.853-5.556-16.982-10.467-24.098-12.617-26.627H150c-27.614 0-50-22.386-50-50s22.386-50 50-50h300c0-82.71 67.29-150 150-150s150 67.29 150 150h300c27.614 0 50 22.386 50 50s-22.386 50-50 50zM600-100c-27.57 0-50 22.43-50 50h100c0-27.57-22.43-50-50-50zM711.7 50H265.822c5.729 18.47 10.536 40.019 14.63 65.318C293.972 198.876 300 328.752 300 536.432c0 65.827 30.615 131.966 83.995 181.456C441.106 770.838 517.819 800 600 800s158.894-29.161 216.006-82.112C869.386 668.398 900 602.26 900 536.432c0-207.68 6.029-337.556 19.548-421.114 4.094-25.299 8.901-46.847 14.63-65.318H711.7z"/>
  <glyph unicode="&#xf02c;" glyph-name="book" d="M1100 950H808.333c-68.269 0-132.64-24.753-181.256-69.698A248.792 248.792 0 01600 850.926a248.792 248.792 0 01-27.077 29.376C524.307 925.247 459.936 950 391.667 950H100c-27.614 0-50-22.386-50-50V0c0-27.614 22.386-50 50-50h375c32.035 0 54.053-8.14 65.44-24.195 8.48-11.955 9.489-25.367 9.567-26.663C550.444-127.77 573.103-150 600-150c27.614 0 50 22.386 50 50 0 .106.978 12.224 8.025 23.5C669.015-58.916 691.549-50 725-50h375c27.614 0 50 22.386 50 50v900c0 27.614-22.386 50-50 50zM475 50H150v800h241.667C478.972 850 550 786.028 550 707.396V37.769C527.852 45.894 502.724 50 475 50zm75.006-150.777c-.017.507-.006.777-.006.777 0-.26.002-.519.006-.777zM1050 50H725c-27.724 0-52.852-4.106-75-12.23v669.625C650 786.028 721.028 850 808.333 850H1050V50z"/>
  <glyph unicode="&#xf02d;" glyph-name="branch" d="M850 1000c-110.28 0-200-89.72-200-200 0-93.021 63.835-171.413 150-193.672V551.25c0-82.71-67.29-150-150-150l-250-1.041v206.119C486.165 628.587 550 706.978 550 800c0 110.28-89.72 200-200 200s-200-89.72-200-200c0-93.021 63.835-171.413 150-193.672V193.672C213.835 171.414 150 93.022 150 0c0-110.28 89.72-200 200-200S550-110.28 550 0c0 93.021-63.835 171.414-150 193.672v106.536l250.085 1.042c66.746.022 129.493 26.025 176.692 73.223 47.218 47.22 73.223 110 73.223 176.777v55.078c86.165 22.259 150 100.65 150 193.672 0 110.28-89.72 200-200 200zM250 800c0 55.14 44.86 100 100 100s100-44.86 100-100-44.86-100-100-100-100 44.86-100 100zM450 0c0-55.14-44.86-100-100-100S250-55.14 250 0s44.86 100 100 100S450 55.14 450 0zm400 700c-55.14 0-100 44.86-100 100s44.86 100 100 100 100-44.86 100-100-44.86-100-100-100z"/>
  <glyph unicode="&#xf02e;" glyph-name="certificate" d="M1099.78 654.616c-.01.112-.014.225-.026.337a49.704 49.704 0 01-8.11 22.717l-.051.08a51.329 51.329 0 01-1.229 1.748c-.067.092-.13.187-.199.28a49.522 49.522 0 01-1.183 1.518c-.113.141-.22.287-.336.427a50.97 50.97 0 01-1.207 1.402c-.134.151-.26.308-.396.457a50.45 50.45 0 01-1.685 1.77l-.003.003-300 300a50.412 50.412 0 01-1.773 1.688c-.146.133-.3.257-.447.387a50.878 50.878 0 01-1.413 1.217c-.135.11-.275.214-.41.323a50.56 50.56 0 01-1.537 1.197c-.085.063-.172.12-.257.183a50.293 50.293 0 01-1.77 1.244l-.056.035a49.698 49.698 0 01-22.74 8.125c-.101.01-.203.014-.304.023a50.257 50.257 0 01-2.143.16A50.183 50.183 0 01750 1000H150c-27.614 0-50-22.386-50-50V-150c0-27.614 22.386-50 50-50h900c27.614 0 50 22.386 50 50v800c0 .837-.021 1.672-.063 2.505a50.109 50.109 0 01-.158 2.11zM800 829.289L929.29 700H800v129.29zM200-100V900h500V650c0-27.614 22.386-50 50-50h250v-700H200zm600 500c0 110.28-89.72 200-200 200s-200-89.72-200-200c0-64.332 30.54-121.657 77.873-158.267l-25.308-75.922c-8.732-26.197 5.426-54.513 31.623-63.245a49.953 49.953 0 0115.819-2.58c20.933 0 40.443 13.252 47.428 34.203l22.681 68.045C579.868 200.767 589.846 200 600 200s20.132.767 29.884 2.234l22.681-68.045c6.985-20.953 26.493-34.203 47.428-34.203 5.24 0 10.573.832 15.819 2.58 26.197 8.732 40.355 37.048 31.623 63.245l-25.308 75.922C769.461 278.343 800 335.668 800 400zm-300 0c0 55.14 44.86 100 100 100s100-44.86 100-100-44.86-100-100-100-100 44.86-100 100z"/>
  <glyph unicode="&#xf02f;" glyph-name="check-circle" d="M935.355 635.355c19.527-19.526 19.527-51.184 0-70.71l-400-400C525.593 154.88 512.795 150 500 150s-25.593 4.881-35.355 14.645l-200 200c-19.527 19.526-19.527 51.184 0 70.71 19.525 19.527 51.185 19.527 70.71 0L500 270.711l364.645 364.644c19.525 19.527 51.185 19.527 70.71 0zm217.473-1.793C1184.128 559.56 1200 480.978 1200 400s-15.871-159.56-47.172-233.563c-30.222-71.453-73.477-135.614-128.563-190.701-55.087-55.087-119.25-98.342-190.703-128.565C759.56-184.129 680.979-200 600-200s-159.56 15.87-233.563 47.171c-71.453 30.223-135.615 73.478-190.702 128.565C120.649 30.823 77.394 94.984 47.172 166.437 15.872 240.442 0 319.023 0 400s15.871 159.56 47.172 233.563c30.222 71.453 73.477 135.614 128.563 190.701 55.087 55.087 119.25 98.342 190.702 128.564C440.44 984.13 519.023 1000 600 1000s159.56-15.87 233.563-47.172c71.453-30.222 135.615-73.477 190.702-128.564 55.086-55.087 98.341-119.248 128.563-190.702zM1100 400c0 275.701-224.299 500-500 500S100 675.701 100 400s224.299-500 500-500 500 224.299 500 500z"/>
  <glyph unicode="&#xf030;" glyph-name="sync" d="M1200 400c0-80.978-15.87-159.56-47.172-233.563-30.222-71.453-73.477-135.615-128.564-190.7-55.087-55.088-119.248-98.343-190.701-128.565C759.559-184.128 680.978-200 600-200c-119.054 0-233.392 34.992-330.305 98.983l-84.34-84.338a49.996 49.996 0 00-54.489-10.84A50.001 50.001 0 00100-150v250c0 27.614 22.386 50 50 50h250a50 50 0 0035.355-85.355l-93.161-93.163C419.086-74.837 507.849-100 600-100c275.7 0 500 224.299 500 500 0 27.614 22.386 50 50 50s50-22.386 50-50zm-1100 0c0 275.701 224.3 500 500 500 92.15 0 180.914-25.164 257.806-71.483l-93.161-93.162A50 50 0 01800 650h250c27.614 0 50 22.386 50 50v250a50.001 50.001 0 01-30.866 46.194c-18.683 7.74-40.19 3.461-54.49-10.839l-84.34-84.34C833.392 965.008 719.053 1000 600 1000c-80.978 0-159.56-15.871-233.563-47.172-71.453-30.222-135.614-73.477-190.701-128.564-55.087-55.086-98.342-119.248-128.564-190.702C15.87 559.56 0 480.978 0 400c0-27.614 22.386-50 50-50s50 22.386 50 50z"/>
  <glyph unicode="&#xf031;" glyph-name="upload" d="M1200 175c0-60.1-23.404-116.602-65.901-159.099S1035.099-50 975-50H800c-27.614 0-50 22.386-50 50s22.386 50 50 50h175c68.925 0 125 56.075 125 125 0 68.833-55.93 124.85-124.728 125a50.003 50.003 0 00-50.99 53.273c.477 7.233.718 14.542.718 21.727 0 179.205-145.795 325-325 325-123.572 0-234.883-68.627-290.494-179.099a49.999 49.999 0 00-33.77-26.318C173.907 471.858 100 379.511 100 275c0-116.799 87.556-213.092 203.662-223.986A50.04 50.04 0 00310.024 50H400c27.614 0 50-22.386 50-50s-22.386-50-50-50H300c-5.43 0-10.757.883-15.794 2.56C207.871-37.861 137.539-1.518 85.239 55.602 30.272 115.634 0 193.552 0 275c0 37.9 6.479 75.052 19.255 110.42 12.346 34.174 30.256 65.863 53.234 94.187 41.053 50.604 96.732 87.87 158.628 106.582 34.632 60.4 83.65 111.53 142.857 148.778C441.6 777.512 519.76 800 600 800c57.353 0 113.016-11.244 165.444-33.419 50.615-21.408 96.06-52.045 135.077-91.06 39.014-39.015 69.652-84.461 91.06-135.077 19.646-46.447 30.712-95.437 32.98-145.888 41.175-9.21 78.977-29.897 109.538-60.456 42.497-42.497 65.901-99 65.901-159.1zm-385.355 39.645C824.408 204.882 837.205 200 850 200s25.592 4.882 35.355 14.645c19.527 19.526 19.527 51.184 0 70.71l-250 250c-19.527 19.526-51.183 19.526-70.71 0l-250-250c-19.527-19.526-19.527-51.184 0-70.71 19.527-19.526 51.183-19.526 70.71 0L550 379.289V-50c0-27.614 22.386-50 50-50s50 22.386 50 50v429.29l164.645-164.645z"/>
  <glyph unicode="&#xf032;" glyph-name="html" d="M261.589 67.991l-250 300c-15.452 18.542-15.452 45.476 0 64.018l250 300c17.677 21.215 49.207 24.08 70.42 6.402 21.214-17.679 24.08-49.206 6.402-70.42L115.085 400l223.326-267.991c17.678-21.214 14.812-52.741-6.402-70.42a49.797 49.797 0 00-31.982-11.59c-14.327 0-28.55 6.125-38.438 17.992zM938.41 732.01c-17.677 21.214-49.206 24.08-70.42 6.402s-24.08-49.206-6.402-70.42L1084.915 400 861.589 132.009c-17.678-21.214-14.812-52.741 6.402-70.42a49.79 49.79 0 0131.982-11.59c14.326 0 28.55 6.126 38.438 17.992l250 300c15.452 18.542 15.452 45.476 0 64.018l-250 300zM432.443-46.815a49.884 49.884 0 0117.548-3.198c20.244 0 39.297 12.386 46.824 32.458l300 800c9.697 25.856-3.404 54.676-29.26 64.372-25.856 9.698-54.676-3.405-64.372-29.26l-300-800c-9.697-25.856 3.404-54.676 29.26-64.372z"/>
  <glyph unicode="&#xf035;" glyph-name="stop" d="M1100 950H100c-27.614 0-50-22.386-50-50V-100c0-27.614 22.386-50 50-50h1000c27.614 0 50 22.386 50 50V900c0 27.614-22.386 50-50 50zM1050-50H150v900h900V-50z"/>
  <glyph unicode="&#xf036;" glyph-name="play" d="M73.714-142.532A49.974 49.974 0 01100.002-150a49.98 49.98 0 0122.359 5.278l1000 500a50 50 0 010 89.444l-1000 500A50 50 0 0150 900V-100a49.999 49.999 0 0123.714-42.532zM150 819.098L988.197 400 150-19.099V819.1z"/>
  <glyph unicode="&#xf037;" glyph-name="pause" d="M450 950H100c-27.614 0-50-22.386-50-50V-100c0-27.614 22.386-50 50-50h350c27.614 0 50 22.386 50 50V900c0 27.614-22.386 50-50 50zM400-50H150v900h250V-50zm700 1000H750c-27.614 0-50-22.386-50-50V-100c0-27.614 22.386-50 50-50h350c27.614 0 50 22.386 50 50V900c0 27.614-22.386 50-50 50zM1050-50H800v900h250V-50z"/>
  <glyph unicode="&#xf038;" glyph-name="clipboard" d="M1000 900H825v50c0 27.614-22.386 50-50 50H425c-27.614 0-50-22.386-50-50v-50H200c-27.614 0-50-22.386-50-50V-150c0-27.614 22.386-50 50-50h800c27.614 0 50 22.386 50 50V850c0 27.614-22.386 50-50 50zm-525 0h250V800H475v100zM950-100H250v900h125v-50c0-27.614 22.386-50 50-50h350c27.614 0 50 22.386 50 50v50h125v-900z"/>
  <glyph unicode="&#xf039;" glyph-name="close-circle" d="M835.355 564.645L670.711 400l164.644-164.645c19.527-19.526 19.527-51.184 0-70.71C825.592 154.88 812.795 150 800 150s-25.592 4.881-35.355 14.645L600 329.289 435.355 164.645C425.592 154.88 412.795 150 400 150s-25.592 4.881-35.355 14.645c-19.527 19.526-19.527 51.184 0 70.71L529.289 400 364.645 564.645c-19.527 19.526-19.527 51.184 0 70.71 19.527 19.527 51.183 19.527 70.71 0L600 470.711l164.645 164.644c19.527 19.527 51.183 19.527 70.71 0 19.527-19.526 19.527-51.184 0-70.71zM1200 400c0-80.978-15.871-159.56-47.172-233.563-30.222-71.453-73.477-135.614-128.563-190.701-55.087-55.087-119.25-98.342-190.703-128.565C759.56-184.129 680.979-200 600-200s-159.56 15.87-233.563 47.171c-71.453 30.223-135.615 73.478-190.702 128.565C120.649 30.823 77.394 94.984 47.172 166.437 15.872 240.442 0 319.023 0 400s15.871 159.56 47.172 233.563c30.222 71.453 73.477 135.614 128.563 190.701 55.087 55.087 119.25 98.342 190.702 128.564C440.44 984.13 519.023 1000 600 1000s159.56-15.87 233.563-47.172c71.453-30.222 135.615-73.477 190.702-128.564 55.086-55.087 98.341-119.248 128.563-190.702C1184.128 559.56 1200 480.978 1200 400zm-100 0c0 275.701-224.299 500-500 500S100 675.701 100 400s224.299-500 500-500 500 224.299 500 500z"/>
  <glyph unicode="&#xf03a;" glyph-name="code" d="M400.02-50c-13.918 0-27.763 5.777-37.649 17.075l-350 400c-16.495 18.851-16.495 46.999 0 65.85l350 400c18.184 20.782 49.772 22.888 70.554 4.704 20.782-18.184 22.888-49.772 4.704-70.554L116.439 400l321.19-367.075c18.184-20.782 16.078-52.37-4.704-70.554-9.484-8.298-21.22-12.372-32.904-12.372zm437.609 17.075l350 400c16.495 18.851 16.495 46.999 0 65.85l-350 400c-18.184 20.782-49.772 22.888-70.554 4.704-20.782-18.184-22.888-49.772-4.704-70.554L1083.561 400 762.371 32.925c-18.184-20.782-16.078-52.37 4.704-70.554 9.485-8.3 21.219-12.372 32.904-12.372 13.918 0 27.766 5.78 37.65 17.076z"/>
  <glyph unicode="&#xf03b;" glyph-name="desktop" d="M1150 850H50c-27.614 0-50-22.386-50-50V200c0-27.614 22.386-50 50-50h350V50H300c-27.614 0-50-22.386-50-50s22.386-50 50-50h600c27.614 0 50 22.386 50 50s-22.386 50-50 50H800v100h350c27.614 0 50 22.386 50 50v600c0 27.614-22.386 50-50 50zM700 50H500v100h200V50zm400 200H100v500h1000V250z"/>
  <glyph unicode="&#xf03c;" glyph-name="download" d="M1050-100c0-27.614-22.386-50-50-50H200c-27.614 0-50 22.386-50 50s22.386 50 50 50h800c27.614 0 50-22.386 50-50zM564.645 64.645C574.408 54.882 587.205 50 600 50s25.592 4.882 35.355 14.645l400 400c19.526 19.526 19.526 51.184 0 70.71-19.526 19.526-51.184 19.526-70.71 0L650 220.711V900c0 27.614-22.386 50-50 50s-50-22.386-50-50V220.71L235.355 535.356c-19.526 19.526-51.184 19.526-70.71 0-19.527-19.526-19.527-51.184 0-70.71l400-400z"/>
  <glyph unicode="&#xf03d;" glyph-name="exclamation-circle" d="M1152.829 633.562c-30.223 71.454-73.478 135.615-128.565 190.702-55.087 55.087-119.248 98.342-190.701 128.564C759.558 984.13 680.977 1000 600 1000s-159.56-15.87-233.563-47.172c-71.453-30.222-135.614-73.477-190.701-128.564-55.087-55.087-98.342-119.248-128.565-190.702C15.871 559.56 0 480.977 0 400s15.87-159.56 47.171-233.562C77.394 94.984 120.649 30.823 175.736-24.264c55.087-55.087 119.248-98.342 190.702-128.564C440.44-184.13 519.022-200 600-200s159.56 15.87 233.563 47.172c71.453 30.222 135.614 73.477 190.701 128.564 55.087 55.087 98.342 119.248 128.565 190.702C1184.129 240.44 1200 319.023 1200 400s-15.87 159.56-47.171 233.562zm-92.101-428.17c-25.18-59.533-61.24-113.01-107.175-158.945C907.618.511 854.141-35.547 794.607-60.728 732.997-86.788 667.521-100 600-100S467.003-86.787 405.393-60.728C345.859-35.548 292.382.512 246.447 46.447c-45.936 45.935-81.994 99.412-107.175 158.946C113.212 267.003 100 332.478 100 400s13.213 132.997 39.272 194.607c25.18 59.534 61.24 113.011 107.175 158.946 45.935 45.936 99.412 81.994 158.946 107.175C467.003 886.788 532.479 900 600 900s132.997-13.213 194.607-39.272c59.534-25.18 113.011-61.24 158.946-107.175 45.936-45.935 81.994-99.412 107.175-158.946C1086.788 532.997 1100 467.522 1100 400s-13.213-132.997-39.272-194.607zM650 700V350c0-27.614-22.386-50-50-50s-50 22.386-50 50v350c0 27.614 22.386 50 50 50s50-22.386 50-50zm0-550v-50c0-27.614-22.386-50-50-50s-50 22.386-50 50v50c0 27.614 22.386 50 50 50s50-22.386 50-50z"/>
  <glyph unicode="&#xf03e;" glyph-name="file" d="M1099.777 654.648c-.01.101-.013.203-.023.304a49.7 49.7 0 01-8.128 22.745l-.031.05a49.761 49.761 0 01-1.247 1.774c-.061.083-.119.17-.18.253a51.171 51.171 0 01-1.2 1.541c-.11.135-.21.273-.32.407a50.06 50.06 0 01-1.223 1.419c-.13.145-.251.296-.382.44a50.023 50.023 0 01-1.685 1.771l-.003.003-300 300a50.412 50.412 0 01-1.773 1.688c-.146.133-.3.257-.447.387a50.858 50.858 0 01-1.413 1.217c-.135.11-.275.214-.41.323a49.981 49.981 0 01-1.537 1.197c-.085.063-.172.12-.257.183a50.293 50.293 0 01-1.77 1.244l-.055.035a49.7 49.7 0 01-22.741 8.125c-.1.01-.203.014-.304.023a50.28 50.28 0 01-2.144.16A50.116 50.116 0 01750 1000H150c-27.614 0-50-22.386-50-50V-150c0-27.614 22.386-50 50-50h900c27.614 0 50 22.386 50 50v800c0 .837-.021 1.672-.063 2.504a50.011 50.011 0 01-.16 2.144zM800 829.29L929.29 700H800v129.29zM200-100V900h500V650c0-27.614 22.386-50 50-50h250v-700H200z"/>
  <glyph unicode="&#xf03f;" glyph-name="folder" d="M1137.5 750H520.71L389.018 881.694C377.212 893.5 361.517 900 344.822 900H62.5C28.038 900 0 871.963 0 837.5v-875C0-71.963 28.038-100 62.5-100h1075c34.462 0 62.5 28.037 62.5 62.5v725c0 34.463-28.038 62.5-62.5 62.5zM1100 0H100v800h229.29l131.693-131.694C472.788 656.5 488.483 650 505.178 650H1100V0z"/>
  <glyph unicode="&#xf040;" glyph-name="history" d="M1152.829 633.562C1184.129 559.56 1200 480.978 1200 400s-15.87-159.56-47.171-233.563c-30.223-71.453-73.478-135.614-128.565-190.701s-119.248-98.342-190.701-128.565C759.558-184.129 680.977-200 600-200c-150.754 0-294.878 56.133-405.822 158.058C83.924 59.35 15.832 196.951 2.444 345.513c-2.479 27.503 17.808 51.807 45.31 54.286 27.508 2.47 51.808-17.808 54.287-45.311C125.389 95.388 339.465-100 600-100c275.7 0 500 224.299 500 500S875.7 900 600 900c-159.12 0-305.86-74.62-399.446-199.074l65.57-65.57A50 50 0 00230.77 550H50c-27.614 0-50 22.386-50 50v180.77a50 50 0 0085.355 35.355l43.978-43.978A602.522 602.522 0 00284.48 910.43C379.091 969.027 488.196 1000 600 1000c80.978 0 159.56-15.87 233.563-47.172 71.453-30.222 135.614-73.477 190.701-128.564 55.087-55.087 98.342-119.248 128.565-190.702zM550 750c-27.614 0-50-22.386-50-50V361.539c0-1.96.125-3.888.344-5.788-1.686-14.638 3.072-29.878 14.3-41.106l200-200C724.409 104.88 737.205 100 750 100s25.592 4.881 35.355 14.645c19.526 19.526 19.526 51.184 0 70.71L600 370.711V700c0 27.614-22.386 50-50 50z"/>
  <glyph unicode="&#xf041;" glyph-name="kanban" d="M1111.27 900H88.73C39.803 900 0 860.196 0 811.27V-11.27C0-60.196 39.804-100 88.73-100h1022.54c48.926 0 88.73 39.804 88.73 88.73v822.54c0 48.926-39.804 88.73-88.73 88.73zM500 300H100v200h400V300zm0 500V600H100v200h400zM100 200h400V0H100v200zM1100 0H600v800h500V0z"/>
  <glyph unicode="&#xf042;" glyph-name="line-chart" d="M1150-100H50C22.386-100 0-77.614 0-50v900c0 27.614 22.386 50 50 50s50-22.386 50-50V0h1050c27.614 0 50-22.386 50-50s-22.386-50-50-50zM235.355 164.645L503.711 433l215.054-172.043c20.894-16.716 51.244-14.02 68.864 6.118l350 400c18.184 20.782 16.078 52.37-4.704 70.554-20.782 18.184-52.37 16.079-70.554-4.704L743.876 368.93 531.235 539.043c-19.895 15.916-48.575 14.328-66.59-3.688l-300-300c-19.527-19.526-19.527-51.184 0-70.71C174.408 154.882 187.204 150 200 150s25.592 4.882 35.355 14.645z"/>
  <glyph unicode="&#xf043;" glyph-name="magnify" d="M808.81 261.9c23.525 29.772 42.885 62.46 57.771 97.656C888.756 411.984 900 467.647 900 525s-11.244 113.016-33.419 165.444c-21.408 50.616-52.045 96.061-91.06 135.077s-84.461 69.652-135.077 91.06C588.016 938.756 532.353 950 475 950s-113.016-11.244-165.444-33.419c-50.616-21.408-96.061-52.045-135.077-91.06s-69.652-84.461-91.06-135.077C61.244 638.016 50 582.353 50 525s11.244-113.016 33.42-165.444c21.407-50.616 52.044-96.061 91.06-135.077s84.46-69.652 135.076-91.06C361.984 111.244 417.647 100 475 100s113.016 11.244 165.444 33.419c35.196 14.886 67.884 34.246 97.656 57.77l301.545-301.544c9.763-9.764 22.56-14.645 35.355-14.645s25.592 4.881 35.355 14.645c19.526 19.526 19.526 51.184 0 70.71L808.811 261.9zM475 200c-179.206 0-325 145.794-325 325s145.794 325 325 325 325-145.794 325-325-145.794-325-325-325z"/>
  <glyph unicode="&#xf044;" glyph-name="merge" d="M450 750c0 110.28-89.72 200-200 200S50 860.28 50 750c0-93.022 63.836-171.413 150-193.672V243.672C113.836 221.413 50 143.022 50 50c0-110.28 89.72-200 200-200S450-60.28 450 50c0 93.022-63.836 171.413-150 193.672v312.656C386.164 578.587 450 656.978 450 750zm-300 0c0 55.14 44.86 100 100 100s100-44.86 100-100-44.86-100-100-100-100 44.86-100 100zM350 50c0-55.14-44.86-100-100-100S150-5.14 150 50s44.86 100 100 100 100-44.86 100-100zm650 193.672v387.306c0 43.933-16.901 85.809-47.59 117.914C920.903 781.85 879.145 800 834.823 800H672.332l63.468 65.095c19.277 19.772 18.877 51.428-.895 70.705s-51.426 18.878-70.705-.895l-150-153.846a50 50 0 01.906-70.717l150-146.154c9.722-9.471 22.311-14.188 34.89-14.188 13.014 0 26.017 5.05 35.816 15.107 19.27 19.778 18.859 51.434-.918 70.705L669.016 700h165.808c16.755 0 32.842-7.176 45.298-20.207C892.755 666.578 900 648.786 900 630.978V243.672C813.836 221.413 750 143.022 750 50c0-110.28 89.72-200 200-200s200 89.72 200 200c0 93.022-63.836 171.413-150 193.672zM950-50C894.86-50 850-5.14 850 50s44.86 100 100 100 100-44.86 100-100-44.86-100-100-100z"/>
  <glyph unicode="&#xf045;" glyph-name="play-circle" d="M600-200c-80.978 0-159.56 15.87-233.563 47.172-71.453 30.222-135.615 73.477-190.702 128.564C120.649 30.823 77.394 94.984 47.172 166.438 15.872 240.44 0 319.023 0 400s15.871 159.56 47.172 233.562c30.222 71.454 73.477 135.615 128.563 190.702 55.087 55.087 119.25 98.342 190.702 128.564C440.44 984.13 519.023 1000 600 1000s159.56-15.87 233.563-47.172c71.453-30.222 135.615-73.477 190.702-128.564 55.086-55.087 98.341-119.248 128.563-190.702C1184.128 559.56 1200 480.977 1200 400s-15.871-159.56-47.172-233.562c-30.222-71.454-73.477-135.615-128.563-190.702-55.087-55.087-119.25-98.342-190.703-128.564C759.56-184.13 680.979-200 600-200zm0 1100c-67.521 0-132.997-13.213-194.607-39.272-59.534-25.18-113.011-61.24-158.947-107.175-45.934-45.935-81.994-99.412-107.175-158.946C113.213 532.997 100 467.522 100 400s13.213-132.997 39.271-194.607c25.181-59.534 61.24-113.011 107.175-158.946C292.382.511 345.859-35.547 405.393-60.728 467.003-86.788 532.479-100 600-100s132.997 13.213 194.607 39.272C854.141-35.548 907.618.512 953.554 46.447c45.934 45.935 81.994 99.412 107.175 158.946C1086.787 267.003 1100 332.478 1100 400s-13.213 132.997-39.271 194.607c-25.181 59.534-61.24 113.011-107.175 158.946-45.936 45.936-99.413 81.994-158.947 107.175C732.997 886.788 667.521 900 600 900zM500 150a50.001 50.001 0 00-50 50v400a50.001 50.001 0 0074.807 43.412l350-200a50 50 0 000-86.824l-350-200A49.968 49.968 0 00500 150zm50 363.841V286.16L749.222 400 550 513.841z"/>
  <glyph unicode="&#xf046;" glyph-name="question-circle" d="M600-200c-80.978 0-159.56 15.87-233.563 47.171-71.453 30.223-135.615 73.478-190.702 128.565C120.649 30.823 77.394 94.984 47.172 166.437 15.872 240.442 0 319.023 0 400s15.871 159.56 47.172 233.563c30.222 71.453 73.477 135.614 128.563 190.701 55.087 55.087 119.25 98.342 190.702 128.565C440.44 984.129 519.023 1000 600 1000s159.56-15.87 233.563-47.171c71.453-30.223 135.615-73.478 190.702-128.565 55.086-55.087 98.341-119.248 128.563-190.702C1184.128 559.56 1200 480.978 1200 400s-15.871-159.56-47.172-233.563c-30.222-71.453-73.477-135.614-128.563-190.701-55.087-55.087-119.25-98.342-190.703-128.565C759.56-184.129 680.979-200 600-200zm0 1100c-67.521 0-132.997-13.213-194.607-39.272-59.534-25.18-113.011-61.24-158.947-107.175-45.934-45.935-81.994-99.412-107.175-158.946C113.213 532.997 100 467.521 100 400s13.213-132.997 39.271-194.607c25.181-59.534 61.24-113.011 107.175-158.946C292.382.511 345.859-35.547 405.393-60.728 467.003-86.788 532.479-100 600-100s132.997 13.213 194.607 39.272C854.141-35.548 907.618.512 953.554 46.447c45.934 45.935 81.994 99.412 107.175 158.946C1086.787 267.003 1100 332.479 1100 400s-13.213 132.997-39.271 194.607c-25.181 59.534-61.24 113.011-107.175 158.946-45.936 45.936-99.413 81.994-158.947 107.175C732.997 886.788 667.521 900 600 900zm50-600c0 10.75 10.95 24.226 20.137 33.638 18.072 18.517 44.42 37.202 67.666 53.687C807.07 436.446 850 484.975 850 575c0 61.173-24.327 117.653-68.499 159.037C735.439 777.19 672.678 800 600 800c-35.451 0-69.027-5.2-99.796-15.457-29.703-9.9-56.195-24.274-78.741-42.72C376.047 704.665 350 652.973 350 600c0-27.614 22.386-50 50-50s50 22.386 50 50c0 22.856 12.68 46.339 34.787 64.427C512.824 687.367 553.741 700 600 700c46.82 0 85.94-13.465 113.13-38.94C736.907 638.787 750 608.224 750 575c0-41.646-10.582-63.937-70.043-106.104C622.057 427.836 550 376.736 550 300c0-27.614 22.386-50 50-50s50 22.386 50 50zm0-250v50c0 27.614-22.386 50-50 50s-50-22.386-50-50V50c0-27.614 22.386-50 50-50s50 22.386 50 50z"/>
  <glyph unicode="&#xf047;" glyph-name="shield" d="M600-200c-3.284 0-6.57.324-9.806.971-66.914 13.383-132.011 40.702-193.482 81.2C339.146-79.905 287.15-32.093 242.168 24.279c-44.179 55.364-79.054 115.752-103.657 179.488C112.957 269.966 100 335.988 100 400v450c0 27.614 22.386 50 50 50 67.335 0 174.357 8.173 301.832 47.11 76.984 23.515 125.38 47.4 125.86 47.638 14.114 7.056 30.57 7.064 44.668-.027.428-.212 48.824-24.096 125.808-47.61C818.528 925.618 928.008 900 1050 900c27.614 0 50-22.386 50-50V400c0-64.012-12.957-130.034-38.51-196.233-24.604-63.736-59.48-124.124-103.658-179.488-44.982-56.372-96.978-104.184-154.544-142.108-61.47-40.498-126.568-67.817-193.482-81.2A49.997 49.997 0 00600-200zM200 801.266V400c0-103.302 43.86-217.514 120.332-313.349C358.747 38.51 402.954-2.191 451.726-34.322 499.334-65.687 549.169-87.379 600-98.882c50.831 11.503 100.666 33.195 148.274 64.56 48.772 32.13 92.979 72.832 131.394 120.973C956.141 182.486 1000 296.698 1000 400v401.266c-114.847 5.758-215.716 30.102-283.454 50.945C663.64 868.49 623.26 884.821 600 894.99c-23.26-10.168-63.64-26.5-116.546-42.779-67.738-20.843-168.607-45.187-283.454-50.945zM650 350v350c0 27.614-22.386 50-50 50s-50-22.386-50-50V350c0-27.614 22.386-50 50-50s50 22.386 50 50zm0-250v50c0 27.614-22.386 50-50 50s-50-22.386-50-50v-50c0-27.614 22.386-50 50-50s50 22.386 50 50z"/>
  <glyph unicode="&#xf048;" glyph-name="star" d="M906.2-150.016c-11.893 0-23.868 2.28-35.334 6.914l-2.313.936L600-1.034 331.447-142.166l-2.313-.936c-30.23-12.22-64.029-8.072-90.41 11.094-26.38 19.166-40.769 50.028-38.49 82.556l.147 2.086.32 2.067 48.554 313.713L25.124 449.549l-3.108 3.703c-20.964 24.976-27.464 58.4-17.388 89.413 10.076 31.012 34.981 54.233 66.622 62.117l2.33.58 288.451 43.076 158.305 257.395C537.61 933.489 567.393 950 600 950s62.389-16.511 79.664-44.167l.183-.295 158.122-257.1 288.452-43.075 2.329-.581c31.64-7.884 56.546-31.105 66.622-62.117 10.076-31.012 3.576-64.437-17.388-89.413l-3.108-3.703-224.13-181.135 48.873-315.78.147-2.086c2.279-32.528-12.11-63.39-38.49-82.556-16.376-11.897-35.613-18.007-55.077-18.008zM600 100.036c11.926 0 23.85-2.294 35.2-6.882l2.314-.935 260.499-136.9-47.637 307.787-.147 2.087c-1.71 24.424 6.016 48.202 21.757 66.954l3.108 3.702 215.077 173.818-276.136 41.236-2.33.58c-23.757 5.92-43.983 20.615-56.954 41.38l-.184.296L600 844.479 445.249 592.864c-12.97-20.766-33.197-35.461-56.954-41.38l-2.33-.58-276.136-41.237 215.077-173.818 3.108-3.702c15.74-18.752 23.467-42.53 21.757-66.954l-.147-2.087-.32-2.067-47.317-305.72 260.5 136.9 2.313.935c11.35 4.588 23.274 6.882 35.2 6.882z"/>
  <glyph unicode="&#xf049;" glyph-name="tag" d="M1128.66 408.658L609.283 928.033C595.12 942.2 576.284 950 556.251 950H125c-41.355 0-75-33.645-75-75V443.75c0-20.034 7.801-38.868 21.967-53.033L591.34-128.66c14.622-14.621 33.827-21.932 53.034-21.932s38.411 7.31 53.033 21.932l431.251 431.251c14.166 14.166 21.967 33 21.967 53.033 0 20.034-7.801 38.868-21.967 53.033zM644.374-40.27L150 454.104V850h395.896l494.375-494.375L644.375-40.271zM250 575c0-96.495 78.504-175 175-175s175 78.505 175 175-78.504 175-175 175-175-78.505-175-175zm250 0c0-41.355-33.645-75-75-75s-75 33.645-75 75 33.645 75 75 75 75-33.645 75-75z"/>
  <glyph unicode="&#xf04a;" glyph-name="terminal" d="M1150 850H50c-27.614 0-50-22.386-50-50V0c0-27.614 22.386-50 50-50h1100c27.614 0 50 22.386 50 50v800c0 27.614-22.386 50-50 50zm-50-800H100v700h1000V50zM210.957 181.235L385.969 400 210.957 618.765c-17.25 21.563-13.755 53.028 7.809 70.278 21.563 17.251 53.027 13.754 70.277-7.808l200-250c14.61-18.261 14.61-44.209 0-62.47l-200-250c-9.875-12.344-24.408-18.767-39.075-18.767a49.786 49.786 0 00-31.202 10.959c-21.564 17.25-25.06 48.715-7.809 70.278zM500 200c0 27.614 22.386 50 50 50h400c27.614 0 50-22.386 50-50s-22.386-50-50-50H550c-27.614 0-50 22.386-50 50z"/>
  <glyph unicode="&#xf04b;" glyph-name="trashcan" d="M1100 800H900v113.333c0 47.789-38.451 86.667-85.714 86.667H385.714C338.451 1000 300 961.122 300 913.333V800H100c-27.614 0-50-22.386-50-50s22.386-50 50-50h50V-50c0-82.71 67.29-150 150-150h600c82.71 0 150 67.29 150 150v750h50c27.614 0 50 22.386 50 50s-22.386 50-50 50zM400 900h400V800H400v100zM950-50c0-27.57-22.43-50-50-50H300c-27.57 0-50 22.43-50 50v750h700V-50zM450 550V50c0-27.614-22.386-50-50-50s-50 22.386-50 50v500c0 27.614 22.386 50 50 50s50-22.386 50-50zm400 0V50c0-27.614-22.386-50-50-50s-50 22.386-50 50v500c0 27.614 22.386 50 50 50s50-22.386 50-50zm-200 0V50c0-27.614-22.386-50-50-50s-50 22.386-50 50v500c0 27.614 22.386 50 50 50s50-22.386 50-50z"/>
  <glyph unicode="&#xf04c;" glyph-name="unlink" d="M824.998 300c-12.716 0-25.436 4.82-35.185 14.477-19.619 19.433-19.77 51.09-.336 70.71l218.646 220.737c27.005 27.005 41.877 62.909 41.877 101.1s-14.872 74.094-41.877 101.099c-55.746 55.746-146.453 55.746-202.2 0l-.19-.19-195.568-193.478c-19.632-19.42-51.289-19.25-70.71.38-19.42 19.63-19.25 51.289.38 70.71l195.463 193.373C781.18 924.758 842.162 950 907.023 950c64.902 0 125.918-25.274 171.811-71.166 45.893-45.892 71.166-106.909 71.166-171.81 0-64.858-25.24-125.837-71.074-171.719L860.523 314.813c-9.777-9.87-22.649-14.813-35.525-14.813zM464.683-78.938l195.482 193.393c19.63 19.421 19.8 51.08.38 70.71-19.421 19.63-51.08 19.8-70.71.38L394.267-7.934l-.19-.189c-55.747-55.746-146.454-55.746-202.2 0C164.872 18.882 150 54.787 150 92.977s14.872 74.094 41.877 101.099l218.646 220.737c19.433 19.62 19.283 51.277-.336 70.71-19.62 19.434-51.278 19.282-70.71-.336l-218.38-220.47C75.248 218.834 50 157.848 50 92.978 50 28.076 75.273-32.94 121.166-78.833c45.893-45.892 106.91-71.166 171.81-71.166 64.854 0 125.826 25.233 171.707 71.062zm-79.328 743.583c19.527 19.526 19.527 51.184 0 70.71l-100 100c-19.527 19.527-51.183 19.527-70.71 0-19.527-19.526-19.527-51.184 0-70.71l100-100C324.408 654.88 337.205 650 350 650s25.592 4.881 35.355 14.645zM300 550c0 27.614-22.386 50-50 50h-50c-27.614 0-50-22.386-50-50s22.386-50 50-50h50c27.614 0 50 22.386 50 50zm250 248.077V850c0 27.614-22.386 50-50 50s-50-22.386-50-50v-51.923c0-27.614 22.386-50 50-50s50 22.386 50 50zM985.355-35.355c19.527 19.526 19.527 51.184 0 70.71l-100 100c-19.527 19.527-51.183 19.527-70.71 0-19.527-19.526-19.527-51.184 0-70.71l100-100C924.408-45.12 937.205-50 950-50s25.592 4.881 35.355 14.645zM750-50V1.923c0 27.614-22.386 50-50 50s-50-22.386-50-50V-50c0-27.614 22.386-50 50-50s50 22.386 50 50zm300 300c0 27.614-22.386 50-50 50h-50c-27.614 0-50-22.386-50-50s22.386-50 50-50h50c27.614 0 50 22.386 50 50z"/>
  <glyph unicode="&#xf04d;" glyph-name="zip" d="M700 400c27.614 0 50 22.386 50 50s-22.386 50-50 50H500c-27.614 0-50-22.386-50-50s22.386-50 50-50h50v-60h-50c-27.614 0-50-22.386-50-50V50c0-27.614 22.386-50 50-50h200c27.614 0 50 22.386 50 50v240c0 27.614-22.386 50-50 50h-50v60h50zm-50-300H550v140h100V100zm400 550c0 .165-.01.327-.012.49a49.979 49.979 0 01-.051 2.01 50.262 50.262 0 01-.171 2.299l-.012.148a49.699 49.699 0 01-9.425 24.6c-.054.074-.105.15-.16.224a50.436 50.436 0 01-1.227 1.577c-.099.122-.192.249-.292.37-.41.5-.836.986-1.265 1.469-.115.13-.223.264-.34.392a50.322 50.322 0 01-1.695 1.781L735.355 985.355l-.003.003a50.13 50.13 0 01-1.77 1.685c-.145.13-.296.253-.441.382a50.056 50.056 0 01-1.42 1.222c-.133.11-.271.212-.406.32a51.326 51.326 0 01-1.54 1.2c-.084.062-.17.12-.254.18a49.65 49.65 0 01-1.775 1.248l-.049.031a49.7 49.7 0 01-22.745 8.128c-.1.01-.203.014-.304.023a50.011 50.011 0 01-2.144.16A49.688 49.688 0 01700 1000H200c-27.615 0-50-22.386-50-50V-150c0-27.614 22.385-50 50-50h800c27.614 0 50 22.386 50 50v800zM750 829.29L879.29 700H750v129.29zM250-100v500h100c27.614 0 50 22.386 50 50s-22.386 50-50 50H250v400h400V650c0-27.614 22.386-50 50-50h250V500H850c-27.614 0-50-22.386-50-50s22.386-50 50-50h100v-500H250z"/>
  <glyph unicode="&#xf04e;" glyph-name="trophy" d="M1100 900H950v50c0 27.614-22.386 50-50 50H300c-27.614 0-50-22.386-50-50v-50H100c-27.614 0-50-22.386-50-50V650c0-52.201 28.428-113.65 76.045-164.376 36.926-39.336 80.29-66.535 123.955-78.595v-13.46c0-78.416 30.537-152.136 85.984-207.585 43.645-43.645 98.616-71.842 158.282-81.875L449.733-100H350c-27.614 0-50-22.386-50-50s22.386-50 50-50h500c27.614 0 50 22.386 50 50s-22.386 50-50 50h-99.733l-44.533 204.11c59.666 10.032 114.637 38.229 158.282 81.874C919.463 241.433 950 315.154 950 393.568v12.787c44.07 11.064 87.17 36.228 123.112 72.697C1121.975 528.632 1150 590.94 1150 650v200c0 27.614-22.386 50-50 50zM198.955 554.065C165.137 590.091 150 628.207 150 650v150h100V514.116c-17.49 9.29-35.03 22.888-51.045 39.95zM552.085-100l43.637 200h8.556l43.637-200h-95.83zM850 393.568C850 286.834 763.166 200 656.431 200H543.57C436.834 200 350 286.834 350 393.568V900h500V393.568zM1050 650c0-32.521-17.986-70.187-48.112-100.754-15.796-16.028-33.67-28.697-51.888-37.17V800h100V650z"/>
  <glyph unicode="&#xf04f;" glyph-name="user" d="M200-200h800c27.614 0 50 22.386 50 50V68.602c0 141.845-66.543 274.735-179.065 359.798 21.171 25.823 38.454 54.41 51.54 85.349C940.739 556.931 950 602.772 950 650s-9.26 93.07-27.525 136.251c-17.631 41.684-42.86 79.11-74.988 111.236s-69.552 57.357-111.236 74.988C693.069 990.739 647.228 1000 600 1000s-93.07-9.26-136.251-27.525c-41.684-17.631-79.11-42.86-111.236-74.988s-57.357-69.552-74.988-111.236C259.261 743.069 250 697.228 250 650s9.26-93.07 27.525-136.251c13.09-30.944 30.374-59.536 51.551-85.361-47.038-35.59-86.941-80.237-116.988-131.278C171.47 228.113 150 149.097 150 68.602V-150c0-27.614 22.386-50 50-50zM600 900c137.85 0 250-112.15 250-250S737.85 400 600 400 350 512.15 350 650s112.15 250 250 250zM250 68.602c0 116.683 58.682 226.044 154.623 290.931 18.56-12.505 38.313-23.204 59.126-32.008C506.931 309.261 552.772 300 600 300s93.07 9.26 136.251 27.525a348.938 348.938 0 0159.172 32.038c.401-.29.797-.588 1.209-.87C892.666 293.196 950 184.751 950 68.602V-100H250V68.602z"/>
  <glyph unicode="&#xf050;" glyph-name="smiley" d="M175.735-24.265c55.087-55.086 119.25-98.341 190.702-128.563C440.44-184.128 519.023-200 600-200s159.56 15.871 233.563 47.172c71.453 30.222 135.615 73.477 190.702 128.563 55.086 55.087 98.341 119.25 128.563 190.703C1184.128 240.44 1200 319.021 1200 400s-15.871 159.56-47.172 233.563c-30.222 71.453-73.477 135.615-128.563 190.702-55.087 55.086-119.25 98.341-190.703 128.563C759.56 984.128 680.978 1000 600 1000s-159.56-15.871-233.563-47.172c-71.453-30.222-135.615-73.477-190.702-128.563-55.086-55.087-98.341-119.25-128.563-190.702C15.872 559.56 0 480.977 0 400s15.871-159.56 47.172-233.563C77.394 94.984 120.649 30.822 175.735-24.265zM600 900c275.701 0 500-224.299 500-500S875.701-100 600-100 100 124.299 100 400s224.299 500 500 500zM305.278 177.64c-12.35 24.698-2.338 54.732 22.362 67.082 24.698 12.35 54.731 2.338 67.082-22.362 2.658-5.317 21.358-24.94 70.722-44.686C508.766 160.346 559.067 150 600 150s91.234 10.346 134.556 27.674c49.364 19.746 68.064 39.369 70.722 44.686 12.35 24.7 42.382 34.71 67.082 22.362 24.7-12.35 34.711-42.384 22.362-67.082-22.525-45.048-79.335-75.337-123.028-92.814C716.364 62.693 653.784 50 600 50S483.637 62.693 428.306 84.826c-43.693 17.477-100.503 47.766-123.028 92.814zM350 450v150c0 27.614 22.386 50 50 50s50-22.386 50-50V450c0-27.614-22.386-50-50-50s-50 22.386-50 50zm400 0v150c0 27.614 22.386 50 50 50s50-22.386 50-50V450c0-27.614-22.386-50-50-50s-50 22.386-50 50z"/>
  <glyph unicode="&#xf051;" glyph-name="radiobox-on" d="M1024.264 824.265c-55.087 55.085-119.248 98.341-190.701 128.563C759.558 984.128 680.977 1000 600 1000s-159.56-15.871-233.563-47.172c-71.453-30.222-135.614-73.477-190.701-128.563-55.087-55.087-98.342-119.25-128.564-190.702C15.87 559.56 0 480.977 0 400s15.87-159.56 47.172-233.563C77.394 94.984 120.649 30.822 175.736-24.265c55.087-55.086 119.248-98.341 190.702-128.563C440.44-184.128 519.022-200 600-200s159.56 15.871 233.563 47.172c71.453 30.222 135.614 73.477 190.701 128.563 55.087 55.087 98.342 119.25 128.565 190.703C1184.129 240.44 1200 319.021 1200 400s-15.87 159.56-47.171 233.563c-30.223 71.453-73.478 135.615-128.565 190.702zM600-100c-275.701 0-500 224.299-500 500s224.299 500 500 500 500-224.299 500-500-224.299-500-500-500zm247.487 747.487c-32.127 32.127-69.552 57.357-111.236 74.988C693.069 740.739 647.228 750 600 750s-93.07-9.26-136.251-27.525c-41.684-17.631-79.11-42.86-111.236-74.988-32.128-32.127-57.357-69.552-74.988-111.236C259.261 493.069 250 447.228 250 400s9.26-93.07 27.525-136.251c17.63-41.684 42.86-79.11 74.988-111.236 32.127-32.127 69.552-57.357 111.236-74.988C506.931 59.261 552.772 50 600 50s93.07 9.26 136.251 27.525c41.684 17.631 79.11 42.86 111.236 74.988 32.128 32.127 57.357 69.552 74.988 111.236C940.739 306.931 950 352.772 950 400s-9.26 93.07-27.525 136.251c-17.63 41.684-42.86 79.11-74.988 111.236zM600 150c-137.85 0-250 112.15-250 250s112.15 250 250 250 250-112.15 250-250-112.15-250-250-250z"/>
  <glyph unicode="&#xf052;" glyph-name="radiobox-off" d="M1024.264 824.265c-55.087 55.085-119.248 98.341-190.702 128.563C759.56 984.128 680.977 1000 600 1000s-159.56-15.871-233.562-47.172c-71.454-30.222-135.615-73.477-190.702-128.563-55.087-55.087-98.342-119.25-128.564-190.702C15.87 559.56 0 480.977 0 400s15.87-159.56 47.172-233.563C77.394 94.984 120.649 30.822 175.736-24.265c55.087-55.086 119.248-98.341 190.702-128.563C440.44-184.128 519.023-200 600-200s159.56 15.871 233.562 47.172c71.454 30.222 135.615 73.477 190.702 128.563 55.087 55.087 98.342 119.25 128.564 190.703C1184.13 240.44 1200 319.021 1200 400s-15.87 159.56-47.172 233.563c-30.222 71.453-73.477 135.615-128.564 190.702zM600-100c-275.701 0-500 224.299-500 500s224.299 500 500 500 500-224.299 500-500-224.299-500-500-500z"/>
  <glyph unicode="&#xf053;" glyph-name="checkbox-on" d="M1100 950H100c-27.614 0-50-22.386-50-50V-100c0-27.614 22.386-50 50-50h1000c27.614 0 50 22.386 50 50V900c0 27.614-22.386 50-50 50zM1050-50H150v900h900V-50zM350 100h500c27.614 0 50 22.386 50 50v500c0 27.614-22.386 50-50 50H350c-27.614 0-50-22.386-50-50V150c0-27.614 22.386-50 50-50zm50 500h400V200H400v400z"/>
  <glyph unicode="&#xf054;" glyph-name="checkbox-off" d="M1100 950H100c-27.614 0-50-22.386-50-50V-100c0-27.614 22.386-50 50-50h1000c27.614 0 50 22.386 50 50V900c0 27.614-22.386 50-50 50zM1050-50H150v900h900V-50z"/>
  <glyph unicode="&#xf055;" glyph-name="redo" d="M1200 400c0-80.978-15.87-159.56-47.171-233.563-30.223-71.453-73.478-135.615-128.565-190.702-55.087-55.086-119.248-98.341-190.701-128.563C759.558-184.128 680.977-200 600-200s-159.56 15.871-233.563 47.172c-71.453 30.222-135.614 73.477-190.701 128.563-55.087 55.087-98.342 119.25-128.565 190.703C15.871 240.44 0 319.022 0 400s15.87 159.56 47.171 233.563c30.223 71.453 73.478 135.615 128.565 190.702 55.087 55.086 119.248 98.341 190.702 128.563C440.44 984.128 519.022 1000 600 1000c119.054 0 233.392-34.992 330.306-98.983l84.339 84.338A50.001 50.001 0 001100 950V700c0-27.614-22.386-50-50-50H800a50 50 0 00-46.194 30.866 50 50 0 0010.839 54.49l93.161 93.162C780.915 874.837 692.15 900 600 900c-275.701 0-500-224.299-500-500s224.299-500 500-500 500 224.299 500 500c0 27.614 22.386 50 50 50s50-22.386 50-50z"/>
  <glyph unicode="&#xf056;" glyph-name="alt" d="M1150-50H850a50 50 0 00-42.4 23.5L322.288 750H50c-27.614 0-50 22.386-50 50s22.386 50 50 50h300a50 50 0 0042.4-23.5L877.712 50H1150c27.614 0 50-22.386 50-50s-22.386-50-50-50zm50 850c0 27.614-22.386 50-50 50H700c-27.614 0-50-22.386-50-50s22.386-50 50-50h450c27.614 0 50 22.386 50 50z"/>
  <glyph unicode="&#xf057;" glyph-name="cmd" d="M950-150c-110.28 0-200 89.72-200 200v100H450V50c0-110.28-89.72-200-200-200S50-60.28 50 50s89.72 200 200 200h100v300H250c-110.28 0-200 89.72-200 200s89.72 200 200 200 200-89.72 200-200V650h300v100c0 110.28 89.72 200 200 200s200-89.72 200-200-89.72-200-200-200H850V250h100c110.28 0 200-89.72 200-200s-89.72-200-200-200zM850 150V50c0-55.14 44.86-100 100-100s100 44.86 100 100-44.86 100-100 100H850zm-600 0c-55.14 0-100-44.86-100-100S194.86-50 250-50 350-5.14 350 50v100H250zm200 100h300v300H450V250zm400 400h100c55.14 0 100 44.86 100 100s-44.86 100-100 100-100-44.86-100-100V650zM250 850c-55.14 0-100-44.86-100-100s44.86-100 100-100h100v100c0 55.14-44.86 100-100 100z"/>
  <glyph unicode="&#xf058;" glyph-name="shift" d="M850-200H350c-27.614 0-50 22.386-50 50v450H50a50 50 0 00-36.857 83.786l550 600a50 50 0 0073.714 0l550-600A50 50 0 001150 300H900v-450c0-27.614-22.386-50-50-50zM400-100h400v450c0 27.614 22.386 50 50 50h186.338L600 876.005 163.662 400H350c27.614 0 50-22.386 50-50v-450z"/>
  <glyph unicode="&#xf059;" glyph-name="info-circle" d="M600-200c-80.978 0-159.56 15.871-233.563 47.172-71.453 30.222-135.614 73.477-190.701 128.563-55.087 55.087-98.342 119.25-128.565 190.703C15.871 240.44 0 319.022 0 400s15.87 159.56 47.171 233.563c30.223 71.453 73.478 135.615 128.565 190.702 55.087 55.086 119.248 98.341 190.702 128.563C440.44 984.128 519.022 1000 600 1000s159.56-15.871 233.563-47.172c71.453-30.222 135.614-73.477 190.701-128.563 55.087-55.087 98.342-119.25 128.565-190.702C1184.129 559.56 1200 480.977 1200 400s-15.87-159.56-47.171-233.563c-30.223-71.453-73.478-135.615-128.565-190.702-55.087-55.086-119.248-98.341-190.701-128.563C759.558-184.128 680.977-200 600-200zm0 1100c-67.521 0-132.997-13.213-194.607-39.271-59.534-25.181-113.011-61.24-158.946-107.175-45.936-45.936-81.994-99.413-107.175-158.947C113.212 532.997 100 467.521 100 400s13.213-132.997 39.272-194.607c25.18-59.534 61.24-113.011 107.175-158.947C292.382.512 345.859-35.548 405.393-60.729 467.003-86.787 532.479-100 600-100s132.997 13.213 194.607 39.271C854.141-35.548 907.618.511 953.553 46.446c45.936 45.936 81.994 99.413 107.175 158.947C1086.788 267.003 1100 332.479 1100 400s-13.213 132.997-39.272 194.607c-25.18 59.534-61.24 113.011-107.175 158.947-45.935 45.934-99.412 81.994-158.946 107.175C732.997 886.787 667.521 900 600 900zm50-800v350c0 27.614-22.386 50-50 50s-50-22.386-50-50V100c0-27.614 22.386-50 50-50s50 22.386 50 50zm0 550v50c0 27.614-22.386 50-50 50s-50-22.386-50-50v-50c0-27.614 22.386-50 50-50s50 22.386 50 50z"/>
  <glyph unicode="&#xf05a;" glyph-name="caret-right" d="M349.99-200.001A50 50 0 00300-150V950a50 50 0 0083.786 36.857l600-550a50 50 0 000-73.714l-600-550a49.988 49.988 0 00-33.796-13.144zM400 836.338V-36.338L876.005 400 400 836.338z"/>
  <glyph unicode="&#xf05b;" glyph-name="caret-left" d="M816.214-186.857l-600 550a50 50 0 000 73.715l600 550A50 50 0 00900 950V-150a50 50 0 00-83.786-36.858zM323.995 400L800-36.338v872.676L323.995 400z"/>
  <glyph unicode="&#xf05c;" glyph-name="caret-up" d="M1200.002 149.99A50 50 0 001150 100H50a50 50 0 00-36.858 83.786l550 600a50 50 0 0073.715 0l550-600a49.988 49.988 0 0013.144-33.796zM163.662 200h872.677L600 676.005 163.663 200z"/>
  <glyph unicode="&#xf05d;" glyph-name="caret-down" d="M-.002 650.01A50 50 0 0050 700h1100a50 50 0 0036.858-83.786l-550-600a50 50 0 00-73.715 0l-550 600A49.988 49.988 0 00-.002 650.01zM1036.338 600H163.66L600 123.995 1036.337 600z"/>
  <glyph unicode="&#xf05e;" glyph-name="sad" d="M600-200c-80.978 0-159.56 15.871-233.563 47.172-71.453 30.222-135.615 73.477-190.702 128.563-55.086 55.087-98.341 119.25-128.563 190.703C15.872 240.44 0 319.022 0 400s15.871 159.56 47.172 233.563c30.222 71.453 73.477 135.615 128.563 190.702 55.087 55.086 119.25 98.341 190.702 128.563C440.44 984.128 519.023 1000 600 1000s159.56-15.871 233.563-47.172c71.453-30.222 135.615-73.477 190.702-128.563 55.086-55.087 98.341-119.25 128.563-190.702C1184.128 559.56 1200 480.977 1200 400s-15.871-159.56-47.172-233.563c-30.222-71.453-73.477-135.615-128.563-190.702-55.087-55.086-119.25-98.341-190.703-128.563C759.56-184.128 680.979-200 600-200zm0 1100c-67.521 0-132.997-13.213-194.607-39.271-59.534-25.181-113.011-61.24-158.947-107.175-45.934-45.936-81.994-99.413-107.175-158.947C113.213 532.997 100 467.521 100 400s13.213-132.997 39.271-194.607c25.181-59.534 61.24-113.011 107.175-158.947C292.382.512 345.859-35.548 405.393-60.729 467.003-86.787 532.479-100 600-100s132.997 13.213 194.607 39.271C854.141-35.548 907.618.511 953.554 46.446c45.934 45.936 81.994 99.413 107.175 158.947C1086.787 267.003 1100 332.479 1100 400s-13.213 132.997-39.271 194.607c-25.181 59.534-61.24 113.011-107.175 158.947-45.936 45.934-99.413 81.994-158.947 107.175C732.997 886.787 667.521 900 600 900zm272.36-794.722c24.7 12.35 34.711 42.384 22.362 67.082-12.433 24.865-43.868 61.15-123.028 92.814C716.364 287.307 653.784 300 600 300s-116.363-12.693-171.694-34.826c-79.16-31.664-110.595-67.95-123.028-92.814-12.35-24.698-2.338-54.732 22.362-67.082 24.698-12.347 54.731-2.338 67.082 22.362 2.658 5.317 21.358 24.94 70.722 44.686C508.766 189.654 559.067 200 600 200s91.234-10.346 134.556-27.674c49.364-19.746 68.064-39.369 70.722-44.686 8.762-17.523 26.418-27.65 44.761-27.65a49.808 49.808 0 0122.321 5.288zM450 450v150c0 27.614-22.386 50-50 50s-50-22.386-50-50V450c0-27.614 22.386-50 50-50s50 22.386 50 50zm400 0v150c0 27.614-22.386 50-50 50s-50-22.386-50-50V450c0-27.614 22.386-50 50-50s50 22.386 50 50z"/>
  <glyph unicode="&#xf05f;" glyph-name="radiobox-semi" d="M600-200c-80.977 0-159.56 15.871-233.562 47.172-71.454 30.222-135.615 73.477-190.702 128.563-55.087 55.087-98.342 119.25-128.564 190.703C15.87 240.44 0 319.022 0 400s15.87 159.56 47.172 233.563c30.222 71.453 73.477 135.615 128.564 190.702 55.087 55.086 119.248 98.341 190.702 128.563C440.44 984.128 519.023 1000 600 1000s159.56-15.871 233.562-47.172c71.454-30.222 135.615-73.477 190.702-128.563 55.087-55.087 98.342-119.25 128.564-190.702C1184.13 559.56 1200 480.977 1200 400s-15.87-159.56-47.172-233.563c-30.222-71.453-73.477-135.615-128.564-190.702-55.087-55.086-119.248-98.341-190.702-128.563C759.56-184.128 680.977-200 600-200zm0 1100c-67.522 0-132.997-13.213-194.607-39.271-59.534-25.181-113.011-61.24-158.946-107.175-45.936-45.936-81.994-99.413-107.175-158.947C113.212 532.997 100 467.521 100 400s13.213-132.997 39.272-194.607c25.18-59.534 61.24-113.011 107.175-158.947C292.382.512 345.859-35.548 405.393-60.729 467.003-86.787 532.478-100 600-100s132.997 13.213 194.607 39.271C854.141-35.548 907.618.511 953.553 46.446c45.936 45.936 81.994 99.413 107.175 158.947C1086.788 267.003 1100 332.479 1100 400s-13.213 132.997-39.272 194.607c-25.18 59.534-61.24 113.011-107.175 158.947-45.935 45.934-99.412 81.994-158.946 107.175C732.997 886.787 667.522 900 600 900zm0-850c-47.228 0-93.07 9.26-136.251 27.525-41.684 17.631-79.11 42.86-111.236 74.988s-57.357 69.552-74.988 111.236C259.261 306.931 250 352.772 250 400s9.26 93.07 27.525 136.251c17.631 41.684 42.86 79.11 74.988 111.236s69.552 57.357 111.236 74.988C506.93 740.739 552.772 750 600 750c27.614 0 50-22.386 50-50V100c0-27.614-22.386-50-50-50zm-50 595.03c-47.715-9.634-91.57-33.047-126.777-68.254C376.005 529.558 350 466.777 350 400s26.005-129.558 73.223-176.776c35.207-35.207 79.062-58.62 126.777-68.253v490.058z"/>
  <glyph unicode="&#xf060;" glyph-name="checkbox-semi" d="M1100-150H100c-27.614 0-50 22.386-50 50V900c0 27.614 22.386 50 50 50h1000c27.614 0 50-22.386 50-50V-100c0-27.614-22.386-50-50-50zM150-50h900v900H150V-50zM349.989 99.998A50.001 50.001 0 00300 150v500c0 27.614 22.386 50 50 50h500a50 50 0 0035.355-85.355l-500-500a49.995 49.995 0 00-35.366-14.647zM400 600V270.71L729.29 600H400z"/>
  <glyph unicode="&#xf061;" glyph-name="heart-fill" d="M1105.33 789.9c-26.579 50.006-65.664 90.949-113.031 118.4a291.221 291.221 0 01-23.071 12.016c-39.45 18.375-83.018 27.99-127.524 27.99-.546 0-1.102 0-1.649-.003-52.975-.282-104.703-14.104-149.59-39.97-37.647-21.694-68.598-50.635-91.88-85.064-11.917 17.605-25.838 33.757-41.658 48.304-27.074 24.896-58.714 44.222-94.04 57.442-34.206 12.801-70.262 19.292-107.165 19.292-38.987 0-76.834-7.235-112.49-21.504-37.671-15.076-71.155-37.35-99.52-66.202-62.27-63.342-95.185-153.869-95.185-261.793 0-51.677 9.89-105.557 29.485-161.101a49.809 49.809 0 011.646-4.586c13.52-37.37 31.405-75.482 53.641-114.182 27.801-48.384 62.475-97.893 103.562-147.954.144-.18.291-.357.438-.535 23.034-28.035 48.07-56.242 75.053-84.523 126.949-133.052 252.18-221.46 257.45-225.16a49.938 49.938 0 0128.725-9.075 49.942 49.942 0 0128.76 9.099c5.26 3.698 130.274 92.105 257.108 225.151 75.27 78.956 135.49 157.343 178.989 232.982 56.28 97.863 84.925 191.988 85.143 279.76.18 72.612-14.354 136.946-43.198 191.216zm-364.936 31.788c33.509 19.31 72.268 28.085 110.485 26.374L648.105 645.287c.269 2.1.422 4.234.422 6.405 0 75.488 32.626 135.86 91.867 169.996zm-525.37-31.193c36.65 37.28 86.617 57.812 140.698 57.812 27.603 0 54.778-5.59 79.442-15.96L152.32 549.504c-2.516 16.799-3.794 33.245-3.794 49.304 0 81.153 22.994 147.437 66.496 191.687zM184.31 440.072l329.673 329.672c22.697-32.302 34.543-72.446 34.543-118.052 0-27.614 22.386-50 50-50 2.172 0 4.306.154 6.405.423l-324.57-324.57c-23.042 30.905-43.205 61.365-60.356 91.215-13.925 24.234-25.818 48.02-35.695 71.312zm159.49-240.51l612.874 612.875c24.889-17.595 45.158-40.881 60.351-69.47 9.232-17.37 16.453-36.447 21.64-57.12L446.397 93.58c-20.179 19.104-40.95 39.636-61.694 61.378a1504.342 1504.342 0 00-40.901 44.605zm469.372-43.402C728.01 66.638 641.844-2.88 598.488-36.056c-18.918 14.443-45.98 35.792-77.577 62.728l523.854 523.854c-8.442-56.608-31.087-117.277-67.649-181.016-39.322-68.55-94.48-140.331-163.944-213.35z"/>
  <glyph unicode="&#xf062;" glyph-name="star-fill" d="M1195.372 542.666c-10.077 31.01-34.981 54.231-66.622 62.116l-2.33.58-288.451 43.075-158.122 257.1-.183.295C662.39 933.489 632.608 950 600 950s-62.39-16.51-79.664-44.168L362.03 648.438l-286.077-42.72-2.375-.356-2.33-.58c-31.64-7.885-56.544-31.105-66.621-62.116-10.076-31.012-3.576-64.437 17.387-89.413l3.109-3.704 224.13-181.135L200.38-47.364l-.146-2.086c-2.28-32.529 12.108-63.39 38.489-82.557 26.38-19.167 60.18-23.313 90.41-11.095l2.313.936L600-1.033l268.553-141.133 2.314-.936c11.466-4.634 23.44-6.915 35.333-6.914 19.464.001 38.702 6.112 55.076 18.01 26.38 19.165 40.769 50.027 38.489 82.556l-.146 2.086-48.874 315.778 224.131 181.135 3.109 3.704c20.963 24.976 27.463 58.401 17.387 89.413zM875.094 335.85l-3.109-3.704c-15.74-18.752-23.467-42.53-21.755-66.956l.146-2.085L898.013-44.68 639.723 91.059l-2.21 1.16-2.313.936c-11.35 4.587-23.275 6.881-35.2 6.881s-23.85-2.294-35.2-6.88l-2.314-.936-260.499-136.9 47.637 307.785.146 2.085c1.712 24.425-6.014 48.204-21.755 66.956l-3.109 3.704L109.83 509.667l276.135 41.236 2.33.58c23.756 5.92 43.982 20.616 56.954 41.38L600 844.478l154.567-251.32.184-.297c12.972-20.763 33.198-35.459 56.954-41.379l2.33-.58 276.135-41.236L875.094 335.85zm-42.704 94.48c6.396-26.863-10.196-53.825-37.059-60.222l-112.994-26.903 72.679-106.222c15.593-22.79 9.758-53.906-13.032-69.5a49.778 49.778 0 00-28.19-8.739c-15.95 0-31.623 7.613-41.31 21.77L600 286.456l-72.484-105.94c-9.686-14.156-25.362-21.77-41.31-21.77a49.764 49.764 0 00-28.19 8.74c-22.79 15.593-28.625 46.71-13.032 69.5l72.679 106.221-112.994 26.903c-26.863 6.397-43.455 33.359-37.06 60.222 6.397 26.862 33.363 43.451 60.222 37.06L550 438.303V550c0 27.614 22.386 50 50 50s50-22.386 50-50V438.303l122.169 29.088c26.861 6.399 53.825-10.196 60.221-37.06z"/>
  <glyph unicode="&#xf063;" glyph-name="bulb" d="M1011.315 738.275c-24.06 54.136-58.556 102.024-102.529 142.332-41.717 38.242-90.17 68.096-144.015 88.737C711.705 989.686 656.27 1000 600 1000s-111.705-10.314-164.771-30.656c-53.845-20.64-102.298-50.495-144.015-88.737-43.973-40.308-78.469-88.196-102.53-142.332C163.017 680.521 150 617.175 150 550c0-142.54 58.948-216.224 110.957-281.234C308.737 209.04 350 157.46 350 50V-50c0-32.285 3.507-79.02 33.828-111.978C415.183-196.058 459.438-200 490-200h220c30.562 0 74.817 3.941 106.172 38.022C846.493-129.02 850-82.285 850-50V50c0 107.46 41.264 159.041 89.043 218.766C991.052 333.776 1050 407.46 1050 550c0 67.175-13.016 130.52-38.685 188.275zM700 200H500v256.574l72.265-48.177a49.999 49.999 0 0155.47 0L700 456.574V200zm50-250c0-35.19-6.662-43.446-7.422-44.272-.539-.586-6.035-5.728-32.578-5.728H490c-26.543 0-32.04 5.142-32.578 5.728-.76.826-7.422 9.083-7.422 44.272V50c0 17.69-.91 34.316-2.6 50h305.2c-1.69-15.684-2.6-32.31-2.6-50V-50zm110.957 381.234C840.361 305.49 818.681 278.38 800 246.178V550a50.001 50.001 0 01-77.735 41.603L600 510.093l-122.265 81.51A50 50 0 01400 550V246.178c-18.68 32.202-40.361 59.312-60.957 85.056C291.263 390.96 250 442.54 250 550c0 53.094 10.115 102.774 30.065 147.662 18.449 41.509 44.934 78.259 78.721 109.23C423.336 866.064 511.256 900 600 900s176.663-33.937 241.214-93.107c33.787-30.972 60.272-67.722 78.72-109.23C939.885 652.773 950 603.092 950 550c0-107.46-41.264-159.041-89.043-218.766zM700 0c0-27.614-22.386-50-50-50H550c-27.614 0-50 22.386-50 50s22.386 50 50 50h100c27.614 0 50-22.386 50-50z"/>
  <glyph unicode="&#xf064;" glyph-name="clone" d="M100 100h750c27.614 0 50 22.386 50 50v750c0 27.614-22.386 50-50 50H100c-27.614 0-50-22.386-50-50V150c0-27.614 22.386-50 50-50zm50 750h650V200H150v650zm800-150c0 27.614 22.386 50 50 50h100c27.614 0 50-22.386 50-50v-800c0-27.614-22.386-50-50-50H300c-27.614 0-50 22.386-50 50V0c0 27.614 22.386 50 50 50s50-22.386 50-50v-50h700v700h-50c-27.614 0-50 22.386-50 50z"/>
  <glyph unicode="&#xf065;" glyph-name="close" d="M1085.355 814.645L670.711 400l414.644-414.645c19.527-19.526 19.527-51.184 0-70.71C1075.592-95.119 1062.795-100 1050-100s-25.592 4.881-35.355 14.645L600 329.289 185.355-85.355C175.592-95.12 162.795-100 150-100s-25.592 4.881-35.355 14.645c-19.527 19.526-19.527 51.184 0 70.71L529.289 400 114.645 814.645c-19.527 19.526-19.527 51.184 0 70.71 19.527 19.527 51.183 19.527 70.71 0L600 470.711l414.645 414.644c19.527 19.527 51.183 19.527 70.71 0 19.527-19.526 19.527-51.184 0-70.71z"/>
  <glyph unicode="&#xf066;" glyph-name="comment" d="M900-100h-50c-63.509 0-113.255 17.544-147.855 52.145C677.216-22.927 661.141 9.866 654.102 50H100C44.86 50 0 94.86 0 150v600c0 55.14 44.86 100 100 100h1000c55.14 0 100-44.86 100-100V150c0-55.14-44.86-100-100-100H950V-50c0-27.614-22.386-50-50-50zM100 150.003L700 150c27.614 0 50-22.386 50-50 0-36.023 7.69-61.979 22.855-77.145C788.021 7.69 813.976 0 850 0v100c0 27.614 22.386 50 50 50h200v600H100V150v.003zm1000.013 599.996z"/>
  <glyph unicode="&#xf067;" glyph-name="creditcard" d="M1113.485 850H86.515C38.81 850 0 811.19 0 763.485V36.515C0-11.19 38.81-50 86.515-50h1026.97C1161.189-50 1200-11.19 1200 36.515v726.97c0 47.704-38.81 86.515-86.515 86.515zM1100 50H100v400h1000V50zm0 500H100v200h1000V550zM200 175v100c0 27.614 22.386 50 50 50s50-22.386 50-50V175c0-27.614-22.386-50-50-50s-50 22.386-50 50zm150 0v100c0 27.614 22.386 50 50 50s50-22.386 50-50V175c0-27.614-22.386-50-50-50s-50 22.386-50 50zm150 0v100c0 27.614 22.386 50 50 50s50-22.386 50-50V175c0-27.614-22.386-50-50-50s-50 22.386-50 50z"/>
  <glyph unicode="&#xf068;" glyph-name="drag" d="M1185.355 435.355l-150 150c-19.526 19.526-51.184 19.526-70.71 0-19.526-19.526-19.526-51.184 0-70.71L1029.289 450H650v379.29l64.645-64.645C724.408 754.882 737.204 750 750 750s25.592 4.882 35.355 14.645c19.526 19.526 19.526 51.184 0 70.71l-150 150c-19.526 19.526-51.184 19.526-70.71 0l-150-150c-19.526-19.526-19.526-51.184 0-70.71 19.526-19.526 51.184-19.526 70.71 0L550 829.289V450H170.71l64.645 64.645c19.526 19.526 19.526 51.184 0 70.71-19.526 19.526-51.184 19.526-70.71 0l-150-150c-19.526-19.526-19.526-51.184 0-70.71l150-150C174.408 204.882 187.204 200 200 200s25.592 4.882 35.355 14.645c19.526 19.526 19.526 51.184 0 70.71L170.711 350H550V-29.29l-64.645 64.645c-19.526 19.526-51.184 19.526-70.71 0-19.526-19.526-19.526-51.184 0-70.71l150-150a50 50 0 0170.71 0l150 150c19.526 19.526 19.526 51.184 0 70.71-19.526 19.525-51.184 19.525-70.71 0L650-29.289V350h379.29l-64.645-64.645c-19.526-19.526-19.526-51.184 0-70.71C974.408 204.882 987.205 200 1000 200c12.796 0 25.592 4.882 35.355 14.645l150 150c19.526 19.526 19.526 51.184 0 70.71z"/>
  <glyph unicode="&#xf069;" glyph-name="eye-slash" d="M972.474 694.52a1040.248 1040.248 0 01-3.967 3.276l66.848 66.849c19.527 19.526 19.527 51.184 0 70.71-19.527 19.526-51.183 19.526-70.71 0l-77.88-77.879c-27.541 17.602-55.186 32.773-82.75 45.378C735.616 834.138 666.975 850 600 850s-135.614-15.862-204.016-47.146C339.647 777.09 282.97 740.64 227.526 694.52 115.624 601.435 40.174 494.986 19.715 464.578c-26.395-39.23-26.395-89.926 0-129.156 20.459-30.408 95.909-136.857 207.811-229.942 1.322-1.099 2.645-2.188 3.967-3.276l-66.848-66.849c-19.527-19.526-19.527-51.184 0-70.71C174.408-45.118 187.205-50 200-50s25.592 4.882 35.355 14.645l77.88 77.879c27.541-17.602 55.186-32.773 82.75-45.378C464.384-34.138 533.025-50 600-50S735.614-34.138 804.016-2.854C860.353 22.91 917.03 59.36 972.474 105.48c111.902 93.085 187.352 199.534 207.811 229.942 26.395 39.23 26.395 89.926 0 129.156-20.459 30.408-95.909 136.857-207.811 229.942zm-869.79-303.275a15.624 15.624 0 000 17.51C126.184 443.683 339.793 750 600 750c76.69 0 149.33-26.613 214.25-65.039L302.522 173.233C191.665 262.647 116.116 371.28 102.684 391.245zm994.632 0C1073.816 356.317 860.207 50 600 50c-76.69 0-149.33 26.613-214.25 65.04l511.728 511.727c110.857-89.414 186.406-198.047 199.838-218.012a15.624 15.624 0 000-17.51z"/>
  <glyph unicode="&#xf06a;" glyph-name="eye" d="M972.474 694.52c-55.444 46.12-112.121 82.569-168.458 108.334C735.614 834.138 666.974 850 600 850s-135.614-15.862-204.016-47.146C339.647 777.09 282.97 740.64 227.526 694.52 115.624 601.435 40.174 494.986 19.715 464.578c-26.395-39.23-26.395-89.926 0-129.156 20.459-30.408 95.909-136.857 207.811-229.942C282.97 59.36 339.647 22.911 395.984-2.854 464.386-34.138 533.026-50 600-50S735.614-34.138 804.016-2.854C860.353 22.91 917.03 59.36 972.474 105.48c111.902 93.085 187.352 199.534 207.811 229.942 26.395 39.23 26.395 89.926 0 129.156-20.459 30.408-95.909 136.857-207.811 229.942zm124.842-303.275C1073.816 356.317 860.207 50 600 50S126.184 356.317 102.684 391.245a15.624 15.624 0 000 17.51C126.184 443.683 339.793 750 600 750s473.816-306.317 497.316-341.245a15.624 15.624 0 000-17.51zM600 650c-66.777 0-129.558-26.005-176.776-73.223C376.004 529.558 350 466.777 350 400s26.005-129.558 73.224-176.777C470.442 176.005 533.223 150 600 150s129.558 26.005 176.776 73.223C823.996 270.442 850 333.223 850 400s-26.005 129.558-73.224 176.777C729.558 623.995 666.777 650 600 650zm0-400c-82.71 0-150 67.29-150 150s67.29 150 150 150 150-67.29 150-150-67.29-150-150-150z"/>
  <glyph unicode="&#xf06b;" glyph-name="fb" d="M984.615 950h-769.23C124.19 950 50 875.809 50 784.615V15.385C50-75.81 124.191-150 215.385-150h769.23C1075.809-150 1150-75.809 1150 15.385v769.23C1150 875.81 1075.809 950 984.615 950zM1050 15.385C1050-20.669 1020.669-50 984.615-50H750v350h100c27.614 0 50 22.386 50 50s-22.386 50-50 50H750v102.414C750 600 791.585 600 825 600h75c27.614 0 50 22.386 50 50s-22.386 50-50 50h-75c-51.446 0-90.944-13.482-120.753-41.218-18.264-16.994-32.096-39.014-41.112-65.452C654.297 567.413 650 537.675 650 502.414V400h-50c-27.614 0-50-22.386-50-50s22.386-50 50-50h50V-50H215.385C179.33-50 150-20.669 150 15.385v769.23C150 820.67 179.331 850 215.385 850h769.23c36.054 0 65.385-29.331 65.385-65.385V15.385z"/>
  <glyph unicode="&#xf06c;" glyph-name="github" d="M1152.828 633.562c-30.222 71.454-73.477 135.615-128.564 190.702-55.087 55.087-119.248 98.342-190.702 128.564C759.56 984.13 680.977 1000 600 1000s-159.56-15.87-233.562-47.172c-71.454-30.222-135.615-73.477-190.702-128.564-55.087-55.087-98.342-119.248-128.564-190.702C15.87 559.56 0 480.978 0 400s15.87-159.56 47.172-233.563C77.394 94.984 120.649 30.823 175.736-24.264c55.087-55.087 119.248-98.342 190.702-128.565C440.44-184.129 519.023-200 600-200s159.56 15.87 233.562 47.171c71.454 30.223 135.615 73.478 190.702 128.565 55.087 55.087 98.342 119.248 128.564 190.701C1184.13 240.442 1200 319.023 1200 400s-15.87 159.56-47.172 233.563zM450-77.131V28.3c0 45.524 16.316 64.01 29.426 78.863 3.97 4.498 8.076 9.15 11.725 14.436a50 50 0 01-30.494 77.252c-55.576 12.125-97.768 34.867-125.404 67.595C312.19 293.76 300 327.976 300 365.4c0 42.103 20.71 77.383 40.97 106.341a49.998 49.998 0 019.03 28.662v91.77c35.168-9.903 67.479-26.634 80.574-34.682 7.945-4.965 16.952-7.49 26.323-7.49h286.206c9.32 0 18.454 2.605 26.372 7.52.497.31 37.278 22.59 80.525 34.755v-91.873a49.998 49.998 0 019.03-28.662C879.29 442.782 900 407.502 900 365.4c0-37.423-12.19-71.64-35.253-98.954-27.636-32.728-69.828-55.47-125.404-67.595a50 50 0 01-30.494-77.252c3.649-5.287 7.755-9.938 11.725-14.436C733.684 92.31 750 73.824 750 28.3V-77.132C701.724-92.317 651.458-100 600-100s-101.724 7.683-150 22.868zm610.728 282.525c-25.18-59.534-61.24-113.011-107.175-158.946C922.36 15.254 887.684-11.379 850-33.15V28.3c0 40.64-8.745 71.37-19.755 94.514 12.313 5.152 24.05 10.876 35.168 17.157 29.718 16.79 55.2 37.637 75.738 61.96C979.651 247.525 1000 304.05 1000 365.4c0 62.66-25.081 112.465-50 150.371V650c0 27.614-22.386 50-50 50-38.37 0-80.927-9.73-126.49-28.92-18.388-7.745-33.647-15.573-43.704-21.08H470.194c-10.057 5.507-25.316 13.335-43.703 21.08C380.927 690.27 338.369 700 300 700c-27.614 0-50-22.386-50-50V515.771c-24.919-37.906-50-87.71-50-150.372 0-61.348 20.35-117.875 58.849-163.468 20.538-24.324 46.02-45.17 75.738-61.96 11.117-6.282 22.855-12.006 35.168-17.158C358.745 99.67 350 68.94 350 28.3v-61.45c-37.684 21.77-72.36 48.403-103.553 79.597-45.936 45.935-81.994 99.412-107.175 158.946C113.212 267.003 100 332.479 100 400s13.213 132.997 39.272 194.607c25.18 59.534 61.24 113.011 107.175 158.946 45.935 45.936 99.412 81.994 158.946 107.175C467.003 886.788 532.478 900 600 900s132.997-13.213 194.607-39.272c59.534-25.18 113.011-61.24 158.946-107.175 45.936-45.935 81.994-99.412 107.175-158.946C1086.788 532.997 1100 467.521 1100 400s-13.213-132.997-39.272-194.607z"/>
  <glyph unicode="&#xf06d;" glyph-name="google" d="M900 400c0-80.133-31.206-155.47-87.868-212.132C755.47 131.205 680.132 100 600 100s-155.47 31.205-212.132 87.868C331.206 244.53 300 319.868 300 400s31.206 155.47 87.868 212.132C444.53 668.795 519.868 700 600 700c71.626 0 154.812-33.042 211.924-84.179 20.573-18.42 22.318-50.03 3.898-70.602-9.875-11.029-23.545-16.647-37.268-16.648-11.876-.002-23.791 4.204-33.335 12.75C706.632 575.871 646.916 600 600 600c-110.28 0-200-89.72-200-200s89.72-200 200-200c93.022 0 171.415 63.835 193.673 150H650c-27.614 0-50 22.386-50 50s22.386 50 50 50h200c27.614 0 50-22.386 50-50zm250 384.615V15.385C1150-75.809 1075.809-150 984.615-150h-769.23C124.19-150 50-75.809 50 15.385v769.23C50 875.81 124.191 950 215.385 950h769.23C1075.81 950 1150 875.809 1150 784.615zm-100 0c0 36.054-29.332 65.385-65.385 65.385h-769.23C179.332 850 150 820.669 150 784.615V15.385C150-20.669 179.332-50 215.385-50h769.23C1020.668-50 1050-20.669 1050 15.385v769.23z"/>
  <glyph unicode="&#xf06e;" glyph-name="location" d="M918.345 867.075c-41.307 41.65-89.43 74.36-143.032 97.22C719.763 987.988 660.78 1000 600 1000s-119.763-12.013-175.313-35.704c-53.602-22.86-101.725-55.57-143.032-97.22-41.277-41.623-73.687-90.096-96.329-144.072C161.886 667.12 150 607.793 150 546.667c0-74.378 22.651-159.847 67.324-254.031 34.503-72.745 82.36-151.376 142.24-233.711C460.647-80.065 560.306-180.98 564.498-185.208a50 50 0 0171.004 0c4.192 4.228 103.85 105.143 204.935 244.133 59.88 82.335 107.736 160.966 142.239 233.71C1027.349 386.82 1050 472.29 1050 546.668c0 61.126-11.886 120.454-35.326 176.337-22.642 53.976-55.052 102.45-96.33 144.071zM599.969-77.062c-37.178 40.649-98.52 110.914-159.532 194.804C315.853 289.046 250 437.366 250 546.667 250 741.495 407.01 900 600 900s350-158.505 350-353.333C950 326.735 695.35 27.35 599.969-77.062zM600 800c-66.777 0-129.558-26.005-176.776-73.224S350 616.777 350 550s26.005-129.558 73.224-176.776S533.223 300 600 300s129.558 26.005 176.776 73.224S850 483.223 850 550s-26.005 129.558-73.224 176.776S666.777 800 600 800zm0-400c-82.71 0-150 67.29-150 150s67.29 150 150 150 150-67.29 150-150-67.29-150-150-150z"/>
  <glyph unicode="&#xf06f;" glyph-name="twt" d="M1150 650h-15.97l55.013 68.766c17.25 21.562 13.755 53.027-7.809 70.277-21.562 17.253-53.027 13.754-70.277-7.809l-58.781-73.476c-15.464 25.561-34.349 48.483-56.362 68.205C941.752 824.398 872.38 850 795.197 850h-18.641c-51.222 0-100.46-12.942-146.347-38.469-42.626-23.712-81.035-58.203-111.076-99.745-28.786-39.807-49.883-86.99-61.01-136.445a374.3 374.3 0 01-4.022-20.556c-23.604 4.958-47.18 13.799-71.21 26.653-36.61 19.582-73.495 48.036-112.76 86.989-31.004 30.758-58.356 68.366-75.042 103.182-9.972 20.805-32.883 32.087-55.448 27.306-22.569-4.78-38.938-24.379-39.62-47.438-2.184-73.939-2.007-160.828 15.863-244.655 9.606-45.061 23.86-86.696 42.362-123.747 20.666-41.379 47.404-78.682 79.502-110.919-9.759-1.37-19.582-2.156-29.544-2.156-52.075 0-103.573 14.701-142.62 27.51-20.23 6.637-42.446-.268-55.352-17.202-12.906-16.936-13.671-40.185-1.908-57.932 53.609-80.877 127.769-148.791 214.465-196.4C313.301-23.728 415.717-50 518.965-50 678.52-50 825.972 9.256 934.16 116.853c52.411 52.125 93.432 113.188 121.92 181.493C1085.224 368.22 1100 442.796 1100 520c0 3.154-.56 15.67-1.441 30H1150c27.614 0 50 22.386 50 50s-22.386 50-50 50zM863.644 187.757C774.32 98.923 651.912 50 518.964 50c-86.467 0-172.237 22.003-248.04 63.629a517.635 517.635 0 00-83.241 56.914c6.78-.355 13.624-.543 20.521-.543 52.117 0 96.16 13.61 138.751 26.771 5.809 1.794 11.629 3.594 17.48 5.358a50 50 0 0112.664 89.89 2960.365 2960.365 0 01-9.764 6.264c-22.794 14.581-39.264 25.116-57.325 43.034-48.298 47.915-79.806 108.872-96.323 186.355-4.609 21.614-7.866 43.747-10.117 65.95 44.865-43.962 88.137-76.82 132.157-100.363C389.395 464.555 444.663 450 500 450a50.002 50.002 0 0149.712 55.36c-.19 4.78.436 25.216 6.956 52.248 8.505 35.27 23.14 67.43 43.498 95.58C644.657 714.714 708.948 750 776.556 750h18.641c52.163 0 98.461-16.777 133.889-48.518 33.893-30.364 57.005-72.905 66.897-123.103 1.822-14.751 3.856-51.858 4.017-58.684-.077-126.685-48.495-244.557-136.356-331.938z"/>
</font>
</defs>
</svg>
