<?xml version="1.0"?>
<svg xmlns="http://www.w3.org/2000/svg" xmlns:xlink="http://www.w3.org/1999/xlink">
  <view id="alert" viewBox="0 0 1200 1200">
</view>
<g transform="translate(0,0)"><path d="M1188.857 986.497l-525.54-851.18C649.661 113.2 625.991 99.996 600 99.996s-49.662 13.203-63.316 35.32L11.143 986.496c-14.16 22.935-14.8 51.805-1.67 75.344 13.131 23.54 38.032 38.162 64.986 38.162h1051.082c26.954 0 51.855-14.623 64.985-38.162 13.131-23.539 12.492-52.41-1.669-75.344zm-1068.529 13.506L600 223.113l479.672 776.89H120.328zM600 400.007c27.614 0 50 22.385 50 50v300c0 27.614-22.386 50-50 50s-50-22.386-50-50v-300c0-27.615 22.386-50 50-50zm50 499.24v1.52c0 27.614-22.386 50-50 50s-50-22.386-50-50v-1.52c0-27.615 22.386-50 50-50s50 22.385 50 50z"/></g>
<view id="alt" viewBox="1200 0 1200 1200">
</view>
<g transform="translate(1200,0)"><path d="M1150 1050H875a50 50 0 01-42.4-23.5L347.288 250H50c-27.614 0-50-22.386-50-50s22.386-50 50-50h325a50 50 0 0142.4 23.5L902.712 950H1150c27.614 0 50 22.386 50 50s-22.386 50-50 50zm50-850c0-27.614-22.386-50-50-50H700c-27.614 0-50 22.386-50 50s22.386 50 50 50h450c27.614 0 50-22.386 50-50z"/></g>
<view id="bars" viewBox="2400 0 1200 1200">
</view>
<g transform="translate(2400,0)"><path d="M1200 300c0 27.614-22.386 50-50 50H50c-27.614 0-50-22.386-50-50s22.386-50 50-50h1100c27.614 0 50 22.386 50 50zm-50 250H50c-27.614 0-50 22.386-50 50s22.386 50 50 50h1100c27.614 0 50-22.386 50-50s-22.386-50-50-50zm0 300H50c-27.614 0-50 22.386-50 50s22.386 50 50 50h1100c27.614 0 50-22.386 50-50s-22.386-50-50-50z"/></g>
<view id="bell" viewBox="3600 0 1200 1200">
</view>
<g transform="translate(3600,0)"><path d="M1051.99 950.04c-6.964-12.21-23.469-52.064-34.837-167.313-8.194-83.068-12.488-190.484-12.762-319.265-.106-49.868-11.194-98.186-32.954-143.613-20.793-43.407-50.39-82.271-87.966-115.513C819.415 147.67 737.898 112.45 650 102.746V50c0-27.614-22.386-50-50-50s-50 22.386-50 50v52.746c-87.898 9.704-169.416 44.924-233.471 101.59-37.577 33.242-67.173 72.106-87.966 115.513-21.76 45.427-32.848 93.745-32.954 143.613-.274 128.781-4.568 236.198-12.762 319.265-11.368 115.249-27.873 155.103-34.837 167.312C121.317 951.083 100 973.052 100 1000c0 27.614 22.386 50 50 50h290.322c5.18 83.583 74.813 150 159.678 150s154.498-66.417 159.678-150H1050c27.614 0 50-22.386 50-50 0-26.948-21.317-48.917-48.01-49.96zM600 1100c-29.676 0-54.374-21.661-59.15-50h118.3c-4.776 28.339-29.474 50-59.15 50zm102.2-150c-.276.001-.552-.006-.83 0H498.627c-.261-.006-.522.002-.783 0H255.177c9.424-31.196 17.036-70.975 23.155-120.846 11.14-90.81 16.954-213.776 17.277-365.48C295.919 318.285 432.469 200 600 200c167.532 0 304.081 118.284 304.391 263.675.323 151.703 6.136 274.668 17.277 365.479 6.12 49.87 13.731 89.65 23.155 120.846H702.2z"/></g>
<view id="book" viewBox="4800 0 1200 1200">
</view>
<g transform="translate(4800,0)"><path d="M1100 50H808.333c-68.269 0-132.64 24.753-181.256 69.698A248.792 248.792 0 00600 149.074a248.792 248.792 0 00-27.077-29.376C524.307 74.753 459.936 50 391.667 50H100c-27.614 0-50 22.386-50 50v924.5c0 27.614 22.386 50 50 50h375c55.67 0 73.306 17.303 75.052 27.8.002.048.008.096.01.144.017.358.05.712.075 1.068.033.48.062.962.11 1.44.034.36.084.717.127 1.075.057.467.11.935.178 1.397.053.36.12.715.181 1.072.079.455.154.91.244 1.361.07.357.155.709.233 1.062.1.445.196.891.308 1.332.087.35.187.695.283 1.042.12.437.239.874.37 1.306.105.345.22.685.333 1.026.14.426.28.852.43 1.272.123.34.254.674.382 1.01.16.415.319.83.489 1.239.137.332.284.66.428.989.178.404.357.807.545 1.205.154.325.315.646.475.967.196.392.393.783.6 1.17.168.317.343.63.52.943.213.38.429.76.651 1.134a59.856 59.856 0 001.266 2.013 52.655 52.655 0 002.806 3.828 50.3 50.3 0 007.445 7.459c.333.27.67.533 1.01.794.288.221.575.441.867.656.346.254.696.5 1.048.746.298.207.596.415.898.616.358.238.722.467 1.085.696.309.193.615.387.928.574.37.22.744.432 1.12.644.317.179.634.36.955.531.381.204.768.398 1.154.591.327.164.65.33.982.487.391.186.79.361 1.188.538.334.147.665.298 1.003.439.405.168.815.324 1.225.483.34.131.678.266 1.021.39.416.15.838.287 1.26.427.345.114.689.233 1.037.34.429.132.865.249 1.298.369.349.096.694.199 1.046.288.443.113.893.21 1.34.31.35.078.698.164 1.05.235.463.093.93.169 1.397.25.345.059.687.127 1.034.179.492.074.99.129 1.486.189.328.04.654.088.984.121.556.056 1.117.09 1.679.128.276.018.549.047.825.06a50.929 50.929 0 005.078 0c.276-.013.549-.042.825-.06.562-.038 1.123-.072 1.679-.128.33-.033.656-.082.984-.121.496-.06.994-.115 1.486-.19.347-.051.69-.12 1.034-.179.467-.08.934-.156 1.396-.249.353-.071.7-.157 1.05-.235.448-.1.898-.197 1.341-.31.352-.089.697-.192 1.046-.288.433-.12.869-.237 1.298-.369.348-.107.692-.226 1.037-.34.422-.14.844-.276 1.26-.427.343-.124.681-.259 1.021-.39.41-.159.82-.315 1.225-.483.338-.14.669-.292 1.003-.44.397-.176.797-.35 1.188-.537.331-.157.655-.323.982-.487.386-.193.773-.387 1.154-.59.321-.173.638-.353.956-.532.375-.212.75-.423 1.119-.644.313-.187.62-.381.928-.574.363-.23.727-.458 1.085-.696.302-.201.6-.409.898-.616.352-.246.702-.492 1.048-.746.292-.215.58-.435.866-.656.34-.261.678-.524 1.011-.794.281-.228.559-.46.834-.695.327-.277.651-.556.97-.84.27-.241.536-.486.8-.732a49.212 49.212 0 004.841-5.192 51.494 51.494 0 001.447-1.88 54.547 54.547 0 001.359-1.948 59.867 59.867 0 001.266-2.012c.222-.375.438-.754.652-1.135.176-.313.35-.626.52-.943a50.4 50.4 0 00.6-1.17c.16-.321.32-.642.474-.967.188-.398.367-.801.545-1.205.144-.33.29-.657.428-.99.17-.409.33-.823.489-1.238.129-.336.26-.67.381-1.01.152-.42.291-.846.431-1.272.112-.341.228-.681.332-1.026.132-.432.251-.869.371-1.306.096-.347.196-.692.283-1.042.112-.44.208-.887.308-1.332.078-.353.162-.705.233-1.062.09-.45.165-.906.244-1.361.061-.357.128-.712.181-1.072.069-.462.121-.93.178-1.397.043-.358.093-.715.128-1.076.047-.477.076-.959.11-1.44.025-.355.057-.71.074-1.067.002-.048.008-.096.01-.144 1.746-10.497 19.381-27.8 75.052-27.8h375c27.614 0 50-22.386 50-50V100c0-27.614-22.386-50-50-50zM475 974.5H150V150h241.667C478.972 150 550 213.972 550 292.604v691.755c-21.938-6.549-47.082-9.86-75-9.86zm575 0H725c-27.918 0-53.062 3.31-75 9.859V292.604C650 213.972 721.028 150 808.333 150H1050v824.5z"/></g>
<view id="branch" viewBox="6000 0 1200 1200">
</view>
<g transform="translate(6000,0)"><path d="M850 0C739.72 0 650 89.72 650 200c0 93.021 63.835 171.413 150 193.672v55.078c0 82.71-67.29 150-150 150l-250 1.041V393.672C486.165 371.413 550 293.022 550 200 550 89.72 460.28 0 350 0S150 89.72 150 200c0 93.021 63.835 171.413 150 193.672v412.656C213.835 828.586 150 906.978 150 1000c0 110.28 89.72 200 200 200s200-89.72 200-200c0-93.021-63.835-171.414-150-193.672V699.792l250.085-1.042c66.746-.022 129.493-26.025 176.692-73.223 47.218-47.22 73.223-110 73.223-176.777v-55.078c86.165-22.259 150-100.65 150-193.672C1050 89.72 960.28 0 850 0zM250 200c0-55.14 44.86-100 100-100s100 44.86 100 100-44.86 100-100 100-100-44.86-100-100zm200 800c0 55.14-44.86 100-100 100s-100-44.86-100-100 44.86-100 100-100 100 44.86 100 100zm400-700c-55.14 0-100-44.86-100-100s44.86-100 100-100 100 44.86 100 100-44.86 100-100 100z"/></g>
<view id="building" viewBox="7200 0 1200 1200">
</view>
<g transform="translate(7200,0)"><path d="M200 1200h800c27.614 0 50-22.386 50-50V50c0-27.614-22.386-50-50-50H200c-27.614 0-50 22.386-50 50v1100c0 27.614 22.386 50 50 50zm599.999-100H400V900h400l-.001 200zM250 100h700v1000h-50V850c0-27.614-22.386-50-50-50H350c-27.614 0-50 22.386-50 50v250h-50V100zm400 550c0-27.614 22.386-50 50-50h150c27.614 0 50 22.386 50 50s-22.386 50-50 50H700c-27.614 0-50-22.386-50-50zm-350 0c0-27.614 22.386-50 50-50h150c27.614 0 50 22.386 50 50s-22.386 50-50 50H350c-27.614 0-50-22.386-50-50zm350-200c0-27.614 22.386-50 50-50h150c27.614 0 50 22.386 50 50s-22.386 50-50 50H700c-27.614 0-50-22.386-50-50zm-350 0c0-27.614 22.386-50 50-50h150c27.614 0 50 22.386 50 50s-22.386 50-50 50H350c-27.614 0-50-22.386-50-50zm350-200c0-27.614 22.386-50 50-50h150c27.614 0 50 22.386 50 50s-22.386 50-50 50H700c-27.614 0-50-22.386-50-50zm-350 0c0-27.614 22.386-50 50-50h150c27.614 0 50 22.386 50 50s-22.386 50-50 50H350c-27.614 0-50-22.386-50-50z"/></g>
<view id="bulb" viewBox="8400 0 1200 1200">
</view>
<g transform="translate(8400,0)"><path d="M287.308 781.43c51.175 48.756 79.359 112.008 79.359 178.108v117.129C366.667 1144.673 421.994 1200 490 1200h220c68.006 0 123.333-55.327 123.333-123.333V966.335c0-69.774 28.53-136.793 78.271-183.871 44.277-41.904 79.12-91.325 103.564-146.89 25.324-57.57 38.165-118.884 38.165-182.241 0-65.598-13.72-128.898-40.778-188.146-26.13-57.21-63.22-107.569-110.245-149.675C855.393 73.5 801.412 42.26 741.868 22.655 679.718 2.195 614.658-4.467 548.48 2.856 446.22 14.174 349.686 61.39 276.658 135.804c-72.98 74.365-118.427 171.752-127.97 274.22-13.014 139.71 37.511 275.083 138.62 371.407zm446.025 184.905v110.332c0 12.866-10.467 23.333-23.333 23.333H490c-12.866 0-23.333-10.467-23.333-23.333V959.538c0-20.07-1.812-39.948-5.4-59.538H739.51a357.973 357.973 0 00-6.178 66.335zM550 800V580.901l27.64 13.82a50.005 50.005 0 0044.72 0l27.64-13.82V800H550zM248.256 419.298c15.411-165.457 146.3-298.795 311.225-317.049a372.077 372.077 0 0140.942-2.273c87.232 0 169.533 31.253 235.179 90.035 74.82 66.995 117.731 162.972 117.731 263.322 0 97.988-39.231 189.083-110.467 256.502-27.742 26.255-50.662 56.502-68.42 90.165H750V500a49.999 49.999 0 00-23.714-42.532 49.995 49.995 0 00-48.646-2.19L600 494.098l-77.64-38.82a49.995 49.995 0 00-48.646 2.19A49.999 49.999 0 00450 500v300h-24.048c-17.98-33.458-41.336-63.98-69.668-90.972-78.81-75.08-118.185-180.683-108.028-289.73zM525 1000c0-27.614 22.386-50 50-50h50c27.614 0 50 22.386 50 50s-22.386 50-50 50h-50c-27.614 0-50-22.386-50-50z"/></g>
<view id="certificate" viewBox="9600 0 1200 1200">
</view>
<g transform="translate(9600,0)"><path d="M1099.78 345.384c-.01-.112-.014-.225-.026-.337a49.704 49.704 0 00-8.11-22.717l-.051-.08a51.329 51.329 0 00-1.229-1.748c-.067-.092-.13-.187-.199-.28a49.523 49.523 0 00-1.183-1.518c-.113-.141-.22-.287-.336-.427a50.97 50.97 0 00-1.207-1.402c-.134-.151-.26-.308-.396-.457a50.45 50.45 0 00-1.685-1.77l-.003-.003-300-300a50.412 50.412 0 00-1.773-1.688c-.146-.133-.3-.257-.447-.387a50.878 50.878 0 00-1.413-1.217c-.135-.11-.275-.214-.41-.323a50.56 50.56 0 00-1.537-1.197c-.085-.063-.172-.12-.257-.183a50.293 50.293 0 00-1.77-1.244l-.056-.035a49.698 49.698 0 00-22.74-8.125c-.101-.01-.203-.014-.304-.023a50.257 50.257 0 00-2.143-.16A50.182 50.182 0 00750 0H150c-27.614 0-50 22.386-50 50v1100c0 27.614 22.386 50 50 50h900c27.614 0 50-22.386 50-50V350c0-.837-.021-1.672-.063-2.505a50.109 50.109 0 00-.158-2.11zM800 170.711L929.29 300H800V170.71zM200 1100V100h500v250c0 27.614 22.386 50 50 50h250v700H200zm600-500c0-110.28-89.72-200-200-200s-200 89.72-200 200c0 64.332 30.54 121.657 77.873 158.267l-25.308 75.922c-8.732 26.197 5.426 54.513 31.623 63.245a49.953 49.953 0 0015.819 2.58c20.933 0 40.443-13.252 47.428-34.203l22.681-68.045C579.868 799.233 589.846 800 600 800s20.132-.767 29.884-2.234l22.681 68.045c6.985 20.953 26.493 34.203 47.428 34.203 5.24 0 10.573-.832 15.819-2.58 26.197-8.732 40.355-37.048 31.623-63.245l-25.308-75.922C769.461 721.657 800 664.332 800 600zm-300 0c0-55.14 44.86-100 100-100s100 44.86 100 100-44.86 100-100 100-100-44.86-100-100z"/></g>
<view id="check-circle" viewBox="10800 0 1200 1200">
</view>
<g transform="translate(10800,0)"><path d="M935.355 364.645c19.527 19.526 19.527 51.184 0 70.71l-400 400C525.593 845.12 512.795 850 500 850s-25.593-4.881-35.355-14.645l-200-200c-19.527-19.526-19.527-51.184 0-70.71 19.525-19.527 51.185-19.527 70.71 0L500 729.289l364.645-364.644c19.525-19.527 51.185-19.527 70.71 0zm217.473 1.793C1184.128 440.44 1200 519.022 1200 600s-15.871 159.56-47.172 233.563c-30.222 71.453-73.477 135.614-128.563 190.701-55.087 55.087-119.25 98.342-190.703 128.565C759.56 1184.129 680.979 1200 600 1200s-159.56-15.87-233.563-47.171c-71.453-30.223-135.615-73.478-190.702-128.565-55.086-55.087-98.341-119.248-128.563-190.701C15.872 759.558 0 680.977 0 600s15.871-159.56 47.172-233.563c30.222-71.453 73.477-135.614 128.563-190.701 55.087-55.087 119.25-98.342 190.702-128.564C440.44 15.87 519.023 0 600 0s159.56 15.87 233.563 47.172c71.453 30.222 135.615 73.477 190.702 128.564 55.086 55.087 98.341 119.248 128.563 190.702zM1100 600c0-275.701-224.299-500-500-500S100 324.299 100 600s224.299 500 500 500 500-224.299 500-500z"/></g>
<view id="check" viewBox="12000 0 1200 1200">
</view>
<g transform="translate(12000,0)"><path d="M1185.355 214.645c19.527 19.526 19.527 51.184 0 70.71l-700 700c-9.746 9.747-22.546 14.645-35.36 14.645-12.274 0-24.56-4.493-34.192-13.523l-400-375c-20.146-18.887-21.166-50.528-2.28-70.674 18.886-20.145 50.528-21.166 70.674-2.28l364.68 341.889 665.768-665.767c19.527-19.527 51.183-19.527 70.71 0z"/></g>
<view id="checkbox-off" viewBox="13200 0 1200 1200">
</view>
<g transform="translate(13200,0)"><path d="M1100 50H100c-27.614 0-50 22.386-50 50v1000c0 27.614 22.386 50 50 50h1000c27.614 0 50-22.386 50-50V100c0-27.614-22.386-50-50-50zm-50 1000H150V150h900v900z"/></g>
<view id="checkbox-on" viewBox="14400 0 1200 1200">
</view>
<g transform="translate(14400,0)"><path d="M1100 50H100c-27.614 0-50 22.386-50 50v1000c0 27.614 22.386 50 50 50h1000c27.614 0 50-22.386 50-50V100c0-27.614-22.386-50-50-50zm-50 1000H150V150h900v900zM350 900h500c27.614 0 50-22.386 50-50V350c0-27.614-22.386-50-50-50H350c-27.614 0-50 22.386-50 50v500c0 27.614 22.386 50 50 50zm50-500h400v400H400V400z"/></g>
<view id="chevron-down" viewBox="15600 0 1200 1200">
</view>
<g transform="translate(15600,0)"><path d="M1190.436 570.592c16.242 22.333 11.304 53.604-11.029 69.846l-550 400c-8.765 6.375-19.087 9.563-29.408 9.563s-20.643-3.188-29.408-9.563l-550-400a50 50 0 01-5.947-75.792c17.86-17.86 45.87-19.382 65.461-4.575L600 938.176l520.592-378.612c22.329-16.241 53.602-11.305 69.845 11.028zm-69.845-411.028L599.999 538.176 80.105 160.071c-19.59-14.807-47.6-13.285-65.461 4.575a50.002 50.002 0 005.947 75.792l550 400c8.765 6.375 19.087 9.563 29.408 9.563s20.643-3.188 29.408-9.563l550-400c22.333-16.242 27.27-47.513 11.029-69.846-16.243-22.333-47.516-27.27-69.845-11.028z"/></g>
<view id="chevron-left" viewBox="16800 0 1200 1200">
</view>
<g transform="translate(16800,0)"><path d="M639.927 1119.893c14.812 19.592 13.289 47.6-4.572 65.46a50.009 50.009 0 01-39.267 14.493 49.998 49.998 0 01-36.526-20.437l-400-550c-12.751-17.533-12.751-41.285 0-58.818l400-550c16.24-22.332 47.512-27.27 69.844-11.028 22.333 16.242 27.27 47.513 11.029 69.846L261.823 600l378.104 519.893zm389.48-1110.33c-22.334-16.242-53.604-11.304-69.845 11.028l-400 550c-12.751 17.533-12.751 41.285 0 58.818l400 550a49.998 49.998 0 0040.44 20.59 50.009 50.009 0 0035.353-14.645c17.86-17.86 19.384-45.87 4.572-65.461L661.823 600l378.612-520.591c16.242-22.333 11.304-53.604-11.029-69.846z"/></g>
<view id="chevron-right" viewBox="18000 0 1200 1200">
</view>
<g transform="translate(18000,0)"><path d="M1040.437 570.591c12.75 17.533 12.75 41.285 0 58.818l-400 550a50 50 0 01-75.792 5.946c-17.86-17.858-19.384-45.868-4.576-65.46L938.175 600 559.563 79.409c-16.242-22.333-11.304-53.604 11.028-69.846 22.334-16.243 53.603-11.304 69.846 11.028l400 550zm-400 0l-400-550C224.194-1.74 192.924-6.679 170.591 9.563c-22.332 16.242-27.27 47.513-11.028 69.846L538.175 600 160.07 1119.895c-14.808 19.592-13.283 47.602 4.576 65.46a50 50 0 0075.792-5.946l400-550c12.75-17.533 12.75-41.285 0-58.818z"/></g>
<view id="chevron-up" viewBox="19200 0 1200 1200">
</view>
<g transform="translate(19200,0)"><path d="M1190.436 629.408c-9.785 13.453-25.025 20.594-40.478 20.594a49.77 49.77 0 01-29.367-9.566L599.999 261.824 80.105 639.929c-19.593 14.812-47.598 13.288-65.46-4.573a50.005 50.005 0 015.946-75.794l550-400c17.531-12.751 41.285-12.751 58.816 0l550 400c22.333 16.242 27.27 47.513 11.029 69.846zm-11.029 330.154l-550-400c-17.531-12.751-41.285-12.751-58.816 0l-550 400a50 50 0 00-5.945 75.794c17.86 17.86 45.866 19.385 65.46 4.573l519.893-378.105 520.592 378.612a49.77 49.77 0 0029.367 9.566c15.453 0 30.693-7.14 40.478-20.594 16.242-22.333 11.304-53.604-11.029-69.846z"/></g>
<view id="clipboard" viewBox="20400 0 1200 1200">
</view>
<g transform="translate(20400,0)"><path d="M1000 100H825V50c0-27.614-22.386-50-50-50H425c-27.614 0-50 22.386-50 50v50H200c-27.614 0-50 22.386-50 50v1000c0 27.614 22.386 50 50 50h800c27.614 0 50-22.386 50-50V150c0-27.614-22.386-50-50-50zm-525 0h250v100H475V100zm475 1000H250V200h125v50c0 27.614 22.386 50 50 50h350c27.614 0 50-22.386 50-50v-50h125v900z"/></g>
<view id="clone" viewBox="21600 0 1200 1200">
</view>
<g transform="translate(21600,0)"><path d="M100 900h750c27.614 0 50-22.386 50-50V100c0-27.614-22.386-50-50-50H100c-27.614 0-50 22.386-50 50v750c0 27.614 22.386 50 50 50zm50-750h650v650H150V150zm800 150c0-27.614 22.386-50 50-50h100c27.614 0 50 22.386 50 50v800c0 27.614-22.386 50-50 50H300c-27.614 0-50-22.386-50-50v-100c0-27.614 22.386-50 50-50s50 22.386 50 50v50h700V350h-50c-27.614 0-50-22.386-50-50z"/></g>
<view id="close-circle" viewBox="22800 0 1200 1200">
</view>
<g transform="translate(22800,0)"><path d="M835.355 435.355L670.711 600l164.644 164.645c19.527 19.526 19.527 51.184 0 70.71C825.592 845.12 812.795 850 800 850s-25.592-4.881-35.355-14.645L600 670.711 435.355 835.355C425.592 845.12 412.795 850 400 850s-25.592-4.881-35.355-14.645c-19.527-19.526-19.527-51.184 0-70.71L529.289 600 364.645 435.355c-19.527-19.526-19.527-51.184 0-70.71 19.527-19.527 51.183-19.527 70.71 0L600 529.289l164.645-164.644c19.527-19.527 51.183-19.527 70.71 0 19.527 19.526 19.527 51.184 0 70.71zM1200 600c0 80.978-15.871 159.56-47.172 233.563-30.222 71.453-73.477 135.614-128.563 190.701-55.087 55.087-119.25 98.342-190.703 128.565C759.56 1184.129 680.979 1200 600 1200s-159.56-15.87-233.563-47.171c-71.453-30.223-135.615-73.478-190.702-128.565-55.086-55.087-98.341-119.248-128.563-190.701C15.872 759.558 0 680.977 0 600s15.871-159.56 47.172-233.563c30.222-71.453 73.477-135.614 128.563-190.701 55.087-55.087 119.25-98.342 190.702-128.564C440.44 15.87 519.023 0 600 0s159.56 15.87 233.563 47.172c71.453 30.222 135.615 73.477 190.702 128.564 55.086 55.087 98.341 119.248 128.563 190.702C1184.128 440.44 1200 519.022 1200 600zm-100 0c0-275.701-224.299-500-500-500S100 324.299 100 600s224.299 500 500 500 500-224.299 500-500z"/></g>
<view id="close" viewBox="24000 0 1200 1200">
</view>
<g transform="translate(24000,0)"><path d="M1085.355 185.355L670.711 600l414.644 414.645c19.527 19.526 19.527 51.184 0 70.71-9.763 9.764-22.56 14.645-35.355 14.645s-25.592-4.881-35.355-14.645L600 670.711l-414.645 414.644C175.592 1095.12 162.795 1100 150 1100s-25.592-4.881-35.355-14.645c-19.527-19.526-19.527-51.184 0-70.71L529.289 600 114.645 185.355c-19.527-19.526-19.527-51.184 0-70.71 19.527-19.527 51.183-19.527 70.71 0L600 529.289l414.645-414.644c19.527-19.527 51.183-19.527 70.71 0 19.527 19.526 19.527 51.184 0 70.71z"/></g>
<view id="cmd" viewBox="25200 0 1200 1200">
</view>
<g transform="translate(25200,0)"><path d="M940.91 1150c-115.294 0-209.092-93.798-209.092-209.09V831.817H468.182V940.91c0 115.293-93.798 209.091-209.09 209.091C143.797 1150 50 1056.202 50 940.91s93.798-209.092 209.09-209.092h109.092V468.182H259.09C143.798 468.182 50 374.384 50 259.09S143.798 50 259.09 50s209.092 93.798 209.092 209.09v109.092h263.636V259.09C731.818 143.798 825.616 50 940.908 50 1056.203 50 1150 143.798 1150 259.09s-93.798 209.092-209.09 209.092H831.817v263.636H940.91c115.293 0 209.091 93.798 209.091 209.091S1056.202 1150 940.91 1150zM831.817 831.818V940.91c0 60.153 48.938 109.091 109.09 109.091S1050 1001.062 1050 940.91c0-60.154-48.938-109.092-109.09-109.092H831.817zm-572.727 0C198.938 831.818 150 880.756 150 940.91 150 1001.062 198.938 1050 259.09 1050s109.092-48.938 109.092-109.09V831.817H259.09zm209.09-100h263.637V468.182H468.182v263.636zm363.637-363.636H940.91c60.153 0 109.091-48.938 109.091-109.091C1050 198.938 1001.062 150 940.91 150s-109.092 48.938-109.092 109.09v109.092zM259.091 150C198.938 150 150 198.938 150 259.09c0 60.154 48.938 109.092 109.09 109.092h109.092V259.09c0-60.153-48.938-109.091-109.09-109.091z"/></g>
<view id="code" viewBox="26400 0 1200 1200">
</view>
<g transform="translate(26400,0)"><path d="M453.524 233.786L117.829 600l335.695 366.214c18.66 20.356 17.285 51.984-3.071 70.644-9.598 8.798-21.704 13.142-33.773 13.142-13.528 0-27.01-5.456-36.871-16.214l-366.667-400c-17.523-19.116-17.523-48.456 0-67.572l366.667-400c18.66-20.357 50.288-21.731 70.644-3.072 20.356 18.66 21.731 50.288 3.07 70.644zm733.333 332.428l-366.666-400c-18.66-20.356-50.288-21.731-70.644-3.072-20.356 18.66-21.731 50.288-3.071 70.644L1082.17 600 746.476 966.214c-18.66 20.356-17.285 51.984 3.071 70.644 9.6 8.799 21.703 13.142 33.773 13.142 13.527 0 27.01-5.457 36.87-16.214l366.667-400c17.524-19.116 17.524-48.456 0-67.572z"/></g>
<view id="comment" viewBox="27600 0 1200 1200">
</view>
<g transform="translate(27600,0)"><path d="M1100 125H100C44.86 125 0 169.86 0 225v575c0 55.14 44.86 100 100 100h554.102c7.039 40.134 23.114 72.927 48.043 97.855C736.745 1032.456 786.49 1050 850 1050h50c27.614 0 50-22.386 50-50V900h150c55.14 0 100-44.86 100-100V225c0-55.14-44.86-100-100-100zm0 675H900c-27.614 0-50 22.386-50 50v100c-36.024 0-61.979-7.69-77.145-22.855C757.69 911.979 750 886.023 750 850c0-27.614-22.386-50-50-50l-600-.003V225h1000v575z"/></g>
<view id="creditcard" viewBox="28800 0 1200 1200">
</view>
<g transform="translate(28800,0)"><path d="M1113.485 150H86.515C38.81 150 0 188.81 0 236.515v726.97C0 1011.19 38.81 1050 86.515 1050h1026.97c47.704 0 86.515-38.81 86.515-86.515v-726.97c0-47.704-38.81-86.515-86.515-86.515zM1100 950H100V550h1000v400zm0-500H100V250h1000v200zM200 825V725c0-27.614 22.386-50 50-50s50 22.386 50 50v100c0 27.614-22.386 50-50 50s-50-22.386-50-50zm150 0V725c0-27.614 22.386-50 50-50s50 22.386 50 50v100c0 27.614-22.386 50-50 50s-50-22.386-50-50zm150 0V725c0-27.614 22.386-50 50-50s50 22.386 50 50v100c0 27.614-22.386 50-50 50s-50-22.386-50-50z"/></g>
<view id="dart-down" viewBox="30000 0 1200 1200">
</view>
<g transform="translate(30000,0)"><path d="M1188.17 332.297l-550 650a49.998 49.998 0 01-76.34 0l-550-650c-17.836-21.08-15.207-52.629 5.873-70.466 21.08-17.837 52.629-15.209 70.466 5.872L600 872.593l511.83-604.89c17.837-21.08 49.387-23.71 70.467-5.872 21.08 17.837 23.71 49.386 5.872 70.466z"/></g>
<view id="dart-left" viewBox="31200 0 1200 1200">
</view>
<g transform="translate(31200,0)"><path d="M938.17 1182.297c-9.89 11.688-23.996 17.704-38.195 17.704a49.799 49.799 0 01-32.272-11.832l-650-550a50 50 0 010-76.338l649.998-550c21.08-17.838 52.629-15.209 70.466 5.872 17.837 21.08 15.208 52.629-5.872 70.466L327.406 600l604.89 511.83c21.081 17.838 23.71 49.387 5.873 70.467z"/></g>
<view id="dart-right" viewBox="32400 0 1200 1200">
</view>
<g transform="translate(32400,0)"><path d="M1000 600a50 50 0 01-17.703 38.17l-649.998 550A49.811 49.811 0 01300.027 1200c-14.2.001-28.303-6.015-38.194-17.704-17.838-21.08-15.208-52.629 5.872-70.466L872.594 600 267.703 88.17c-21.08-17.838-23.71-49.387-5.872-70.467 17.837-21.08 49.386-23.71 70.466-5.872l650 550A50 50 0 011000 600z"/></g>
<view id="dart-up" viewBox="33600 0 1200 1200">
</view>
<g transform="translate(33600,0)"><path d="M1187.067 867.742c17.815 21.098 15.154 52.645-5.944 70.46-21.099 17.816-52.645 15.155-70.46-5.944L599.96 327.453 88.169 932.297C78.28 943.985 64.174 950 49.975 950a49.8 49.8 0 01-32.272-11.832c-21.08-17.837-23.71-49.386-5.872-70.466l550-650A50.002 50.002 0 01600 200h.025a50.002 50.002 0 0138.176 17.742l548.865 650z"/></g>
<view id="desktop" viewBox="34800 0 1200 1200">
</view>
<g transform="translate(34800,0)"><path d="M1150 150H50c-27.614 0-50 22.386-50 50v600c0 27.614 22.386 50 50 50h350v100H300c-27.614 0-50 22.386-50 50s22.386 50 50 50h600c27.614 0 50-22.386 50-50s-22.386-50-50-50H800V850h350c27.614 0 50-22.386 50-50V200c0-27.614-22.386-50-50-50zM700 950H500V850h200v100zm400-200H100V250h1000v500z"/></g>
<view id="doc" viewBox="36000 0 1200 1200">
</view>
<g transform="translate(36000,0)"><path d="M735.355 14.645A50 50 0 00700 0H200c-27.614 0-50 22.386-50 50v1100c0 27.614 22.386 50 50 50h800c27.614 0 50-22.386 50-50V350a50 50 0 00-14.645-35.355l-300-300zM950 1100H250V100h429.29L950 370.71V1100zM650 250c27.614 0 50 22.386 50 50s-22.386 50-50 50H400c-27.614 0-50-22.386-50-50s22.386-50 50-50h250zM400 450h400c27.614 0 50 22.386 50 50s-22.386 50-50 50H400c-27.614 0-50-22.386-50-50s22.386-50 50-50zm450 250c0 27.614-22.386 50-50 50H400c-27.614 0-50-22.386-50-50s22.386-50 50-50h400c27.614 0 50 22.386 50 50zm0 200c0 27.614-22.386 50-50 50H400c-27.614 0-50-22.386-50-50s22.386-50 50-50h400c27.614 0 50 22.386 50 50z"/></g>
<view id="download" viewBox="37200 0 1200 1200">
</view>
<g transform="translate(37200,0)"><path d="M1050 1100c0 27.614-22.386 50-50 50H200c-27.614 0-50-22.386-50-50s22.386-50 50-50h800c27.614 0 50 22.386 50 50zM564.645 935.355C574.408 945.118 587.205 950 600 950s25.592-4.882 35.355-14.645l400-400c19.526-19.526 19.526-51.184 0-70.71-19.526-19.526-51.184-19.526-70.71 0L650 779.289V100c0-27.614-22.386-50-50-50s-50 22.386-50 50v679.29L235.355 464.644c-19.526-19.526-51.184-19.526-70.71 0-19.527 19.526-19.527 51.184 0 70.71l400 400z"/></g>
<view id="drag" viewBox="38400 0 1200 1200">
</view>
<g transform="translate(38400,0)"><path d="M1185.355 564.645a50 50 0 010 70.71l-126.923 126.923a49.994 49.994 0 01-54.49 10.84 50 50 0 01-30.865-46.195V650H650v323.077h76.923a50 50 0 0146.194 30.866 50 50 0 01-10.839 54.49l-126.923 126.922C625.592 1195.118 612.796 1200 600 1200s-25.592-4.882-35.355-14.645l-126.923-126.922a50 50 0 01-10.84-54.49 50 50 0 0146.195-30.866H550V650H226.923v76.923a50 50 0 01-85.355 35.355L14.645 635.355a50 50 0 010-70.71l126.923-126.923a50.001 50.001 0 0185.355 35.355V550H550V226.923h-76.923a50 50 0 01-46.194-30.866 50 50 0 0110.839-54.49L564.645 14.645c19.526-19.526 51.184-19.526 70.71 0l126.923 126.922a50 50 0 0110.84 54.49 50 50 0 01-46.195 30.866H650V550h323.077v-76.923a50 50 0 0185.355-35.355l126.923 126.923z"/></g>
<view id="exclamation-circle" viewBox="39600 0 1200 1200">
</view>
<g transform="translate(39600,0)"><path d="M1152.829 366.438c-30.223-71.454-73.478-135.615-128.565-190.702-55.087-55.087-119.248-98.342-190.701-128.564C759.558 15.87 680.977 0 600 0S440.44 15.87 366.437 47.172c-71.453 30.222-135.614 73.477-190.701 128.564-55.087 55.087-98.342 119.248-128.565 190.702C15.871 440.44 0 519.023 0 600s15.87 159.56 47.171 233.562c30.223 71.454 73.478 135.615 128.565 190.702 55.087 55.087 119.248 98.342 190.702 128.564C440.44 1184.13 519.022 1200 600 1200s159.56-15.87 233.563-47.172c71.453-30.222 135.614-73.477 190.701-128.564 55.087-55.087 98.342-119.248 128.565-190.702C1184.129 759.56 1200 680.977 1200 600s-15.87-159.56-47.171-233.562zM600 1100c-275.701 0-500-224.299-500-500s224.299-500 500-500 500 224.299 500 500-224.299 500-500 500zm50-796.154v423.077c0 27.614-22.386 50-50 50s-50-22.386-50-50V303.846c0-27.614 22.386-50 50-50s50 22.386 50 50zm-.06 589.844a50.745 50.745 0 010 4.93c-.04.81-.11 1.64-.19 2.45-.08.81-.18 1.63-.3 2.44-.13.8-.27 1.61-.43 2.41a49.045 49.045 0 01-1.2 4.75c-.24.78-.5 1.56-.77 2.32-.27.77-.57 1.54-.88 2.29s-.65 1.5-.99 2.24a55.143 55.143 0 01-2.3 4.32c-.42.69-.86 1.39-1.31 2.07-.45.68-.92 1.35-1.41 2.01-.48.65-.99 1.31-1.5 1.94-.52.63-1.06 1.26-1.61 1.86-.55.61-1.12 1.21-1.7 1.79-.57.58-1.18 1.15-1.78 1.7-.61.54-1.24 1.08-1.87 1.6s-1.28 1.02-1.94 1.51c-.65.48-1.33.95-2.01 1.41-.67.44-1.37.88-2.07 1.3-.7.42-1.41.82-2.13 1.2-.72.39-1.45.76-2.19 1.1-.73.35-1.49.68-2.24.99-.75.31-1.52.61-2.28.88-.76.28-1.55.54-2.32.78-.78.23-1.57.45-2.36.65-.79.2-1.59.38-2.39.55-.8.16-1.61.3-2.42.42-.8.12-1.62.23-2.43.31a50.838 50.838 0 01-7.38.18c-.82-.04-1.64-.1-2.46-.18-.81-.08-1.63-.19-2.43-.31-.81-.12-1.62-.26-2.42-.42-.8-.17-1.6-.35-2.39-.55-.79-.2-1.58-.42-2.36-.65-.77-.24-1.56-.5-2.32-.78-.77-.27-1.53-.57-2.28-.88-.76-.31-1.51-.64-2.24-.99-.74-.34-1.47-.71-2.19-1.1-.72-.38-1.43-.78-2.13-1.2-.7-.42-1.4-.86-2.08-1.3-.67-.46-1.35-.93-2-1.41-.66-.49-1.31-.99-1.94-1.51-.64-.52-1.26-1.06-1.87-1.6-.61-.55-1.21-1.12-1.79-1.7a58.166 58.166 0 01-3.3-3.65c-.51-.63-1.02-1.29-1.5-1.94-.49-.66-.96-1.33-1.41-2.01-.45-.68-.89-1.38-1.31-2.07a56.095 56.095 0 01-2.3-4.32c-.35-.74-.68-1.49-.99-2.24-.31-.75-.61-1.52-.88-2.29-.28-.76-.53-1.54-.77-2.32a48.485 48.485 0 01-1.2-4.75c-.16-.8-.31-1.61-.43-2.41-.12-.81-.22-1.63-.3-2.44-.08-.81-.15-1.64-.19-2.45a50.848 50.848 0 010-4.93c.04-.82.11-1.64.19-2.45.08-.81.18-1.63.3-2.44s.27-1.62.43-2.42a48.106 48.106 0 011.2-4.74 49.335 49.335 0 011.65-4.61c.31-.75.64-1.5.99-2.24.35-.73.72-1.47 1.1-2.19.38-.71.79-1.43 1.2-2.13.42-.7.86-1.39 1.31-2.07.45-.68.92-1.36 1.41-2.01.48-.66.99-1.31 1.5-1.94.52-.63 1.06-1.26 1.61-1.87.55-.6 1.12-1.2 1.69-1.78a48.047 48.047 0 013.66-3.3c.63-.52 1.28-1.03 1.94-1.51.65-.48 1.33-.96 2-1.41.68-.45 1.38-.89 2.08-1.3.7-.42 1.41-.82 2.13-1.21.72-.38 1.45-.75 2.19-1.09.73-.35 1.48-.68 2.24-1 .75-.31 1.51-.6 2.28-.88.76-.27 1.55-.53 2.32-.77a48.584 48.584 0 017.17-1.62c.8-.13 1.62-.23 2.43-.31.82-.08 1.64-.14 2.46-.19 1.63-.08 3.29-.08 4.92 0 .82.05 1.64.11 2.46.19.81.08 1.63.18 2.43.31a48.929 48.929 0 017.17 1.62c.77.24 1.56.5 2.32.77.76.28 1.53.57 2.28.88.75.32 1.51.65 2.24 1 .74.34 1.47.71 2.19 1.09.72.39 1.43.79 2.13 1.21.7.41 1.4.85 2.07 1.3.68.45 1.36.93 2.01 1.41.66.48 1.31.99 1.94 1.51.63.51 1.26 1.05 1.87 1.6.6.55 1.21 1.12 1.78 1.7.58.58 1.15 1.18 1.7 1.78.55.61 1.09 1.24 1.61 1.87.51.63 1.02 1.28 1.5 1.94.49.65.96 1.33 1.41 2.01.45.68.89 1.37 1.31 2.07.41.7.82 1.42 1.2 2.13.38.72.75 1.46 1.1 2.19.34.74.68 1.49.99 2.24s.61 1.52.88 2.28c.27.77.53 1.55.77 2.33.24.77.46 1.57.66 2.35a51.846 51.846 0 01.97 4.81c.12.81.22 1.63.3 2.44.08.81.15 1.63.19 2.45z"/></g>
<view id="eye-slash" viewBox="40800 0 1200 1200">
</view>
<g transform="translate(40800,0)"><path d="M972.474 305.48c-1.322-1.099-2.645-2.188-3.967-3.276l66.848-66.849c19.527-19.526 19.527-51.184 0-70.71-19.527-19.526-51.183-19.526-70.71 0l-77.88 77.879c-27.541-17.602-55.186-32.773-82.75-45.378C735.616 165.862 666.975 150 600 150s-135.614 15.862-204.016 47.146C339.647 222.91 282.97 259.36 227.526 305.48 115.624 398.565 40.174 505.014 19.715 535.422c-26.395 39.23-26.395 89.926 0 129.156 20.459 30.408 95.909 136.857 207.811 229.942 1.322 1.099 2.645 2.188 3.967 3.276l-66.848 66.849c-19.527 19.526-19.527 51.184 0 70.71 9.763 9.763 22.56 14.645 35.355 14.645s25.592-4.882 35.355-14.645l77.88-77.879c27.541 17.602 55.186 32.773 82.75 45.378C464.384 1034.138 533.025 1050 600 1050s135.614-15.862 204.016-47.146C860.353 977.09 917.03 940.64 972.474 894.52c111.902-93.085 187.352-199.534 207.811-229.942 26.395-39.23 26.395-89.926 0-129.156-20.459-30.408-95.909-136.857-207.811-229.942zm-869.79 303.275a15.624 15.624 0 010-17.51C126.184 556.317 339.793 250 600 250c76.69 0 149.33 26.613 214.25 65.039L302.522 826.767C191.665 737.353 116.116 628.72 102.684 608.755zm994.632 0C1073.816 643.683 860.207 950 600 950c-76.69 0-149.33-26.613-214.25-65.04l511.728-511.727c110.857 89.414 186.406 198.047 199.838 218.012a15.624 15.624 0 010 17.51z"/></g>
<view id="eye" viewBox="42000 0 1200 1200">
</view>
<g transform="translate(42000,0)"><path d="M972.474 305.48c-55.444-46.12-112.121-82.569-168.458-108.334C735.614 165.862 666.974 150 600 150s-135.614 15.862-204.016 47.146C339.647 222.91 282.97 259.36 227.526 305.48 115.624 398.565 40.174 505.014 19.715 535.422c-26.395 39.23-26.395 89.926 0 129.156 20.459 30.408 95.909 136.857 207.811 229.942 55.444 46.12 112.121 82.569 168.458 108.334C464.386 1034.138 533.026 1050 600 1050s135.614-15.862 204.016-47.146C860.353 977.09 917.03 940.64 972.474 894.52c111.902-93.085 187.352-199.534 207.811-229.942 26.395-39.23 26.395-89.926 0-129.156-20.459-30.408-95.909-136.857-207.811-229.942zm124.842 303.275C1073.816 643.683 860.207 950 600 950S126.184 643.683 102.684 608.755a15.624 15.624 0 010-17.51C126.184 556.317 339.793 250 600 250s473.816 306.317 497.316 341.245a15.624 15.624 0 010 17.51zM600 350c-66.777 0-129.558 26.005-176.776 73.223C376.004 470.442 350 533.223 350 600s26.005 129.558 73.224 176.777C470.442 823.995 533.223 850 600 850s129.558-26.005 176.776-73.223C823.996 729.558 850 666.777 850 600s-26.005-129.558-73.224-176.777C729.558 376.005 666.777 350 600 350zm0 400c-82.71 0-150-67.29-150-150s67.29-150 150-150 150 67.29 150 150-67.29 150-150 150z"/></g>
<view id="fb" viewBox="43200 0 1200 1200">
</view>
<g transform="translate(43200,0)"><path d="M984.615 50h-769.23C124.19 50 50 124.191 50 215.385v769.23C50 1075.81 124.191 1150 215.385 1150h769.23c91.194 0 165.385-74.191 165.385-165.385v-769.23C1150 124.19 1075.809 50 984.615 50zM1050 984.615c0 36.054-29.331 65.385-65.385 65.385H750V700h100c27.614 0 50-22.386 50-50s-22.386-50-50-50H750V497.586C750 400 791.585 400 825 400h75c27.614 0 50-22.386 50-50s-22.386-50-50-50h-75c-51.446 0-90.944 13.482-120.753 41.218-18.264 16.994-32.096 39.014-41.112 65.452C654.297 432.587 650 462.325 650 497.586V600h-50c-27.614 0-50 22.386-50 50s22.386 50 50 50h50v350H215.385C179.33 1050 150 1020.669 150 984.615v-769.23C150 179.33 179.331 150 215.385 150h769.23c36.054 0 65.385 29.331 65.385 65.385v769.23z"/></g>
<view id="file" viewBox="44400 0 1200 1200">
</view>
<g transform="translate(44400,0)"><path d="M1099.777 345.352c-.01-.101-.013-.203-.023-.304a49.7 49.7 0 00-8.128-22.745l-.031-.05a49.76 49.76 0 00-1.247-1.774c-.061-.083-.119-.17-.18-.253a51.171 51.171 0 00-1.2-1.541c-.11-.135-.21-.273-.32-.407a50.06 50.06 0 00-1.223-1.419c-.13-.145-.251-.296-.382-.44a50.023 50.023 0 00-1.685-1.771l-.003-.003-300-300a50.412 50.412 0 00-1.773-1.688c-.146-.133-.3-.257-.447-.387a50.858 50.858 0 00-1.413-1.217c-.135-.11-.275-.214-.41-.323a49.981 49.981 0 00-1.537-1.197c-.085-.063-.172-.12-.257-.183a50.293 50.293 0 00-1.77-1.244l-.055-.035A49.7 49.7 0 00754.952.246c-.1-.01-.203-.014-.304-.023a50.28 50.28 0 00-2.144-.16A50.116 50.116 0 00750 0H150c-27.614 0-50 22.386-50 50v1100c0 27.614 22.386 50 50 50h900c27.614 0 50-22.386 50-50V350c0-.837-.021-1.672-.063-2.504a50.011 50.011 0 00-.16-2.144zM800 170.71L929.29 300H800V170.71zM200 1100V100h500v250c0 27.614 22.386 50 50 50h250v700H200z"/></g>
<view id="folder" viewBox="45600 0 1200 1200">
</view>
<g transform="translate(45600,0)"><path d="M1137.5 250H520.71L389.018 118.306C377.212 106.5 361.517 100 344.822 100H62.5C28.038 100 0 128.037 0 162.5v875c0 34.463 28.038 62.5 62.5 62.5h1075c34.462 0 62.5-28.037 62.5-62.5v-725c0-34.463-28.038-62.5-62.5-62.5zm-37.5 750H100V200h229.29l131.693 131.694C472.788 343.5 488.483 350 505.178 350H1100v650z"/></g>
<view id="gear" viewBox="46800 0 1200 1200">
</view>
<g transform="translate(46800,0)"><path d="M675 1200H525c-41.355 0-75-33.645-75-75v-121.085a429.012 429.012 0 01-29.536-12.247l-85.629 85.63c-14.166 14.165-33 21.966-53.033 21.966s-38.868-7.801-53.033-21.967L122.703 971.231c-14.166-14.166-21.967-33-21.967-53.033s7.801-38.867 21.967-53.033l85.629-85.629A428.986 428.986 0 01196.085 750H75c-41.355 0-75-33.645-75-75V525c0-41.355 33.645-75 75-75h121.085a429.012 429.012 0 0112.247-29.536l-85.63-85.629c-14.165-14.166-21.966-33-21.966-53.033s7.801-38.867 21.967-53.033l106.066-106.066c29.243-29.243 76.824-29.242 106.066 0l85.629 85.629A429.007 429.007 0 01450 196.085V75c0-41.355 33.645-75 75-75h150c41.355 0 75 33.645 75 75v121.085a429.007 429.007 0 0129.536 12.247l85.629-85.63c29.242-29.242 76.823-29.241 106.066 0l106.066 106.067c14.166 14.165 21.967 33 21.967 53.033s-7.801 38.867-21.967 53.033l-85.629 85.629A429.012 429.012 0 011003.915 450H1125c41.355 0 75 33.645 75 75v150c0 41.355-33.645 75-75 75h-121.085a429.012 429.012 0 01-12.247 29.536l85.63 85.629c14.165 14.166 21.966 33 21.966 53.033s-7.801 38.868-21.967 53.033l-106.066 106.066c-14.165 14.166-33 21.967-53.033 21.967s-38.867-7.801-53.033-21.967l-85.629-85.629A429.012 429.012 0 01750 1003.915V1125c0 41.355-33.645 75-75 75zm-125-100h100V929.264l36.9-10.017a328.765 328.765 0 0077.357-32.073l33.181-19.025 120.76 120.76 70.71-70.711-120.76-120.76 19.026-33.18a328.765 328.765 0 0032.073-77.357L929.264 650H1100V550H929.264l-10.017-36.9a328.765 328.765 0 00-32.073-77.357l-19.025-33.181 120.76-120.76-70.71-70.71-120.761 120.76-33.18-19.026a328.763 328.763 0 00-77.357-32.073L650 270.736V100H550v170.736l-36.9 10.017a328.763 328.763 0 00-77.357 32.073l-33.18 19.025-120.761-120.76-70.71 70.711 120.76 120.76-19.026 33.18a328.765 328.765 0 00-32.073 77.357L270.736 550H100v100h170.736l10.017 36.9a328.765 328.765 0 0032.073 77.357l19.025 33.181-120.76 120.76 70.71 70.71 120.76-120.76 33.182 19.026a328.765 328.765 0 0077.356 32.073L550 929.264V1100zm50-280.77c-58.559 0-113.612-22.803-155.02-64.21-41.407-41.408-64.21-96.461-64.21-155.02s22.803-113.612 64.21-155.02c41.408-41.407 96.461-64.21 155.02-64.21s113.612 22.803 155.02 64.21c41.407 41.408 64.21 96.461 64.21 155.02s-22.803 113.612-64.21 155.02c-41.408 41.407-96.461 64.21-155.02 64.21zm0-338.46c-65.744 0-119.23 53.486-119.23 119.23S534.255 719.23 600 719.23 719.23 665.745 719.23 600 665.745 480.77 600 480.77z"/></g>
<view id="github" viewBox="48000 0 1200 1200">
</view>
<g transform="translate(48000,0)"><path d="M1024.264 175.736c-55.087-55.087-119.248-98.342-190.702-128.564C759.56 15.87 680.977 0 600 0S440.44 15.87 366.438 47.172c-71.454 30.222-135.615 73.477-190.702 128.564-55.087 55.087-98.342 119.248-128.564 190.702C15.87 440.44 0 519.022 0 600s15.87 159.56 47.172 233.563c30.222 71.453 73.477 135.614 128.564 190.701 55.087 55.087 119.248 98.342 190.702 128.565C440.44 1184.129 519.023 1200 600 1200s159.56-15.87 233.562-47.171c71.454-30.223 135.615-73.478 190.702-128.565 55.087-55.087 98.342-119.248 128.564-190.701C1184.13 759.558 1200 680.977 1200 600s-15.87-159.56-47.172-233.563c-30.222-71.453-73.477-135.614-128.564-190.701zM450 1077.012V971.7c0-45.524 16.316-64.01 29.426-78.863 3.97-4.498 8.076-9.15 11.725-14.436a50 50 0 00-30.494-77.252C358.557 778.875 300 718.17 300 634.6c0-42.103 20.71-77.383 40.97-106.341a49.998 49.998 0 009.03-28.662V405.67c33.96 8.085 58.781 23.398 79.991 36.482l.658.405a50 50 0 0037.661 6.124c37.934-8.893 82.083-9.617 131.69-9.617s93.756.724 131.69 9.617a50.005 50.005 0 0037.661-6.124l.658-.405c21.21-13.084 46.031-28.397 79.991-36.482v93.93a49.998 49.998 0 009.03 28.66C879.29 557.22 900 592.499 900 634.602c0 83.57-58.557 144.274-160.657 166.548a50 50 0 00-30.494 77.252c3.649 5.287 7.755 9.938 11.725 14.436C733.684 907.69 750 926.176 750 971.7v105.312C702.628 1091.941 652.238 1100 600 1100s-102.628-8.06-150-22.988zm400-44.121V971.7c0-40.64-8.745-71.37-19.755-94.514 12.313-5.152 24.05-10.876 35.168-17.157 29.718-16.79 55.2-37.637 75.738-61.96C979.651 752.475 1000 695.95 1000 634.6c0-62.66-25.081-112.465-50-150.371V350c0-27.614-22.386-50-50-50-77.094 0-130.619 26.188-166.124 47.108-42.033-7.366-85.852-8.045-133.876-8.045s-91.843.68-133.876 8.045C430.619 326.188 377.094 300 300 300c-27.614 0-50 22.386-50 50v134.229c-24.919 37.906-50 87.71-50 150.372 0 61.348 20.35 117.875 58.849 163.468 20.538 24.324 46.02 45.17 75.738 61.96 11.117 6.282 22.855 12.006 35.168 17.158C358.745 900.33 350 931.06 350 971.7v61.19C200.662 946.313 100 784.693 100 600c0-275.701 224.299-500 500-500s500 224.299 500 500c0 184.692-100.662 346.312-250 432.89z"/></g>
<view id="google" viewBox="49200 0 1200 1200">
</view>
<g transform="translate(49200,0)"><path d="M900 600c0 80.133-31.206 155.47-87.868 212.132C755.47 868.795 680.132 900 600 900s-155.47-31.205-212.132-87.868C331.206 755.47 300 680.132 300 600s31.206-155.47 87.868-212.132C444.53 331.205 519.868 300 600 300c71.626 0 154.812 33.042 211.924 84.179 20.573 18.42 22.318 50.03 3.898 70.602-9.875 11.029-23.545 16.647-37.268 16.648-11.876.002-23.791-4.204-33.335-12.75C706.632 424.129 646.916 400 600 400c-110.28 0-200 89.72-200 200s89.72 200 200 200c93.022 0 171.415-63.835 193.673-150H650c-27.614 0-50-22.386-50-50s22.386-50 50-50h200c27.614 0 50 22.386 50 50zm250-384.615v769.23c0 91.194-74.191 165.385-165.385 165.385h-769.23C124.19 1150 50 1075.809 50 984.615v-769.23C50 124.19 124.191 50 215.385 50h769.23C1075.81 50 1150 124.191 1150 215.385zm-100 0c0-36.054-29.332-65.385-65.385-65.385h-769.23C179.332 150 150 179.331 150 215.385v769.23c0 36.054 29.332 65.385 65.385 65.385h769.23c36.053 0 65.385-29.331 65.385-65.385v-769.23z"/></g>
<view id="heart" viewBox="50400 0 1200 1200">
</view>
<g transform="translate(50400,0)"><path d="M1057.71 136.674C1004.223 81.091 930.274 50.48 849.488 50.48c-74.202 0-148.428 26.508-203.647 72.728-17.574 14.71-32.9 31.055-45.84 48.74-12.94-17.685-28.266-34.03-45.84-48.74-55.219-46.22-129.445-72.728-203.647-72.728-80.786 0-154.735 30.611-208.224 86.194-29.47 30.625-52.294 68.229-67.838 111.768C58.227 293.89 50 345.851 50 402.885c0 87.809 28.521 181.97 84.771 279.867 43.47 75.652 103.711 154.05 179.054 233.014 126.948 133.052 252.18 221.46 257.45 225.158 8.619 6.051 18.672 9.076 28.725 9.076s20.106-3.025 28.726-9.076c5.27-3.698 130.5-92.106 257.449-225.158 75.343-78.964 135.585-157.362 179.054-233.014 56.25-97.897 84.771-192.058 84.771-279.867 0-57.034-8.227-108.996-24.451-154.443-15.544-43.54-38.368-81.143-67.838-111.768zM814.985 845.518C729.73 935.059 643.412 1004.593 600 1037.756c-43.417-33.167-129.73-102.697-214.984-192.238C277.803 732.913 150 564.713 150 402.885c0-85.05 22.25-153.127 64.345-196.87 34.462-35.812 82.82-55.535 136.168-55.535C448.57 150.48 550 216.12 550 325.961c0 27.615 22.386 50 50 50s50-22.385 50-50c0-109.842 101.429-175.48 199.487-175.48 53.348 0 101.706 19.722 136.168 55.534 42.095 43.743 64.345 111.82 64.345 196.87 0 161.828-127.803 330.028-235.016 442.633z"/></g>
<view id="history" viewBox="51600 0 1200 1200">
</view>
<g transform="translate(51600,0)"><path d="M1152.829 366.438C1184.129 440.44 1200 519.022 1200 600s-15.87 159.56-47.171 233.563c-30.223 71.453-73.478 135.614-128.565 190.701s-119.248 98.342-190.701 128.565C759.558 1184.129 680.977 1200 600 1200c-150.754 0-294.878-56.133-405.822-158.058C83.924 940.65 15.832 803.049 2.444 654.487c-2.479-27.503 17.808-51.807 45.31-54.286 27.508-2.47 51.808 17.808 54.287 45.311C125.389 904.612 339.465 1100 600 1100c275.7 0 500-224.299 500-500S875.7 100 600 100c-159.12 0-305.86 74.62-399.446 199.074l65.57 65.57A50 50 0 01230.77 450H50c-27.614 0-50-22.386-50-50V219.23a50 50 0 0185.355-35.355l43.978 43.978A602.522 602.522 0 01284.48 89.57C379.091 30.973 488.196 0 600 0c80.978 0 159.56 15.87 233.563 47.172 71.453 30.222 135.614 73.477 190.701 128.564 55.087 55.087 98.342 119.248 128.565 190.702zM550 250c-27.614 0-50 22.386-50 50v338.461c0 1.96.125 3.888.344 5.788-1.686 14.638 3.072 29.878 14.3 41.106l200 200C724.409 895.12 737.205 900 750 900s25.592-4.881 35.355-14.645c19.526-19.526 19.526-51.184 0-70.71L600 629.289V300c0-27.614-22.386-50-50-50z"/></g>
<view id="home" viewBox="52800 0 1200 1200">
</view>
<g transform="translate(52800,0)"><path d="M1179.408 559.563l-550-400c-17.531-12.75-41.285-12.75-58.816 0l-550 400c-22.333 16.242-27.27 47.513-11.029 69.846 16.242 22.333 47.514 27.27 69.845 11.028L150 589.097V1000c0 27.614 22.386 50 50 50h250c27.614 0 50-22.386 50-50V700h200v300c0 27.614 22.386 50 50 50h250c27.614 0 50-22.386 50-50V589.098l70.592 51.339a49.77 49.77 0 0029.367 9.566c15.453 0 30.693-7.14 40.478-20.594 16.242-22.333 11.304-53.604-11.029-69.846zM950 950H800V650c0-27.614-22.386-50-50-50H450c-27.614 0-50 22.386-50 50v300H250V516.37l350-254.545L950 516.37V950z"/></g>
<view id="html" viewBox="54000 0 1200 1200">
</view>
<g transform="translate(54000,0)"><path d="M261.589 932.009l-250-300c-15.452-18.542-15.452-45.476 0-64.018l250-300c17.677-21.215 49.207-24.08 70.42-6.402 21.214 17.679 24.08 49.206 6.402 70.42L115.085 600l223.326 267.991c17.678 21.214 14.812 52.741-6.402 70.42a49.797 49.797 0 01-31.982 11.59c-14.327 0-28.55-6.125-38.438-17.992zM938.41 267.99c-17.677-21.214-49.206-24.08-70.42-6.402s-24.08 49.206-6.402 70.42L1084.915 600 861.589 867.991c-17.678 21.214-14.812 52.741 6.402 70.42a49.79 49.79 0 0031.982 11.59c14.326 0 28.55-6.126 38.438-17.992l250-300c15.452-18.542 15.452-45.476 0-64.018l-250-300zm-505.967 778.825a49.884 49.884 0 0017.548 3.198c20.244 0 39.297-12.386 46.824-32.458l300-800c9.697-25.856-3.404-54.676-29.26-64.372-25.856-9.698-54.676 3.405-64.372 29.26l-300 800c-9.697 25.856 3.404 54.676 29.26 64.372z"/></g>
<view id="info-circle" viewBox="55200 0 1200 1200">
</view>
<g transform="translate(55200,0)"><path d="M600 1200c-80.978 0-159.56-15.871-233.563-47.172-71.453-30.222-135.614-73.477-190.701-128.563-55.087-55.087-98.342-119.25-128.565-190.703C15.871 759.56 0 680.978 0 600s15.87-159.56 47.171-233.563c30.223-71.453 73.478-135.615 128.565-190.702 55.087-55.086 119.248-98.341 190.702-128.563C440.44 15.872 519.022 0 600 0s159.56 15.871 233.563 47.172c71.453 30.222 135.614 73.477 190.701 128.563 55.087 55.087 98.342 119.25 128.565 190.702C1184.129 440.44 1200 519.023 1200 600s-15.87 159.56-47.171 233.563c-30.223 71.453-73.478 135.615-128.565 190.702-55.087 55.086-119.248 98.341-190.701 128.563C759.558 1184.128 680.977 1200 600 1200zm0-1100c-67.521 0-132.997 13.213-194.607 39.271-59.534 25.181-113.011 61.24-158.946 107.175-45.936 45.936-81.994 99.413-107.175 158.947C113.212 467.003 100 532.479 100 600s13.213 132.997 39.272 194.607c25.18 59.534 61.24 113.011 107.175 158.947 45.935 45.934 99.412 81.994 158.946 107.175C467.003 1086.787 532.479 1100 600 1100s132.997-13.213 194.607-39.271c59.534-25.181 113.011-61.24 158.946-107.175 45.936-45.936 81.994-99.413 107.175-158.947C1086.788 732.997 1100 667.521 1100 600s-13.213-132.997-39.272-194.607c-25.18-59.534-61.24-113.011-107.175-158.947-45.935-45.934-99.412-81.994-158.946-107.175C732.997 113.213 667.521 100 600 100zm50 800V550c0-27.614-22.386-50-50-50s-50 22.386-50 50v350c0 27.614 22.386 50 50 50s50-22.386 50-50zm0-550v-50c0-27.614-22.386-50-50-50s-50 22.386-50 50v50c0 27.614 22.386 50 50 50s50-22.386 50-50z"/></g>
<view id="kanban" viewBox="56400 0 1200 1200">
</view>
<g transform="translate(56400,0)"><path d="M1111.27 100H88.73C39.803 100 0 139.804 0 188.73v822.54c0 48.926 39.804 88.73 88.73 88.73h1022.54c48.926 0 88.73-39.804 88.73-88.73V188.73c0-48.926-39.804-88.73-88.73-88.73zM500 700H100V500h400v200zm0-500v200H100V200h400zM100 800h400v200H100V800zm1000 200H600V200h500v800z"/></g>
<view id="legal" viewBox="57600 0 1200 1200">
</view>
<g transform="translate(57600,0)"><path d="M1150 200H650v-50c0-27.614-22.386-50-50-50s-50 22.386-50 50v50H50c-27.614 0-50 22.386-50 50s22.386 50 50 50h184.303L102.416 723.92a49.588 49.588 0 00-1.54 6.071c-.03.161-.058.322-.086.484-.13.728-.244 1.462-.342 2.2-.033.254-.066.507-.096.76-.075.641-.134 1.287-.185 1.935-.024.309-.052.616-.07.925a49.97 49.97 0 00-.068 1.842c-.008.317-.023.634-.024.95 0 .067-.005.133-.005.2 0 55.637 20.378 108.111 57.38 147.757C195.273 927.642 245.923 950 300 950s104.728-22.358 142.62-62.956c37.002-39.646 57.38-92.12 57.38-147.758 0-.066-.005-.132-.005-.198 0-.317-.016-.634-.024-.951a49.97 49.97 0 00-.068-1.842c-.018-.309-.046-.616-.07-.925-.05-.648-.11-1.294-.185-1.934-.03-.254-.063-.507-.096-.76a49.388 49.388 0 00-.342-2.201 49.588 49.588 0 00-1.626-6.555L365.697 300H550v700H400c-27.614 0-50 22.386-50 50s22.386 50 50 50h400c27.614 0 50-22.386 50-50s-22.386-50-50-50H650V300h186.349L702.445 725.62a49.666 49.666 0 00-1.552 6.063c-.026.132-.047.265-.07.398a48.732 48.732 0 00-.648 4.973c-.026.312-.052.625-.071.937-.037.597-.056 1.2-.072 1.802-.009.335-.023.67-.025 1.004 0 .092-.007.182-.007.274 0 55.265 20.446 107.364 57.572 146.7C795.447 927.899 846.03 950 900 950s104.553-22.1 142.428-62.23c37.126-39.335 57.572-91.434 57.572-146.699 0-.092-.007-.182-.007-.274-.002-.334-.016-.67-.025-1.004a52.302 52.302 0 00-.072-1.802c-.019-.312-.045-.625-.07-.937a51.121 51.121 0 00-.287-2.69 48.732 48.732 0 00-.361-2.283c-.024-.133-.045-.266-.07-.398a49.666 49.666 0 00-1.553-6.063L963.65 300H1150c27.614 0 50-22.386 50-50s-22.386-50-50-50zM300 850c-38.9 0-72.68-24.72-89.205-60.714h178.41C372.68 825.28 338.9 850 300 850zm82.08-160.714H217.92L300 425.456l82.08 263.83zM900 850c-38.604 0-72.164-23.953-88.824-58.929h177.648C972.164 826.047 938.604 850 900 850zm81.854-158.929H818.146L900 430.895l81.854 260.176z"/></g>
<view id="line-chart" viewBox="58800 0 1200 1200">
</view>
<g transform="translate(58800,0)"><path d="M1200 1050c0 27.614-22.386 50-50 50H50c-27.614 0-50-22.386-50-50V150c0-27.614 22.386-50 50-50s50 22.386 50 50v850h1050c27.614 0 50 22.386 50 50zM166.086 836.74C175.7 845.615 187.86 850 199.988 850c13.468 0 26.897-5.41 36.752-16.086l266.511-288.72 213.3 191.97a50 50 0 0071.077-4.24l350-399.999c18.185-20.782 16.08-52.37-4.703-70.554-20.782-18.184-52.37-16.079-70.554 4.704l-316.61 361.841-212.313-191.08c-20.343-18.31-51.625-16.86-70.188 3.25l-300 325c-18.73 20.291-17.465 51.924 2.826 70.654z"/></g>
<view id="link" viewBox="60000 0 1200 1200">
</view>
<g transform="translate(60000,0)"><path d="M1150 292.976c0 64.901-25.273 125.918-71.166 171.81l-272.91 272.91c-45.214 45.215-104.89 70.01-168.318 70.01-.974 0-1.945-.005-2.921-.017-63.773-.765-124.161-26.454-170.04-72.334-19.527-19.526-19.526-51.185 0-70.711 19.526-19.526 51.184-19.526 70.711.001 27.311 27.312 63.013 42.601 100.528 43.051 37.334.434 72.63-14.009 99.33-40.71l272.91-272.91c55.746-55.746 55.746-146.453 0-202.2-27.005-27.004-62.91-41.876-101.1-41.876s-74.095 14.872-101.1 41.876c-.103.104-.206.207-.31.309l-120.57 118.478c-19.695 19.356-51.353 19.078-70.707-.618-19.355-19.696-19.078-51.354.618-70.708l120.409-118.321C781.239 75.219 842.194 50 907.024 50c64.9 0 125.918 25.274 171.81 71.166 45.892 45.892 71.166 106.909 71.166 171.81zm-635.045 596.36l-120.569 118.48a46.12 46.12 0 00-.31.308c-27.005 27.004-62.91 41.876-101.1 41.876s-74.095-14.872-101.1-41.877C164.872 981.118 150 945.213 150 907.023s14.872-74.094 41.876-101.098l272.91-272.911c55.38-55.379 143.168-54.351 199.859 2.34 19.526 19.526 51.184 19.526 70.71 0 19.526-19.526 19.526-51.184 0-70.71-45.88-45.88-106.267-71.568-170.04-72.333-64.545-.766-125.33 24.084-171.24 69.992l-272.91 272.91C75.275 781.107 50 842.124 50 907.024s25.273 125.919 71.166 171.811c45.893 45.893 106.91 71.166 171.81 71.166 64.822 0 125.774-25.216 171.647-71.002l120.422-118.335c19.696-19.355 19.973-51.012.618-70.708-19.354-19.695-51.01-19.974-70.708-.618z"/></g>
<view id="location" viewBox="61200 0 1200 1200">
</view>
<g transform="translate(61200,0)"><path d="M918.345 132.925c-41.307-41.65-89.43-74.36-143.032-97.22C719.763 12.012 660.78 0 600 0S480.237 12.013 424.687 35.704c-53.602 22.86-101.725 55.57-143.032 97.22-41.277 41.623-73.687 90.096-96.329 144.072C161.886 332.88 150 392.207 150 453.333c0 74.378 22.651 159.847 67.324 254.031 34.503 72.745 82.36 151.376 142.24 233.711 101.083 138.99 200.742 239.905 204.934 244.133a50 50 0 0071.004 0c4.192-4.228 103.85-105.143 204.935-244.133 59.88-82.335 107.736-160.966 142.239-233.71C1027.349 613.18 1050 527.71 1050 453.332c0-61.126-11.886-120.454-35.326-176.337-22.642-53.976-55.052-102.45-96.33-144.071zm-318.376 944.137c-37.178-40.649-98.52-110.914-159.532-194.804C315.853 710.954 250 562.634 250 453.333 250 258.505 407.01 100 600 100s350 158.505 350 353.333c0 219.932-254.65 519.317-350.031 623.729zM600 200c-66.777 0-129.558 26.005-176.776 73.224S350 383.223 350 450s26.005 129.558 73.224 176.776S533.223 700 600 700s129.558-26.005 176.776-73.224S850 516.777 850 450s-26.005-129.558-73.224-176.776S666.777 200 600 200zm0 400c-82.71 0-150-67.29-150-150s67.29-150 150-150 150 67.29 150 150-67.29 150-150 150z"/></g>
<view id="lock" viewBox="62400 0 1200 1200">
</view>
<g transform="translate(62400,0)"><path d="M963.763 450H900V200C900 89.72 810.28 0 700 0H500C389.72 0 300 89.72 300 200v250h-63.763C188.686 450 150 488.686 150 536.237v577.526c0 47.551 38.686 86.237 86.237 86.237h727.526c47.551 0 86.237-38.686 86.237-86.237V536.237c0-47.551-38.686-86.237-86.237-86.237zM400 200c0-55.14 44.86-100 100-100h200c55.14 0 100 44.86 100 100v250H400V200zm550 900H250V550h700v550zM500 650c0-27.614 22.386-50 50-50h100c27.614 0 50 22.386 50 50s-22.386 50-50 50v100c0 27.614-22.386 50-50 50s-50-22.386-50-50V700c-27.614 0-50-22.386-50-50z"/></g>
<view id="magnify" viewBox="63600 0 1200 1200">
</view>
<g transform="translate(63600,0)"><path d="M808.81 738.1c23.525-29.772 42.885-62.46 57.771-97.656C888.756 588.016 900 532.353 900 475s-11.244-113.016-33.419-165.444c-21.408-50.616-52.045-96.061-91.06-135.077s-84.461-69.652-135.077-91.06C588.016 61.244 532.353 50 475 50S361.984 61.244 309.556 83.419c-50.616 21.408-96.061 52.045-135.077 91.06s-69.652 84.461-91.06 135.077C61.244 361.984 50 417.647 50 475s11.244 113.016 33.42 165.444c21.407 50.616 52.044 96.061 91.06 135.077s84.46 69.652 135.076 91.06C361.984 888.756 417.647 900 475 900s113.016-11.244 165.444-33.419c35.196-14.886 67.884-34.246 97.656-57.77l301.545 301.544c9.763 9.764 22.56 14.645 35.355 14.645s25.592-4.881 35.355-14.645c19.526-19.526 19.526-51.184 0-70.71L808.811 738.1zM475 800c-179.206 0-325-145.794-325-325s145.794-325 325-325 325 145.794 325 325-145.794 325-325 325z"/></g>
<view id="mail" viewBox="64800 0 1200 1200">
</view>
<g transform="translate(64800,0)"><path d="M1150 100H50c-27.614 0-50 22.386-50 50v900c0 27.614 22.386 50 50 50h1100c27.614 0 50-22.386 50-50V150c0-27.614-22.386-50-50-50zm-50 100v152.712L600 670.403 100 352.712V200h1000zM100 1000V471.19l455.93 289.69c13.594 8.638 28.83 12.955 44.07 12.955 15.237 0 30.48-4.32 44.07-12.954L1100 471.19V1000H100z"/></g>
<view id="merge" viewBox="66000 0 1200 1200">
</view>
<g transform="translate(66000,0)"><path d="M457.692 253.846C457.692 141.445 366.247 50 253.846 50 141.446 50 50 141.445 50 253.846c0 93.768 63.645 172.937 150 196.614v301.963C112.765 774.728 48.077 853.988 48.077 948.077 48.077 1059.417 138.66 1150 250 1150s201.923-90.582 201.923-201.923c0-94.089-64.688-173.349-151.923-195.654V452.42c90.244-20.968 157.692-102.042 157.692-198.574zm-307.692 0C150 196.586 196.585 150 253.846 150s103.846 46.585 103.846 103.846-46.585 103.846-103.846 103.846S150 311.107 150 253.846zm201.923 694.23C351.923 1004.279 306.2 1050 250 1050s-101.923-45.722-101.923-101.923S193.8 846.154 250 846.154s101.923 45.722 101.923 101.923zM1000 752.424V369.022c0-43.933-16.901-85.809-47.59-117.914C920.903 218.15 879.145 200 834.823 200H672.332l63.468-65.095c19.277-19.772 18.877-51.428-.895-70.705s-51.426-18.878-70.705.895l-150 153.846a50 50 0 00.906 70.717l150 146.154c9.722 9.471 22.311 14.188 34.89 14.188 13.014 0 26.017-5.05 35.816-15.107 19.27-19.778 18.859-51.434-.918-70.705L669.016 300h165.808c34.72 0 65.176 32.253 65.176 69.022v383.4c-87.235 22.306-151.923 101.566-151.923 195.655C748.077 1059.417 838.66 1150 950 1150s201.923-90.582 201.923-201.923c0-94.089-64.688-173.349-151.923-195.654zM950 1050c-56.2 0-101.923-45.722-101.923-101.923S893.8 846.154 950 846.154s101.923 45.722 101.923 101.923S1006.2 1050 950 1050z"/></g>
<view id="pause" viewBox="67200 0 1200 1200">
</view>
<g transform="translate(67200,0)"><path d="M450 50H100c-27.614 0-50 22.386-50 50v1000c0 27.614 22.386 50 50 50h350c27.614 0 50-22.386 50-50V100c0-27.614-22.386-50-50-50zm-50 1000H150V150h250v900zM1100 50H750c-27.614 0-50 22.386-50 50v1000c0 27.614 22.386 50 50 50h350c27.614 0 50-22.386 50-50V100c0-27.614-22.386-50-50-50zm-50 1000H800V150h250v900z"/></g>
<view id="pen" viewBox="68400 0 1200 1200">
</view>
<g transform="translate(68400,0)"><path d="M1084.944 111.244c-81.528-81.528-214.184-81.527-295.713 0l-76.272 76.272-486.516 486.515c-61.152 61.153-107.607 133.427-138.076 214.814-25.457 68-38.365 139.043-38.365 211.155 0 27.614 22.386 50 50 50 72.109 0 143.148-12.907 211.146-38.361l.01-.004c81.388-30.47 153.662-76.926 214.813-138.077l486.515-486.515 76.272-76.272.315-.318.927-.944c38.924-39.59 60.231-91.967 59.996-147.485-.235-55.517-21.985-107.712-61.24-146.967l-3.812-3.813zM455.26 902.847c-43.501 43.502-93.774 78.089-149.787 103.097L194.059 894.529c25.007-56.012 59.593-106.285 103.095-149.787l451.16-451.16L906.42 451.689l-451.16 451.16zm563.416-563.43l-41.546 41.56-158.105-158.105 40.917-40.917c42.538-42.538 111.753-42.538 154.29-.002l3.809 3.81.002.002c42.18 42.18 42.471 111.1.633 153.652z"/></g>
<view id="phone" viewBox="69600 0 1200 1200">
</view>
<g transform="translate(69600,0)"><path d="M935.355 714.645c-19.527-19.526-51.183-19.526-70.71 0l-68.994 68.994C644.785 665.9 522.662 544.019 416 404.712l69.356-69.357c19.527-19.526 19.527-51.184 0-70.71l-200-200c-19.527-19.526-51.183-19.526-70.71 0l-150 150a50.002 50.002 0 00-12.995 48.097c26.154 99.234 68.033 199.559 121.113 290.13 56.402 96.243 126.096 186.14 207.145 267.195 81.25 81.255 171.022 150.945 266.838 207.141.074.044.148.088.222.13 90.193 52.874 190.571 94.719 290.284 121.01a50.003 50.003 0 0048.104-12.992l150-150c19.526-19.527 19.526-51.185 0-70.711l-200-200zm-.056 329.346c-81.86-24.11-163.453-59.383-237.58-102.816l-.182-.108c-88.552-51.913-171.626-116.413-246.916-191.709-75.027-75.033-139.485-158.152-191.583-247.048-43.648-74.478-78.991-156.078-103.027-237.61L250 170.71 379.29 300l-64.645 64.645c-17.448 17.447-19.56 45.012-4.973 64.913 61.953 84.527 127.991 161.803 201.888 236.245 77.592 78.166 162.09 151.471 258.317 224.105 19.907 15.025 47.842 13.083 65.478-4.553L900 820.711 1029.29 950l-93.991 93.991z"/></g>
<view id="play-circle" viewBox="70800 0 1200 1200">
</view>
<g transform="translate(70800,0)"><path d="M1152.828 366.438c-30.222-71.454-73.477-135.615-128.563-190.702-55.087-55.087-119.25-98.342-190.703-128.564C759.56 15.87 680.978 0 600 0S440.44 15.87 366.437 47.172c-71.453 30.222-135.615 73.477-190.702 128.564-55.086 55.087-98.341 119.248-128.563 190.702C15.872 440.44 0 519.023 0 600s15.871 159.56 47.172 233.562c30.222 71.454 73.477 135.615 128.563 190.702 55.087 55.087 119.25 98.342 190.702 128.564C440.44 1184.13 519.023 1200 600 1200s159.56-15.87 233.563-47.172c71.453-30.222 135.615-73.477 190.702-128.564 55.086-55.087 98.341-119.248 128.563-190.702C1184.128 759.56 1200 680.977 1200 600s-15.871-159.56-47.172-233.562zM600 1100c-275.701 0-500-224.299-500-500s224.299-500 500-500 500 224.299 500 500-224.299 500-500 500zm226.5-542.4l-350-218.75a50 50 0 00-76.5 42.4v437.5a50 50 0 0076.5 42.4l350-218.75a50 50 0 000-84.8zM500 728.537V471.463L705.66 600 500 728.537z"/></g>
<view id="play" viewBox="72000 0 1200 1200">
</view>
<g transform="translate(72000,0)"><path d="M73.714 1142.532a49.974 49.974 0 0026.288 7.468 49.98 49.98 0 0022.359-5.278l1000-500a50 50 0 000-89.444l-1000-500A50 50 0 0050 100v1000a49.999 49.999 0 0023.714 42.532zM150 180.902L988.197 600 150 1019.099V180.9z"/></g>
<view id="plus" viewBox="73200 0 1200 1200">
</view>
<g transform="translate(73200,0)"><path d="M1150 600.77c0 27.615-22.386 50-50 50H650V1100c0 27.614-22.386 50-50 50s-50-22.386-50-50V650.77H100c-27.614 0-50-22.385-50-50s22.386-50 50-50h450V100c0-27.614 22.386-50 50-50s50 22.386 50 50v450.77h450c27.614 0 50 22.386 50 50z"/></g>
<view id="print" viewBox="74400 0 1200 1200">
</view>
<g transform="translate(74400,0)"><path d="M1066.667 300H950V133.333C950 87.383 912.617 50 866.667 50H333.333C287.383 50 250 87.383 250 133.333V300H133.333C87.383 300 50 336.849 50 382.143v385.714C50 813.151 87.383 850 133.333 850H250v247.172c0 29.13 23.699 52.828 52.829 52.828H897.17c29.13 0 52.829-23.698 52.829-52.828V850h116.667c45.95 0 83.333-36.849 83.333-82.143V382.143c0-45.294-37.383-82.143-83.333-82.143zM350 150h500v150H350V150zm500 649.749c0 .084-.006.167-.006.251s.006.167.006.251V1050H350V700h500v99.749zM1050 750H950V650c0-27.614-22.386-50-50-50H300c-27.614 0-50 22.386-50 50v100H150V400h900v350zm-650 50c0-27.614 22.386-50 50-50h300c27.614 0 50 22.386 50 50s-22.386 50-50 50H450c-27.614 0-50-22.386-50-50zm350-300c0-27.614 22.386-50 50-50h100c27.614 0 50 22.386 50 50s-22.386 50-50 50H800c-27.614 0-50-22.386-50-50zM400 950c0-27.614 22.386-50 50-50h100c27.614 0 50 22.386 50 50s-22.386 50-50 50H450c-27.614 0-50-22.386-50-50z"/></g>
<view id="question-circle" viewBox="75600 0 1200 1200">
</view>
<g transform="translate(75600,0)"><path d="M850 475c0 90.024-42.93 138.554-112.197 187.675-23.246 16.485-49.594 35.17-67.666 53.687C660.95 725.774 650 739.25 650 750c0 27.614-22.386 50-50 50s-50-22.386-50-50c0-76.736 72.058-127.836 129.957-168.896C739.418 538.937 750 516.646 750 475c0-73.598-61.683-125-150-125-39.03 0-109.844 13.935-127.685 66.163-8.925 26.13-37.346 40.08-63.478 31.152-26.132-8.926-40.08-37.346-31.152-63.478C411.43 285.05 518.535 250 600 250c72.678 0 135.44 22.81 181.501 65.963C825.673 357.347 850 413.827 850 475zM649.75 895.08c-.08-.81-.18-1.63-.31-2.43a48.81 48.81 0 00-1.62-7.17c-.24-.78-.5-1.56-.77-2.32a51.236 51.236 0 00-1.87-4.52c-.35-.74-.72-1.47-1.1-2.19-.38-.72-.79-1.44-1.2-2.13-.42-.7-.86-1.4-1.31-2.08-.45-.67-.92-1.35-1.41-2.01-.48-.65-.99-1.3-1.5-1.93-.52-.64-1.06-1.27-1.61-1.87-.55-.61-1.12-1.21-1.7-1.79-.57-.57-1.18-1.15-1.78-1.7-.61-.54-1.24-1.08-1.87-1.6-.63-.51-1.28-1.02-1.94-1.51-.65-.48-1.33-.95-2.01-1.4-.67-.45-1.37-.89-2.07-1.31-.7-.41-1.41-.82-2.13-1.2s-1.46-.75-2.19-1.1a44.5 44.5 0 00-2.24-.99c-.75-.31-1.52-.61-2.28-.88-.77-.28-1.55-.54-2.32-.77-.78-.24-1.58-.46-2.36-.66-.79-.2-1.6-.38-2.39-.54-.8-.16-1.61-.31-2.42-.43-.8-.12-1.62-.22-2.43-.3-.82-.09-1.64-.15-2.46-.19a50.61 50.61 0 00-4.93 0c-.81.04-1.64.1-2.45.19-.81.08-1.63.18-2.43.3-.81.12-1.62.27-2.42.43a48.006 48.006 0 00-4.75 1.2c-.78.23-1.56.49-2.32.77-.77.27-1.53.57-2.28.88-.76.31-1.51.64-2.24.99-.74.35-1.47.72-2.19 1.1-.72.38-1.43.79-2.13 1.2-.7.42-1.4.86-2.08 1.31-.68.45-1.35.92-2.01 1.4-.65.49-1.3 1-1.93 1.51-.64.52-1.27 1.06-1.87 1.6-.61.55-1.21 1.13-1.79 1.7-.58.58-1.15 1.18-1.7 1.79-.54.6-1.08 1.23-1.6 1.87-.52.63-1.02 1.28-1.51 1.93-.48.66-.95 1.34-1.4 2.01-.45.68-.89 1.38-1.31 2.08-.42.69-.82 1.41-1.2 2.13s-.75 1.45-1.1 2.19c-.35.73-.68 1.48-.99 2.24-.31.75-.61 1.51-.88 2.28a37.2 37.2 0 00-.77 2.32 48.448 48.448 0 00-1.2 4.75c-.16.8-.31 1.61-.43 2.42-.12.8-.22 1.62-.3 2.43-.09.82-.15 1.64-.19 2.46a50.108 50.108 0 000 4.92c.04.82.1 1.64.19 2.46.08.81.18 1.63.3 2.43.12.81.27 1.62.43 2.42a48.56 48.56 0 001.2 4.75c.23.77.49 1.56.77 2.32.27.76.57 1.53.88 2.28.31.75.64 1.51.99 2.24.35.74.72 1.47 1.1 2.19s.78 1.43 1.2 2.13c.42.7.86 1.4 1.31 2.07a46.575 46.575 0 002.91 3.95c.52.63 1.06 1.26 1.6 1.87.55.6 1.12 1.21 1.7 1.78.58.58 1.18 1.15 1.79 1.7.6.55 1.23 1.09 1.87 1.61.63.51 1.28 1.02 1.93 1.5.66.49 1.33.96 2.01 1.41.68.45 1.38.89 2.08 1.31.7.41 1.41.82 2.13 1.2s1.45.75 2.19 1.1c.73.34 1.48.68 2.24.99.75.31 1.51.61 2.28.88.76.28 1.54.53 2.32.77a48.62 48.62 0 004.75 1.2c.8.16 1.61.31 2.42.43.8.12 1.62.22 2.43.3.81.09 1.64.15 2.45.19a50.803 50.803 0 004.93 0c.82-.04 1.64-.1 2.46-.19.81-.08 1.63-.18 2.43-.3.81-.12 1.62-.27 2.42-.43.79-.16 1.6-.34 2.39-.54a51.898 51.898 0 004.68-1.43c.76-.27 1.53-.57 2.28-.88s1.51-.65 2.24-.99c.73-.35 1.47-.72 2.19-1.1.72-.38 1.43-.79 2.13-1.2.7-.42 1.4-.86 2.07-1.31.68-.45 1.36-.92 2.01-1.41.66-.48 1.31-.99 1.94-1.5.63-.52 1.26-1.06 1.87-1.61.6-.55 1.21-1.12 1.78-1.7a47.189 47.189 0 004.81-5.59c.49-.65.96-1.33 1.41-2.01.45-.67.89-1.37 1.31-2.07.41-.7.82-1.41 1.2-2.13s.75-1.45 1.1-2.19c.34-.73.68-1.49.99-2.24.31-.75.6-1.52.88-2.28.27-.76.53-1.55.77-2.32a48.56 48.56 0 001.62-7.17c.13-.8.23-1.62.31-2.43.08-.82.15-1.64.19-2.46a50.134 50.134 0 000-4.92c-.04-.82-.11-1.64-.19-2.46zm503.078-528.643C1184.128 440.442 1200 519.023 1200 600s-15.871 159.56-47.172 233.563c-30.222 71.453-73.477 135.614-128.563 190.701-55.087 55.087-119.25 98.342-190.703 128.565C759.56 1184.129 680.979 1200 600 1200s-159.56-15.87-233.563-47.171c-71.453-30.223-135.615-73.478-190.702-128.565-55.086-55.087-98.341-119.248-128.563-190.701C15.872 759.558 0 680.977 0 600s15.871-159.56 47.172-233.563c30.222-71.453 73.477-135.614 128.563-190.701 55.087-55.087 119.25-98.342 190.702-128.565C440.44 15.871 519.023 0 600 0s159.56 15.87 233.563 47.171c71.453 30.223 135.615 73.478 190.702 128.565 55.086 55.087 98.341 119.248 128.563 190.702zM1100 600c0-275.701-224.299-500-500-500S100 324.299 100 600s224.299 500 500 500 500-224.299 500-500z"/></g>
<view id="radiobox-off" viewBox="76800 0 1200 1200">
</view>
<g transform="translate(76800,0)"><path d="M1024.264 175.735C969.177 120.65 905.016 77.394 833.562 47.172 759.56 15.872 680.977 0 600 0S440.44 15.871 366.438 47.172c-71.454 30.222-135.615 73.477-190.702 128.563-55.087 55.087-98.342 119.25-128.564 190.702C15.87 440.44 0 519.023 0 600s15.87 159.56 47.172 233.563c30.222 71.453 73.477 135.615 128.564 190.702 55.087 55.086 119.248 98.341 190.702 128.563C440.44 1184.128 519.023 1200 600 1200s159.56-15.871 233.562-47.172c71.454-30.222 135.615-73.477 190.702-128.563 55.087-55.087 98.342-119.25 128.564-190.703C1184.13 759.56 1200 680.979 1200 600s-15.87-159.56-47.172-233.563c-30.222-71.453-73.477-135.615-128.564-190.702zM600 1100c-275.701 0-500-224.299-500-500s224.299-500 500-500 500 224.299 500 500-224.299 500-500 500z"/></g>
<view id="radiobox-on" viewBox="78000 0 1200 1200">
</view>
<g transform="translate(78000,0)"><path d="M1024.264 175.735C969.177 120.65 905.016 77.394 833.563 47.172 759.558 15.872 680.977 0 600 0S440.44 15.871 366.437 47.172c-71.453 30.222-135.614 73.477-190.701 128.563-55.087 55.087-98.342 119.25-128.564 190.702C15.87 440.44 0 519.023 0 600s15.87 159.56 47.172 233.563c30.222 71.453 73.477 135.615 128.564 190.702 55.087 55.086 119.248 98.341 190.702 128.563C440.44 1184.128 519.022 1200 600 1200s159.56-15.871 233.563-47.172c71.453-30.222 135.614-73.477 190.701-128.563 55.087-55.087 98.342-119.25 128.565-190.703C1184.129 759.56 1200 680.979 1200 600s-15.87-159.56-47.171-233.563c-30.223-71.453-73.478-135.615-128.565-190.702zM600 1100c-275.701 0-500-224.299-500-500s224.299-500 500-500 500 224.299 500 500-224.299 500-500 500zm247.487-747.487c-32.127-32.127-69.552-57.357-111.236-74.988C693.069 259.261 647.228 250 600 250s-93.07 9.26-136.251 27.525c-41.684 17.631-79.11 42.86-111.236 74.988-32.128 32.127-57.357 69.552-74.988 111.236C259.261 506.931 250 552.772 250 600s9.26 93.07 27.525 136.251c17.63 41.684 42.86 79.11 74.988 111.236 32.127 32.127 69.552 57.357 111.236 74.988C506.931 940.739 552.772 950 600 950s93.07-9.26 136.251-27.525c41.684-17.631 79.11-42.86 111.236-74.988 32.128-32.127 57.357-69.552 74.988-111.236C940.739 693.069 950 647.228 950 600s-9.26-93.07-27.525-136.251c-17.63-41.684-42.86-79.11-74.988-111.236zM600 850c-137.85 0-250-112.15-250-250s112.15-250 250-250 250 112.15 250 250-112.15 250-250 250z"/></g>
<view id="redo" viewBox="79200 0 1200 1200">
</view>
<g transform="translate(79200,0)"><path d="M1200 600c0 80.978-15.87 159.56-47.171 233.563-30.223 71.453-73.478 135.615-128.565 190.702-55.087 55.086-119.248 98.341-190.701 128.563C759.558 1184.128 680.977 1200 600 1200s-159.56-15.871-233.563-47.172c-71.453-30.222-135.614-73.477-190.701-128.563-55.087-55.087-98.342-119.25-128.565-190.703C15.871 759.56 0 680.978 0 600s15.87-159.56 47.171-233.563c30.223-71.453 73.478-135.615 128.565-190.702 55.087-55.086 119.248-98.341 190.702-128.563C440.44 15.872 519.022 0 600 0c119.054 0 233.392 34.992 330.306 98.983l84.339-84.338A50.001 50.001 0 011100 50v250c0 27.614-22.386 50-50 50H800a50 50 0 01-46.194-30.866 50 50 0 0110.839-54.49l93.161-93.162C780.915 125.163 692.15 100 600 100c-275.701 0-500 224.299-500 500s224.299 500 500 500 500-224.299 500-500c0-27.614 22.386-50 50-50s50 22.386 50 50z"/></g>
<view id="save" viewBox="80400 0 1200 1200">
</view>
<g transform="translate(80400,0)"><path d="M1135.355 364.645l-300-300A50 50 0 00800 50H100c-27.614 0-50 22.386-50 50v1000c0 27.614 22.386 50 50 50h1000c27.614 0 50-22.386 50-50V400a50 50 0 00-14.645-35.355zM500 150v200H400V150h100zm-100 900V688.461h400V1050H400zm650 0H900V638.461c0-27.614-22.386-50-50-50H350c-27.614 0-50 22.386-50 50V1050H150V150h150v250c0 27.614 22.386 50 50 50h200c27.614 0 50-22.386 50-50V150h179.29L1050 420.71V1050z"/></g>
<view id="shield" viewBox="81600 0 1200 1200">
</view>
<g transform="translate(81600,0)"><path d="M1050 73.333c-155.383 0-434.795-71.053-437.596-71.77a50.006 50.006 0 00-24.808 0c-2.803.718-282.059 71.77-437.596 71.77-27.614 0-50 22.386-50 50v546.781c0 260.205 205.332 482.526 488.232 528.628l3.725.607a50 50 0 0016.086 0l3.725-.607h-.001C894.668 1152.64 1100 930.319 1100 670.114v-546.78c0-27.615-22.386-50-50-50zm-50 596.781c0 209.64-167.958 389.522-400 429.209-232.042-39.687-400-219.57-400-429.209V171.552c148.962-9.799 348.103-57.174 400-70.005 51.897 12.83 251.038 60.206 400 70.005v498.562zM600 300c27.614 0 50 22.386 50 50v350c0 27.614-22.386 50-50 50s-50-22.386-50-50V350c0-27.614 22.386-50 50-50zm49.94 547.53a50.848 50.848 0 010 4.93c-.05.82-.11 1.64-.19 2.46-.08.81-.18 1.63-.31 2.43a48.89 48.89 0 01-1.62 7.17c-.24.77-.5 1.56-.77 2.32-.27.77-.57 1.53-.88 2.28-.31.75-.65 1.51-.99 2.24-.35.74-.72 1.47-1.1 2.19-.38.72-.79 1.43-1.2 2.13-.42.7-.86 1.4-1.31 2.08-.45.67-.92 1.35-1.41 2-.48.66-.99 1.31-1.5 1.94-.52.64-1.06 1.26-1.61 1.87a47.907 47.907 0 01-3.48 3.48c-.61.55-1.24 1.09-1.87 1.61-.63.51-1.28 1.02-1.94 1.5-.65.49-1.33.96-2.01 1.41-.67.45-1.37.89-2.07 1.31-.7.41-1.42.82-2.13 1.2-.72.38-1.46.75-2.19 1.1-.74.34-1.49.68-2.24.99-.75.31-1.52.61-2.28.88-.77.27-1.55.53-2.32.77-.78.24-1.58.46-2.36.66-.79.2-1.6.38-2.39.54-.8.16-1.61.31-2.42.43-.8.12-1.62.22-2.43.3-.82.08-1.64.15-2.46.19a50.161 50.161 0 01-4.93 0c-.81-.04-1.64-.11-2.45-.19-.81-.08-1.63-.18-2.44-.3-.8-.12-1.61-.27-2.41-.43a48.7 48.7 0 01-4.75-1.2c-.78-.24-1.56-.5-2.32-.77-.77-.27-1.54-.57-2.29-.88-.75-.31-1.5-.65-2.23-.99-.74-.35-1.48-.72-2.19-1.1a49.272 49.272 0 01-4.21-2.51c-.68-.45-1.35-.92-2.01-1.41-.65-.48-1.31-.99-1.94-1.5a47.36 47.36 0 01-1.86-1.61c-.61-.54-1.21-1.12-1.79-1.69-.58-.58-1.15-1.18-1.7-1.79-.54-.61-1.08-1.23-1.6-1.87-.52-.63-1.02-1.28-1.51-1.94-.48-.65-.95-1.33-1.4-2-.45-.68-.89-1.38-1.31-2.08-.42-.7-.82-1.41-1.2-2.13s-.75-1.45-1.1-2.19c-.35-.73-.68-1.49-.99-2.24-.31-.75-.61-1.51-.88-2.28-.28-.76-.54-1.55-.77-2.32a48.534 48.534 0 01-1.2-4.75c-.16-.8-.31-1.61-.43-2.42-.12-.8-.22-1.62-.3-2.43-.09-.82-.15-1.64-.19-2.46a50.482 50.482 0 010-4.93c.04-.81.1-1.64.19-2.45.08-.81.18-1.63.3-2.43.12-.81.27-1.62.43-2.42a48.51 48.51 0 011.2-4.75c.23-.77.49-1.56.77-2.32.27-.77.57-1.53.88-2.28.31-.75.64-1.51.99-2.24.35-.74.72-1.47 1.1-2.19s.78-1.43 1.2-2.13c.42-.7.86-1.4 1.31-2.08.45-.67.92-1.35 1.4-2 .49-.66.99-1.31 1.51-1.94.52-.64 1.06-1.26 1.6-1.87.55-.61 1.12-1.21 1.7-1.79.58-.57 1.18-1.15 1.79-1.7.6-.54 1.23-1.08 1.86-1.6.63-.51 1.29-1.02 1.94-1.51.66-.48 1.33-.95 2.01-1.4a49.144 49.144 0 014.21-2.51c.71-.38 1.45-.75 2.19-1.1.73-.35 1.48-.68 2.23-.99.75-.31 1.52-.61 2.29-.88.76-.28 1.54-.53 2.32-.77a48.52 48.52 0 014.75-1.2c.8-.16 1.61-.31 2.41-.43.81-.12 1.63-.22 2.44-.3a50.4 50.4 0 012.45-.19c1.64-.08 3.3-.08 4.93 0 .82.04 1.64.11 2.46.19.81.08 1.63.18 2.43.3.81.12 1.62.27 2.42.43.79.16 1.6.34 2.39.54a52.25 52.25 0 014.68 1.43c.76.27 1.53.57 2.28.88a48.92 48.92 0 014.43 2.09c.71.38 1.43.79 2.13 1.2.7.42 1.4.86 2.07 1.31.68.45 1.36.92 2.01 1.4.66.49 1.31 1 1.94 1.51.63.52 1.26 1.06 1.87 1.6.6.55 1.21 1.13 1.78 1.7.58.58 1.15 1.18 1.7 1.79s1.09 1.23 1.61 1.87c.51.63 1.02 1.28 1.5 1.94.49.65.96 1.33 1.41 2 .45.68.89 1.38 1.31 2.08.41.7.82 1.41 1.2 2.13s.75 1.45 1.1 2.19c.34.73.68 1.49.99 2.24.31.75.61 1.51.88 2.28.27.76.53 1.55.77 2.32a48.53 48.53 0 011.62 7.17c.13.8.23 1.62.31 2.43.08.81.14 1.64.19 2.45z"/></g>
<view id="shift" viewBox="82800 0 1200 1200">
</view>
<g transform="translate(82800,0)"><path d="M850 1200H350c-27.614 0-50-22.386-50-50V700H50a50 50 0 01-36.856-83.787l550-599.96a50.001 50.001 0 0173.712 0l550 599.96A50 50 0 011150 700H900v450c0 27.614-22.386 50-50 50zm-450-100h400V650c0-27.614 22.386-50 50-50h186.333L600 124.034 163.667 600H350c27.614 0 50 22.386 50 50v450z"/></g>
<view id="smiley" viewBox="84000 0 1200 1200">
</view>
<g transform="translate(84000,0)"><path d="M175.735 1024.265c55.087 55.086 119.25 98.341 190.702 128.563C440.44 1184.128 519.023 1200 600 1200s159.56-15.871 233.563-47.172c71.453-30.222 135.615-73.477 190.702-128.563 55.086-55.087 98.341-119.25 128.563-190.703C1184.128 759.56 1200 680.979 1200 600s-15.871-159.56-47.172-233.563c-30.222-71.453-73.477-135.615-128.563-190.702-55.087-55.086-119.25-98.341-190.703-128.563C759.56 15.872 680.978 0 600 0S440.44 15.871 366.437 47.172c-71.453 30.222-135.615 73.477-190.702 128.563-55.086 55.087-98.341 119.25-128.563 190.702C15.872 440.44 0 519.023 0 600s15.871 159.56 47.172 233.563c30.222 71.453 73.477 135.615 128.563 190.702zM600 100c275.701 0 500 224.299 500 500s-224.299 500-500 500-500-224.299-500-500 224.299-500 500-500zM305.278 822.36c-12.35-24.698-2.338-54.732 22.362-67.082 24.698-12.35 54.731-2.338 67.082 22.362 2.658 5.317 21.358 24.94 70.722 44.686C508.766 839.654 559.067 850 600 850s91.234-10.346 134.556-27.674c49.364-19.746 68.064-39.369 70.722-44.686 12.35-24.7 42.382-34.71 67.082-22.362 24.7 12.35 34.711 42.384 22.362 67.082-22.525 45.048-79.335 75.337-123.028 92.814C716.364 937.307 653.784 950 600 950s-116.363-12.693-171.694-34.826c-43.693-17.477-100.503-47.766-123.028-92.814zM350 550V400c0-27.614 22.386-50 50-50s50 22.386 50 50v150c0 27.614-22.386 50-50 50s-50-22.386-50-50zm400 0V400c0-27.614 22.386-50 50-50s50 22.386 50 50v150c0 27.614-22.386 50-50 50s-50-22.386-50-50z"/></g>
<view id="star" viewBox="85200 0 1200 1200">
</view>
<g transform="translate(85200,0)"><path d="M1081.78 409.424L819.484 344.07 676.276 114.81c-16.54-26.48-45.054-42.29-76.276-42.29s-59.736 15.81-76.276 42.29L380.514 344.07l-262.293 65.353c-30.296 7.548-54.143 29.782-63.79 59.475-9.649 29.693-3.426 61.697 16.647 85.612l173.787 207.045-18.898 269.652c-2.183 31.145 11.593 60.695 36.851 79.047s57.621 22.322 86.567 10.622L600 1019.577l250.615 101.3c10.979 4.438 22.445 6.621 33.831 6.62 18.637 0 37.057-5.85 52.736-17.242 25.258-18.352 39.034-47.902 36.851-79.046l-18.898-269.653 173.788-207.046c20.072-23.914 26.295-55.918 16.646-85.611-9.647-29.693-33.494-51.927-63.79-59.475zM875.924 700.38c-15.07 17.954-22.469 40.721-20.83 64.108l18.056 257.638-239.447-96.787c-10.869-4.393-22.284-6.59-33.704-6.59-11.417 0-22.838 2.198-33.703 6.59l-239.448 96.786 18.056-257.638c1.639-23.386-5.76-46.153-20.83-64.107l-166.044-197.82 250.609-62.44c22.748-5.669 42.114-19.74 54.532-39.621L600 181.453l136.827 219.045c12.42 19.883 31.785 33.954 54.533 39.622l250.609 62.442L875.925 700.38z"/></g>
<view id="stop" viewBox="86400 0 1200 1200">
</view>
<g transform="translate(86400,0)"><path d="M1100 50H100c-27.614 0-50 22.386-50 50v1000c0 27.614 22.386 50 50 50h1000c27.614 0 50-22.386 50-50V100c0-27.614-22.386-50-50-50zm-50 1000H150V150h900v900z"/></g>
<view id="sync" viewBox="87600 0 1200 1200">
</view>
<g transform="translate(87600,0)"><path d="M1200 600c0 80.978-15.87 159.56-47.172 233.563-30.222 71.453-73.477 135.615-128.564 190.7-55.087 55.088-119.248 98.343-190.701 128.565C759.559 1184.128 680.978 1200 600 1200c-119.054 0-233.392-34.992-330.305-98.983l-84.34 84.338a49.996 49.996 0 01-54.489 10.84A50.001 50.001 0 01100 1150V900c0-27.614 22.386-50 50-50h250a50 50 0 0135.355 85.355l-93.161 93.163C419.086 1074.837 507.849 1100 600 1100c275.7 0 500-224.299 500-500 0-27.614 22.386-50 50-50s50 22.386 50 50zm-1100 0c0-275.701 224.3-500 500-500 92.15 0 180.914 25.164 257.806 71.483l-93.161 93.162A50 50 0 00800 350h250c27.614 0 50-22.386 50-50V50a50.001 50.001 0 00-30.866-46.194c-18.683-7.74-40.19-3.461-54.49 10.839l-84.34 84.34C833.392 34.992 719.053 0 600 0c-80.978 0-159.56 15.871-233.563 47.172-71.453 30.222-135.614 73.477-190.701 128.564-55.087 55.086-98.342 119.248-128.564 190.702C15.87 440.44 0 519.022 0 600c0 27.614 22.386 50 50 50s50-22.386 50-50z"/></g>
<view id="tag" viewBox="88800 0 1200 1200">
</view>
<g transform="translate(88800,0)"><path d="M1128.66 591.342L609.283 71.967C595.12 57.8 576.284 50 556.251 50H125c-41.355 0-75 33.645-75 75V556.25c0 20.034 7.801 38.868 21.967 53.033L591.34 1128.66c14.622 14.621 33.827 21.932 53.034 21.932s38.411-7.31 53.033-21.932l431.251-431.251c14.166-14.166 21.967-33 21.967-53.033 0-20.034-7.801-38.868-21.967-53.033zM644.374 1040.27L150 545.896V150h395.896l494.375 494.375-395.896 395.896zM250 425c0 96.495 78.504 175 175 175s175-78.505 175-175-78.504-175-175-175-175 78.505-175 175zm250 0c0 41.355-33.645 75-75 75s-75-33.645-75-75 33.645-75 75-75 75 33.645 75 75z"/></g>
<view id="terminal" viewBox="90000 0 1200 1200">
</view>
<g transform="translate(90000,0)"><path d="M1150 150H50c-27.614 0-50 22.386-50 50v800c0 27.614 22.386 50 50 50h1100c27.614 0 50-22.386 50-50V200c0-27.614-22.386-50-50-50zm-50 800H100V250h1000v700zM210.957 818.765L385.969 600 210.957 381.235c-17.25-21.563-13.755-53.028 7.809-70.278 21.563-17.251 53.027-13.754 70.277 7.808l200 250c14.61 18.261 14.61 44.209 0 62.47l-200 250c-9.875 12.344-24.408 18.767-39.075 18.767a49.786 49.786 0 01-31.202-10.959c-21.564-17.25-25.06-48.715-7.809-70.278zM500 800c0-27.614 22.386-50 50-50h400c27.614 0 50 22.386 50 50s-22.386 50-50 50H550c-27.614 0-50-22.386-50-50z"/></g>
<view id="trashcan" viewBox="91200 0 1200 1200">
</view>
<g transform="translate(91200,0)"><path d="M1100 200H906.667V86.667C906.667 38.878 867.788 0 820 0H380c-47.788 0-86.667 38.878-86.667 86.667V200H100c-27.614 0-50 22.386-50 50s22.386 50 50 50h50v750c0 82.71 67.29 150 150 150h600c82.71 0 150-67.29 150-150V300h50c27.614 0 50-22.386 50-50s-22.386-50-50-50zM393.333 100h413.334v100H393.333V100zM950 1050c0 27.57-22.43 50-50 50H300c-27.57 0-50-22.43-50-50V300h700v750zM350 950V450c0-27.614 22.386-50 50-50s50 22.386 50 50v500c0 27.614-22.386 50-50 50s-50-22.386-50-50zm400 0V450c0-27.614 22.386-50 50-50s50 22.386 50 50v500c0 27.614-22.386 50-50 50s-50-22.386-50-50zm-200 0V450c0-27.614 22.386-50 50-50s50 22.386 50 50v500c0 27.614-22.386 50-50 50s-50-22.386-50-50z"/></g>
<view id="trophy" viewBox="92400 0 1200 1200">
</view>
<g transform="translate(92400,0)"><path d="M1076.667 100H950V50c0-27.614-22.386-50-50-50H300c-27.614 0-50 22.386-50 50v50H123.333c-27.614 0-50 22.386-50 50v254.397c0 101.468 77.664 185.128 176.667 194.683v7.352c0 78.415 30.537 152.135 85.984 207.584 43.645 43.645 98.616 71.842 158.282 81.875L449.733 1100H350c-27.614 0-50 22.386-50 50s22.386 50 50 50h500c27.614 0 50-22.386 50-50s-22.386-50-50-50h-99.733l-44.533-204.11c59.666-10.032 114.637-38.229 158.282-81.874C919.463 758.567 950 684.846 950 606.432v-7.352c99.003-9.555 176.667-93.215 176.667-194.683V150c0-27.614-22.386-50-50-50zM250 498.117c-43.678-8.81-76.667-47.484-76.667-93.72V200H250v298.117zM552.085 1100l43.637-200h8.556l43.637 200h-95.83zM850 150v456.432C850 713.166 763.166 800 656.431 800H543.57C436.834 800 350 713.166 350 606.432V100h500v50zm176.667 254.397c0 46.236-32.99 84.91-76.667 93.72V200h76.667v204.397z"/></g>
<view id="twt" viewBox="93600 0 1200 1200">
</view>
<g transform="translate(93600,0)"><path d="M1180 210c-22.092-16.567-53.43-12.092-70 10l-47.232 62.977c-16.462-22.5-36.08-43.001-58.465-60.82C945.845 175.626 871.583 150 795.197 150c-48.202 0-95.018 10.05-139.152 29.874-54.834 24.63-101.321 63.162-134.434 111.43-29.876 43.547-47.534 93.214-51.691 144.882-76.207-14.842-145.754-51.007-199.79-104.613-29.363-29.132-53.12-62.405-70.61-98.895-9.013-18.81-28.758-30.037-49.53-28.194-20.775 1.854-38.218 16.408-43.76 36.515-23.158 84.004-23.689 172.883-1.538 257.028 22.723 86.313 69.114 166.15 134.184 230.946A457.885 457.885 0 01208.204 730c-48.697 0-96.682-7.64-142.62-22.709-20.228-6.632-42.445.268-55.352 17.203-12.906 16.935-13.671 40.184-1.908 57.93C61.654 862.882 135.99 930.06 223.298 976.7c89.766 47.953 192.007 73.3 295.667 73.3 80.943 0 159.517-14.941 233.538-44.41 71.655-28.527 136.046-69.4 191.383-121.486 55.55-52.287 99.199-113.251 129.734-181.203 31.724-70.594 47.809-145.59 47.809-222.901 0-3.874-.13-7.486-.244-10.674-.048-1.33-.097-2.661-.132-3.994v.001a544.23 544.23 0 00-.632-15.333H1150c27.614 0 50-22.386 50-50s-22.386-50-50-50h-12.5l52.5-70c16.568-22.092 12.092-53.432-10-70zM518.965 950c-126.677 0-245.321-43.61-336.272-120.576 8.485.384 16.987.576 25.511.576a557.469 557.469 0 00161.05-23.756 50 50 0 0012.665-89.892c-26.123-16.846-50.317-36.25-71.91-57.67-74.74-74.147-116.714-168.87-121.325-267.42 3.6 3.82 7.276 7.59 11.02 11.303 83.97 83.304 197.183 133.134 318.783 140.313a50.002 50.002 0 0052.49-56.66c-1.373-10.076-2.012-18.407-2.012-26.218 0-81.042 49.067-153.427 128.054-188.905C728.182 257.098 761.214 250 795.197 250c109.236 0 202.469 72.143 222.236 171.734a445.805 445.805 0 013.655 46.279c.044 1.637.102 3.27.161 4.903.093 2.575.18 5.006.18 7.084 0 259.16-225.405 470-502.464 470z"/></g>
<view id="undo" viewBox="94800 0 1200 1200">
</view>
<g transform="translate(94800,0)"><path d="M1152.829 366.438C1184.129 440.44 1200 519.022 1200 600s-15.87 159.56-47.171 233.563c-30.223 71.453-73.478 135.615-128.565 190.702-55.087 55.086-119.248 98.341-190.701 128.563C759.558 1184.128 680.977 1200 600 1200s-159.56-15.871-233.563-47.172c-71.453-30.222-135.614-73.477-190.701-128.563-55.087-55.087-98.342-119.25-128.564-190.703C15.87 759.56 0 680.978 0 600c0-27.614 22.386-50 50-50s50 22.386 50 50c0 275.701 224.299 500 500 500s500-224.299 500-500-224.299-500-500-500c-92.15 0-180.915 25.163-257.806 71.482l93.161 93.163a50 50 0 0110.839 54.489A50 50 0 01400 350H150c-27.614 0-50-22.386-50-50V50a50.001 50.001 0 0185.355-35.355l84.34 84.338C366.608 34.993 480.946 0 600 0c80.978 0 159.56 15.871 233.563 47.172 71.453 30.222 135.614 73.477 190.701 128.563 55.087 55.087 98.342 119.25 128.565 190.702z"/></g>
<view id="unlink" viewBox="96000 0 1200 1200">
</view>
<g transform="translate(96000,0)"><path d="M1078.834 121.166c45.893 45.892 71.166 106.909 71.166 171.81 0 64.858-25.24 125.837-71.074 171.719L860.523 685.187c-9.777 9.87-22.649 14.813-35.525 14.813-12.716 0-25.436-4.82-35.185-14.477-19.619-19.433-19.77-51.09-.336-70.71l218.646-220.737c27.005-27.005 41.877-62.909 41.877-101.1s-14.872-74.094-41.877-101.099c-55.746-55.746-146.453-55.746-202.2 0l-.19.19-195.568 193.478c-19.632 19.42-51.289 19.25-70.71-.38-19.42-19.63-19.25-51.289.38-70.71l195.463-193.373C781.18 75.242 842.162 50 907.023 50c64.902 0 125.918 25.274 171.811 71.166zm-418.29 693.669c-19.42-19.63-51.078-19.8-70.709-.38l-195.568 193.479-.19.189c-55.747 55.746-146.454 55.746-202.2 0-27.005-27.005-41.877-62.91-41.877-101.1s14.872-74.094 41.877-101.099l218.646-220.737c19.433-19.62 19.283-51.277-.336-70.71-19.62-19.434-51.278-19.282-70.71.336l-218.38 220.47C75.248 781.166 50 842.152 50 907.022c0 64.902 25.273 125.918 71.166 171.811 45.893 45.892 106.91 71.166 171.81 71.166 64.854 0 125.826-25.233 171.707-71.062l195.482-193.393c19.63-19.421 19.8-51.08.38-70.71zm-345.9-479.48C324.409 345.12 337.205 350 350 350s25.592-4.881 35.355-14.645c19.527-19.526 19.527-51.184 0-70.71l-75-75c-19.527-19.527-51.183-19.527-70.71 0-19.527 19.526-19.527 51.184 0 70.71l75 75zM200 500h50c27.614 0 50-22.386 50-50s-22.386-50-50-50h-50c-27.614 0-50 22.386-50 50s22.386 50 50 50zm300-248.077c27.614 0 50-22.386 50-50V150c0-27.614-22.386-50-50-50s-50 22.386-50 50v51.923c0 27.614 22.386 50 50 50zm385.355 612.722c-19.527-19.527-51.183-19.527-70.71 0-19.527 19.526-19.527 51.184 0 70.71l75 75C899.408 1020.12 912.205 1025 925 1025s25.592-4.881 35.355-14.645c19.527-19.526 19.527-51.184 0-70.71l-75-75zM700 948.077c-27.614 0-50 22.386-50 50V1050c0 27.614 22.386 50 50 50s50-22.386 50-50v-51.923c0-27.614-22.386-50-50-50zM1000 700h-50c-27.614 0-50 22.386-50 50s22.386 50 50 50h50c27.614 0 50-22.386 50-50s-22.386-50-50-50z"/></g>
<view id="unlock" viewBox="97200 0 1200 1200">
</view>
<g transform="translate(97200,0)"><path d="M963.763 450H900V200C900 89.72 810.28 0 700 0H500C389.72 0 300 89.72 300 200c0 27.614 22.386 50 50 50s50-22.386 50-50c0-55.14 44.86-100 100-100h200c55.14 0 100 44.86 100 100v250H236.237C188.686 450 150 488.686 150 536.237v577.526c0 47.551 38.686 86.237 86.237 86.237h727.526c47.551 0 86.237-38.686 86.237-86.237V536.237c0-47.551-38.686-86.237-86.237-86.237zM950 1100H250V550h700v550zM700 650c0 27.614-22.386 50-50 50v100c0 27.614-22.386 50-50 50s-50-22.386-50-50V700c-27.614 0-50-22.386-50-50s22.386-50 50-50h100c27.614 0 50 22.386 50 50z"/></g>
<view id="upload" viewBox="98400 0 1200 1200">
</view>
<g transform="translate(98400,0)"><path d="M1200 825c0 60.1-23.404 116.602-65.901 159.099S1035.099 1050 975 1050H800c-27.614 0-50-22.386-50-50s22.386-50 50-50h175c68.925 0 125-56.075 125-125 0-68.833-55.93-124.85-124.728-125a50.003 50.003 0 01-50.99-53.273c.477-7.233.718-14.542.718-21.727 0-179.205-145.795-325-325-325-123.572 0-234.883 68.627-290.494 179.099a49.999 49.999 0 01-33.77 26.318C173.907 528.142 100 620.489 100 725c0 116.799 87.556 213.092 203.662 223.986a50.04 50.04 0 016.362 1.014H400c27.614 0 50 22.386 50 50s-22.386 50-50 50H300c-5.43 0-10.757-.883-15.794-2.56-76.335-9.579-146.667-45.922-198.967-103.042C30.272 884.366 0 806.448 0 725c0-37.9 6.479-75.052 19.255-110.42 12.346-34.174 30.256-65.863 53.234-94.187 41.053-50.604 96.732-87.87 158.628-106.582 34.632-60.4 83.65-111.53 142.857-148.778C441.6 222.488 519.76 200 600 200c57.353 0 113.016 11.244 165.444 33.419 50.615 21.408 96.06 52.045 135.077 91.06 39.014 39.015 69.652 84.461 91.06 135.077 19.646 46.447 30.712 95.437 32.98 145.888 41.175 9.21 78.977 29.897 109.538 60.456 42.497 42.497 65.901 99 65.901 159.1zm-385.355-39.645C824.408 795.118 837.205 800 850 800s25.592-4.882 35.355-14.645c19.527-19.526 19.527-51.184 0-70.71l-250-250c-19.527-19.526-51.183-19.526-70.71 0l-250 250c-19.527 19.526-19.527 51.184 0 70.71 19.527 19.526 51.183 19.526 70.71 0L550 620.711V1050c0 27.614 22.386 50 50 50s50-22.386 50-50V620.71l164.645 164.645z"/></g>
<view id="user" viewBox="99600 0 1200 1200">
</view>
<g transform="translate(99600,0)"><path d="M200 1200h800c27.614 0 50-22.386 50-50V931.398c0-141.845-66.543-274.735-179.065-359.798 21.171-25.823 38.454-54.41 51.54-85.349C940.739 443.069 950 397.228 950 350s-9.26-93.07-27.525-136.251c-17.631-41.684-42.86-79.11-74.988-111.236s-69.552-57.357-111.236-74.988C693.069 9.261 647.228 0 600 0s-93.07 9.26-136.251 27.525c-41.684 17.631-79.11 42.86-111.236 74.988s-57.357 69.552-74.988 111.236C259.261 256.931 250 302.772 250 350s9.26 93.07 27.525 136.251c13.09 30.944 30.374 59.536 51.551 85.361-47.038 35.59-86.941 80.237-116.988 131.278C171.47 771.887 150 850.903 150 931.398V1150c0 27.614 22.386 50 50 50zM600 100c137.85 0 250 112.15 250 250S737.85 600 600 600 350 487.85 350 350s112.15-250 250-250zM250 931.398c0-116.683 58.682-226.044 154.623-290.931 18.56 12.505 38.313 23.204 59.126 32.008C506.931 690.739 552.772 700 600 700s93.07-9.26 136.251-27.525c20.831-8.81 40.598-19.52 59.172-32.038.401.29.797.588 1.209.87C892.666 706.804 950 815.249 950 931.398V1100H250V931.398z"/></g>
<view id="zip" viewBox="100800 0 1200 1200">
</view>
<g transform="translate(100800,0)"><path d="M700 600c27.614 0 50-22.386 50-50s-22.386-50-50-50H500c-27.614 0-50 22.386-50 50s22.386 50 50 50h50v60h-50c-27.614 0-50 22.386-50 50v240c0 27.614 22.386 50 50 50h200c27.614 0 50-22.386 50-50V710c0-27.614-22.386-50-50-50h-50v-60h50zm-50 300H550V760h100v140zm400-550c0-.165-.01-.327-.012-.49a49.979 49.979 0 00-.051-2.01 50.262 50.262 0 00-.171-2.299l-.012-.148a49.699 49.699 0 00-8.142-22.773l-.015-.023a50.326 50.326 0 00-1.268-1.804c-.054-.074-.105-.15-.16-.224a50.436 50.436 0 00-1.227-1.577c-.099-.122-.192-.249-.292-.37-.41-.5-.836-.986-1.265-1.469-.115-.13-.223-.264-.34-.392a50.322 50.322 0 00-1.695-1.781L735.355 14.645l-.003-.003a50.13 50.13 0 00-1.77-1.685c-.145-.13-.296-.253-.441-.382a50.054 50.054 0 00-1.42-1.222c-.133-.11-.271-.212-.406-.32a51.326 51.326 0 00-1.54-1.2c-.084-.062-.17-.12-.254-.18a49.65 49.65 0 00-1.775-1.248l-.049-.031A49.7 49.7 0 00704.952.246c-.1-.01-.203-.014-.304-.023a50.011 50.011 0 00-2.144-.16A49.688 49.688 0 00700 0H200c-27.615 0-50 22.386-50 50v1100c0 27.614 22.385 50 50 50h800c27.614 0 50-22.386 50-50V550.01 550 350.01 350zM750 170.71L879.29 300H750V170.71zM250 1100V600h100c27.614 0 50-22.386 50-50s-22.386-50-50-50H250V100h400v250c0 27.614 22.386 50 50 50h250v100H850c-27.614 0-50 22.386-50 50s22.386 50 50 50h100v500H250z"/></g>
</svg>