<?xml version="1.0"?>
<svg xmlns="http://www.w3.org/2000/svg" xmlns:xlink="http://www.w3.org/1999/xlink">
  <view id="bars" viewBox="0 0 90 90">
</view>
<g transform="translate(0,0)"><path d="M78 21H12c-3.3 0-6-2.7-6-6s2.7-6 6-6h66c3.3 0 6 2.7 6 6s-2.7 6-6 6zM78 81H12c-3.3 0-6-2.7-6-6s2.7-6 6-6h66c3.3 0 6 2.7 6 6s-2.7 6-6 6zM78 51H12c-3.3 0-6-2.7-6-6s2.7-6 6-6h66c3.3 0 6 2.7 6 6s-2.7 6-6 6z"/></g>
<view id="building" viewBox="90 0 90 90">
</view>
<g transform="translate(90,0)"><path d="M12 0v90h66V0H12zm36 12h6v6h-6v-6zm0 12h6v6h-6v-6zm0 12h6v6h-6v-6zm0 12h6v6h-6v-6zm0 12h6v6h-6v-6zM36 12h6v6h-6v-6zm0 12h6v6h-6v-6zm0 12h6v6h-6v-6zm0 12h6v6h-6v-6zm0 12h6v6h-6v-6zM24 12h6v6h-6v-6zm0 12h6v6h-6v-6zm0 12h6v6h-6v-6zm0 12h6v6h-6v-6zm0 12h6v6h-6v-6zm36 24H30V72h30v12zm6-18h-6v-6h6v6zm0-12h-6v-6h6v6zm0-12h-6v-6h6v6zm0-12h-6v-6h6v6zm0-12h-6v-6h6v6z"/></g>
<view id="check-o" viewBox="180 0 90 90">
</view>
<g transform="translate(180,0)"><path d="M45 12c18.2 0 33 14.8 33 33S63.2 78 45 78 12 63.2 12 45s14.8-33 33-33m0-6C23.5 6 6 23.5 6 45s17.5 39 39 39 39-17.5 39-39S66.5 6 45 6z"/></g>
<view id="check" viewBox="270 0 90 90">
</view>
<g transform="translate(270,0)"><path d="M36.7 72.6L6.6 42.5l8.5-8.5 21.6 21.6 38.2-38.2 8.5 8.5z"/></g>
<view id="checkbox" viewBox="360 0 90 90">
</view>
<g transform="translate(360,0)"><path d="M78 12v66H12V12h66m0-6H12c-3.3 0-6 2.7-6 6v66c0 3.3 2.7 6 6 6h66c3.3 0 6-2.7 6-6V12c0-3.3-2.7-6-6-6zm-9 57V27c0-3.3-2.7-6-6-6H27c-3.3 0-6 2.7-6 6v36c0 3.3 2.7 6 6 6h36c3.3 0 6-2.7 6-6z"/></g>
<view id="chevron-down" viewBox="450 0 90 90">
</view>
<g transform="translate(450,0)"><path d="M40.8 76.2l-24-24c-2.3-2.3-2.3-6.1 0-8.5 2.3-2.3 6.1-2.3 8.5 0L45 63.5l19.7-19.7c2.3-2.3 6.1-2.3 8.5 0 2.3 2.3 2.3 6.1 0 8.5l-24 24C48.1 77.4 46.5 78 45 78s-3.1-.6-4.2-1.8zM45 48.1c1.5 0 3.1-.6 4.2-1.8l24-24c2.3-2.3 2.3-6.1 0-8.5-2.3-2.3-6.1-2.3-8.5 0L45 33.6 25.3 13.9c-2.3-2.3-6.1-2.3-8.5 0-2.3 2.3-2.3 6.1 0 8.5l24 24c1.1 1.1 2.7 1.7 4.2 1.7z"/></g>
<view id="chevron-left" viewBox="540 0 90 90">
</view>
<g transform="translate(540,0)"><path d="M12.1 45.1c0-1.5.6-3.1 1.8-4.2l24-24c2.3-2.3 6.1-2.3 8.5 0 2.3 2.3 2.3 6.1 0 8.5L26.6 45.1l19.7 19.7c2.3 2.3 2.3 6.1 0 8.5-2.3 2.3-6.1 2.3-8.5 0l-24-24c-1.1-1.2-1.7-2.7-1.7-4.2zm31.6 4.2l24 24c2.3 2.3 6.1 2.3 8.5 0 2.3-2.3 2.3-6.1 0-8.5L56.4 45.1l19.7-19.7c2.3-2.3 2.3-6.1 0-8.5-2.3-2.3-6.1-2.3-8.5 0l-24 24C42.5 42 42 43.5 42 45.1s.5 3 1.7 4.2z"/></g>
<view id="chevron-right" viewBox="630 0 90 90">
</view>
<g transform="translate(630,0)"><path d="M77.9 45.1c0 1.5-.6 3.1-1.8 4.2l-24 24c-2.3 2.3-6.1 2.3-8.5 0-2.3-2.3-2.3-6.1 0-8.5l19.7-19.7-19.6-19.8c-2.3-2.3-2.3-6.1 0-8.5 2.3-2.3 6.1-2.3 8.5 0l24 24c1.1 1.2 1.7 2.7 1.7 4.3zm-31.6-4.3l-24-24c-2.3-2.3-6.1-2.3-8.5 0-2.3 2.3-2.3 6.1 0 8.5L33.5 45 13.8 64.8c-2.3 2.3-2.3 6.1 0 8.5 2.3 2.3 6.1 2.3 8.5 0l24-24c1.2-1.2 1.8-2.7 1.8-4.2s-.6-3.1-1.8-4.3z"/></g>
<view id="chevron-up" viewBox="720 0 90 90">
</view>
<g transform="translate(720,0)"><path d="M49.2 13.9l24 24c2.3 2.3 2.3 6.1 0 8.5-2.3 2.3-6.1 2.3-8.5 0L45 26.6 25.3 46.4c-2.3 2.3-6.1 2.3-8.5 0-2.3-2.3-2.3-6.1 0-8.5l24-24c1.2-1.2 2.7-1.8 4.2-1.8s3.1.6 4.2 1.8zM45 42c-1.5 0-3.1.6-4.2 1.8l-24 24c-2.3 2.3-2.3 6.1 0 8.5 2.3 2.3 6.1 2.3 8.5 0L45 56.5l19.7 19.7c2.3 2.3 6.1 2.3 8.5 0 2.3-2.3 2.3-6.1 0-8.5l-24-24C48.1 42.6 46.5 42 45 42z"/></g>
<view id="circle" viewBox="810 0 90 90">
</view>
<g transform="translate(810,0)"><path d="M45 12c18.2 0 33 14.8 33 33S63.2 78 45 78 12 63.2 12 45s14.8-33 33-33m0-6C23.5 6 6 23.5 6 45s17.5 39 39 39 39-17.5 39-39S66.5 6 45 6z"/></g>
<view id="clone" viewBox="900 0 90 90">
</view>
<g transform="translate(900,0)"><path d="M18 66h-6c-3.3 0-6-2.7-6-6V12c0-3.3 2.7-6 6-6h48c3.3 0 6 2.7 6 6v6h-6v-6H12v48h6v6zm60-36H30v48h48V30m0-6c3.3 0 6 2.7 6 6v48c0 3.3-2.7 6-6 6H30c-3.3 0-6-2.7-6-6V30c0-3.3 2.7-6 6-6h48z"/></g>
<view id="close" viewBox="990 0 90 90">
</view>
<g transform="translate(990,0)"><path d="M77.7 16.3l-4-4c-2.1-2.1-5.6-2.1-7.7 0l-21 21-21-21c-2.1-2.1-5.6-2.1-7.7 0l-4 4c-2.1 2.1-2.1 5.6 0 7.7l21 21-21 21c-2.1 2.1-2.1 5.6 0 7.7l4 4c2.1 2.1 5.6 2.1 7.7 0l21-21 21 21c2.1 2.1 5.6 2.1 7.7 0l4-4c2.1-2.1 2.1-5.6 0-7.7l-21-21 21-21c2.1-2.1 2.1-5.6 0-7.7z"/></g>
<view id="creditcard" viewBox="1080 0 90 90">
</view>
<g transform="translate(1080,0)"><path d="M6.1 78h77.8c3.4 0 6.1-2.7 6.1-6.1V18.1c0-3.4-2.7-6.1-6.1-6.1H6.1C2.7 12 0 14.7 0 18.1v53.8C0 75.3 2.7 78 6.1 78zM6 18.1c0-.1 0-.1.1-.1h77.8c.1 0 .1 0 .1.1V30H6V18.1zM84 42v29.9c0 .1 0 .1-.1.1H6.1c-.1 0-.1 0-.1-.1V42h78zM18 66h-6V54h6v12zm12 0h-6V54h6v12zm12 0h-6V54h6v12z"/></g>
<view id="dart-down" viewBox="1170 0 90 90">
</view>
<g transform="translate(1170,0)"><path d="M45 66c1.6 0 3.1-.6 4.2-1.8L79.5 34c2.3-2.3 2.3-6.1 0-8.5-2.3-2.3-6.1-2.3-8.5 0l-26 26-26-26c-2.3-2.3-6.1-2.3-8.5 0-2.3 2.3-2.3 6.1 0 8.5l30.2 30.2c1.2 1.2 2.7 1.8 4.3 1.8z"/></g>
<view id="dart-left" viewBox="1260 0 90 90">
</view>
<g transform="translate(1260,0)"><path d="M23.9 44.9c0-1.6.6-3.1 1.8-4.2l30.2-30.2c2.3-2.3 6.1-2.3 8.5 0 2.3 2.3 2.3 6.1 0 8.5l-26 26 26 26c2.3 2.3 2.3 6.1 0 8.5-2.3 2.3-6.1 2.3-8.5 0L25.6 49.1c-1.1-1.1-1.7-2.6-1.7-4.2z"/></g>
<view id="dart-right" viewBox="1350 0 90 90">
</view>
<g transform="translate(1350,0)"><path d="M66.1 44.9c0 1.6-.6 3.1-1.8 4.2L34.1 79.4c-2.3 2.3-6.1 2.3-8.5 0-2.3-2.3-2.3-6.1 0-8.5l26-26-26-26c-2.3-2.3-2.3-6.1 0-8.5 2.3-2.3 6.1-2.3 8.5 0l30.2 30.2c1.2 1.2 1.8 2.7 1.8 4.3z"/></g>
<view id="dart-up" viewBox="1440 0 90 90">
</view>
<g transform="translate(1440,0)"><path d="M45 23.8c-1.6 0-3.1.6-4.2 1.8L10.5 55.8c-2.3 2.3-2.3 6.1 0 8.5 2.3 2.3 6.1 2.3 8.5 0l26-26 26 26c2.3 2.3 6.1 2.3 8.5 0 2.3-2.3 2.3-6.1 0-8.5L49.2 25.5c-1.1-1.1-2.6-1.7-4.2-1.7z"/></g>
<view id="doc" viewBox="1530 0 90 90">
</view>
<g transform="translate(1530,0)"><path d="M71.5 5.5v78h-54v-78h54m0-6h-54c-3.3 0-6 2.7-6 6v78c0 3.3 2.7 6 6 6h54c3.3 0 6-2.7 6-6v-78c0-3.3-2.7-6-6-6zM63 12H27v6h36v-6zm0 12H27v6h36v-6zm0 12H27v6h36v-6zm0 12H27v6h36v-6zm0 12H27v6h36v-6zM45 72H27v6h18v-6z"/></g>
<view id="drag" viewBox="1620 0 90 90">
</view>
<g transform="translate(1620,0)"><path d="M45 30c-8.3 0-15 6.7-15 15s6.7 15 15 15 15-6.7 15-15-6.7-15-15-15zm0 24c-5 0-9-4-9-9s4-9 9-9 9 4 9 9-4 9-9 9zm14.1-41.1c1.2 1.2 1.2 3.1 0 4.2-.6.6-1.3.9-2.1.9s-1.5-.3-2.1-.9L48 10.2V21c0 1.7-1.3 3-3 3s-3-1.3-3-3V10.2l-6.9 6.9c-.6.6-1.3.9-2.1.9s-1.5-.3-2.1-.9c-1.2-1.2-1.2-3.1 0-4.2l12-12c.1-.1.3-.3.5-.4.1 0 .1-.1.2-.1.1-.1.2-.1.3-.2.1 0 .2-.1.3-.1.1 0 .2-.1.3-.1.4-.1.8-.1 1.2 0 .1 0 .2.1.3.1.1 0 .2.1.3.1.1 0 .2.1.3.2.1 0 .1.1.2.1.2.1.3.2.5.4l11.8 12zM24 45c0 1.7-1.3 3-3 3H10.2l6.9 6.9c1.2 1.2 1.2 3.1 0 4.2-.6.6-1.3.9-2.1.9s-1.5-.3-2.1-.9l-12-12c-.1-.1-.3-.3-.4-.5 0-.1-.1-.1-.1-.2-.1-.1-.1-.2-.2-.3 0-.1-.1-.2-.1-.3 0-.1-.1-.2-.1-.3-.1-.4-.1-.8 0-1.2 0-.1.1-.2.1-.3 0-.1.1-.2.1-.3 0-.1.1-.2.2-.3 0-.1.1-.1.1-.2.1-.2.2-.3.4-.5l12-12c1.2-1.2 3.1-1.2 4.2 0 1.2 1.2 1.2 3.1 0 4.2L10.2 42H21c1.7 0 3 1.3 3 3zm35.1 27.9c1.2 1.2 1.2 3.1 0 4.2l-12 12c-.1.1-.3.3-.5.4-.1 0-.1.1-.2.1-.1.1-.2.1-.3.2-.1 0-.2.1-.3.1-.1 0-.2.1-.3.1H45c-.2 0-.4 0-.6-.1-.1 0-.2-.1-.3-.1-.1 0-.2-.1-.3-.1-.1 0-.2-.1-.3-.2-.1 0-.1-.1-.2-.1-.2-.1-.3-.2-.5-.4l-12-12c-1.2-1.2-1.2-3.1 0-4.2 1.2-1.2 3.1-1.2 4.2 0l6.9 6.9V69c0-1.7 1.3-3 3-3s3 1.3 3 3v10.8l6.9-6.9c1.3-1.2 3.1-1.2 4.3 0zm30-25.8l-12 12c-.6.6-1.3.9-2.1.9s-1.5-.3-2.1-.9c-1.2-1.2-1.2-3.1 0-4.2l6.9-6.9H69c-1.7 0-3-1.3-3-3s1.3-3 3-3h10.8l-6.9-6.9c-1.2-1.2-1.2-3.1 0-4.2 1.2-1.2 3.1-1.2 4.2 0l12 12c.1.1.3.3.4.5 0 .1.1.1.1.2.1.1.1.2.2.3 0 .1.1.2.1.3 0 .1.1.2.1.3.1.4.1.8 0 1.2 0 .1-.1.2-.1.3 0 .1-.1.2-.1.3 0 .1-.1.2-.2.3 0 .1-.1.1-.1.2-.1 0-.2.2-.4.3z"/></g>
<view id="eye-slash" viewBox="1710 0 90 90">
</view>
<g transform="translate(1710,0)"><path d="M86.7 49c-6 6.7-19.4 19.6-35.5 22.5l4.4-7.3C67.7 60 77.8 49.9 82.2 45c-2.1-2.3-5.4-5.8-9.6-9.2l3.1-5.2c4.7 3.8 8.5 7.6 11 10.4 2 2.3 2 5.7 0 8zM59.1 34L46.4 53.9l-1.9 3-1.8 2.9-3.5 5.5-3.4 5.4-6.6 10.4-10.1-6.4 5.5-8.6C14.9 61 7.4 53.5 3.3 49c-2-2.3-2-5.7 0-8C10 33.5 26.2 18 45 18h1.3c2.7.1 5.4.5 8 1.2l6.6-10.4L71 15.2l-5.5 8.6-2.7 4.3-.5.8L61 31l-1.9 3zm-11.6-4c-1-2.7-3.1-4.7-5.8-5.6-.2 0-.3-.1-.5-.1-.7-.2-1.5-.3-2.2-.3-2.4 0-4.5.9-6.1 2.4-1.8 1.6-2.9 4-2.9 6.6 0 .9.1 1.8.4 2.6C31.5 39.3 35 42 39 42h.8l7.7-12zm-16 25.1C26.9 51.2 24 45.4 24 39c0-3.4.8-6.5 2.2-9.3-8.4 4.8-15 11.6-18.4 15.4 3.6 4 10.8 11.3 19.8 16.1l3.9-6.1z"/></g>
<view id="eye" viewBox="1800 0 90 90">
</view>
<g transform="translate(1800,0)"><path d="M86.7 41C80 33.5 63.8 18 45 18S10 33.5 3.3 41c-2 2.3-2 5.7 0 8C10 56.5 26.2 72 45 72s35-15.5 41.7-23c2-2.3 2-5.7 0-8zM41.6 24.4C45.3 25.5 48 29 48 33c0 5-4 9-9 9-4.1 0-7.5-2.7-8.6-6.4-.3-.8-.4-1.7-.4-2.6 0-2.6 1.1-4.9 2.9-6.6 1.6-1.5 3.8-2.4 6.1-2.4.7 0 1.5.1 2.1.3.2 0 .4 0 .5.1zM45 66C28.4 66 13.4 51.3 7.8 45c3.4-3.8 10-10.5 18.4-15.4-1.4 2.8-2.2 6-2.2 9.3 0 11.6 9.4 21 21 21s21-9.4 21-21c0-3.4-.8-6.5-2.2-9.3 8.4 4.8 15 11.6 18.4 15.3C76.6 51.3 61.6 66 45 66z"/></g>
<view id="fb" viewBox="1890 0 90 90">
</view>
<g transform="translate(1890,0)"><path d="M79.7 6H10.3C7.9 6 6 7.9 6 10.3v69.4c0 2.4 1.9 4.3 4.3 4.3H48V53.8H37.5V42H48v-8.7c0-10.1 5.8-15.6 14.8-15.6 4.3 0 8 .3 9.1.5v10.5h-6.2c-4.9 0-5.8 2.3-5.8 5.8V42h11.7L70 53.8H59.8V84h19.9c2.4 0 4.3-1.9 4.3-4.3V10.3C84 7.9 82.1 6 79.7 6"/></g>
<view id="gear" viewBox="1980 0 90 90">
</view>
<g transform="translate(1980,0)"><path d="M90 54V36H73.6c-.5-1.7-1.2-3.3-2-4.9l11.6-11.6L70.5 6.8 58.9 18.4c-1.6-.8-3.2-1.5-4.9-2V0H36v16.4c-1.7.5-3.3 1.2-4.9 2L19.5 6.8 6.8 19.5l11.6 11.6c-.8 1.6-1.5 3.2-2 4.9H0v18h16.4c.5 1.7 1.2 3.3 2 4.9L6.8 70.5l12.7 12.7 11.6-11.6c1.6.8 3.2 1.5 4.9 2V90h18V73.6c1.7-.5 3.3-1.2 4.9-2l11.6 11.6 12.7-12.7-11.6-11.6c.8-1.6 1.5-3.2 2-4.9H90zm-45 6c-8.3 0-15-6.7-15-15s6.7-15 15-15 15 6.7 15 15-6.7 15-15 15z"/></g>
<view id="github" viewBox="2070 0 90 90">
</view>
<g transform="translate(2070,0)"><path d="M45 6C23.5 6 6 23.4 6 45c0 17.2 11.2 31.9 26.7 37 2 .4 2.7-.8 2.7-1.9v-6.6c-10.8 2.4-13.1-5.2-13.1-5.2-1.8-4.5-4.3-5.7-4.3-5.7-3.5-2.4.3-2.4.3-2.4 3.9.3 6 4 6 4 3.5 6 9.1 4.2 11.4 3.2.4-2.5 1.4-4.2 2.5-5.2-8.7-1-17.8-4.3-17.8-19.3 0-4.3 1.5-7.7 4-10.5-.4-1-1.8-4.9.3-10.3 0 0 3.3-1 10.7 4 3.1-.9 6.4-1.3 9.8-1.3 3.3 0 6.6.4 9.8 1.3 7.4-5 10.7-4 10.7-4 2.1 5.4.8 9.3.4 10.3 2.5 2.7 4 6.2 4 10.5 0 15-9.1 18.3-17.8 19.2 1.4 1.2 2.6 3.6 2.6 7.2V80c0 1 .7 2.2 2.7 1.9C72.8 76.8 84 62.2 84 45 84 23.4 66.5 6 45 6"/></g>
<view id="google" viewBox="2160 0 90 90">
</view>
<g transform="translate(2160,0)"><path d="M78 6H16.6C13.1 6 9 5.4 6.9 8.9 6 10.2 6 11.7 6 13.2v63.5c0 1.4 0 2.8.7 4.1 2 3.8 6.2 3.2 9.8 3.2 5.3 0 59 .1 61.5 0 3.4-.1 6-2.8 6-6.2V12.1C84 8.8 81.4 6 78 6zM65.2 67.5c-6.6 6.2-16.1 8.6-24.9 7-7.9-1.4-15.1-6.1-19.5-12.8-5.2-7.7-6.5-17.6-3.5-26.4 3-9.1 10.5-16.3 19.7-19 9.9-2.9 20.7-.5 28.4 6.2l-8.7 8.7c-4.8-3.9-11.5-5-17.3-2.8-5.5 2.1-9.7 6.9-11 12.7-1.3 5.6.3 11.7 4.3 16 3.8 4.1 9.3 6 14.8 5.6 6.8-.5 12.9-4.6 14.3-11.5H45.7V39.5h28c2.2 9.9-1.1 21.1-8.5 28z"/></g>
<view id="heart" viewBox="2250 0 90 90">
</view>
<g transform="translate(2250,0)"><path d="M90 26.7C90 52.5 51.5 72 45 83.9c-6.1-12-45-31.7-45-57.2C0-.7 45-2 45 28.3 45-2 90-.7 90 26.7z"/></g>
<view id="home" viewBox="2340 0 90 90">
</view>
<g transform="translate(2340,0)"><path d="M87.9 49.4L45 13.1 30 25.8V18H18v18L2.1 49.4l7.8 9.2 8.1-6.9V78h19.6V60.4h14.8V78H72V51.7l8.1 6.9z"/></g>
<view id="html" viewBox="2430 0 90 90">
</view>
<g transform="translate(2430,0)"><path d="M24 75c-.9 0-1.8-.4-2.4-1.2l-21-27c-.8-1.1-.8-2.6 0-3.7l21-27c1-1.3 2.9-1.5 4.2-.5 1.3 1 1.5 2.9.5 4.2L6.8 45l19.6 25.2c1 1.3.8 3.2-.5 4.2-.6.4-1.3.6-1.9.6zm44.4-1.2l21-27c.8-1.1.8-2.6 0-3.7l-21-27c-1-1.3-2.9-1.5-4.2-.5-1.3 1-1.5 2.9-.5 4.2L83.2 45 63.6 70.2c-1 1.3-.8 3.2.5 4.2.5.4 1.2.6 1.8.6 1 0 1.9-.4 2.5-1.2zm-32.6 8.1l24-72c.5-1.6-.3-3.3-1.9-3.8-1.6-.5-3.3.3-3.8 1.9l-24 72c-.5 1.6.3 3.3 1.9 3.8.4.2.7.2 1 .2 1.3 0 2.4-.8 2.8-2.1z"/></g>
<view id="legal" viewBox="2520 0 90 90">
</view>
<g transform="translate(2520,0)"><path d="M66 0c-3.3 0-6 2.7-6 6H30c0-3.3-2.7-6-6-6s-6 2.7-6 6v24c0 3.3 2.7 6 6 6s6-2.7 6-6h12v18c-3.3 0-6 2.7-6 6v30c0 3.3 2.7 6 6 6h6c3.3 0 6-2.7 6-6V54c0-3.3-2.7-6-6-6V30h12c0 3.3 2.7 6 6 6s6-2.7 6-6V6c0-3.3-2.7-6-6-6z"/></g>
<view id="link" viewBox="2610 0 90 90">
</view>
<g transform="translate(2610,0)"><path d="M23.8 84.2c-4.8 0-9.3-1.9-12.7-5.3-3.4-3.4-5.3-7.9-5.3-12.7 0-4.8 1.9-9.3 5.3-12.7l8.5-8.5c1.2-1.2 3.1-1.2 4.2 0 1.2 1.2 1.2 3.1 0 4.2l-8.5 8.5C13 60 11.8 63 11.8 66.2s1.2 6.2 3.5 8.5 5.3 3.5 8.5 3.5 6.2-1.2 8.5-3.5l18-18c4.7-4.7 4.7-12.3 0-17-1.2-1.2-1.2-3.1 0-4.2 1.2-1.2 3.1-1.2 4.2 0 7 7 7 18.4 0 25.5l-18 18c-3.4 3.3-7.9 5.2-12.7 5.2zm15.9-29.7c1.2-1.2 1.2-3.1 0-4.2-4.7-4.7-4.7-12.3 0-17l18-18c2.3-2.3 5.3-3.5 8.5-3.5s6.2 1.2 8.5 3.5 3.5 5.3 3.5 8.5-1.2 6.2-3.5 8.5l-8.5 8.5C65 42 65 43.9 66.2 45c1.2 1.2 3.1 1.2 4.2 0l8.5-8.5c3.4-3.4 5.3-7.9 5.3-12.7 0-4.8-1.9-9.3-5.3-12.7-3.4-3.4-7.9-5.3-12.7-5.3-4.8 0-9.3 1.9-12.7 5.3l-18 18c-7 7-7 18.4 0 25.5.6.6 1.4.9 2.1.9s1.5-.4 2.1-1z"/></g>
<view id="location" viewBox="2700 0 90 90">
</view>
<g transform="translate(2700,0)"><path d="M78 33C78 14 61.9-1.2 42.7.1 26.3 1.2 12.1 14.5 12.1 30.9 12 54 30 84 45 90c15-6 33-36 33-57zM45 15c9.9 0 18 8.1 18 18s-8.1 18-18 18-18-8.1-18-18 8.1-18 18-18z"/></g>
<view id="lock" viewBox="2790 0 90 90">
</view>
<g transform="translate(2790,0)"><path d="M71.9 36h.1V16c0-8.8-7.2-16-16-16H34c-8.8 0-16 7.2-16 16v20h.1c-3.4 0-6.1 2.7-6.1 6.1v41.8c0 3.4 2.7 6.1 6.1 6.1h53.8c3.4 0 6.1-2.7 6.1-6.1V42.1c0-3.4-2.7-6.1-6.1-6.1zM30 16c0-2.2 1.8-4 4-4h22c2.2 0 4 1.8 4 4v20H30V16z"/></g>
<view id="mail" viewBox="2880 0 90 90">
</view>
<g transform="translate(2880,0)"><path d="M45 45L0 24v-6c0-3.3 2.7-6 6-6h78c3.3 0 6 2.7 6 6v6L45 45zM0 36v36c0 3.3 2.7 6 6 6h78c3.3 0 6-2.7 6-6V36L45 57 0 36z"/></g>
<view id="pause" viewBox="2970 0 90 90">
</view>
<g transform="translate(2970,0)"><path d="M30.9 12H21c-3.3 0-6.1 2.7-6.1 6.1V72c0 3.3 2.7 6.1 6.1 6.1h9.9c3.3 0 6.1-2.7 6.1-6.1V18.1c0-3.4-2.7-6.1-6.1-6.1zM53 18.1V72c0 3.3 2.7 6.1 6.1 6.1H69c3.3 0 6.1-2.7 6.1-6.1V18.1c0-3.3-2.7-6.1-6.1-6.1h-9.9c-3.4 0-6.1 2.7-6.1 6.1z"/></g>
<view id="pen" viewBox="3060 0 90 90">
</view>
<g transform="translate(3060,0)"><path d="M14.8 49.8l-.8.7-1.7 1.7-1.8 1.8-.8.8-2 2L6 58.5V84h25.5l1.8-1.8 2-2 .8-.8 4.2-4.2L74.5 41 49 15.5 14.8 49.8zM29 78H12V61l2-2 17 17-2 2zm53.9-45.5l-4.2 4.2-25.4-25.4 4.2-4.2c2.3-2.3 6.1-2.3 8.5 0l17 17c2.3 2.3 2.3 6.1-.1 8.4z"/></g>
<view id="phone" viewBox="3150 0 90 90">
</view>
<g transform="translate(3150,0)"><path d="M80.9 57.1l-6.3-6.3c-3.4-3.4-8.2-4.1-10.7-1.5L55.4 62C45 54.1 35.9 45 28 34.6l12.8-8.5c2.5-2.5 1.8-7.3-1.5-10.7L33 9.1C29.6 5.7 24.8 5 22.2 7.5L9.8 20c-3.9 3.9-4.9 9.8-2.6 14.8 10.1 21.9 26.1 37.9 48.1 48.1 5 2.3 10.9 1.3 14.8-2.6l12.4-12.4c2.5-2.7 1.8-7.5-1.6-10.8z"/></g>
<view id="play" viewBox="3240 0 90 90">
</view>
<g transform="translate(3240,0)"><path d="M11 77.3V12.7c0-5.2 5.6-8.4 10.1-5.8l54.7 32.3c4.4 2.6 4.4 8.9 0 11.5L21.1 83.1c-4.5 2.6-10.1-.6-10.1-5.8z"/></g>
<view id="plus" viewBox="3330 0 90 90">
</view>
<g transform="translate(3330,0)"><path d="M78 36H54V12c0-3.3-2.7-6-6-6h-6c-3.3 0-6 2.7-6 6v24H12c-3.3 0-6 2.7-6 6v6c0 3.3 2.7 6 6 6h24v24c0 3.3 2.7 6 6 6h6c3.3 0 6-2.7 6-6V54h24c3.3 0 6-2.7 6-6v-6c0-3.3-2.7-6-6-6z"/></g>
<view id="print" viewBox="3420 0 90 90">
</view>
<g transform="translate(3420,0)"><path d="M84 24H72V6c0-3.3-2.7-6-6-6H24c-3.3 0-6 2.7-6 6v18H6c-3.3 0-6 2.7-6 6v30c0 3.3 2.7 6 6 6h12v18c0 3.3 2.7 6 6 6h42c3.3 0 6-2.7 6-6V66h12c3.3 0 6-2.7 6-6V30c0-3.3-2.7-6-6-6zM24 6h42v18H24V6zm42 78H24V54h42v30zm18-24H72V48H18v12H6V30h78v30zm-23.5 6.5h-31v-6h31v6zm-19 12h-12v-6h12v6zM60 36h12v6H60v-6z"/></g>
<view id="question" viewBox="3510 0 90 90">
</view>
<g transform="translate(3510,0)"><path d="M51 72H39V60h12v12zm0-20.7c0-.7.9-1.8 2.6-2.6 6.6-2.9 10.6-8.9 10.3-15.3-.5-8.3-8.4-15-18.1-15.4-5.7-.2-11.2 1.8-15 5.4-3.1 3-4.8 6.8-4.8 10.8h12c0-.9.6-1.7 1.1-2.2 1.4-1.4 3.7-2.1 6.2-2.1 3.6.1 6.4 2.3 6.5 4.1.1 1.6-1.6 3-3.1 3.6-6.1 2.6-9.8 7.8-9.8 13.6V57h12v-5.7zM84 45C84 23.5 66.5 6 45 6S6 23.5 6 45s17.5 39 39 39 39-17.5 39-39zm-6 0c0 18.2-14.8 33-33 33S12 63.2 12 45s14.8-33 33-33 33 14.8 33 33z"/></g>
<view id="radio" viewBox="3600 0 90 90">
</view>
<g transform="translate(3600,0)"><path d="M45 6C23.5 6 6 23.5 6 45s17.5 39 39 39 39-17.5 39-39S66.5 6 45 6zm0 72c-18.2 0-33-14.8-33-33s14.8-33 33-33 33 14.8 33 33-14.8 33-33 33zm21-33c0 11.6-9.4 21-21 21s-21-9.4-21-21 9.4-21 21-21 21 9.4 21 21z"/></g>
<view id="save" viewBox="3690 0 90 90">
</view>
<g transform="translate(3690,0)"><path d="M66 0H5.8C2.6 0 0 2.6 0 5.8v78.3C0 87.4 2.6 90 5.8 90h78.4c3.2 0 5.8-2.6 5.8-5.8V24L66 0zM48 6v23.8c0 .1-.1.2-.2.2H36V6h12zM24 84V54.2c0-.1.1-.2.2-.2h41.7c.1 0 .2.1.2.2V84H24zm60 0H72V54.2c0-3.4-2.8-6.2-6.2-6.2H24.2c-3.4 0-6.2 2.8-6.2 6.2V84H6V6h12v23.8c0 3.4 2.8 6.2 6.2 6.2h23.6c3.4 0 6.2-2.8 6.2-6.2V6h9.5L84 26.5V84z"/></g>
<view id="search" viewBox="3780 0 90 90">
</view>
<g transform="translate(3780,0)"><path d="M86.1 81.9L59.2 55c4.2-5.2 6.8-11.8 6.8-19C66 19.4 52.6 6 36 6S6 19.4 6 36s13.4 30 30 30c7.2 0 13.8-2.5 19-6.8l26.9 26.9c.6.6 1.4.9 2.1.9s1.5-.3 2.1-.9c1.2-1.2 1.2-3 0-4.2zM36 60c-13.2 0-24-10.8-24-24s10.8-24 24-24 24 10.8 24 24-10.8 24-24 24z"/></g>
<view id="square" viewBox="3870 0 90 90">
</view>
<g transform="translate(3870,0)"><path d="M78 12v66H12V12h66m0-6H12c-3.3 0-6 2.7-6 6v66c0 3.3 2.7 6 6 6h66c3.3 0 6-2.7 6-6V12c0-3.3-2.7-6-6-6z"/></g>
<view id="stop" viewBox="3960 0 90 90">
</view>
<g transform="translate(3960,0)"><path d="M70.7 78H19.3c-4.1 0-7.3-3.3-7.3-7.3V19.3c0-4.1 3.3-7.3 7.3-7.3h51.3c4.1 0 7.3 3.3 7.3 7.3v51.3c.1 4.1-3.2 7.4-7.2 7.4z"/></g>
<view id="sync" viewBox="4050 0 90 90">
</view>
<g transform="translate(4050,0)"><path d="M82.2 32.7H53.3l10.1-10.1C58.3 18.3 51.8 16 45 16c-16 0-29 13-29 29H4C4 22.4 22.4 4 45 4c10 0 19.5 3.6 27 10.1L82.2 3.9v28.8zM7.8 86.1L18 75.9C25.5 82.4 35 86 45 86c22.6 0 41-18.4 41-41H74c0 16-13 29-29 29-6.8 0-13.3-2.3-18.5-6.7l10.1-10.1H7.7l.1 28.9z"/></g>
<view id="twt" viewBox="4140 0 90 90">
</view>
<g transform="translate(4140,0)"><path d="M86.8 19c-3.1 1.4-6.4 2.3-9.9 2.7 3.6-2.1 6.3-5.5 7.6-9.5-3.3 1.9-7 3.4-10.9 4.1C70.4 13 66 10.9 61 10.9c-9.5 0-17.2 7.7-17.2 17.2 0 1.4.2 2.7.4 3.9-14.3-.7-27-7.6-35.5-17.9-1.5 2.5-2.3 5.5-2.3 8.7 0 6 3 11.2 7.7 14.3-2.8-.1-5.5-.9-7.8-2.2v.2c0 8.3 5.9 15.3 13.8 16.9-1.4.4-3 .6-4.5.6-1.1 0-2.2-.1-3.2-.3 2.2 6.8 8.6 11.8 16.1 12-5.9 4.6-13.3 7.4-21.4 7.4-1.4 0-2.7-.1-4.1-.2 7.7 4.9 16.7 7.7 26.4 7.7 31.7 0 49-26.2 49-49 0-.7 0-1.5-.1-2.2 3.4-2.4 6.3-5.5 8.6-8.9l-.1-.1z"/></g>
<view id="undo" viewBox="4230 0 90 90">
</view>
<g transform="translate(4230,0)"><path d="M72.6 17.4C65.2 10.1 55.4 6 45 6c-9.4 0-18.2 3.3-25.3 9.3L7.4 3v33h33L28.3 23.8c10.6-8.4 26.1-7.7 35.8 2.1 10.5 10.5 10.5 27.7 0 38.2s-27.7 10.5-38.2 0c-2.5-2.5-4.5-5.5-5.9-8.8L9 59.9c2 4.7 4.8 9 8.5 12.7C24.8 79.9 34.6 84 45 84s20.2-4.1 27.6-11.4c15.2-15.2 15.2-40 0-55.2z"/></g>
<view id="unlock" viewBox="4320 0 90 90">
</view>
<g transform="translate(4320,0)"><path d="M71.9 36H30V16c0-2.2 1.8-4 4-4h22c2.2 0 4 1.8 4 4v1.8c0 3.3 2.7 6 6 6s6-2.7 6-6V16c0-8.8-7.2-16-16-16H34c-8.8 0-16 7.2-16 16v20h.1c-3.4 0-6.1 2.7-6.1 6.1v41.8c0 3.4 2.7 6.1 6.1 6.1h53.8c3.4 0 6.1-2.7 6.1-6.1V42.1c0-3.4-2.7-6.1-6.1-6.1z"/></g>
<view id="upload" viewBox="4410 0 90 90">
</view>
<g transform="translate(4410,0)"><path d="M90 59.8c0 10-7.3 18.2-16.3 18.2H54v-6h19.7C79.4 72 84 66.5 84 59.8c0-11.2-7.7-12.1-9-12.2l-3 .2v-3.2C71.8 30.4 60.1 18 46.9 18c-9.4 0-17.7 6.5-21.3 16.6l-.8 2.2-2.4-.3c-.5-.1-1-.1-1.4-.1-8.3 0-15 8-15 17.7S12.7 72 21 72h15v6H21C9.4 78 0 67.4 0 54.3c0-13 9.3-23.6 20.8-23.7C25.6 19.2 35.7 12 46.9 12c15.5 0 29.4 13.7 30.9 30 2 .5 4.6 1.6 6.9 3.7 3.5 3.3 5.3 8 5.3 14.1zm-29.1-.7c.6.6 1.4.9 2.1.9s1.5-.3 2.1-.9c1.2-1.2 1.2-3.1 0-4.2L45 34.8 24.9 54.9c-1.2 1.2-1.2 3.1 0 4.2 1.2 1.2 3.1 1.2 4.2 0L42 46.2V81c0 1.7 1.3 3 3 3s3-1.3 3-3V46.2l12.9 12.9z"/></g>
</svg>