<?xml version="1.0"?>
<svg xmlns="http://www.w3.org/2000/svg" xmlns:xlink="http://www.w3.org/1999/xlink">
  <view id="alert" viewBox="0 0 800 800">
</view>
<g transform="translate(0,0)"><path d="M744.042 674.992L418.03 124.08c-9.092-15.364-25.177-24.537-43.03-24.537s-33.938 9.173-43.03 24.537L5.958 674.992c-9.263 15.653-9.413 34.43-.403 50.231 9.008 15.8 25.246 25.233 43.434 25.233h652.024c18.188 0 34.426-9.433 43.434-25.233 9.01-15.8 8.86-34.578-.404-50.231zm-43.03 25.464H48.988L375 149.544l326.012 550.911zM375 299.456c13.807 0 25 11.192 25 25v200c0 13.807-11.193 25-25 25s-25-11.193-25-25v-200c0-13.808 11.193-25 25-25zm25 325v1c0 13.807-11.193 25-25 25s-25-11.193-25-25v-1c0-13.808 11.193-25 25-25s25 11.192 25 25z"/></g>
<view id="alt" viewBox="800 0 800 800">
</view>
<g transform="translate(800,0)"><path d="M775 700H587.5c-8.62 0-16.631-4.474-21.2-11.84L232.735 150.382H25c-13.807 0-25-11.28-25-25.191S11.193 100 25 100h221.59c8.62 0 16.632 4.474 21.2 11.84l333.566 537.778H775c13.807 0 25 11.28 25 25.191C800 688.721 788.807 700 775 700zm25-574.81c0-13.911-11.193-25.19-25-25.19H468.182c-13.807 0-25 11.279-25 25.19s11.193 25.192 25 25.192H775c13.807 0 25-11.28 25-25.191z"/></g>
<view id="bars" viewBox="1600 0 800 800">
</view>
<g transform="translate(1600,0)"><path d="M775 249.999H25c-13.809 0-25-11.192-25-25s11.191-25 25-25h750c13.809 0 25 11.191 25 25s-11.191 25-25 25zm25 175c0-13.809-11.191-25-25-25H25c-13.809 0-25 11.191-25 25s11.191 25 25 25h750c13.809 0 25-11.192 25-25zm0 200c0-13.809-11.191-25-25-25H25c-13.809 0-25 11.191-25 25s11.191 25 25 25h750c13.809 0 25-11.192 25-25z"/></g>
<view id="bell" viewBox="2400 0 800 800">
</view>
<g transform="translate(2400,0)"><path d="M680.635 649.999h-1.245c-7.207-10.142-32.837-66.47-33.38-354.57C645.769 168.53 548.719 63.82 425 51.262V24.999c0-13.809-11.191-25-25-25s-25 11.191-25 25v26.264C251.282 63.82 154.232 168.53 153.99 295.428c-.543 288.101-26.173 344.43-33.38 354.57h-1.245c-13.803 0-25 11.192-25 25s11.197 25 25 25H300c0 55.142 44.858 100 100 100s100-44.858 100-100h180.635c13.803 0 25-11.19 25-25s-11.197-25-25-25zM400 749.999c-27.568 0-50-22.432-50-50h100c0 27.568-22.432 50-50 50zm-225.273-100c16.904-51.006 28.881-152.832 29.262-354.473C204.194 187.714 292.13 100 400 100s195.806 87.715 196.01 195.527c.382 201.64 12.36 303.467 29.263 354.473H174.727z"/></g>
<view id="book" viewBox="3200 0 800 800">
</view>
<g transform="translate(3200,0)"><path d="M700 50.5H525c-52.118 0-98.105 26.724-125 67.182C373.105 77.224 327.118 50.5 275 50.5H100c-13.808 0-25 11.193-25 25v600c0 13.807 11.192 25 25 25h225c45.554 0 49.658 20.281 50.009 24.66.003.105.012.207.015.31a27.216 27.216 0 00.081 1.267 23.664 23.664 0 00.234 1.858 25.484 25.484 0 00.691 3.01c.057.19.114.38.175.57.064.198.131.394.2.59a23.933 23.933 0 001.442 3.32c.09.172.18.344.275.514.1.18.203.356.307.533.098.168.197.336.299.501.107.174.219.345.33.515.107.163.213.325.322.485.116.17.236.335.356.5.113.157.226.314.342.467.124.163.251.322.379.482.12.15.24.302.364.45.13.156.265.309.4.462.128.145.255.291.386.434.137.149.278.294.42.44.134.139.268.28.407.416.144.142.292.28.44.42.141.133.281.266.425.396.152.136.306.267.461.399.147.126.294.253.444.376.157.128.318.251.478.376.154.12.306.24.463.356.163.12.33.235.495.351.16.113.318.227.481.336.168.112.34.22.512.328.165.105.329.211.497.313.174.104.352.203.53.304.17.097.338.196.51.288.182.098.366.189.55.282.174.088.346.178.522.262.187.09.377.172.567.256.177.08.354.162.533.237.194.081.39.155.586.231.18.07.36.144.542.21.2.073.405.138.608.206.181.06.361.125.545.181.208.065.42.12.63.18.183.05.364.105.548.152.216.055.435.102.653.151.183.041.363.087.547.124.23.047.465.084.698.125.174.03.347.065.523.092.249.037.5.065.752.095.164.02.325.045.49.061.278.029.56.046.84.064.14.01.279.025.42.032a25.43 25.43 0 002.552 0c.141-.007.28-.022.42-.032.28-.018.562-.035.84-.064.165-.016.326-.041.49-.06.251-.031.503-.059.752-.096.176-.027.349-.062.523-.092.233-.04.467-.078.698-.125.184-.037.364-.083.547-.124.218-.05.437-.096.653-.15.184-.048.365-.103.547-.154.211-.058.423-.114.631-.179.184-.056.364-.12.545-.18.203-.069.407-.134.608-.207.182-.066.362-.14.542-.21.196-.076.392-.15.586-.23.18-.076.356-.158.533-.238.19-.084.38-.167.567-.256.176-.084.348-.174.522-.262.184-.093.368-.184.55-.282.172-.092.34-.191.51-.288.178-.1.356-.2.53-.304.168-.102.332-.208.497-.313.172-.109.344-.216.512-.328.163-.11.322-.223.481-.336.166-.116.332-.231.495-.351.157-.116.31-.237.463-.356.16-.125.321-.248.478-.376.15-.123.297-.25.444-.376.155-.132.31-.263.46-.4.145-.129.285-.262.426-.395.148-.14.296-.278.44-.42.139-.137.273-.277.408-.417.14-.145.282-.29.42-.44.13-.142.257-.288.385-.433.135-.153.27-.306.4-.462.124-.148.244-.3.364-.45.128-.16.255-.32.379-.482.116-.153.229-.31.342-.466.12-.166.24-.332.356-.5.11-.16.215-.323.322-.486.111-.17.223-.341.33-.515.102-.165.2-.333.3-.501.103-.177.206-.354.306-.533.094-.17.185-.342.275-.515.095-.182.19-.364.281-.55.087-.174.169-.351.252-.529a23.57 23.57 0 00.481-1.107 23.947 23.947 0 001.122-3.479 25.121 25.121 0 00.372-1.824 25.166 25.166 0 00.282-2.49c.014-.21.024-.422.033-.634.003-.104.012-.206.015-.31.35-4.38 4.455-24.661 50.009-24.661h225c13.808 0 25-11.193 25-25v-600c0-13.807-11.192-25-25-25zm-375 600H125v-550h150c55.14 0 100 44.86 100 100v458.408c-12.883-5.055-29.248-8.408-50-8.408zm50.008 74.624c-.023-.405-.008-.624-.008-.624 0 .209.003.416.008.624zm49.984 0c.005-.208.008-.415.008-.624 0 0 .015.22-.008.624zM675 650.5H475c-20.752 0-37.117 3.353-50 8.408V200.5c0-55.14 44.86-100 100-100h150v550z"/></g>
<view id="branch" viewBox="4000 0 800 800">
</view>
<g transform="translate(4000,0)"><path d="M700 124.999c0-68.926-56.074-125-125-125s-125 56.074-125 125c0 60.365 43.013 110.866 100 122.48V250c0 82.71-67.29 150-150 150H250v-152.52c56.987-11.614 100-62.115 100-122.48 0-68.926-56.074-125-125-125s-125 56.074-125 125c0 60.365 43.013 110.866 100 122.48v305.04c-56.987 11.614-100 62.114-100 122.48 0 68.926 56.074 125 125 125s125-56.074 125-125c0-60.366-43.013-110.866-100-122.48v-102.52h150c110.278 0 200-89.722 200-200v-2.52c56.987-11.614 100-62.115 100-122.48zm-550 0c0-41.358 33.643-75 75-75s75 33.642 75 75-33.643 75-75 75-75-33.643-75-75zm150 550c0 41.357-33.643 75-75 75s-75-33.643-75-75 33.643-75 75-75 75 33.642 75 75zm275-475c-41.357 0-75-33.643-75-75s33.643-75 75-75 75 33.642 75 75-33.643 75-75 75z"/></g>
<view id="building" viewBox="4800 0 800 800">
</view>
<g transform="translate(4800,0)"><path d="M675-.001H125c-13.809 0-25 11.191-25 25v750c0 13.808 11.191 25 25 25h550c13.809 0 25-11.192 25-25v-750c0-13.809-11.191-25-25-25zm-425 750v-100h300v100H250zm400 0h-50v-125c0-13.809-11.191-25-25-25H225c-13.809 0-25 11.191-25 25v125h-50v-700h500v700zm-200-275c0-13.809 11.191-25 25-25h100c13.809 0 25 11.191 25 25s-11.191 25-25 25H475c-13.809 0-25-11.192-25-25zm-250 0c0-13.809 11.191-25 25-25h100c13.809 0 25 11.191 25 25s-11.191 25-25 25H225c-13.809 0-25-11.192-25-25zm250-150c0-13.809 11.191-25 25-25h100c13.809 0 25 11.191 25 25s-11.191 25-25 25H475c-13.809 0-25-11.192-25-25zm-250 0c0-13.809 11.191-25 25-25h100c13.809 0 25 11.191 25 25s-11.191 25-25 25H225c-13.809 0-25-11.192-25-25zm250-150c0-13.809 11.191-25 25-25h100c13.809 0 25 11.191 25 25s-11.191 25-25 25H475c-13.809 0-25-11.192-25-25zm-250 0c0-13.809 11.191-25 25-25h100c13.809 0 25 11.191 25 25s-11.191 25-25 25H225c-13.809 0-25-11.192-25-25z"/></g>
<view id="bulb" viewBox="5600 0 800 800">
</view>
<g transform="translate(5600,0)"><path d="M600.059 76.444c-63.467-56.816-148.75-84.053-234.19-74.55C225.684 17.4 114.434 130.711 101.338 271.316c-8.613 92.461 24.824 182.06 91.728 245.81C229.786 552.09 250 597.558 250 645.136V725c0 41.357 33.643 75 75 75h150c41.357 0 75-33.643 75-75v-75.225c0-50.058 20.488-98.164 56.21-131.972 60.48-57.247 93.79-134.6 93.79-217.803 0-85.196-36.426-166.68-99.941-223.555zM500 725c0 13.789-11.21 25-25 25H325c-13.79 0-25-11.211-25-25v-79.864c0-15.291-1.6-30.392-4.72-45.136h210.143c-3.54 16.234-5.423 32.914-5.423 49.775V725zm-50-175H350V371.708l36.133 24.092a24.972 24.972 0 0027.734 0L450 371.708v178.29zm121.836-68.506c-20.7 19.588-37.346 42.928-49.414 68.506H500v-225a25.002 25.002 0 00-13.203-22.041 24.936 24.936 0 00-25.664 1.24L400 344.95l-61.133-40.752a24.96 24.96 0 00-25.664-1.24A25.002 25.002 0 00300 324.998v225h-21.863c-12.144-25.24-29.115-48.627-50.578-69.071-55.762-53.135-83.614-127.842-76.436-204.981 10.908-117.08 103.535-211.445 220.254-224.365a263.045 263.045 0 0128.936-1.602c61.708 0 119.94 22.12 166.396 63.711C619.639 161.093 650 229.003 650 300c0 69.326-27.754 133.789-78.164 181.494zM450 674.999c0 13.808-11.191 25-25 25h-50c-13.809 0-25-11.192-25-25s11.191-25 25-25h50c13.809 0 25 11.191 25 25z"/></g>
<view id="caret-down" viewBox="6400 0 800 800">
</view>
<g transform="translate(6400,0)"><path d="M400 650a24.931 24.931 0 01-17.058-6.724l-375-350A25 25 0 0125 250h750a25.001 25.001 0 0117.058 43.276l-375 350A24.931 24.931 0 01400 650zM88.426 300L400 590.803 711.574 300H88.426z"/></g>
<view id="caret-left" viewBox="7200 0 800 800">
</view>
<g transform="translate(7200,0)"><path d="M525.006 800.001a24.997 24.997 0 01-18.282-7.943l-350-375c-8.965-9.605-8.965-24.511 0-34.116l350-375A25 25 0 01550 25v750a25.001 25.001 0 01-24.994 25.001zM209.197 400L500 711.574V88.426L209.197 400z"/></g>
<view id="caret-right" viewBox="8000 0 800 800">
</view>
<g transform="translate(8000,0)"><path d="M274.994 800.001A25.001 25.001 0 01250 775V25a25.001 25.001 0 0143.276-17.058l350 375c8.965 9.605 8.965 24.511 0 34.116l-350 375A25 25 0 01274.994 800zM300 88.426v623.148L590.803 400 300 88.426z"/></g>
<view id="caret-up" viewBox="8800 0 800 800">
</view>
<g transform="translate(8800,0)"><path d="M775 550H25a25.001 25.001 0 01-17.058-43.276l375-350c9.604-8.965 24.512-8.965 34.116 0l375 350A25 25 0 01775 550zM88.426 500h623.148L400 209.197 88.426 500z"/></g>
<view id="certificate" viewBox="9600 0 800 800">
</view>
<g transform="translate(9600,0)"><path d="M699.968 223.747l-.008-.114a25.311 25.311 0 00-.185-1.925 24.728 24.728 0 00-.249-1.543l-.008-.051a25.326 25.326 0 00-.484-1.97c-.134-.47-.278-.935-.44-1.395-.018-.053-.033-.106-.052-.158a24.61 24.61 0 00-.769-1.888c-.19-.42-.39-.837-.604-1.247-.037-.071-.07-.145-.108-.216a25.197 25.197 0 00-1.042-1.762c-.255-.397-.52-.788-.798-1.171-.043-.058-.082-.119-.125-.177a24.906 24.906 0 00-1.299-1.6 25.072 25.072 0 00-1.066-1.15l-.053-.058-66.666-66.666L492.681 7.322a24.996 24.996 0 00-1.505-1.377 24.98 24.98 0 00-3.011-2.192 25.102 25.102 0 00-1.437-.832l-.051-.025a25.063 25.063 0 00-1.757-.838c-.507-.22-1.02-.426-1.54-.611l-.009-.003a24.962 24.962 0 00-1.881-.581 24.975 24.975 0 00-3.59-.688 25.002 25.002 0 00-1.592-.14l-.042-.003c-.42-.02-.84-.032-1.263-.032H125c-13.807 0-25 11.193-25 25v750c0 13.807 11.193 25 25 25h550c13.807 0 25-11.193 25-25V225.001c0-.42-.01-.837-.032-1.254zM614.645 200H500V85.355L614.645 200zM150 750V50h300v175c0 13.807 11.193 25 25 25h175v500H150zm362.5-337.5c0-62.033-50.467-112.5-112.5-112.5s-112.5 50.467-112.5 112.5c0 33.203 14.463 63.089 37.415 83.7l-23.632 70.894c-4.366 13.099 2.713 27.257 15.812 31.623a24.981 24.981 0 007.909 1.29c10.467 0 20.222-6.626 23.713-17.101l20.71-62.13C379.15 523.526 389.407 525 400 525s20.849-1.474 30.573-4.224l20.71 62.13c3.492 10.476 13.245 17.1 23.713 17.1 2.62 0 5.287-.415 7.91-1.289 13.098-4.366 20.177-18.524 15.81-31.623L475.086 496.2c22.952-20.61 37.415-50.496 37.415-83.699zm-175 0c0-34.462 28.037-62.5 62.5-62.5s62.5 28.038 62.5 62.5S434.463 475 400 475s-62.5-28.038-62.5-62.5z"/></g>
<view id="check-circle" viewBox="10400 0 800 800">
</view>
<g transform="translate(10400,0)"><path d="M593.582 283.276c9.236 10.263 8.405 26.07-1.858 35.307l-250 225a24.924 24.924 0 01-16.72 6.417 24.936 24.936 0 01-17.682-7.322l-100-100c-9.762-9.763-9.762-25.593 0-35.356 9.764-9.762 25.592-9.762 35.356 0l83.228 83.229 232.37-209.134c10.262-9.235 26.069-8.405 35.306 1.859zM750 400c0 47.239-9.258 93.078-27.515 136.244-17.63 41.68-42.862 79.108-74.998 111.243s-69.563 57.368-111.244 74.998C493.077 740.743 447.238 750 400 750s-93.077-9.257-136.243-27.515c-41.68-17.63-79.109-42.862-111.244-74.998s-57.368-69.563-74.998-111.243C59.258 493.078 50 447.239 50 400s9.258-93.078 27.515-136.244c17.63-41.68 42.862-79.108 74.998-111.243s69.563-57.368 111.244-74.998C306.923 59.257 352.762 50 400 50s93.077 9.257 136.243 27.515c41.68 17.63 79.109 42.862 111.244 74.998s57.368 69.563 74.998 111.243C740.742 306.922 750 352.761 750 400zm-50 0c0-165.42-134.58-300-300-300S100 234.58 100 400s134.58 300 300 300 300-134.58 300-300z"/></g>
<view id="check" viewBox="11200 0 800 800">
</view>
<g transform="translate(11200,0)"><path d="M792.193 243.149l-475 450A24.94 24.94 0 01299.998 700a24.93 24.93 0 01-16.77-6.46l-275-248.785c-10.239-9.263-11.03-25.072-1.767-35.311 9.264-10.239 25.073-11.03 35.31-1.767l257.837 233.257L757.807 206.85c10.021-9.495 25.846-9.068 35.341.955 9.497 10.024 9.069 25.847-.955 35.343z"/></g>
<view id="checkbox-off" viewBox="12000 0 800 800">
</view>
<g transform="translate(12000,0)"><path d="M725 50H75c-13.807 0-25 11.192-25 25v650c0 13.808 11.193 25 25 25h650c13.807 0 25-11.192 25-25V75c0-13.808-11.193-25-25-25zm-25 650H100V100h600v600z"/></g>
<view id="checkbox-on" viewBox="12800 0 800 800">
</view>
<g transform="translate(12800,0)"><path d="M725 50H75c-13.807 0-25 11.192-25 25v650c0 13.808 11.193 25 25 25h650c13.807 0 25-11.192 25-25V75c0-13.808-11.193-25-25-25zm-25 650H100V100h600v600zM225 600h350c13.807 0 25-11.193 25-25V225c0-13.807-11.193-25-25-25H225c-13.807 0-25 11.193-25 25v350c0 13.807 11.193 25 25 25zm25-350h300v300H250V250z"/></g>
<view id="checkbox-semi" viewBox="13600 0 800 800">
</view>
<g transform="translate(13600,0)"><path d="M725 750H75c-13.807 0-25-11.192-25-25V75c0-13.808 11.193-25 25-25h650c13.807 0 25 11.192 25 25v650c0 13.808-11.193 25-25 25zm-625-50h600V100H100v600zm124.995-99.999A24.999 24.999 0 01200 575V225c0-13.807 11.193-25 25-25h350a25 25 0 0117.678 42.678l-350 350A24.998 24.998 0 01224.995 600zM250 250v264.645L514.645 250H250z"/></g>
<view id="chevron-down" viewBox="14400 0 800 800">
</view>
<g transform="translate(14400,0)"><path d="M-1.518 123.536a24.882 24.882 0 015.557-15.699c8.682-10.742 24.419-12.407 35.156-3.73l359.043 290.2 359.444-293.223c10.698-8.73 26.445-7.133 35.17 3.57 8.74 10.683 7.14 26.445-3.569 35.17L414.113 445.88c-9.166 7.48-22.315 7.51-31.514.074L7.769 142.993c-6.113-4.94-9.287-12.167-9.287-19.457zm9.288 272.48L382.599 698.98c9.199 7.437 22.348 7.407 31.513-.073l375.171-306.055c10.708-8.73 12.31-24.477 3.57-35.17-8.726-10.704-24.473-12.3-35.171-3.57L398.238 647.334 39.195 357.13c-10.737-8.676-26.474-7.011-35.156 3.73a24.882 24.882 0 00-5.557 15.7c0 7.29 3.174 14.516 9.288 19.457z"/></g>
<view id="chevron-left" viewBox="15200 0 800 800">
</view>
<g transform="translate(15200,0)"><path d="M655.488 790.712l-302.96-374.83c-7.436-9.199-7.407-22.348.074-31.513L658.656 9.198c8.726-10.708 24.488-12.31 35.171-3.57 10.704 8.726 12.3 24.473 3.57 35.172L404.174 400.243l290.2 359.043c8.677 10.737 7.012 26.474-3.73 35.156A24.882 24.882 0 01674.946 800c-7.29 0-14.517-3.174-19.458-9.287zm-233.565 9.287a24.882 24.882 0 0015.698-5.557c10.742-8.682 12.408-24.419 3.73-35.156L151.148 400.243 444.369 40.8c8.73-10.699 7.134-26.446-3.569-35.171-10.693-8.74-26.44-7.139-35.17 3.569L99.573 384.368c-7.48 9.166-7.51 22.315-.073 31.515l302.964 374.829c4.941 6.113 12.168 9.287 19.458 9.287z"/></g>
<view id="chevron-right" viewBox="16000 0 800 800">
</view>
<g transform="translate(16000,0)"><path d="M122.026 799.999a24.882 24.882 0 01-15.698-5.557c-10.742-8.682-12.407-24.419-3.73-35.156l290.2-359.043L99.575 40.8c-8.73-10.699-7.134-26.446 3.57-35.171 10.683-8.74 26.445-7.139 35.17 3.569l306.055 375.17c7.48 9.166 7.51 22.315.073 31.515L141.484 790.712c-4.941 6.113-12.168 9.287-19.458 9.287zm272.48-9.287l302.965-374.83c7.436-9.199 7.407-22.348-.074-31.513L391.343 9.198c-8.73-10.708-24.478-12.31-35.171-3.57-10.703 8.726-12.3 24.473-3.57 35.172l293.223 359.443L355.62 759.286c-8.677 10.737-7.012 26.474 3.73 35.156A24.882 24.882 0 00375.05 800c7.29 0 14.516-3.174 19.458-9.287z"/></g>
<view id="chevron-up" viewBox="16800 0 800 800">
</view>
<g transform="translate(16800,0)"><path d="M798.49 676.455a24.882 24.882 0 01-5.557 15.698c-8.682 10.742-24.42 12.407-35.156 3.73l-359.043-290.2L39.29 698.906c-10.698 8.73-26.445 7.134-35.17-3.57-8.74-10.683-7.14-26.445 3.569-35.17l375.17-306.055c9.166-7.48 22.315-7.51 31.514-.073l374.83 302.959c6.113 4.941 9.287 12.168 9.287 19.458zm-9.288-272.48L414.373 101.01c-9.199-7.436-22.348-7.407-31.513.074L7.689 407.138c-10.708 8.73-12.31 24.478-3.57 35.171 8.726 10.703 24.473 12.3 35.171 3.57l359.444-293.223 359.043 290.205c10.737 8.677 26.474 7.012 35.156-3.73a24.882 24.882 0 005.557-15.699c0-7.29-3.174-14.516-9.288-19.458z"/></g>
<view id="clipboard" viewBox="17600 0 800 800">
</view>
<g transform="translate(17600,0)"><path d="M675 49.999H550v-25c0-13.809-11.191-25-25-25H275c-13.809 0-25 11.191-25 25v25H125c-13.809 0-25 11.191-25 25v700c0 13.808 11.191 25 25 25h550c13.809 0 25-11.192 25-25v-700c0-13.809-11.191-25-25-25zm-375 0h200v100H300v-100zm350 700H150v-650h100v75c0 13.808 11.191 25 25 25h250c13.809 0 25-11.192 25-25v-75h100v650z"/></g>
<view id="clone" viewBox="18400 0 800 800">
</view>
<g transform="translate(18400,0)"><path d="M600 574.999v-500c0-13.809-11.191-25-25-25H75c-13.809 0-25 11.191-25 25v500c0 13.808 11.191 25 25 25h500c13.809 0 25-11.192 25-25zm-50-25H100v-450h450v450zm200-325v500c0 13.808-11.191 25-25 25H225c-13.809 0-25-11.192-25-25v-50c0-13.809 11.191-25 25-25s25 11.191 25 25v25h450v-450h-25c-13.809 0-25-11.192-25-25s11.191-25 25-25h50c13.809 0 25 11.191 25 25z"/></g>
<view id="close-circle" viewBox="19200 0 800 800">
</view>
<g transform="translate(19200,0)"><path d="M542.678 292.678L435.355 400l107.323 107.322c9.762 9.763 9.762 25.593 0 35.356C537.796 547.559 531.398 550 525 550s-12.796-2.44-17.678-7.322L400 435.355 292.678 542.678C287.796 547.559 281.398 550 275 550s-12.796-2.44-17.678-7.322c-9.762-9.763-9.762-25.593 0-35.356L364.645 400 257.322 292.678c-9.762-9.763-9.762-25.593 0-35.356 9.764-9.762 25.592-9.762 35.356 0L400 364.645l107.322-107.323c9.764-9.762 25.592-9.762 35.356 0 9.762 9.763 9.762 25.593 0 35.356zM750 400c0 47.239-9.258 93.078-27.515 136.244-17.63 41.68-42.862 79.108-74.998 111.243s-69.563 57.368-111.244 74.998C493.077 740.743 447.238 750 400 750s-93.077-9.257-136.243-27.515c-41.68-17.63-79.109-42.862-111.244-74.998s-57.368-69.563-74.998-111.243C59.258 493.078 50 447.239 50 400s9.258-93.078 27.515-136.244c17.63-41.68 42.862-79.108 74.998-111.243s69.563-57.368 111.244-74.998C306.923 59.257 352.762 50 400 50s93.077 9.257 136.243 27.515c41.68 17.63 79.109 42.862 111.244 74.998s57.368 69.563 74.998 111.243C740.742 306.922 750 352.761 750 400zm-50 0c0-165.42-134.58-300-300-300S100 234.58 100 400s134.58 300 300 300 300-134.58 300-300z"/></g>
<view id="close" viewBox="20000 0 800 800">
</view>
<g transform="translate(20000,0)"><path d="M435.355 400l257.323-257.322c9.762-9.763 9.762-25.593 0-35.356-9.764-9.762-25.592-9.762-35.356 0L400 364.645 142.678 107.322c-9.764-9.762-25.592-9.762-35.356 0-9.762 9.763-9.762 25.593 0 35.356L364.645 400 107.322 657.322c-9.762 9.763-9.762 25.593 0 35.356C112.204 697.559 118.602 700 125 700s12.796-2.44 17.678-7.322L400 435.355l257.322 257.323C662.204 697.559 668.602 700 675 700s12.796-2.44 17.678-7.322c9.762-9.763 9.762-25.593 0-35.356L435.355 400z"/></g>
<view id="cmd" viewBox="20800 0 800 800">
</view>
<g transform="translate(20800,0)"><path d="M621.59 750c-70.804 0-128.408-57.604-128.408-128.41v-78.408H306.818v78.409C306.818 692.396 249.214 750 178.41 750S50 692.396 50 621.59s57.604-128.408 128.41-128.408h78.408V306.818H178.41C107.604 306.818 50 249.214 50 178.41S107.604 50 178.41 50s128.408 57.604 128.408 128.41v78.408h186.364V178.41C493.182 107.604 550.786 50 621.59 50S750 107.604 750 178.41s-57.604 128.408-128.41 128.408h-78.408v186.364h78.409C692.396 493.182 750 550.786 750 621.59S692.396 750 621.59 750zm-78.408-206.818v78.409c0 43.235 35.174 78.409 78.409 78.409S700 664.826 700 621.59s-35.174-78.408-78.41-78.408h-78.408zm-364.773 0c-43.235 0-78.409 35.173-78.409 78.409S135.174 700 178.41 700s78.408-35.174 78.408-78.41v-78.408H178.41zm128.41-50h186.363V306.818H306.818v186.364zm236.363-236.364h78.409c43.235 0 78.409-35.173 78.409-78.409S664.826 100 621.59 100s-78.408 35.174-78.408 78.41v78.408zM178.409 100C135.174 100 100 135.174 100 178.41s35.174 78.408 78.41 78.408h78.408V178.41c0-43.235-35.174-78.409-78.409-78.409z"/></g>
<view id="code" viewBox="21600 0 800 800">
</view>
<g transform="translate(21600,0)"><path d="M275.007 700c-6.798 0-13.572-2.756-18.506-8.183l-250-275c-8.668-9.536-8.668-24.098 0-33.634l250-275c9.288-10.216 25.1-10.97 35.316-1.682s10.97 25.1 1.682 35.316L58.787 400l234.712 258.183c9.287 10.217 8.534 26.028-1.682 35.316a24.909 24.909 0 01-16.81 6.501zm268.492-8.183l250-275c8.668-9.536 8.668-24.098 0-33.634l-250-275c-9.289-10.216-25.1-10.969-35.316-1.682-10.216 9.288-10.97 25.1-1.682 35.316L741.213 400 506.501 658.183c-9.287 10.217-8.534 26.028 1.682 35.316a24.906 24.906 0 0016.81 6.501c6.798 0 13.572-2.757 18.506-8.183z"/></g>
<view id="comment" viewBox="22400 0 800 800">
</view>
<g transform="translate(22400,0)"><path d="M750 100H50c-27.57 0-50 22.43-50 50v400c0 27.57 22.43 50 50 50h402.511C464.127 656.984 514.636 700 575 700h50c13.807 0 25-11.193 25-25v-75h100c27.57 0 50-22.43 50-50V150c0-27.57-22.43-50-50-50zm0 450H625c-13.807 0-25 11.193-25 25v75h-25c-41.355 0-75-33.645-75-75 0-13.807-11.193-25-25-25H50V150h700v400z"/></g>
<view id="creditcard" viewBox="23200 0 800 800">
</view>
<g transform="translate(23200,0)"><path d="M750 100H50c-27.57 0-50 22.43-50 50v500c0 27.57 22.43 50 50 50h700c27.57 0 50-22.43 50-50V150c0-27.57-22.43-50-50-50zm0 50l.01 150H50V150h700zm0 500H50V350h700.013l.018 299.999L750 650zM100 500h50v100h-50V500zm100 0h50v100h-50V500zm100 0h50v100h-50V500z"/></g>
<view id="dart-down" viewBox="24000 0 800 800">
</view>
<g transform="translate(24000,0)"><path d="M0 175.077c0-7.192 3.087-14.331 9.063-19.277 10.635-8.8 26.397-7.315 35.2 3.325l355.508 429.619 355.923-432.656c8.77-10.66 24.527-12.193 35.19-3.423 10.66 8.774 12.193 24.521 3.423 35.19L419.137 643.91a25.002 25.002 0 01-38.57.054L5.738 191a24.896 24.896 0 01-5.737-15.923z"/></g>
<view id="dart-left" viewBox="24800 0 800 800">
</view>
<g transform="translate(24800,0)"><path d="M624.923 799.999c7.192 0 14.33-3.086 19.277-9.063 8.799-10.634 7.314-26.396-3.325-35.2l-429.62-355.508L643.913 44.305c10.66-8.77 12.192-24.526 3.423-35.19-8.775-10.66-24.522-12.192-35.19-3.423L156.09 380.863a25.002 25.002 0 00-.054 38.57L609 794.26A24.896 24.896 0 00624.923 800z"/></g>
<view id="dart-right" viewBox="25600 0 800 800">
</view>
<g transform="translate(25600,0)"><path d="M175.078 799.999c-7.192 0-14.33-3.086-19.277-9.063-8.799-10.634-7.315-26.396 3.325-35.2l429.62-355.508L156.088 44.305c-10.66-8.77-12.193-24.526-3.423-35.19 8.774-10.66 24.521-12.192 35.19-3.423l456.055 375.171a25.002 25.002 0 01.054 38.57L191 794.26A24.896 24.896 0 01175.078 800z"/></g>
<view id="dart-up" viewBox="26400 0 800 800">
</view>
<g transform="translate(26400,0)"><path d="M800 624.921c0 7.193-3.086 14.332-9.063 19.278-10.634 8.799-26.396 7.314-35.2-3.325L400.23 211.254 44.307 643.911c-8.77 10.659-24.527 12.192-35.19 3.423-10.66-8.775-12.193-24.522-3.424-35.19l375.171-456.056a25.002 25.002 0 0138.57-.054L794.263 609A24.896 24.896 0 01800 624.92z"/></g>
<view id="desktop" viewBox="27200 0 800 800">
</view>
<g transform="translate(27200,0)"><path d="M775 100H25c-13.807 0-25 11.193-25 25v400c0 13.807 11.193 25 25 25h250v100H175c-13.808 0-25 11.193-25 25s11.192 25 25 25h450c13.808 0 25-11.193 25-25s-11.192-25-25-25H525V550h250c13.807 0 25-11.193 25-25V125c0-13.807-11.193-25-25-25zM475 650H325V550h150v100zm275-150H50V150h700v350z"/></g>
<view id="doc" viewBox="28000 0 800 800">
</view>
<g transform="translate(28000,0)"><path d="M697.353 214.041a24.514 24.514 0 00-.758-1.418c-1.09-1.904-2.34-3.722-3.92-5.3l-200-200c-1.57-1.571-3.378-2.817-5.272-3.905a24.4 24.4 0 00-1.464-.782c-1.928-.943-3.93-1.73-6.044-2.153-.008-.001-.016 0-.024-.002A24.963 24.963 0 00475-.001H125c-13.809 0-25 11.191-25 25v750c0 13.808 11.191 25 25 25h550c13.809 0 25-11.192 25-25v-550c0-3.852-.983-7.564-2.647-10.958zM614.648 200H500V85.35L614.648 200zM150 749.999v-700h300v100H275c-13.809 0-25 11.191-25 25s11.191 25 25 25h175v25c0 13.808 11.191 25 25 25h175v500H150zm400-425c0 13.808-11.191 25-25 25H275c-13.809 0-25-11.192-25-25s11.191-25 25-25h250c13.809 0 25 11.191 25 25zm0 150c0 13.808-11.191 25-25 25H275c-13.809 0-25-11.192-25-25s11.191-25 25-25h250c13.809 0 25 11.191 25 25zm0 150c0 13.808-11.191 25-25 25H275c-13.809 0-25-11.192-25-25s11.191-25 25-25h250c13.809 0 25 11.191 25 25z"/></g>
<view id="download" viewBox="28800 0 800 800">
</view>
<g transform="translate(28800,0)"><path d="M700 775c0 13.807-11.193 25-25 25H125c-13.807 0-25-11.193-25-25s11.193-25 25-25h550c13.807 0 25 11.193 25 25zM375 650c6.398 0 12.796-2.44 17.678-7.322l300-300c9.763-9.763 9.763-25.593 0-35.356-9.764-9.762-25.592-9.762-35.356 0L400 564.645V25c0-13.807-11.193-25-25-25s-25 11.193-25 25v539.645L92.678 307.322c-9.764-9.762-25.592-9.762-35.356 0-9.763 9.763-9.763 25.593 0 35.356l300 300A24.923 24.923 0 00375 650z"/></g>
<view id="drag" viewBox="29600 0 800 800">
</view>
<g transform="translate(29600,0)"><path d="M742.678 417.678l-75 75A24.998 24.998 0 01625 475v-50H425v200h50a25 25 0 0117.678 42.678l-75 75C412.796 747.56 406.398 750 400 750s-12.796-2.44-17.678-7.322l-75-75A25 25 0 01325 625h50V425H175v50a25 25 0 01-42.678 17.678l-75-75c-9.763-9.763-9.763-25.593 0-35.356l75-75A25.001 25.001 0 01175 325v50h200V175h-50a25 25 0 01-17.678-42.678l75-75c9.763-9.763 25.593-9.763 35.356 0l75 75A25 25 0 01475 175h-50v200h200v-50a25 25 0 0142.678-17.678l75 75c9.763 9.763 9.763 25.593 0 35.356z"/></g>
<view id="exclamation-circle" viewBox="30400 0 800 800">
</view>
<g transform="translate(30400,0)"><path d="M400 750c-47.239 0-93.078-9.257-136.244-27.515-41.68-17.63-79.108-42.862-111.243-74.998-32.136-32.135-57.368-69.563-74.998-111.244C59.257 493.078 50 447.24 50 400s9.257-93.078 27.515-136.243c17.63-41.681 42.862-79.11 74.998-111.244 32.135-32.136 69.563-57.368 111.243-74.998C306.922 59.257 352.761 50 400 50s93.078 9.257 136.244 27.515c41.68 17.63 79.108 42.862 111.243 74.998 32.136 32.135 57.368 69.563 74.998 111.244C740.743 306.922 750 352.76 750 400s-9.257 93.078-27.515 136.243c-17.63 41.681-42.862 79.11-74.998 111.244-32.135 32.136-69.563 57.368-111.243 74.998C493.078 740.743 447.239 750 400 750zm0-650c-165.42 0-300 134.58-300 300s134.58 300 300 300 300-134.58 300-300-134.58-300-300-300zm0 375V225c0-13.807-11.193-25-25-25s-25 11.193-25 25v250c0 13.807 11.193 25 25 25s25-11.193 25-25zm-23.77 124.97c.41-.02.82-.05 1.23-.09.81-.09 1.62-.21 2.43-.37a24.95 24.95 0 004.67-1.43c.75-.31 1.5-.66 2.21-1.04.72-.38 1.43-.8 2.11-1.25.68-.46 1.34-.95 1.97-1.46.32-.26.63-.53.93-.8.31-.28.61-.56.9-.85s.57-.59.85-.9c.27-.3.54-.61.8-.93.51-.63 1-1.29 1.46-1.97.44-.68.87-1.39 1.25-2.11.38-.71.73-1.46 1.04-2.21a24.895 24.895 0 001.43-4.67c.16-.81.28-1.62.37-2.43a25.418 25.418 0 000-4.92c-.09-.81-.21-1.62-.37-2.42s-.36-1.6-.6-2.38c-.24-.78-.51-1.55-.83-2.3-.31-.75-.66-1.5-1.04-2.21-.38-.72-.81-1.43-1.25-2.11-.46-.68-.95-1.34-1.46-1.97-.26-.32-.53-.63-.8-.93-.28-.31-.56-.61-.85-.9-.29-.29-.59-.57-.9-.85-.3-.27-.61-.54-.93-.8-.63-.51-1.29-1-1.97-1.46-.68-.45-1.39-.87-2.11-1.25-.71-.38-1.46-.73-2.21-1.04a24.875 24.875 0 00-4.67-1.43c-.81-.16-1.62-.28-2.43-.37a25.134 25.134 0 00-3.69-.09c-.41.02-.82.05-1.23.09-.81.09-1.62.21-2.42.37-.8.16-1.6.36-2.38.6-.78.24-1.55.51-2.3.83-.75.31-1.5.66-2.21 1.04-.72.38-1.43.8-2.11 1.25-.68.46-1.34.95-1.97 1.46-.32.26-.63.53-.93.8-.31.28-.61.56-.9.85-.29.29-.57.59-.85.9-.27.3-.54.61-.8.93-.51.63-1 1.29-1.46 1.97-.45.68-.87 1.39-1.25 2.11-.38.71-.73 1.46-1.04 2.21-.32.75-.59 1.52-.83 2.3-.24.78-.44 1.58-.6 2.38s-.28 1.61-.37 2.42a25.406 25.406 0 000 4.92c.09.81.21 1.62.37 2.43a24.894 24.894 0 001.43 4.67c.31.75.66 1.5 1.04 2.21.38.72.8 1.43 1.25 2.11.46.68.95 1.34 1.46 1.97.26.32.53.63.8.93.28.31.56.61.85.9s.59.57.9.85c.3.27.61.54.93.8.63.51 1.29 1 1.97 1.46.68.45 1.39.87 2.11 1.25.71.38 1.46.73 2.21 1.04.75.32 1.52.59 2.3.83.78.24 1.58.44 2.38.6.8.16 1.61.28 2.42.37a25.352 25.352 0 003.69.09z"/></g>
<view id="eye-slash" viewBox="31200 0 800 800">
</view>
<g transform="translate(31200,0)"><path d="M788.106 361.045v-.001c-16.09-23.915-70.473-100.156-149.68-164.114l54.252-54.252c9.762-9.763 9.762-25.593 0-35.356-9.764-9.762-25.592-9.762-35.356 0l-59.576 59.576C540.39 128.484 473.188 100 400 100 197.773 100 41.223 317.453 11.894 361.045c-15.921 23.664-15.921 54.246 0 77.911 16.09 23.915 70.474 100.156 149.68 164.114l-54.252 54.252c-9.762 9.763-9.762 25.593 0 35.356C112.204 697.559 118.602 700 125 700s12.796-2.44 17.678-7.322l59.576-59.576C259.61 671.516 326.813 700 400 700c202.227 0 358.777-217.453 388.106-261.045 15.921-23.664 15.921-54.246 0-77.91zm-734.728 50a19.709 19.709 0 010-22.089C69.834 364.498 219.368 150 400 150c58.168 0 113.108 22.246 161.42 53.223L197.405 567.24C117.688 503.99 62.962 425.29 53.378 411.045zm693.244-.001C730.166 435.502 580.632 650 400 650c-58.168 0-113.108-22.246-161.42-53.223L602.595 232.76c79.716 63.25 134.442 141.951 144.026 156.196a19.707 19.707 0 010 22.088z"/></g>
<view id="eye" viewBox="32000 0 800 800">
</view>
<g transform="translate(32000,0)"><path d="M400 99.999c-202.246 0-358.78 217.456-388.105 261.04-15.928 23.667-15.928 54.253 0 77.915C41.22 482.543 197.754 699.999 400 699.999s358.78-217.456 388.105-261.04c15.928-23.667 15.928-54.248 0-77.915C758.78 317.454 602.246 99.999 400 99.999zm346.621 311.045C730.166 435.502 580.654 649.999 400 649.999S69.834 435.502 53.379 411.039c-4.522-6.71-4.522-15.371 0-22.085C69.834 364.496 219.346 149.999 400 149.999s330.166 214.497 346.621 238.955v.005c4.522 6.709 4.522 15.37 0 22.085zM400 249.999c-82.715 0-150 67.29-150 150s67.285 150 150 150 150-67.29 150-150-67.285-150-150-150zm0 250c-55.137 0-100-44.859-100-100s44.863-100 100-100 100 44.858 100 100-44.863 100-100 100z"/></g>
<view id="fb" viewBox="32800 0 800 800">
</view>
<g transform="translate(32800,0)"><path d="M650 50H150C94.86 50 50 94.86 50 150v500c0 55.14 44.86 100 100 100h500c55.14 0 100-44.86 100-100V150c0-55.14-44.86-100-100-100zm50 600c0 27.57-22.43 50-50 50H500V450h75c13.807 0 25-11.193 25-25s-11.193-25-25-25h-75v-99.07c0-24.48 4.065-40.77 11.448-45.868C518.775 250 534.395 250 550.931 250H625c13.807 0 25-11.193 25-25s-11.193-25-25-25h-74.07c-23.472 0-47.744 0-67.899 13.922C453.424 234.372 450 273.373 450 300.93V400h-75c-13.807 0-25 11.193-25 25s11.193 25 25 25h75v250H150c-27.57 0-50-22.43-50-50V150c0-27.57 22.43-50 50-50h500c27.57 0 50 22.43 50 50v500z"/></g>
<view id="file" viewBox="33600 0 800 800">
</view>
<g transform="translate(33600,0)"><path d="M699.523 220.176c-.004-.021-.002-.043-.006-.065-.423-2.122-1.212-4.13-2.16-6.066-.24-.487-.49-.95-.76-1.424-1.092-1.903-2.342-3.72-3.921-5.298l-199.995-200c-1.587-1.588-3.414-2.843-5.329-3.937-.456-.26-.903-.502-1.373-.733C482.581.984 478.862 0 475.005 0H125c-13.809 0-25 11.191-25 25v750c0 13.808 11.191 25 25 25h550c13.809 0 25-11.192 25-25v-550a25 25 0 00-.477-4.823zM614.643 200H500V85.355L614.644 200zM150 749.999v-700h300v175c0 13.808 11.191 25 25 25h175v500H150z"/></g>
<view id="folder" viewBox="34400 0 800 800">
</view>
<g transform="translate(34400,0)"><path d="M750 200H335.355l-85.354-85.355c-9.444-9.444-22-14.645-35.355-14.645H50c-27.57 0-50 22.43-50 50v500c0 27.57 22.43 50 50 50h700c27.57 0 50-22.43 50-50V250c0-27.57-22.43-50-50-50zm0 450H50V150h164.646L300 235.355C309.444 244.8 322 250 335.355 250H750l.032 399.999L750 650z"/></g>
<view id="gear" viewBox="35200 0 800 800">
</view>
<g transform="translate(35200,0)"><path d="M400 275c-68.925 0-125 56.075-125 125s56.075 125 125 125 125-56.075 125-125-56.075-125-125-125zm0 200c-41.355 0-75-33.645-75-75s33.645-75 75-75 75 33.645 75 75-33.645 75-75 75zm300-175h-58.579l41.422-41.421c9.443-9.444 14.645-22 14.645-35.356 0-13.355-5.202-25.911-14.645-35.355l-70.71-70.71c-9.445-9.444-22-14.646-35.356-14.646-13.356 0-25.912 5.202-35.356 14.645L500 158.58V100c0-27.57-22.43-50-50-50H350c-27.57 0-50 22.43-50 50v58.579l-41.421-41.422c-9.444-9.443-22-14.645-35.356-14.645-13.355 0-25.911 5.202-35.355 14.645l-70.71 70.71c-9.444 9.445-14.646 22-14.646 35.356 0 13.356 5.202 25.912 14.645 35.356L158.58 300H100c-27.57 0-50 22.43-50 50v100c0 27.57 22.43 50 50 50h58.579l-41.422 41.421c-9.443 9.444-14.645 22-14.645 35.356 0 13.355 5.202 25.911 14.645 35.355l70.71 70.71c9.445 9.444 22 14.646 35.356 14.646 13.356 0 25.912-5.202 35.356-14.645L300 641.42V700c0 27.57 22.43 50 50 50h100c27.57 0 50-22.43 50-50v-58.579l41.421 41.422c9.444 9.443 22 14.645 35.356 14.645 13.355 0 25.911-5.202 35.355-14.645l70.71-70.71c9.444-9.445 14.646-22 14.646-35.356 0-13.356-5.202-25.912-14.645-35.356L641.42 500H700c27.57 0 50-22.43 50-50V350c0-27.57-22.43-50-50-50zm0 150H594.5l-5.892 16.668a199.412 199.412 0 01-8.092 19.542l-7.636 15.959 74.608 74.608-70.711 70.71-74.608-74.607-15.959 7.636a199.412 199.412 0 01-19.542 8.092L450 594.5V700H350V594.5l-16.668-5.892a199.412 199.412 0 01-19.542-8.092l-15.959-7.636-74.608 74.608-70.71-70.711 74.607-74.608-7.636-15.959a199.412 199.412 0 01-8.092-19.542L205.5 450H100V350h105.5l5.892-16.668a199.412 199.412 0 018.092-19.542l7.636-15.959-74.608-74.608 70.711-70.71 74.608 74.607 15.959-7.636a199.412 199.412 0 0119.542-8.092L350 205.5V100h100v105.5l16.668 5.892a199.412 199.412 0 0119.542 8.092l15.959 7.636 74.608-74.608 70.71 70.711-74.607 74.608 7.636 15.959a199.412 199.412 0 018.092 19.542L594.5 350H700v100z"/></g>
<view id="github" viewBox="36000 0 800 800">
</view>
<g transform="translate(36000,0)"><path d="M722.485 263.756c-17.63-41.68-42.862-79.108-74.998-111.243-32.135-32.136-69.563-57.368-111.244-74.998C493.078 59.257 447.24 50 400 50s-93.078 9.257-136.243 27.515c-41.681 17.63-79.11 42.862-111.244 74.998-32.136 32.135-57.368 69.563-74.998 111.243C59.257 306.922 50 352.761 50 400s9.257 93.078 27.515 136.244c17.63 41.68 42.862 79.108 74.998 111.243 32.135 32.136 69.563 57.368 111.244 74.998C306.922 740.743 352.76 750 400 750s93.078-9.257 136.243-27.515c41.681-17.63 79.11-42.862 111.244-74.998 32.136-32.135 57.368-69.563 74.998-111.243C740.743 493.078 750 447.239 750 400s-9.257-93.078-27.515-136.244zM300 682.841v-58.176c0-33.009 15.364-51.288 25.53-63.384 2.46-2.927 4.585-5.455 6.417-8.11a25 25 0 00-15.247-38.625c-74.165-16.18-116.7-55.03-116.7-106.588 0-28.65 6.892-53.027 20.485-72.457a25.001 25.001 0 004.515-14.33v-68.96c28.188 4.983 51.627 17.54 69.881 28.799a24.991 24.991 0 0018.83 3.062c25.362-5.946 54.393-8.96 86.289-8.96s60.927 3.014 86.288 8.96a25.003 25.003 0 0018.83-3.062c18.254-11.258 41.698-23.815 69.882-28.8v68.96c0 5.127 1.576 10.13 4.515 14.331C593.108 354.931 600 379.308 600 407.958c0 51.558-42.535 90.408-116.7 106.588a25 25 0 00-15.246 38.626c1.832 2.655 3.956 5.182 6.416 8.109 10.166 12.095 25.53 30.375 25.53 63.384v58.176C468.706 693.938 435.05 700 400 700s-68.706-6.062-100-17.16zm250-23.113v-35.063c0-31.381-9.44-54.771-19.535-71.493 31.852-11.14 58.019-26.852 78.073-46.922C635.663 479.103 650 445.114 650 407.958c0-35.974-8.405-67.648-25-94.284V225c0-13.807-11.193-25-25-25-50.618 0-91.233 20.714-112.428 33.184-26.522-5.359-55.926-8.072-87.572-8.072s-61.05 2.713-87.572 8.072C291.233 220.714 250.618 200 200 200c-13.807 0-25 11.193-25 25v88.674c-16.595 26.637-25 58.31-25 94.284 0 37.156 14.337 71.145 41.462 98.292 20.055 20.07 46.221 35.782 78.073 46.922C259.44 569.894 250 593.284 250 624.665v35.063C160.399 607.78 100 510.814 100 400c0-165.42 134.58-300 300-300s300 134.58 300 300c0 110.814-60.399 207.78-150 259.728z"/></g>
<view id="google" viewBox="36800 0 800 800">
</view>
<g transform="translate(36800,0)"><path d="M600 400c0 110.28-89.72 200-200 200s-200-89.72-200-200 89.72-200 200-200c47.816 0 103.427 22.128 141.676 56.375 10.287 9.21 11.16 25.015 1.95 35.3-9.211 10.289-25.016 11.16-35.302 1.95C479.18 267.531 435.648 250 400 250c-82.71 0-150 67.29-150 150s67.29 150 150 150c74.194 0 135.98-54.148 147.917-125H426c-13.807 0-25-11.193-25-25s11.193-25 25-25h149c13.807 0 25 11.193 25 25zm150-250v500c0 55.14-44.86 100-100 100H150c-55.14 0-100-44.86-100-100V150C50 94.86 94.86 50 150 50h500c55.14 0 100 44.86 100 100zm-50 0c0-27.57-22.43-50-50-50H150c-27.57 0-50 22.43-50 50v500c0 27.57 22.43 50 50 50h500c27.57 0 50-22.43 50-50V150z"/></g>
<view id="heart-fill" viewBox="37600 0 800 800">
</view>
<g transform="translate(37600,0)"><path d="M722.797 150.085c-16.617-31.265-41.032-56.85-70.607-73.991-4.415-2.559-8.946-4.906-13.558-7.082a24.399 24.399 0 00-1.591-.752C612.584 57 585.617 51.1 558.064 51.1c-.343 0-.688.002-1.032.004-33.135.176-65.477 8.814-93.529 24.978-26.938 15.523-48.376 37.019-63.4 62.834-8.599-14.724-19.367-28.098-32.22-39.917-33.59-30.888-78.234-47.898-125.707-47.898-50.697 0-97.738 19.45-132.458 54.767C70.65 145.608 50 202.632 50 270.775c0 32.277 6.115 65.964 18.221 100.733.248.857.54 1.704.882 2.537 8.714 24.475 20.392 49.48 35.001 74.907 17.827 31.026 40.07 62.792 66.433 94.935.09.112.183.224.276.336 14.903 18.151 31.114 36.422 48.6 54.747 82.01 85.954 162.823 143.006 166.224 145.391A24.968 24.968 0 00400 748.9a24.968 24.968 0 0014.379-4.55c3.394-2.385 84.068-59.436 166.006-145.387 48.511-50.888 87.294-101.356 115.27-150.001 35.922-62.465 54.206-122.395 54.344-178.123.114-45.951-9.038-86.578-27.202-120.753zm-577.423-9.164c25.244-25.679 59.623-39.82 96.802-39.82 22.217 0 44.047 5.283 63.188 14.962l-200.579 200.58C101.603 300.916 100 285.61 100 270.775c0-54.757 15.69-99.66 45.374-129.854zm-24.033 229.877l223.588-223.589C364.652 170.718 375 201.227 375 236.4c0 13.807 11.193 25 25 25s25-11.193 25-25c0-51.86 22.54-93.41 63.469-116.996 27.636-15.925 60.473-21.44 91.626-16.55L192.21 490.738c-17.265-22.613-32.225-44.895-44.751-66.696-10.412-18.12-19.116-35.884-26.117-53.244zm134.246 193.656a971.886 971.886 0 01-31.627-34.756l407.63-407.63c31.892 20.21 53.375 53.082 62.864 95.254l-392.72 392.72c-15.002-14.017-30.585-29.278-46.147-45.588zm396.937-140.79c-25.887 45.1-62.138 92.267-107.747 140.187-58.774 61.752-118.233 108.92-144.796 129.002-13.394-10.105-35.151-27.088-60.98-49.366l360.609-360.61c-2.593 43.51-18.396 90.799-47.086 140.786z"/></g>
<view id="heart" viewBox="38400 0 800 800">
</view>
<g transform="translate(38400,0)"><path d="M400 749.999c-4.97 0-9.951-1.48-14.229-4.444C372.061 736.063 50 510.39 50 275c0-161.46 101.006-218.75 187.5-218.75 62.188 0 127.773 30.688 162.5 83.92 34.727-53.232 100.313-83.92 162.5-83.92 86.494 0 187.5 57.29 187.5 218.75 0 235.39-322.06 461.064-335.771 470.556A24.963 24.963 0 01400 750zm-162.5-643.75c-66.475 0-137.5 44.33-137.5 168.75 0 183.227 238.613 373.237 300 419.077 61.387-45.84 300-235.85 300-419.077 0-56.382-15.107-101.675-43.682-130.987-23.74-24.35-57.06-37.763-93.818-37.763-66.123 0-137.5 45.4-137.5 118.75 0 13.808-11.191 25-25 25s-25-11.192-25-25c0-73.35-71.377-118.75-137.5-118.75z"/></g>
<view id="history" viewBox="39200 0 800 800">
</view>
<g transform="translate(39200,0)"><path d="M750 400c0 47.239-9.257 93.078-27.515 136.244-17.63 41.68-42.862 79.108-74.998 111.243s-69.563 57.368-111.243 74.998C493.078 740.743 447.239 750 400 750c-88.573 0-173.132-33.358-238.1-93.93C97.379 595.915 58.03 514.552 51.103 426.972c-1.088-13.764 9.187-25.804 22.951-26.893 13.767-1.084 25.805 9.187 26.894 22.95C113.23 578.34 244.59 700 400 700c165.42 0 300-134.58 300-300S565.42 100 400 100c-96.82 0-186.001 46.04-242.026 122.619l34.704 34.703A25 25 0 01175 300H75c-13.807 0-25-11.193-25-25V175a25 25 0 0142.678-17.678l29.624 29.625a351.49 351.49 0 0193.648-84.7C271.137 68.067 334.78 50 400 50c47.239 0 93.078 9.257 136.244 27.515 41.68 17.63 79.108 42.862 111.243 74.998s57.368 69.563 74.998 111.243C740.743 306.922 750 352.761 750 400zM375 200c-13.807 0-25 11.193-25 25v199.995c0 .415.011.83.031 1.244.01.187.027.371.04.557.016.22.029.44.05.66.024.239.056.475.086.712.02.165.038.33.063.493.038.259.084.515.13.77.025.143.048.285.076.427.051.262.11.521.17.78.032.137.061.274.095.41.063.253.132.502.202.75.041.146.08.292.124.437.07.231.146.46.223.688.054.163.107.326.164.488.074.206.153.409.232.612.07.183.14.365.215.547.073.177.151.351.229.526.09.205.18.409.276.612.07.148.145.295.219.442.11.222.221.443.339.662.068.128.141.253.212.38.129.23.259.46.396.688.068.115.14.227.212.34.144.232.29.463.443.691.074.111.153.22.229.329.154.222.309.445.472.663.091.123.187.242.281.363.153.199.305.398.465.592.13.157.264.309.397.462.133.155.263.311.401.463.263.29.532.573.808.85l.042.045 100 100C462.204 547.559 468.602 550 475 550s12.796-2.44 17.678-7.322c9.763-9.763 9.763-25.593 0-35.356L400 414.645V225c0-13.807-11.193-25-25-25z"/></g>
<view id="home" viewBox="40000 0 800 800">
</view>
<g transform="translate(40000,0)"><path d="M789.912 379.935l-370-275c-8.76-6.518-20.732-6.587-29.57-.19l-380 275C-.84 387.84-3.35 403.47 4.746 414.657c4.893 6.753 12.53 10.342 20.274 10.342a24.921 24.921 0 0014.638-4.746L100 376.583V675c0 13.808 11.191 25 25 25h150c13.809 0 25-11.192 25-25v-225h200v225c0 13.808 11.191 25 25 25h150c13.809 0 25-11.192 25-25V375.402l60.088 44.66c11.074 8.228 26.728 5.928 34.98-5.151 8.233-11.08 5.928-26.743-5.156-34.976zM650 350v300H550v-225c0-13.809-11.191-25-25-25H275c-13.809 0-25 11.191-25 25v225H150v-300c0-2.985-.611-5.81-1.57-8.463L404.805 156l247.379 183.863C650.803 342.966 650 346.383 650 350z"/></g>
<view id="html" viewBox="40800 0 800 800">
</view>
<g transform="translate(40800,0)"><path d="M195.772 189.91L55.067 400.031l140.735 211.102c7.658 11.488 4.553 27.01-6.935 34.669a24.886 24.886 0 01-13.844 4.2c-8.079 0-16.006-3.908-20.825-11.135l-150-225a25 25 0 01.03-27.777l150-224c7.681-11.472 23.211-14.546 34.682-6.862 11.473 7.682 14.545 23.21 6.862 34.682zm600 196.18l-150-224c-7.682-11.472-23.208-14.546-34.682-6.862-11.473 7.682-14.545 23.21-6.862 34.682l140.705 210.121-140.735 211.102c-7.658 11.488-4.553 27.01 6.935 34.669a24.886 24.886 0 0013.844 4.2c8.079 0 16.007-3.91 20.825-11.135l150-225a25 25 0 00-.03-27.777zM535.345 102.24c-12.568-5.713-27.39-.156-33.104 12.414l-250 550c-5.714 12.57-.156 27.39 12.414 33.104a24.9 24.9 0 0010.33 2.247c9.501 0 18.586-5.447 22.774-14.661l250-550c5.714-12.57.156-27.39-12.414-33.104z"/></g>
<view id="info-circle" viewBox="41600 0 800 800">
</view>
<g transform="translate(41600,0)"><path d="M400 750c-47.239 0-93.078-9.258-136.244-27.515-41.68-17.63-79.108-42.862-111.243-74.998s-57.368-69.563-74.998-111.244C59.257 493.077 50 447.238 50 400s9.257-93.077 27.515-136.243c17.63-41.68 42.862-79.109 74.998-111.244s69.563-57.368 111.243-74.998C306.922 59.258 352.761 50 400 50s93.078 9.258 136.244 27.515c41.68 17.63 79.108 42.862 111.243 74.998s57.368 69.563 74.998 111.244C740.743 306.923 750 352.762 750 400s-9.257 93.077-27.515 136.243c-17.63 41.68-42.862 79.109-74.998 111.244s-69.563 57.368-111.243 74.998C493.078 740.742 447.239 750 400 750zm0-650c-80.133 0-155.47 31.205-212.132 87.868C131.206 244.53 100 319.868 100 400s31.206 155.47 87.868 212.132C244.53 668.795 319.868 700 400 700s155.47-31.205 212.132-87.868C668.794 555.47 700 480.132 700 400s-31.206-155.47-87.868-212.132C555.47 131.205 480.132 100 400 100zm0 376V225c0-13.807-11.193-25-25-25s-25 11.193-25 25v251c0 13.807 11.193 25 25 25s25-11.193 25-25zm0 100v-1c0-13.807-11.193-25-25-25s-25 11.193-25 25v1c0 13.807 11.193 25 25 25s25-11.193 25-25z"/></g>
<view id="kanban" viewBox="42400 0 800 800">
</view>
<g transform="translate(42400,0)"><path d="M750 100H50c-27.57 0-50 22.43-50 50v500c0 27.57 22.43 50 50 50h700c27.57 0 50-22.43 50-50V150c0-27.57-22.43-50-50-50zm0 550H50V150h700l.031 499.999L750 650zM350 200H150c-27.57 0-50 22.43-50 50v100c0 27.57 22.43 50 50 50h200c27.57 0 50-22.43 50-50V250c0-27.57-22.43-50-50-50zm0 150H150V250h200l.031 99.999L350 350zm300-150H500c-27.57 0-50 22.43-50 50v300c0 27.57 22.43 50 50 50h150c27.57 0 50-22.43 50-50V250c0-27.57-22.43-50-50-50zm0 350H500V250h150l.031 299.999L650 550z"/></g>
<view id="legal" viewBox="43200 0 800 800">
</view>
<g transform="translate(43200,0)"><path d="M725 149.999H400v-25c0-13.809-11.191-25-25-25s-25 11.191-25 25v25H25c-13.809 0-25 11.191-25 25s11.191 25 25 25h115.31l-89.03 267.09c-.125.373-.128.762-.234 1.139a24.687 24.687 0 00-.714 3.477 24.76 24.76 0 00-.215 2.137c-.019.391-.117.76-.117 1.157 0 68.926 56.074 125 125 125s125-56.074 125-125c0-.396-.098-.766-.117-1.157a24.76 24.76 0 00-.215-2.137 24.722 24.722 0 00-.714-3.48c-.106-.375-.11-.764-.233-1.136l-89.03-267.09H350v450H225c-13.809 0-25 11.191-25 25s11.191 25 25 25h300c13.809 0 25-11.192 25-25s-11.191-25-25-25H400v-450h140.31l-89.03 267.09c-.125.373-.128.762-.234 1.139a24.687 24.687 0 00-.714 3.477 24.76 24.76 0 00-.215 2.137c-.019.391-.117.76-.117 1.157 0 68.926 56.074 125 125 125s125-56.074 125-125c0-.396-.098-.766-.117-1.157a24.76 24.76 0 00-.215-2.137 24.722 24.722 0 00-.714-3.48c-.106-.375-.11-.764-.233-1.136l-89.03-267.09H725c13.809 0 25-11.192 25-25s-11.191-25-25-25zm-550 400c-32.582 0-60.297-20.918-70.625-50h141.25c-10.328 29.082-38.043 50-70.625 50zm-65.313-100L175 254.052l65.313 195.947H109.688zm465.313 100c-32.582 0-60.297-20.918-70.625-50h141.25c-10.328 29.082-38.043 50-70.625 50zm-65.313-100L575 254.052l65.313 195.947H509.688z"/></g>
<view id="line-chart" viewBox="44000 0 800 800">
</view>
<g transform="translate(44000,0)"><path d="M800 675c0 13.807-11.193 25-25 25H25c-13.807 0-25-11.193-25-25V125c0-13.807 11.193-25 25-25s25 11.193 25 25v525h725c13.807 0 25 11.193 25 25zM125 550c6.398 0 12.796-2.44 17.678-7.322L325 360.355l132.322 132.323c9.763 9.762 25.593 9.762 35.356 0l250-250c9.763-9.763 9.763-25.593 0-35.356-9.763-9.762-25.593-9.762-35.356 0L475 439.645 342.678 307.322c-9.763-9.762-25.593-9.762-35.356 0l-200 200c-9.763 9.763-9.763 25.593 0 35.356A24.923 24.923 0 00125 550z"/></g>
<view id="link" viewBox="44800 0 800 800">
</view>
<g transform="translate(44800,0)"><path d="M422.173 528.26c-40.186 0-77.96-15.649-106.372-44.062-9.766-9.76-9.766-25.59 0-35.352 9.756-9.765 25.595-9.765 35.351 0 18.97 18.97 44.195 29.414 71.02 29.414s52.052-10.444 71.021-29.414l177.393-177.392C689.55 252.484 700 227.26 700 200.434s-10.45-52.051-29.414-71.021c-18.97-18.97-44.194-29.414-71.02-29.414s-52.051 10.444-71.021 29.414l-88.262 88.262c-9.756 9.765-25.596 9.765-35.351 0-9.766-9.761-9.766-25.591 0-35.352l88.261-88.262C521.606 65.648 559.38 50 599.565 50s77.96 15.65 106.372 44.062S750 160.248 750 200.433s-15.65 77.96-44.063 106.372L528.545 484.198c-28.413 28.413-66.187 44.062-106.372 44.062zM306.807 705.936l88.261-88.261c9.766-9.761 9.766-25.591 0-35.352-9.755-9.766-25.595-9.766-35.351 0l-88.262 88.262c-18.97 18.97-44.194 29.414-71.02 29.414s-52.051-10.445-71.02-29.414C110.448 651.615 100 626.39 100 599.565s10.45-52.052 29.414-71.021L306.807 351.15c18.97-18.97 44.194-29.414 71.02-29.414s52.05 10.444 71.02 29.414c9.757 9.766 25.596 9.766 35.352 0 9.766-9.76 9.766-25.59 0-35.351-28.413-28.414-66.186-44.063-106.372-44.063s-77.959 15.65-106.372 44.063L94.063 493.192C65.648 521.605 50 559.38 50 599.564s15.65 77.96 44.063 106.372S160.249 750 200.435 750s77.959-15.65 106.372-44.063z"/></g>
<view id="location" viewBox="45600 0 800 800">
</view>
<g transform="translate(45600,0)"><path d="M612.132 87.868C555.469 31.205 480.132 0 400 0S244.531 31.205 187.868 87.868 100 219.868 100 300c0 49.382 15.28 106.37 45.415 169.38 23.48 49.094 56.09 102.22 96.925 157.904 69.086 94.208 137.12 162.531 139.982 165.394a25 25 0 0035.356 0c2.862-2.863 70.896-71.186 139.982-165.394 40.835-55.683 73.445-108.81 96.925-157.904C684.72 406.37 700 349.382 700 300c0-80.133-31.205-155.469-87.868-212.132zM399.994 738.836C340.276 674.94 150 458.858 150 300c0-137.85 112.15-250 250-250s250 112.15 250 250c0 158.709-190.303 374.922-250.006 438.836zM400 150c-82.71 0-150 67.29-150 150s67.29 150 150 150 150-67.29 150-150-67.29-150-150-150zm0 250c-55.14 0-100-44.86-100-100s44.86-100 100-100 100 44.86 100 100-44.86 100-100 100z"/></g>
<view id="lock" viewBox="46400 0 800 800">
</view>
<g transform="translate(46400,0)"><path d="M650 300h-50V100C600 44.86 555.14 0 500 0H300c-55.14 0-100 44.86-100 100v200h-50c-27.57 0-50 22.43-50 50v400c0 27.57 22.43 50 50 50h500c27.57 0 50-22.43 50-50V350c0-27.57-22.43-50-50-50zM250 100c0-27.57 22.43-50 50-50h200c27.57 0 50 22.43 50 50v200H250V100zm400 650H150V350h500l.031 399.999L650 750zM450 425c0 13.808-11.192 25-25 25h-25v75c0 13.808-11.192 25-25 25s-25-11.192-25-25v-75h-25c-13.808 0-25-11.192-25-25s11.192-25 25-25h100c13.808 0 25 11.192 25 25z"/></g>
<view id="magnify" viewBox="47200 0 800 800">
</view>
<g transform="translate(47200,0)"><path d="M742.676 707.323l-200-200c-2.25-2.253-4.847-3.926-7.595-5.14C575.54 454.289 600 392.46 600 325c0-151.636-123.364-275-275-275s-275 123.364-275 275 123.364 275 275 275c67.46 0 129.289-24.46 177.186-64.92 1.213 2.748 2.886 5.344 5.138 7.596l200 200c4.878 4.882 11.28 7.324 17.676 7.324s12.798-2.442 17.676-7.324c9.765-9.761 9.765-25.591 0-35.352zM325 549.999c-124.067 0-225-100.933-225-225s100.933-225 225-225 225 100.932 225 225-100.933 225-225 225z"/></g>
<view id="mail" viewBox="48000 0 800 800">
</view>
<g transform="translate(48000,0)"><path d="M775 100H25c-13.807 0-25 11.193-25 25v550c0 13.807 11.193 25 25 25h750c13.807 0 25-11.193 25-25V125c0-13.807-11.193-25-25-25zm-25 50v101.134L400 450.456 50 251.134V150h700zM50 650V308.674L375.864 494.25c7.556 4.304 15.846 6.456 24.136 6.456s16.58-2.152 24.136-6.456L750 308.674V650H50z"/></g>
<view id="merge" viewBox="48800 0 800 800">
</view>
<g transform="translate(48800,0)"><path d="M300 175c0-68.925-56.075-125-125-125S50 106.075 50 175c0 60.366 43.014 110.873 100 122.487v205.026C93.014 514.127 50 564.634 50 625c0 68.925 56.075 125 125 125s125-56.075 125-125c0-60.366-43.014-110.873-100-122.487V297.487C256.986 285.873 300 235.366 300 175zm-200 0c0-41.355 33.645-75 75-75s75 33.645 75 75-33.645 75-75 75-75-33.645-75-75zm150 450c0 41.355-33.645 75-75 75s-75-33.645-75-75 33.645-75 75-75 75 33.645 75 75zm400-122.487V249.864C650 194.8 605.201 150 550.136 150h-114.78l57.322-57.322c9.762-9.763 9.762-25.593 0-35.356-9.764-9.763-25.592-9.763-35.356 0l-100 100c-.035.036-.067.073-.102.108-.254.257-.505.518-.747.786-.141.155-.273.314-.409.472-.13.15-.262.299-.389.453-.16.196-.314.396-.468.595-.093.12-.188.239-.28.36-.161.219-.315.44-.47.662-.076.11-.155.22-.23.332a25.74 25.74 0 00-.44.686c-.073.115-.146.229-.216.345a25.8 25.8 0 00-.392.682c-.073.129-.146.257-.217.388a26.09 26.09 0 00-.333.65c-.075.151-.152.302-.225.456-.094.198-.182.398-.27.599-.08.178-.16.357-.234.538-.073.176-.141.354-.21.532-.081.21-.162.418-.238.63-.055.153-.105.308-.157.463-.079.237-.157.474-.23.714-.04.136-.078.272-.116.409-.073.257-.145.515-.21.776-.03.126-.058.253-.087.38-.063.27-.124.54-.178.813-.025.127-.045.254-.068.382-.049.27-.097.54-.137.813-.022.148-.038.296-.057.443-.032.254-.066.506-.09.762-.02.192-.03.384-.045.577-.016.213-.035.426-.046.641-.017.353-.024.706-.027 1.059 0 .057-.004.114-.004.172s.004.115.004.172c.003.353.01.706.027 1.059.01.215.03.428.046.641.014.193.025.385.044.577.025.256.059.508.091.762.02.147.035.295.057.443.04.273.088.543.137.813.023.128.043.255.068.382.054.273.115.543.178.813.03.127.056.254.088.38.064.26.136.519.21.776.037.137.074.273.115.409.073.24.151.477.23.714.052.155.102.31.157.463.076.212.157.42.237.63.07.178.138.356.21.532.076.181.155.36.234.538.089.2.177.4.271.6.073.153.15.304.225.455.11.218.218.435.333.65.07.131.144.26.217.388.128.229.257.457.392.682.07.116.143.23.215.345.144.23.289.46.44.686.076.112.155.221.232.332.154.222.308.443.47.661.09.122.186.24.279.36.154.2.307.4.468.596.127.154.26.303.389.453.136.158.268.317.409.472.242.268.493.529.747.786.035.035.067.072.102.108l100 100C462.204 297.559 468.602 300 475 300s12.796-2.44 17.678-7.322c9.762-9.763 9.762-25.593 0-35.356L435.355 200h114.78C577.632 200 600 222.369 600 249.864v252.65C543.014 514.126 500 564.633 500 625c0 68.925 56.075 125 125 125s125-56.075 125-125c0-60.366-43.014-110.873-100-122.487zM625 700c-41.355 0-75-33.645-75-75s33.645-75 75-75 75 33.645 75 75-33.645 75-75 75z"/></g>
<view id="pause" viewBox="49600 0 800 800">
</view>
<g transform="translate(49600,0)"><path d="M275 49.999H75c-13.809 0-25 11.191-25 25v650c0 13.808 11.191 25 25 25h200c13.809 0 25-11.192 25-25v-650c0-13.809-11.191-25-25-25zm-25 650H100v-600h150v600zm475-650H525c-13.809 0-25 11.191-25 25v650c0 13.808 11.191 25 25 25h200c13.809 0 25-11.192 25-25v-650c0-13.809-11.191-25-25-25zm-25 650H550v-600h150v600z"/></g>
<view id="pen" viewBox="50400 0 800 800">
</view>
<g transform="translate(50400,0)"><path d="M717.676 84.823l-2.5-2.5c-50.41-50.42-132.442-50.42-182.852 0l-50 50L163.39 451.259c-39.292 39.292-69.146 85.737-88.73 138.046C58.295 633.007 50 678.661 50 725c0 13.808 11.191 25 25 25 46.338 0 91.992-8.296 135.693-24.658 52.31-19.585 98.755-49.439 138.047-88.73l318.936-318.936 50-50c.053-.05.722-.728.771-.782 49.56-50.41 49.214-132.085-.771-182.07zM313.389 601.259c-30.46 30.459-65.874 54.404-105.445 71.333l-80.537-80.538c16.929-39.57 40.874-74.985 71.333-105.444L500 185.355 614.644 300l-301.255 301.26zm368.935-368.936L650 264.643 535.356 149.998l32.32-32.324c30.918-30.918 81.23-30.918 112.148 0l2.5 2.5c30.655 30.659 30.864 80.752 0 112.148z"/></g>
<view id="phone" viewBox="51200 0 800 800">
</view>
<g transform="translate(51200,0)"><path d="M742.676 607.323l-125-125c-9.766-9.766-25.586-9.766-35.352 0l-59.521 59.521C419.395 461.63 330.459 372.821 257.969 277.382l59.707-59.707c9.765-9.766 9.765-25.586 0-35.352l-125-125c-9.766-9.766-25.586-9.766-35.352 0l-100 100a24.974 24.974 0 00-6.494 24.043c16.26 61.728 42.48 123.701 77.93 184.2 36.347 62.02 81.26 119.94 133.486 172.167 52.383 52.393 110.274 97.334 172.07 133.565 0 0 0 .01.01.01 60.235 35.302 122.246 61.503 184.297 77.86 2.11.557 4.248.83 6.377.83 6.543 0 12.93-2.577 17.676-7.323l100-100c9.765-9.766 9.765-25.586 0-35.352zM617.617 697.02c-53.085-15.342-106.17-38.475-158.014-68.855l.006-.012c-58.125-34.062-112.627-76.387-162.011-125.771-49.21-49.22-91.504-103.75-125.694-162.09-30.498-52.06-53.652-105.108-68.925-157.91L175 110.35 264.648 200l-57.324 57.324c-8.72 8.72-9.785 22.5-2.49 32.451 81.504 111.201 184.15 213.877 305.107 305.176 9.952 7.53 23.926 6.543 32.735-2.275L600 535.35 689.648 625l-72.03 72.021z"/></g>
<view id="play-circle" viewBox="52000 0 800 800">
</view>
<g transform="translate(52000,0)"><path d="M400 750c-47.238 0-93.077-9.257-136.243-27.515-41.68-17.63-79.109-42.862-111.244-74.998-32.136-32.135-57.368-69.563-74.998-111.244C59.258 493.078 50 447.24 50 400s9.258-93.078 27.515-136.243c17.63-41.681 42.862-79.11 74.998-111.244 32.135-32.136 69.563-57.368 111.244-74.998C306.923 59.257 352.762 50 400 50s93.077 9.257 136.243 27.515c41.68 17.63 79.109 42.862 111.244 74.998 32.136 32.135 57.368 69.563 74.998 111.244C740.742 306.922 750 352.76 750 400s-9.258 93.078-27.515 136.243c-17.63 41.681-42.862 79.11-74.998 111.244-32.135 32.136-69.563 57.368-111.244 74.998C493.077 740.743 447.238 750 400 750zm0-650c-165.42 0-300 134.58-300 300s134.58 300 300 300 300-134.58 300-300-134.58-300-300-300zm-75.001 450A25 25 0 01300 525V275a25 25 0 0138.25-21.2l200 125a25 25 0 010 42.4l-200 125a24.986 24.986 0 01-13.251 3.8zM350 320.106v159.788L477.83 400 350 320.106z"/></g>
<view id="play" viewBox="52800 0 800 800">
</view>
<g transform="translate(52800,0)"><path d="M736.182 377.635l-650-325c-7.75-3.857-16.949-3.466-24.327 1.094A25.02 25.02 0 0050 75v650a25.02 25.02 0 0011.855 21.27A25.005 25.005 0 0075 749.998c3.823 0 7.651-.88 11.182-2.637l650-325C744.648 418.124 750 409.472 750 400s-5.352-18.125-13.818-22.364zM100 684.55V115.448l569.097 284.55L100 684.55z"/></g>
<view id="plus" viewBox="53600 0 800 800">
</view>
<g transform="translate(53600,0)"><path d="M750 400.5c0 13.807-11.193 25-25 25H425v299c0 13.807-11.193 25-25 25s-25-11.193-25-25v-299H75c-13.807 0-25-11.193-25-25s11.193-25 25-25h300v-300c0-13.807 11.193-25 25-25s25 11.193 25 25v300h300c13.807 0 25 11.193 25 25z"/></g>
<view id="print" viewBox="54400 0 800 800">
</view>
<g transform="translate(54400,0)"><path d="M750 200H650V50c0-27.57-22.43-50-50-50H200c-27.57 0-50 22.43-50 50v150H50c-27.57 0-50 22.43-50 50v300c0 27.57 22.43 50 50 50h100v173c0 14.888 12.112 27 27 27h446c14.888 0 27-12.112 27-27V600h100c27.57 0 50-22.43 50-50V250c0-27.57-22.43-50-50-50zM200 50h400v150H200V50zm0 700V500h400v74.807c0 .065-.005.128-.005.193s.005.128.005.193V750H200zm550-200H650v-75c0-13.808-11.193-25-25-25H175c-13.807 0-25 11.192-25 25v75H50V250h700v300zm-200 25c0 13.807-11.193 25-25 25H275c-13.807 0-25-11.193-25-25s11.193-25 25-25h250c13.807 0 25 11.193 25 25zm75-275c13.807 0 25 11.192 25 25s-11.193 25-25 25H525c-13.807 0-25-11.192-25-25s11.193-25 25-25h100zM400 675c0 13.808-11.193 25-25 25H275c-13.807 0-25-11.192-25-25s11.193-25 25-25h100c13.807 0 25 11.192 25 25z"/></g>
<view id="question-circle" viewBox="55200 0 800 800">
</view>
<g transform="translate(55200,0)"><path d="M722.485 263.756c-17.63-41.68-42.862-79.108-74.998-111.243s-69.563-57.368-111.244-74.998C493.077 59.257 447.238 50 400 50s-93.077 9.257-136.243 27.515c-41.68 17.63-79.109 42.862-111.244 74.998s-57.368 69.563-74.998 111.243C59.258 306.922 50 352.761 50 400s9.258 93.078 27.515 136.244c17.63 41.68 42.862 79.108 74.998 111.243s69.563 57.368 111.244 74.998C306.923 740.743 352.762 750 400 750s93.077-9.257 136.243-27.515c41.68-17.63 79.109-42.862 111.244-74.998s57.368-69.563 74.998-111.243C740.742 493.078 750 447.239 750 400s-9.258-93.078-27.515-136.244zM400 700c-165.42 0-300-134.58-300-300s134.58-300 300-300 300 134.58 300 300-134.58 300-300 300zm150-375c0 48.519-23.521 83.491-74.022 110.06-3.537 1.86-7.163 3.71-11.002 5.668C436.027 455.49 400 473.863 400 500c0 13.807-11.193 25-25 25s-25-11.193-25-25c0-56.765 55.521-85.08 92.26-103.815 3.694-1.884 7.183-3.663 10.438-5.375C491.956 370.156 500 349.564 500 325c0-24.348-19.954-41.909-31.849-50.21C445.577 259.037 414.905 250 384 250c-26.953 0-70.33 16.681-89.479 40.617-8.625 10.782-24.359 12.53-35.138 3.904-10.781-8.625-12.53-24.357-3.904-35.138 17.505-21.883 42.293-35.747 60.004-43.524C338.775 205.632 363.108 200 384 200c41.498 0 81.546 12 112.767 33.788C531.095 257.745 550 290.138 550 325zM400 574v1c0 13.807-11.193 25-25 25s-25-11.193-25-25v-1c0-13.807 11.193-25 25-25s25 11.193 25 25z"/></g>
<view id="radiobox-off" viewBox="56000 0 800 800">
</view>
<g transform="translate(56000,0)"><path d="M400 749.999c-192.988 0-350-157.012-350-350s157.012-350 350-350 350 157.011 350 350-157.012 350-350 350zm0-650c-165.42 0-300 134.58-300 300s134.58 300 300 300 300-134.58 300-300-134.58-300-300-300z"/></g>
<view id="radiobox-on" viewBox="56800 0 800 800">
</view>
<g transform="translate(56800,0)"><path d="M722.485 263.757c-17.63-41.68-42.862-79.109-74.998-111.244s-69.563-57.368-111.243-74.998C493.078 59.258 447.239 50 400 50s-93.078 9.258-136.244 27.515c-41.68 17.63-79.108 42.862-111.243 74.998s-57.368 69.563-74.998 111.244C59.257 306.923 50 352.762 50 400s9.257 93.077 27.515 136.243c17.63 41.68 42.862 79.109 74.998 111.244s69.563 57.368 111.243 74.998C306.922 740.742 352.761 750 400 750s93.078-9.258 136.244-27.515c41.68-17.63 79.108-42.862 111.243-74.998s57.368-69.563 74.998-111.244C740.743 493.077 750 447.238 750 400s-9.257-93.077-27.515-136.243zM612.132 612.132C555.47 668.795 480.132 700 400 700s-155.47-31.205-212.132-87.868C131.206 555.47 100 480.132 100 400s31.206-155.47 87.868-212.132C244.53 131.205 319.868 100 400 100s155.47 31.205 212.132 87.868C668.794 244.53 700 319.868 700 400s-31.206 155.47-87.868 212.132zM400 200c-110.28 0-200 89.72-200 200s89.72 200 200 200 200-89.72 200-200-89.72-200-200-200zm0 350c-82.71 0-150-67.29-150-150s67.29-150 150-150 150 67.29 150 150-67.29 150-150 150z"/></g>
<view id="radiobox-semi" viewBox="57600 0 800 800">
</view>
<g transform="translate(57600,0)"><path d="M400 750c-47.239 0-93.078-9.258-136.243-27.515-41.681-17.63-79.11-42.862-111.244-74.998-32.136-32.135-57.368-69.563-74.998-111.244C59.257 493.077 50 447.238 50 400s9.257-93.077 27.515-136.243c17.63-41.68 42.862-79.109 74.998-111.244 32.135-32.136 69.563-57.368 111.244-74.998C306.922 59.258 352.76 50 400 50s93.078 9.258 136.243 27.515c41.681 17.63 79.11 42.862 111.244 74.998 32.136 32.135 57.368 69.563 74.998 111.244C740.743 306.923 750 352.762 750 400s-9.257 93.077-27.515 136.243c-17.63 41.68-42.862 79.109-74.998 111.244-32.135 32.136-69.563 57.368-111.244 74.998C493.078 740.742 447.24 750 400 750zm0-650c-80.133 0-155.47 31.205-212.132 87.868C131.205 244.53 100 319.868 100 400s31.205 155.47 87.868 212.132C244.53 668.795 319.868 700 400 700s155.47-31.205 212.132-87.868C668.795 555.47 700 480.132 700 400s-31.205-155.47-87.868-212.132C555.47 131.205 480.132 100 400 100zm0 500c-110.28 0-200-89.72-200-200s89.72-200 200-200c13.807 0 25 11.193 25 25v350c0 13.807-11.193 25-25 25zm-25-347.917C304.148 264.021 250 325.806 250 400s54.148 135.98 125 147.917V252.083z"/></g>
<view id="redo" viewBox="58400 0 800 800">
</view>
<g transform="translate(58400,0)"><path d="M725 374.999c-13.809 0-25 11.191-25 25 0 165.42-134.58 300-300 300s-300-134.58-300-300 134.58-300 300-300c59.512 0 116.625 17.575 165.082 49.566l-57.758 57.758a24.99 24.99 0 00-5.42 27.246A25.001 25.001 0 00525 250h150c13.809 0 25-11.192 25-25v-150a24.996 24.996 0 00-15.435-23.096 24.99 24.99 0 00-27.24 5.42l-56.238 56.237C542.802 72.577 472.935 50 400 50c-192.988 0-350 157.011-350 350s157.012 350 350 350 350-157.012 350-350c0-13.809-11.191-25-25-25z"/></g>
<view id="sad" viewBox="59200 0 800 800">
</view>
<g transform="translate(59200,0)"><path d="M400 750c-47.238 0-93.077-9.258-136.243-27.515-41.68-17.63-79.109-42.862-111.244-74.998s-57.368-69.563-74.998-111.244C59.258 493.077 50 447.238 50 400s9.258-93.077 27.515-136.243c17.63-41.68 42.862-79.109 74.998-111.244s69.563-57.368 111.244-74.998C306.923 59.258 352.762 50 400 50s93.077 9.258 136.243 27.515c41.68 17.63 79.109 42.862 111.244 74.998s57.368 69.563 74.998 111.244C740.742 306.923 750 352.762 750 400s-9.258 93.077-27.515 136.243c-17.63 41.68-42.862 79.109-74.998 111.244s-69.563 57.368-111.244 74.998C493.077 740.742 447.238 750 400 750zm0-650c-80.133 0-155.47 31.205-212.132 87.868C131.205 244.53 100 319.868 100 400s31.205 155.47 87.868 212.132C244.53 668.795 319.868 700 400 700s155.47-31.205 212.132-87.868C668.795 555.47 700 480.132 700 400s-31.205-155.47-87.868-212.132C555.47 131.205 480.132 100 400 100zm144.506 440.637c8.637-10.773 6.904-26.507-3.87-35.143C509.057 480.178 459.023 450 400 450c-59.02 0-109.055 30.178-140.637 55.493-10.772 8.636-12.506 24.37-3.87 35.144 8.638 10.774 24.37 12.506 35.144 3.87C315.965 524.203 355.499 500 400 500c44.503 0 84.035 24.202 109.363 44.506A24.892 24.892 0 00524.984 550c7.325 0 14.584-3.204 19.522-9.364zM300 375v-99c0-13.808-11.192-25-25-25s-25 11.192-25 25v99c0 13.808 11.192 25 25 25s25-11.192 25-25zm250 0v-99c0-13.808-11.192-25-25-25s-25 11.192-25 25v99c0 13.808 11.192 25 25 25s25-11.192 25-25z"/></g>
<view id="save" viewBox="60000 0 800 800">
</view>
<g transform="translate(60000,0)"><path d="M742.676 257.323l-200-200A24.978 24.978 0 00525 49.999H75c-13.809 0-25 11.191-25 25v650c0 13.808 11.191 25 25 25h650c13.809 0 25-11.192 25-25v-450c0-6.631-2.637-12.989-7.324-17.676zM300 99.999v150h-50v-150h50zm-50 600v-250h300v250H250zm450 0H600v-275c0-13.809-11.191-25-25-25H225c-13.809 0-25 11.191-25 25v275H100v-600h100v175c0 13.808 11.191 25 25 25h100c13.809 0 25-11.192 25-25v-175h164.648L700 285.355V700z"/></g>
<view id="shield" viewBox="60800 0 800 800">
</view>
<g transform="translate(60800,0)"><path d="M675 50C579.69 50 408.584 1.452 406.866.961a25.004 25.004 0 00-13.734 0C391.416 1.453 220.396 50 125 50c-13.807 0-25 11.193-25 25v372.805c0 172.707 123.33 320.483 293.252 351.378l2.276.414a25.003 25.003 0 008.944 0l2.276-.414C576.67 768.288 700 620.513 700 447.805V75c0-13.807-11.193-25-25-25zm-25 397.805c0 147.785-105 274.341-250 301.777-145-27.436-250-153.992-250-301.777V99.16c91.942-5.773 218.863-39.59 250-48.198 31.137 8.608 158.058 42.425 250 48.198v348.645zM400 225v249c0 13.807-11.193 25-25 25s-25-11.193-25-25V225c0-13.807 11.193-25 25-25s25 11.193 25 25zm0 349v1c0 13.807-11.193 25-25 25s-25-11.193-25-25v-1c0-13.807 11.193-25 25-25s25 11.193 25 25z"/></g>
<view id="shift" viewBox="61600 0 800 800">
</view>
<g transform="translate(61600,0)"><path d="M570.455 800h-340.91c-13.807 0-25-11.193-25-25V459.078H25a25 25 0 01-18.429-41.893l375-409.079a25.003 25.003 0 0136.858 0l375 409.079A25 25 0 01775 459.078H595.455V775c0 13.807-11.193 25-25 25zm-315.91-50h290.91V434.078c0-13.807 11.192-25 25-25h147.713L400 61.998 81.832 409.077h147.713c13.808 0 25 11.193 25 25V750z"/></g>
<view id="smiley" viewBox="62400 0 800 800">
</view>
<g transform="translate(62400,0)"><path d="M722.485 263.757c-17.63-41.68-42.862-79.109-74.998-111.244s-69.563-57.368-111.244-74.998C493.077 59.258 447.238 50 400 50s-93.077 9.258-136.243 27.515c-41.68 17.63-79.109 42.862-111.244 74.998s-57.368 69.563-74.998 111.244C59.258 306.923 50 352.762 50 400s9.258 93.077 27.515 136.243c17.63 41.68 42.862 79.109 74.998 111.244s69.563 57.368 111.244 74.998C306.923 740.742 352.762 750 400 750s93.077-9.258 136.243-27.515c41.68-17.63 79.109-42.862 111.244-74.998s57.368-69.563 74.998-111.244C740.742 493.077 750 447.238 750 400s-9.258-93.077-27.515-136.243zM400 700c-165.42 0-300-134.58-300-300s134.58-300 300-300 300 134.58 300 300-134.58 300-300 300zm144.506-190.637c8.637 10.773 6.904 26.507-3.87 35.143C495.35 580.81 446.719 600 400 600c-46.716 0-95.347-19.19-140.637-55.493-10.772-8.636-12.506-24.37-3.87-35.144 8.637-10.773 24.371-12.505 35.144-3.87C315.965 525.797 355.499 550 400 550c44.503 0 84.035-24.202 109.363-44.506 10.773-8.637 26.507-6.903 35.143 3.87zM250 375v-99c0-13.808 11.192-25 25-25s25 11.192 25 25v99c0 13.808-11.192 25-25 25s-25-11.192-25-25zm300-99v99c0 13.808-11.192 25-25 25s-25-11.192-25-25v-99c0-13.808 11.192-25 25-25s25 11.192 25 25z"/></g>
<view id="star-fill" viewBox="63200 0 800 800">
</view>
<g transform="translate(63200,0)"><path d="M747.488 317.103c-5.467-16.825-18.978-29.422-36.143-33.7l-1.165-.29-172.245-25.721a.972.972 0 01-.216-.233L443.31 103.654l-.092-.147C433.847 88.503 417.69 79.545 400 79.545s-33.847 8.958-43.22 23.962l-94.499 153.652a.972.972 0 01-.216.233L91.008 282.936l-1.188.176-1.165.291c-17.165 4.278-30.676 16.875-36.143 33.7-5.466 16.824-1.94 34.958 9.433 48.507l1.555 1.853 134.134 108.401-29.251 188.995-.073 1.043c-1.237 17.647 6.568 34.39 20.88 44.788 14.311 10.398 32.647 12.647 49.049 6.02l1.157-.468L400 631.84l159.5 83.821 1.104.581 1.157.468a51.102 51.102 0 0019.169 3.75c10.56 0 20.996-3.314 29.88-9.77 14.312-10.398 22.117-27.141 20.88-44.788l-.073-1.043-29.25-188.995L736.5 367.463l1.555-1.853c11.373-13.55 14.9-31.683 9.433-48.507zM565.753 441.167l-1.554 1.853c-8.54 10.173-12.73 23.073-11.802 36.322l.074 1.043 29.316 189.418c-.046.137-.149.279-.367.437-.189.137-.338.197-.47.21L420.253 586l-1.156-.468C412.94 583.043 406.47 581.8 400 581.8s-12.94 1.244-19.097 3.733l-1.156.468-160.697 84.45c-.132-.013-.281-.073-.47-.21-.218-.158-.321-.3-.367-.437l29.316-189.418.074-1.043c.928-13.25-3.263-26.149-11.802-36.322l-1.554-1.853-134.222-108.473c.01-.044.024-.09.04-.141.075-.23.165-.367.268-.455l171.117-25.554 1.187-.177 1.164-.29c12.888-3.21 23.862-11.183 30.9-22.448l94.519-153.685c.14-.218.286-.4.78-.4s.64.182.78.4l94.427 153.535.092.15c7.038 11.265 18.012 19.237 30.9 22.448l1.164.29 172.304 25.73c.103.089.193.226.268.456.016.05.03.097.04.141L565.753 441.167zM532.9 383.131c3.198 13.432-5.098 26.912-18.53 30.11L441.17 430.67l46.68 68.225c7.796 11.395 4.879 26.953-6.516 34.75a24.888 24.888 0 01-14.095 4.369c-7.975 0-15.812-3.806-20.655-10.885L400 459.046l-46.583 68.083c-4.843 7.078-12.68 10.885-20.655 10.885a24.89 24.89 0 01-14.095-4.37c-11.395-7.796-14.312-23.354-6.516-34.75l46.68-68.224-73.201-17.429c-13.432-3.198-21.728-16.678-18.53-30.11 3.198-13.434 16.681-21.727 30.11-18.53L375 383.12v-71.758c0-13.807 11.193-25 25-25s25 11.193 25 25v71.758l77.79-18.52c13.429-3.195 26.911 5.097 30.11 18.53z"/></g>
<view id="star" viewBox="64000 0 800 800">
</view>
<g transform="translate(64000,0)"><path d="M747.49 321.62c-5.469-16.821-18.984-29.42-36.142-33.696l-173.643-43.545-94.492-151.26c-9.375-15-25.527-23.96-43.213-23.96s-33.838 8.96-43.213 23.96L261.71 244.803l-173.057 43.12C71.494 292.202 57.98 304.8 52.51 321.62c-5.46 16.826-1.934 34.956 9.433 48.51l114.883 137.286-12.47 177.92c-1.231 17.646 6.572 34.39 20.888 44.785 8.887 6.455 19.317 9.765 29.873 9.765a51.08 51.08 0 0019.17-3.75l166.074-66.835 165.352 66.835c16.387 6.626 34.717 4.38 49.043-6.015 14.316-10.396 22.119-27.139 20.889-44.79l-12.247-178.594 114.659-136.611c11.367-13.55 14.892-31.68 9.433-48.506zm-47.734 16.362L585.098 474.594c-8.535 10.175-12.725 23.07-11.807 36.318l12.47 177.915-1.318.952-165.361-66.84c-6.152-2.481-12.617-3.726-19.082-3.726s-12.94 1.245-19.092 3.73L215.557 689.78l-1.319-.952 12.471-177.92c.918-13.242-3.271-26.138-11.807-36.318L100.244 337.982l.498-1.543 173.047-43.12c12.9-3.208 23.877-11.182 30.908-22.446L400 119.159c.527 0 .654.21.81.454l94.493 151.255c7.031 11.27 18.008 19.243 30.898 22.451l173.057 43.12.498 1.543z"/></g>
<view id="stop" viewBox="64800 0 800 800">
</view>
<g transform="translate(64800,0)"><path d="M725 49.999H75c-13.809 0-25 11.191-25 25v650c0 13.808 11.191 25 25 25h650c13.809 0 25-11.192 25-25v-650c0-13.809-11.191-25-25-25zm-25 650H100v-600h600v600z"/></g>
<view id="sync" viewBox="65600 0 800 800">
</view>
<g transform="translate(65600,0)"><path d="M750 399.999c0 192.988-157.012 350-350 350-79.026 0-154.47-26.475-215.454-74.195l-41.87 41.87a24.98 24.98 0 01-27.241 5.42A24.996 24.996 0 01100 700v-125c0-13.809 11.191-25 25-25h125a25.001 25.001 0 0123.096 15.43 24.99 24.99 0 01-5.42 27.246l-47.44 47.44c51.394 38.54 114.128 59.884 179.764 59.884 165.42 0 300-134.58 300-300 0-13.809 11.191-25 25-25s25 11.191 25 25zm-350-300c59.515 0 116.63 17.573 165.085 49.563l-57.76 57.761a24.99 24.99 0 00-5.42 27.246A25.001 25.001 0 00525 250h150c13.809 0 25-11.192 25-25v-150a24.996 24.996 0 00-15.435-23.096c-9.326-3.867-20.097-1.738-27.24 5.42l-56.236 56.235C542.808 72.575 472.939 49.998 400 49.998c-192.988 0-350 157.012-350 350 0 13.81 11.191 25 25 25s25-11.19 25-25c0-165.42 134.58-300 300-300z"/></g>
<view id="tag" viewBox="66400 0 800 800">
</view>
<g transform="translate(66400,0)"><path d="M430.666 750c-13.463 0-26.121-5.243-35.641-14.763L64.763 404.975C55.243 395.455 50 382.797 50 369.334v-268.93C50 72.613 72.611 50 100.405 50h268.929c13.463 0 26.12 5.243 35.641 14.763l330.262 330.262c9.52 9.52 14.763 22.178 14.763 35.641s-5.243 26.122-14.764 35.642L466.308 735.237c-9.52 9.52-22.178 14.763-35.642 14.763zM100.119 369.62l330.26 330.261c.061.061.12.119.287.119s.225-.057.286-.118l268.93-268.93c.06-.06.118-.118.118-.286s-.058-.225-.118-.286L369.62 100.118a.409.409 0 00-.286-.118h-268.93a.405.405 0 00-.404.405v268.929c0 .108.042.21.12.286h-.001zM303 405c-56.794 0-103-46.206-103-103s46.206-103 103-103 103 46.206 103 103-46.206 103-103 103zm0-156c-29.224 0-53 23.776-53 53s23.776 53 53 53 53-23.776 53-53-23.776-53-53-53z"/></g>
<view id="terminal" viewBox="67200 0 800 800">
</view>
<g transform="translate(67200,0)"><path d="M775 100H25c-13.807 0-25 11.193-25 25v550c0 13.807 11.193 25 25 25h750c13.807 0 25-11.193 25-25V125c0-13.807-11.193-25-25-25zm-25 550H50V150h700v500zm-593.981-91.27L292.073 400 156.02 241.27c-8.986-10.483-7.772-26.266 2.711-35.251 10.483-8.986 26.268-7.771 35.251 2.711l150 175c8.025 9.362 8.025 23.178 0 32.54l-150 175c-4.944 5.768-11.948 8.73-18.993 8.73a24.894 24.894 0 01-16.258-6.019c-10.483-8.985-11.697-24.768-2.711-35.251zM350 525c0-13.807 11.193-25 25-25h250c13.807 0 25 11.193 25 25s-11.193 25-25 25H375c-13.807 0-25-11.193-25-25z"/></g>
<view id="trashcan" viewBox="68000 0 800 800">
</view>
<g transform="translate(68000,0)"><path d="M725 99.999H600v-50c0-27.569-22.432-50-50-50H250c-27.568 0-50 22.431-50 50v50H75c-13.809 0-25 11.191-25 25s11.191 25 25 25h25v550c0 55.141 44.858 100 100 100h400c55.142 0 100-44.859 100-100v-550h25c13.809 0 25-11.192 25-25s-11.191-25-25-25zm-475-50h300v50H250v-50zm400 650c0 27.568-22.432 50-50 50H200c-27.568 0-50-22.432-50-50v-550h500v550zm-300-475v450c0 13.808-11.191 25-25 25s-25-11.192-25-25v-450c0-13.809 11.191-25 25-25s25 11.191 25 25zm150 0v450c0 13.808-11.191 25-25 25s-25-11.192-25-25v-450c0-13.809 11.191-25 25-25s25 11.191 25 25z"/></g>
<view id="trophy" viewBox="68800 0 800 800">
</view>
<g transform="translate(68800,0)"><path d="M725 49.999h-75v-25c0-13.809-11.191-25-25-25H180c-13.809 0-25 11.191-25 25v25H75c-13.809 0-25 11.191-25 25v200c0 63.642 47.84 116.22 109.43 123.924 18.2 95.478 91.395 171.639 185.272 194.192l-39.221 156.884H225c-13.809 0-25 11.191-25 25s11.191 25 25 25h350c13.809 0 25-11.192 25-25s-11.191-25-25-25h-80.481l-38.948-155.79c96.4-21.153 171.894-98.629 190.14-196.073C704.794 388.221 750 336.855 750 274.999v-200c0-13.809-11.191-25-25-25zM150 345.712c-29.102-10.313-50-38.116-50-70.713v-175h50v245.713zm292.979 404.287H357.02l37.549-150.202c2.64.084 5.27.202 7.93.202.993 0 1.971-.064 2.962-.075l37.517 150.075zm-40.479-200c-108.901 0-197.5-88.594-197.5-197.5v-302.5h395v302.5c0 108.906-88.599 197.5-197.5 197.5zm297.5-275c0 32.597-20.898 60.4-50 70.713V99.999h50v175z"/></g>
<view id="twt" viewBox="69600 0 800 800">
</view>
<g transform="translate(69600,0)"><path d="M775 224.999h-16.926l33.987-31.719c10.087-9.424 10.634-25.244 1.22-35.342-9.433-10.088-25.234-10.635-35.342-1.22l-43.264 40.377C676.835 138.25 609.06 100 533.085 100c-31.59 0-62.284 6.64-91.22 19.746-72.49 32.842-119.912 102.549-122.04 178.652-57.686-9.16-110.538-35.674-151.055-76.21-20.782-20.782-37.598-44.542-49.99-70.596-4.493-9.444-14.288-15.098-24.786-14.17a25.009 25.009 0 00-21.904 18.31c-32.012 117.1 1.074 239.229 88.496 326.69a368.452 368.452 0 0014.316 13.545c-47.627 6.347-96.533 1.777-142.05-13.282-10.088-3.31-21.211.078-27.686 8.526s-6.904 20.058-1.055 28.945C78.145 632.772 205.48 699.999 344.746 699.999c221.484 0 401.68-171.592 401.68-382.5 0-2.432-.078-4.844-.166-7.256l-.088-2.627c-.285-10.906-1.18-21.826-2.434-32.617H775c13.809 0 25-11.192 25-25s-11.191-25-25-25zm-430.254 425c-98.242 0-189.61-37.9-255.332-103.799 50.205 5.918 101.934 1.416 150.693-13.408a25.02 25.02 0 0017.48-20.41 24.995 24.995 0 00-11.132-24.463c-18.34-11.924-35.332-25.664-50.498-40.85-58.936-58.945-88.955-136.25-85.527-215.215a309.37 309.37 0 0022.968 25.684c55.694 55.703 130.82 89.033 211.553 93.828 7.569.576 14.737-2.47 19.815-7.95s7.441-12.939 6.445-20.35c-.996-7.393-1.465-13.526-1.465-19.317 0-59.492 35.537-112.54 92.744-138.457 22.412-10.147 46.162-15.293 70.596-15.293 78.896 0 146.289 52.91 160.498 125.888a318.644 318.644 0 012.607 33.106v.068l.098 2.96c.068 1.825.137 3.642.137 5.478 0 183.34-157.764 332.5-351.68 332.5z"/></g>
<view id="undo" viewBox="70400 0 800 800">
</view>
<g transform="translate(70400,0)"><path d="M400 49.999c-72.935 0-142.802 22.578-201.087 63.561l-56.237-56.237a24.985 24.985 0 00-27.241-5.42A24.996 24.996 0 00100 75v150c0 13.808 11.191 25 25 25h150a25.001 25.001 0 0023.096-15.43 24.99 24.99 0 00-5.42-27.246l-57.758-57.758C283.375 117.575 340.488 100 400 100c165.42 0 300 134.58 300 300s-134.58 300-300 300-300-134.58-300-300c0-13.809-11.191-25-25-25s-25 11.191-25 25c0 192.988 157.012 350 350 350s350-157.012 350-350-157.012-350-350-350z"/></g>
<view id="unlink" viewBox="71200 0 800 800">
</view>
<g transform="translate(71200,0)"><path d="M705.938 306.808l-163.26 163.26c-4.882 4.882-11.28 7.323-17.678 7.323s-12.796-2.44-17.678-7.322c-9.762-9.763-9.762-25.592 0-35.356l163.261-163.26c18.97-18.97 29.417-44.191 29.417-71.018s-10.447-52.049-29.417-71.018C651.613 110.447 626.392 100 599.565 100c-26.827 0-52.048 10.447-71.017 29.417L391.482 266.482c-9.763 9.763-25.591 9.763-35.355 0-9.763-9.763-9.763-25.592 0-35.356L493.192 94.061C521.605 65.648 559.382 50 599.565 50c40.182 0 77.96 15.648 106.373 44.061 58.655 58.655 58.655 154.092 0 212.747zm-262.065 226.71c-9.764-9.763-25.592-9.763-35.355 0L271.452 670.583C252.483 689.553 227.262 700 200.435 700c-26.827 0-52.048-10.447-71.018-29.417-18.97-18.97-29.417-44.19-29.417-71.018s10.447-52.048 29.417-71.018l163.26-163.26c9.763-9.764 9.763-25.593 0-35.356-9.763-9.763-25.591-9.763-35.355 0l-163.26 163.26c-58.655 58.656-58.655 154.093 0 212.748C122.475 734.352 160.252 750 200.435 750c40.182 0 77.96-15.648 106.373-44.061l137.065-137.065c9.763-9.764 9.763-25.593 0-35.356zm-236.55-290.84C212.203 247.559 218.601 250 225 250s12.796-2.44 17.678-7.322c9.762-9.763 9.762-25.593 0-35.356l-50-50c-9.764-9.762-25.592-9.762-35.356 0-9.762 9.763-9.762 25.593 0 35.356l50 50zM125 350h50c13.808 0 25-11.193 25-25s-11.192-25-25-25h-50c-13.808 0-25 11.193-25 25s11.192 25 25 25zm200-150c13.808 0 25-11.193 25-25v-50c0-13.807-11.192-25-25-25s-25 11.193-25 25v50c0 13.807 11.192 25 25 25zm267.678 357.322c-9.764-9.762-25.592-9.762-35.356 0-9.762 9.763-9.762 25.593 0 35.356l50 50C612.204 647.559 618.602 650 625 650s12.796-2.44 17.678-7.322c9.762-9.763 9.762-25.593 0-35.356l-50-50zM475 600c-13.808 0-25 11.193-25 25v50c0 13.807 11.192 25 25 25s25-11.193 25-25v-50c0-13.807-11.192-25-25-25zm200-150h-50c-13.808 0-25 11.193-25 25s11.192 25 25 25h50c13.808 0 25-11.193 25-25s-11.192-25-25-25z"/></g>
<view id="unlock" viewBox="72000 0 800 800">
</view>
<g transform="translate(72000,0)"><path d="M650 300h-50V100C600 44.86 555.14 0 500 0H300c-55.14 0-100 44.86-100 100v25c0 13.807 11.193 25 25 25s25-11.193 25-25v-25c0-27.57 22.43-50 50-50h200c27.57 0 50 22.43 50 50v200H150c-27.57 0-50 22.43-50 50v400c0 27.57 22.43 50 50 50h500c27.57 0 50-22.43 50-50V350c0-27.57-22.43-50-50-50zm0 450H150V350h500l.031 399.999L650 750zM450 425c0 13.808-11.192 25-25 25h-25v75c0 13.808-11.192 25-25 25s-25-11.192-25-25v-75h-25c-13.808 0-25-11.192-25-25s11.192-25 25-25h100c13.808 0 25 11.192 25 25z"/></g>
<view id="upload" viewBox="72800 0 800 800">
</view>
<g transform="translate(72800,0)"><path d="M800 500c0 82.71-67.29 150-150 150H475.002c-13.808 0-25-11.193-25-25s11.192-25 25-25H650c55.14 0 100-44.86 100-100s-44.86-100-100-100c-13.807 0-25-11.193-25-25 0-124.065-100.935-225-225-225-90.61 0-171.98 53.92-207.304 137.37a25 25 0 01-18.72 14.882C102.14 314.804 50 376.94 50 450c0 82.71 67.29 150 150 150h74.998c13.808 0 25 11.193 25 25s-11.192 25-25 25H200C89.72 650 0 560.28 0 450c0-47.353 16.853-93.288 47.453-129.344 27.293-32.159 64.071-54.867 104.66-64.869C197.813 160.717 293.706 100 400 100c73.455 0 142.514 28.604 194.454 80.546 46.466 46.465 74.256 106.624 79.598 171.38C745.372 363.467 800 425.474 800 500zm-292.678-32.322C512.204 472.56 518.602 475 525 475s12.796-2.44 17.678-7.322c9.762-9.763 9.762-25.593 0-35.356l-150-150c-9.764-9.763-25.592-9.763-35.356 0l-150 150c-9.762 9.763-9.762 25.593 0 35.356 9.764 9.763 25.592 9.763 35.356 0L350 360.355V675c0 13.807 11.193 25 25 25s25-11.193 25-25V360.355l107.322 107.323z"/></g>
<view id="user" viewBox="73600 0 800 800">
</view>
<g transform="translate(73600,0)"><path d="M566.786 375.849C602.94 335.912 625 282.985 625 224.999c0-124.063-100.938-225-225-225s-225 100.937-225 225c0 57.986 22.059 110.913 58.214 150.85C150.34 431.202 100 523.777 100 624.999v150c0 13.808 11.191 25 25 25h550c13.809 0 25-11.192 25-25v-150c0-101.222-50.34-193.797-133.214-249.15zM400 49.999c96.494 0 175 78.506 175 175 0 66.214-36.976 123.944-91.354 153.665-.499.274-1.018.501-1.518.77a174.206 174.206 0 01-13.285 6.409c-.82.354-1.658.663-2.484 1.003a173.384 173.384 0 01-12.9 4.73c-1.093.351-2.193.68-3.292 1.01a173.727 173.727 0 01-12.591 3.245c-1.328.29-2.65.597-3.987.856-4.157.812-8.381 1.423-12.636 1.934-1.384.164-2.752.395-4.144.526-5.537.53-11.135.852-16.809.852s-11.272-.321-16.81-.852c-1.39-.13-2.76-.362-4.143-.526-4.255-.511-8.48-1.122-12.636-1.934-1.337-.259-2.659-.566-3.987-.856a173.726 173.726 0 01-12.59-3.246c-1.1-.329-2.2-.658-3.293-1.008a173.384 173.384 0 01-12.9-4.731c-.826-.34-1.663-.65-2.484-1.003a174.206 174.206 0 01-13.285-6.41c-.5-.268-1.019-.495-1.518-.77C261.976 348.944 225 291.214 225 225c0-96.494 78.506-175 175-175zm250 700H150v-125c0-88.88 46.539-169.833 122.363-214.85.446.308.876.637 1.324.941.128.087.251.184.38.271 5.09 3.45 10.354 6.655 15.73 9.688.248.14.491.288.74.427a223.303 223.303 0 0071.019 25.169l.547.098a224.082 224.082 0 0017.865 2.316c.749.068 1.497.112 2.248.171 5.874.462 11.792.769 17.784.769s11.91-.307 17.784-.769c.75-.06 1.5-.103 2.248-.171a224.082 224.082 0 0017.865-2.316l.547-.098a223.303 223.303 0 0071.019-25.17c.249-.138.492-.286.74-.426 5.376-3.033 10.64-6.238 15.73-9.688.129-.087.252-.184.38-.27.448-.305.878-.634 1.324-.942C603.46 455.166 650 536.119 650 624.999v125z"/></g>
<view id="zip" viewBox="74400 0 800 800">
</view>
<g transform="translate(74400,0)"><path d="M699.523 220.176c-.004-.021-.002-.043-.006-.065-.423-2.122-1.212-4.13-2.16-6.066-.24-.487-.49-.95-.76-1.424-1.092-1.903-2.342-3.72-3.921-5.298l-199.995-200c-1.584-1.585-3.407-2.838-5.318-3.93-.463-.266-.916-.51-1.393-.745-1.941-.952-3.956-1.743-6.087-2.166-.016-.003-.033-.002-.049-.005a25.017 25.017 0 00-4.83-.478H125c-13.809 0-25 11.191-25 25v750c0 13.808 11.191 25 25 25h550c13.809 0 25-11.192 25-25v-550a25 25 0 00-.477-4.823zM614.643 200H500V85.355L614.644 200zM150 749.999v-700h300v175c0 13.808 11.191 25 25 25h175v100h-75c-13.809 0-25 11.191-25 25s11.191 25 25 25h75v350H150zm150-375c0 13.808-11.191 25-25 25h-50c-13.809 0-25-11.192-25-25s11.191-25 25-25h50c13.809 0 25 11.191 25 25zm175 25c13.809 0 25-11.192 25-25s-11.191-25-25-25H375c-13.809 0-25 11.191-25 25s11.191 25 25 25h25v50h-25c-13.809 0-25 11.191-25 25v150c0 13.808 11.191 25 25 25h100c13.809 0 25-11.192 25-25v-150c0-13.809-11.191-25-25-25h-25v-50h25zm-25 200h-50v-100h50v100z"/></g>
</svg>