<?xml version="1.0"?>
<svg xmlns="http://www.w3.org/2000/svg" xmlns:xlink="http://www.w3.org/1999/xlink">
  <view id="alert" viewBox="0 0 1200 1200">
</view>
<g transform="translate(0,0)"><path d="M1188.857 986.497l-525.54-851.18C649.661 113.2 625.991 99.996 600 99.996s-49.662 13.203-63.316 35.32L11.143 986.496c-14.16 22.935-14.8 51.805-1.67 75.344 13.131 23.54 38.032 38.162 64.986 38.162h1051.082c26.954 0 51.855-14.623 64.985-38.162 13.131-23.539 12.492-52.41-1.669-75.344zm-1068.529 13.506L600 223.113l479.672 776.89H120.328zM600 400.007c27.614 0 50 22.385 50 50v300c0 27.614-22.386 50-50 50s-50-22.386-50-50v-300c0-27.615 22.386-50 50-50zm50 499.24v1.52c0 27.614-22.386 50-50 50s-50-22.386-50-50v-1.52c0-27.615 22.386-50 50-50s50 22.385 50 50z"/></g>
<view id="alt" viewBox="1200 0 1200 1200">
</view>
<g transform="translate(1200,0)"><path d="M1150 1050H850a50 50 0 01-42.4-23.5L322.288 250H50c-27.614 0-50-22.386-50-50s22.386-50 50-50h300a50 50 0 0142.4 23.5L877.712 950H1150c27.614 0 50 22.386 50 50s-22.386 50-50 50zm50-850c0-27.614-22.386-50-50-50H700c-27.614 0-50 22.386-50 50s22.386 50 50 50h450c27.614 0 50-22.386 50-50z"/></g>
<view id="bars" viewBox="2400 0 1200 1200">
</view>
<g transform="translate(2400,0)"><path d="M1200 300c0 27.614-22.386 50-50 50H50c-27.614 0-50-22.386-50-50s22.386-50 50-50h1100c27.614 0 50 22.386 50 50zm-50 250H50c-27.614 0-50 22.386-50 50s22.386 50 50 50h1100c27.614 0 50-22.386 50-50s-22.386-50-50-50zm0 300H50c-27.614 0-50 22.386-50 50s22.386 50 50 50h1100c27.614 0 50-22.386 50-50s-22.386-50-50-50z"/></g>
<view id="bell" viewBox="3600 0 1200 1200">
</view>
<g transform="translate(3600,0)"><path d="M1050 950h-6.714c-2.15-2.53-7.06-9.646-12.617-26.627-7.086-21.662-12.965-52.566-17.474-91.853-9.002-78.437-13.195-195.356-13.195-367.952 0-47.608-10.498-94.386-31.202-139.035-20.041-43.217-48.573-82.162-84.803-115.753C820.198 149.632 738.487 112.893 650 102.824V50c0-27.614-22.386-50-50-50s-50 22.386-50 50v52.824c-88.487 10.07-170.198 46.808-233.994 105.956-36.23 33.59-64.763 72.536-84.804 115.753C210.498 369.182 200 415.96 200 463.568c0 172.596-4.193 289.515-13.195 367.952-4.508 39.287-10.388 70.19-17.474 91.853-5.556 16.982-10.467 24.098-12.617 26.627H150c-27.614 0-50 22.386-50 50s22.386 50 50 50h300c0 82.71 67.29 150 150 150s150-67.29 150-150h300c27.614 0 50-22.386 50-50s-22.386-50-50-50zm-450 150c-27.57 0-50-22.43-50-50h100c0 27.57-22.43 50-50 50zm111.7-150H265.822c5.729-18.47 10.536-40.019 14.63-65.318C293.972 801.124 300 671.248 300 463.568c0-65.827 30.615-131.966 83.995-181.456C441.106 229.162 517.819 200 600 200s158.894 29.161 216.006 82.112C869.386 331.602 900 397.74 900 463.568c0 207.68 6.029 337.556 19.548 421.114 4.094 25.299 8.901 46.847 14.63 65.318H711.7z"/></g>
<view id="book" viewBox="4800 0 1200 1200">
</view>
<g transform="translate(4800,0)"><path d="M1100 50H808.333c-68.269 0-132.64 24.753-181.256 69.698A248.792 248.792 0 00600 149.074a248.792 248.792 0 00-27.077-29.376C524.307 74.753 459.936 50 391.667 50H100c-27.614 0-50 22.386-50 50v900c0 27.614 22.386 50 50 50h375c32.035 0 54.053 8.14 65.44 24.195 8.48 11.955 9.489 25.367 9.567 26.663C550.444 1127.77 573.103 1150 600 1150c27.614 0 50-22.386 50-50 0-.106.978-12.224 8.025-23.5 10.99-17.584 33.524-26.5 66.975-26.5h375c27.614 0 50-22.386 50-50V100c0-27.614-22.386-50-50-50zM475 950H150V150h241.667C478.972 150 550 213.972 550 292.604v669.627C527.852 954.106 502.724 950 475 950zm75.006 150.777c-.017-.507-.006-.777-.006-.777 0 .26.002.519.006.777zM1050 950H725c-27.724 0-52.852 4.106-75 12.23V292.605C650 213.972 721.028 150 808.333 150H1050v800z"/></g>
<view id="branch" viewBox="6000 0 1200 1200">
</view>
<g transform="translate(6000,0)"><path d="M850 0C739.72 0 650 89.72 650 200c0 93.021 63.835 171.413 150 193.672v55.078c0 82.71-67.29 150-150 150l-250 1.041V393.672C486.165 371.413 550 293.022 550 200 550 89.72 460.28 0 350 0S150 89.72 150 200c0 93.021 63.835 171.413 150 193.672v412.656C213.835 828.586 150 906.978 150 1000c0 110.28 89.72 200 200 200s200-89.72 200-200c0-93.021-63.835-171.414-150-193.672V699.792l250.085-1.042c66.746-.022 129.493-26.025 176.692-73.223 47.218-47.22 73.223-110 73.223-176.777v-55.078c86.165-22.259 150-100.65 150-193.672C1050 89.72 960.28 0 850 0zM250 200c0-55.14 44.86-100 100-100s100 44.86 100 100-44.86 100-100 100-100-44.86-100-100zm200 800c0 55.14-44.86 100-100 100s-100-44.86-100-100 44.86-100 100-100 100 44.86 100 100zm400-700c-55.14 0-100-44.86-100-100s44.86-100 100-100 100 44.86 100 100-44.86 100-100 100z"/></g>
<view id="building" viewBox="7200 0 1200 1200">
</view>
<g transform="translate(7200,0)"><path d="M200 1200h800c27.614 0 50-22.386 50-50V50c0-27.614-22.386-50-50-50H200c-27.614 0-50 22.386-50 50v1100c0 27.614 22.386 50 50 50zm599.999-100H400V900h400l-.001 200zM250 100h700v1000h-50V850c0-27.614-22.386-50-50-50H350c-27.614 0-50 22.386-50 50v250h-50V100zm400 550c0-27.614 22.386-50 50-50h150c27.614 0 50 22.386 50 50s-22.386 50-50 50H700c-27.614 0-50-22.386-50-50zm-350 0c0-27.614 22.386-50 50-50h150c27.614 0 50 22.386 50 50s-22.386 50-50 50H350c-27.614 0-50-22.386-50-50zm350-200c0-27.614 22.386-50 50-50h150c27.614 0 50 22.386 50 50s-22.386 50-50 50H700c-27.614 0-50-22.386-50-50zm-350 0c0-27.614 22.386-50 50-50h150c27.614 0 50 22.386 50 50s-22.386 50-50 50H350c-27.614 0-50-22.386-50-50zm350-200c0-27.614 22.386-50 50-50h150c27.614 0 50 22.386 50 50s-22.386 50-50 50H700c-27.614 0-50-22.386-50-50zm-350 0c0-27.614 22.386-50 50-50h150c27.614 0 50 22.386 50 50s-22.386 50-50 50H350c-27.614 0-50-22.386-50-50z"/></g>
<view id="bulb" viewBox="8400 0 1200 1200">
</view>
<g transform="translate(8400,0)"><path d="M1011.315 261.725c-24.06-54.136-58.556-102.024-102.529-142.332-41.717-38.242-90.17-68.096-144.015-88.737C711.705 10.314 656.27 0 600 0S488.295 10.314 435.229 30.656c-53.845 20.64-102.298 50.495-144.015 88.737-43.973 40.308-78.469 88.196-102.53 142.332C163.017 319.479 150 382.825 150 450c0 142.54 58.948 216.224 110.957 281.234C308.737 790.96 350 842.54 350 950v100c0 32.285 3.507 79.02 33.828 111.978C415.183 1196.058 459.438 1200 490 1200h220c30.562 0 74.817-3.941 106.172-38.022C846.493 1129.02 850 1082.285 850 1050V950c0-107.46 41.264-159.041 89.043-218.766C991.052 666.224 1050 592.54 1050 450c0-67.175-13.016-130.52-38.685-188.275zM700 800H500V543.426l72.265 48.177a49.999 49.999 0 0055.47 0L700 543.426V800zm50 250c0 35.19-6.662 43.446-7.422 44.272-.539.586-6.035 5.728-32.578 5.728H490c-26.543 0-32.04-5.142-32.578-5.728-.76-.826-7.422-9.083-7.422-44.272V950c0-17.69-.91-34.316-2.6-50h305.2c-1.69 15.684-2.6 32.31-2.6 50v100zm110.957-381.234C840.361 694.51 818.681 721.62 800 753.822V450a50.001 50.001 0 00-77.735-41.603L600 489.907l-122.265-81.51A50 50 0 00400 450v303.822c-18.68-32.202-40.361-59.312-60.957-85.056C291.263 609.04 250 557.46 250 450c0-53.094 10.115-102.774 30.065-147.662 18.449-41.509 44.934-78.259 78.721-109.23C423.336 133.936 511.256 100 600 100s176.663 33.937 241.214 93.107c33.787 30.972 60.272 67.722 78.72 109.23C939.885 347.227 950 396.908 950 450c0 107.46-41.264 159.041-89.043 218.766zM700 1000c0 27.614-22.386 50-50 50H550c-27.614 0-50-22.386-50-50s22.386-50 50-50h100c27.614 0 50 22.386 50 50z"/></g>
<view id="caret-down" viewBox="9600 0 1200 1200">
</view>
<g transform="translate(9600,0)"><path d="M-.002 349.99A50 50 0 0150 300h1100a50 50 0 0136.858 83.786l-550 600a50 50 0 01-73.715 0l-550-600A49.988 49.988 0 01-.002 349.99zM1036.338 400H163.66L600 876.005 1036.337 400z"/></g>
<view id="caret-left" viewBox="10800 0 1200 1200">
</view>
<g transform="translate(10800,0)"><path d="M816.214 1186.857l-600-550a50 50 0 010-73.715l600-550A50 50 0 01900 50v1100a50 50 0 01-83.786 36.858zM323.995 600L800 1036.338V163.662L323.995 600z"/></g>
<view id="caret-right" viewBox="12000 0 1200 1200">
</view>
<g transform="translate(12000,0)"><path d="M349.99 1200.001A50 50 0 01300 1150V50a50 50 0 0183.786-36.857l600 550a50 50 0 010 73.714l-600 550a49.988 49.988 0 01-33.796 13.144zM400 163.662v872.676L876.005 600 400 163.662z"/></g>
<view id="caret-up" viewBox="13200 0 1200 1200">
</view>
<g transform="translate(13200,0)"><path d="M1200.002 850.01A50 50 0 011150 900H50a50 50 0 01-36.858-83.786l550-600a50 50 0 0173.715 0l550 600a49.988 49.988 0 0113.144 33.796zM163.662 800h872.677L600 323.995 163.663 800z"/></g>
<view id="certificate" viewBox="14400 0 1200 1200">
</view>
<g transform="translate(14400,0)"><path d="M1099.78 345.384c-.01-.112-.014-.225-.026-.337a49.704 49.704 0 00-8.11-22.717l-.051-.08a51.329 51.329 0 00-1.229-1.748c-.067-.092-.13-.187-.199-.28a49.522 49.522 0 00-1.183-1.518c-.113-.141-.22-.287-.336-.427a50.97 50.97 0 00-1.207-1.402c-.134-.151-.26-.308-.396-.457a50.45 50.45 0 00-1.685-1.77l-.003-.003-300-300a50.412 50.412 0 00-1.773-1.688c-.146-.133-.3-.257-.447-.387a50.878 50.878 0 00-1.413-1.217c-.135-.11-.275-.214-.41-.323a50.56 50.56 0 00-1.537-1.197c-.085-.063-.172-.12-.257-.183a50.293 50.293 0 00-1.77-1.244l-.056-.035a49.698 49.698 0 00-22.74-8.125c-.101-.01-.203-.014-.304-.023a50.257 50.257 0 00-2.143-.16A50.183 50.183 0 00750 0H150c-27.614 0-50 22.386-50 50v1100c0 27.614 22.386 50 50 50h900c27.614 0 50-22.386 50-50V350c0-.837-.021-1.672-.063-2.505a50.109 50.109 0 00-.158-2.11zM800 170.711L929.29 300H800V170.71zM200 1100V100h500v250c0 27.614 22.386 50 50 50h250v700H200zm600-500c0-110.28-89.72-200-200-200s-200 89.72-200 200c0 64.332 30.54 121.657 77.873 158.267l-25.308 75.922c-8.732 26.197 5.426 54.513 31.623 63.245a49.953 49.953 0 0015.819 2.58c20.933 0 40.443-13.252 47.428-34.203l22.681-68.045C579.868 799.233 589.846 800 600 800s20.132-.767 29.884-2.234l22.681 68.045c6.985 20.953 26.493 34.203 47.428 34.203 5.24 0 10.573-.832 15.819-2.58 26.197-8.732 40.355-37.048 31.623-63.245l-25.308-75.922C769.461 721.657 800 664.332 800 600zm-300 0c0-55.14 44.86-100 100-100s100 44.86 100 100-44.86 100-100 100-100-44.86-100-100z"/></g>
<view id="check-circle" viewBox="15600 0 1200 1200">
</view>
<g transform="translate(15600,0)"><path d="M935.355 364.645c19.527 19.526 19.527 51.184 0 70.71l-400 400C525.593 845.12 512.795 850 500 850s-25.593-4.881-35.355-14.645l-200-200c-19.527-19.526-19.527-51.184 0-70.71 19.525-19.527 51.185-19.527 70.71 0L500 729.289l364.645-364.644c19.525-19.527 51.185-19.527 70.71 0zm217.473 1.793C1184.128 440.44 1200 519.022 1200 600s-15.871 159.56-47.172 233.563c-30.222 71.453-73.477 135.614-128.563 190.701-55.087 55.087-119.25 98.342-190.703 128.565C759.56 1184.129 680.979 1200 600 1200s-159.56-15.87-233.563-47.171c-71.453-30.223-135.615-73.478-190.702-128.565-55.086-55.087-98.341-119.248-128.563-190.701C15.872 759.558 0 680.977 0 600s15.871-159.56 47.172-233.563c30.222-71.453 73.477-135.614 128.563-190.701 55.087-55.087 119.25-98.342 190.702-128.564C440.44 15.87 519.023 0 600 0s159.56 15.87 233.563 47.172c71.453 30.222 135.615 73.477 190.702 128.564 55.086 55.087 98.341 119.248 128.563 190.702zM1100 600c0-275.701-224.299-500-500-500S100 324.299 100 600s224.299 500 500 500 500-224.299 500-500z"/></g>
<view id="check" viewBox="16800 0 1200 1200">
</view>
<g transform="translate(16800,0)"><path d="M1185.355 214.645c19.527 19.526 19.527 51.184 0 70.71l-700 700c-9.746 9.747-22.546 14.645-35.36 14.645-12.274 0-24.56-4.493-34.192-13.523l-400-375c-20.146-18.887-21.166-50.528-2.28-70.674 18.886-20.145 50.528-21.166 70.674-2.28l364.68 341.889 665.768-665.767c19.527-19.527 51.183-19.527 70.71 0z"/></g>
<view id="checkbox-off" viewBox="18000 0 1200 1200">
</view>
<g transform="translate(18000,0)"><path d="M1100 50H100c-27.614 0-50 22.386-50 50v1000c0 27.614 22.386 50 50 50h1000c27.614 0 50-22.386 50-50V100c0-27.614-22.386-50-50-50zm-50 1000H150V150h900v900z"/></g>
<view id="checkbox-on" viewBox="19200 0 1200 1200">
</view>
<g transform="translate(19200,0)"><path d="M1100 50H100c-27.614 0-50 22.386-50 50v1000c0 27.614 22.386 50 50 50h1000c27.614 0 50-22.386 50-50V100c0-27.614-22.386-50-50-50zm-50 1000H150V150h900v900zM350 900h500c27.614 0 50-22.386 50-50V350c0-27.614-22.386-50-50-50H350c-27.614 0-50 22.386-50 50v500c0 27.614 22.386 50 50 50zm50-500h400v400H400V400z"/></g>
<view id="checkbox-semi" viewBox="20400 0 1200 1200">
</view>
<g transform="translate(20400,0)"><path d="M1100 1150H100c-27.614 0-50-22.386-50-50V100c0-27.614 22.386-50 50-50h1000c27.614 0 50 22.386 50 50v1000c0 27.614-22.386 50-50 50zm-950-100h900V150H150v900zm199.989-149.998A50.001 50.001 0 01300 850V350c0-27.614 22.386-50 50-50h500a50 50 0 0135.355 85.355l-500 500a49.995 49.995 0 01-35.366 14.647zM400 400v329.29L729.29 400H400z"/></g>
<view id="chevron-down" viewBox="21600 0 1200 1200">
</view>
<g transform="translate(21600,0)"><path d="M599.999 1050.001a49.93 49.93 0 01-29.41-9.564l-549.997-400c-22.333-16.242-27.27-47.513-11.029-69.846 16.242-22.332 47.513-27.27 69.845-11.028L600 938.176l520.593-378.613c22.329-16.242 53.601-11.305 69.845 11.028 16.242 22.333 11.304 53.604-11.029 69.846l-550 400.001a49.938 49.938 0 01-29.409 9.563zm29.408-409.563l550.001-400.001c22.333-16.242 27.27-47.513 11.029-69.846-16.244-22.333-47.516-27.27-69.845-11.028L599.999 538.176 79.409 159.563c-22.333-16.242-53.604-11.304-69.846 11.028-16.242 22.333-11.304 53.604 11.029 69.846l549.998 400a49.93 49.93 0 0029.409 9.564 49.938 49.938 0 0029.408-9.563z"/></g>
<view id="chevron-left" viewBox="22800 0 1200 1200">
</view>
<g transform="translate(22800,0)"><path d="M600.041 1200.003c-15.454.001-30.692-7.14-40.478-20.594l-400-550c-12.75-17.533-12.75-41.285 0-58.818l400-550c16.242-22.332 47.512-27.27 69.845-11.028s27.27 47.513 11.029 69.846L261.825 600l378.612 520.591c16.242 22.333 11.304 53.604-11.029 69.846a49.778 49.778 0 01-29.367 9.566zm429.367-9.566c22.333-16.242 27.27-47.513 11.029-69.846L661.825 600l378.612-520.591c16.242-22.333 11.304-53.604-11.029-69.846s-53.603-11.304-69.845 11.028l-400 550c-12.75 17.533-12.75 41.285 0 58.818l400 550c9.786 13.455 25.024 20.595 40.478 20.594 10.197 0 20.49-3.11 29.367-9.566z"/></g>
<view id="chevron-right" viewBox="24000 0 1200 1200">
</view>
<g transform="translate(24000,0)"><path d="M599.959 1200.003a49.767 49.767 0 01-29.368-9.566c-22.332-16.242-27.27-47.513-11.028-69.846L938.175 600 559.563 79.409c-16.242-22.333-11.304-53.604 11.028-69.846 22.332-16.242 53.603-11.305 69.846 11.028l400 550c12.75 17.533 12.75 41.285 0 58.818l-400 550c-9.785 13.453-25.025 20.594-40.478 20.594zm-359.522-20.594l400-550c12.75-17.533 12.75-41.285 0-58.818l-400-550c-16.243-22.333-47.514-27.27-69.846-11.028-22.332 16.242-27.27 47.513-11.028 69.846L538.175 600l-378.612 520.591c-16.242 22.333-11.304 53.604 11.028 69.846a49.767 49.767 0 0029.368 9.566c15.453 0 30.693-7.14 40.478-20.594z"/></g>
<view id="chevron-up" viewBox="25200 0 1200 1200">
</view>
<g transform="translate(25200,0)"><path d="M1149.959 650.003a49.77 49.77 0 01-29.367-9.566L600 261.825 79.408 640.437c-22.33 16.241-53.603 11.305-69.845-11.028-16.242-22.333-11.304-53.604 11.029-69.846l550-400c17.531-12.75 41.285-12.75 58.816 0l550 400c22.333 16.242 27.27 47.513 11.029 69.846-9.785 13.453-25.025 20.594-40.478 20.594zM79.409 1040.437L600 661.825l520.59 378.61c22.333 16.243 53.605 11.305 69.846-11.027 16.242-22.333 11.304-53.604-11.029-69.846L629.408 559.563c-17.531-12.75-41.285-12.75-58.816 0l-550 400c-22.333 16.242-27.27 47.513-11.029 69.846 9.786 13.455 25.024 20.595 40.478 20.594 10.197 0 20.49-3.11 29.367-9.566z"/></g>
<view id="clipboard" viewBox="26400 0 1200 1200">
</view>
<g transform="translate(26400,0)"><path d="M1000 100H825V50c0-27.614-22.386-50-50-50H425c-27.614 0-50 22.386-50 50v50H200c-27.614 0-50 22.386-50 50v1000c0 27.614 22.386 50 50 50h800c27.614 0 50-22.386 50-50V150c0-27.614-22.386-50-50-50zm-525 0h250v100H475V100zm475 1000H250V200h125v50c0 27.614 22.386 50 50 50h350c27.614 0 50-22.386 50-50v-50h125v900z"/></g>
<view id="clone" viewBox="27600 0 1200 1200">
</view>
<g transform="translate(27600,0)"><path d="M100 900h750c27.614 0 50-22.386 50-50V100c0-27.614-22.386-50-50-50H100c-27.614 0-50 22.386-50 50v750c0 27.614 22.386 50 50 50zm50-750h650v650H150V150zm800 150c0-27.614 22.386-50 50-50h100c27.614 0 50 22.386 50 50v800c0 27.614-22.386 50-50 50H300c-27.614 0-50-22.386-50-50v-100c0-27.614 22.386-50 50-50s50 22.386 50 50v50h700V350h-50c-27.614 0-50-22.386-50-50z"/></g>
<view id="close-circle" viewBox="28800 0 1200 1200">
</view>
<g transform="translate(28800,0)"><path d="M835.355 435.355L670.711 600l164.644 164.645c19.527 19.526 19.527 51.184 0 70.71C825.592 845.12 812.795 850 800 850s-25.592-4.881-35.355-14.645L600 670.711 435.355 835.355C425.592 845.12 412.795 850 400 850s-25.592-4.881-35.355-14.645c-19.527-19.526-19.527-51.184 0-70.71L529.289 600 364.645 435.355c-19.527-19.526-19.527-51.184 0-70.71 19.527-19.527 51.183-19.527 70.71 0L600 529.289l164.645-164.644c19.527-19.527 51.183-19.527 70.71 0 19.527 19.526 19.527 51.184 0 70.71zM1200 600c0 80.978-15.871 159.56-47.172 233.563-30.222 71.453-73.477 135.614-128.563 190.701-55.087 55.087-119.25 98.342-190.703 128.565C759.56 1184.129 680.979 1200 600 1200s-159.56-15.87-233.563-47.171c-71.453-30.223-135.615-73.478-190.702-128.565-55.086-55.087-98.341-119.248-128.563-190.701C15.872 759.558 0 680.977 0 600s15.871-159.56 47.172-233.563c30.222-71.453 73.477-135.614 128.563-190.701 55.087-55.087 119.25-98.342 190.702-128.564C440.44 15.87 519.023 0 600 0s159.56 15.87 233.563 47.172c71.453 30.222 135.615 73.477 190.702 128.564 55.086 55.087 98.341 119.248 128.563 190.702C1184.128 440.44 1200 519.022 1200 600zm-100 0c0-275.701-224.299-500-500-500S100 324.299 100 600s224.299 500 500 500 500-224.299 500-500z"/></g>
<view id="close" viewBox="30000 0 1200 1200">
</view>
<g transform="translate(30000,0)"><path d="M1085.355 185.355L670.711 600l414.644 414.645c19.527 19.526 19.527 51.184 0 70.71-9.763 9.764-22.56 14.645-35.355 14.645s-25.592-4.881-35.355-14.645L600 670.711l-414.645 414.644C175.592 1095.12 162.795 1100 150 1100s-25.592-4.881-35.355-14.645c-19.527-19.526-19.527-51.184 0-70.71L529.289 600 114.645 185.355c-19.527-19.526-19.527-51.184 0-70.71 19.527-19.527 51.183-19.527 70.71 0L600 529.289l414.645-414.644c19.527-19.527 51.183-19.527 70.71 0 19.527 19.526 19.527 51.184 0 70.71z"/></g>
<view id="cmd" viewBox="31200 0 1200 1200">
</view>
<g transform="translate(31200,0)"><path d="M950 1150c-110.28 0-200-89.72-200-200V850H450v100c0 110.28-89.72 200-200 200S50 1060.28 50 950s89.72-200 200-200h100V450H250c-110.28 0-200-89.72-200-200S139.72 50 250 50s200 89.72 200 200v100h300V250c0-110.28 89.72-200 200-200s200 89.72 200 200-89.72 200-200 200H850v300h100c110.28 0 200 89.72 200 200s-89.72 200-200 200zM850 850v100c0 55.14 44.86 100 100 100s100-44.86 100-100-44.86-100-100-100H850zm-600 0c-55.14 0-100 44.86-100 100s44.86 100 100 100 100-44.86 100-100V850H250zm200-100h300V450H450v300zm400-400h100c55.14 0 100-44.86 100-100s-44.86-100-100-100-100 44.86-100 100v100zM250 150c-55.14 0-100 44.86-100 100s44.86 100 100 100h100V250c0-55.14-44.86-100-100-100z"/></g>
<view id="code" viewBox="32400 0 1200 1200">
</view>
<g transform="translate(32400,0)"><path d="M400.02 1050c-13.918 0-27.763-5.777-37.649-17.075l-350-400c-16.495-18.851-16.495-46.999 0-65.85l350-400c18.184-20.782 49.772-22.888 70.554-4.704 20.782 18.184 22.888 49.772 4.704 70.554L116.439 600l321.19 367.075c18.184 20.782 16.078 52.37-4.704 70.554-9.484 8.298-21.22 12.372-32.904 12.372zm437.609-17.075l350-400c16.495-18.851 16.495-46.999 0-65.85l-350-400c-18.184-20.782-49.772-22.888-70.554-4.704-20.782 18.184-22.888 49.772-4.704 70.554L1083.561 600l-321.19 367.075c-18.184 20.782-16.078 52.37 4.704 70.554 9.485 8.3 21.219 12.372 32.904 12.372 13.918 0 27.766-5.78 37.65-17.076z"/></g>
<view id="comment" viewBox="33600 0 1200 1200">
</view>
<g transform="translate(33600,0)"><path d="M900 1100h-50c-63.509 0-113.255-17.544-147.855-52.145-24.929-24.928-41.004-57.721-48.043-97.855H100C44.86 950 0 905.14 0 850V250c0-55.14 44.86-100 100-100h1000c55.14 0 100 44.86 100 100v600c0 55.14-44.86 100-100 100H950v100c0 27.614-22.386 50-50 50zM100 849.997L700 850c27.614 0 50 22.386 50 50 0 36.023 7.69 61.979 22.855 77.145C788.021 992.31 813.976 1000 850 1000V900c0-27.614 22.386-50 50-50h200V250H100v600-.003zm1000.013-599.996z"/></g>
<view id="creditcard" viewBox="34800 0 1200 1200">
</view>
<g transform="translate(34800,0)"><path d="M1113.485 150H86.515C38.81 150 0 188.81 0 236.515v726.97C0 1011.19 38.81 1050 86.515 1050h1026.97c47.704 0 86.515-38.81 86.515-86.515v-726.97c0-47.704-38.81-86.515-86.515-86.515zM1100 950H100V550h1000v400zm0-500H100V250h1000v200zM200 825V725c0-27.614 22.386-50 50-50s50 22.386 50 50v100c0 27.614-22.386 50-50 50s-50-22.386-50-50zm150 0V725c0-27.614 22.386-50 50-50s50 22.386 50 50v100c0 27.614-22.386 50-50 50s-50-22.386-50-50zm150 0V725c0-27.614 22.386-50 50-50s50 22.386 50 50v100c0 27.614-22.386 50-50 50s-50-22.386-50-50z"/></g>
<view id="dart-down" viewBox="36000 0 1200 1200">
</view>
<g transform="translate(36000,0)"><path d="M600 1000a49.998 49.998 0 01-38.17-17.703l-550-650c-17.836-21.08-15.207-52.629 5.873-70.466 21.08-17.837 52.629-15.209 70.466 5.872L600 872.593l511.83-604.89c17.837-21.08 49.387-23.71 70.467-5.872 21.08 17.837 23.71 49.386 5.872 70.466l-550 650A49.998 49.998 0 01600 1000z"/></g>
<view id="dart-left" viewBox="37200 0 1200 1200">
</view>
<g transform="translate(37200,0)"><path d="M899.975 1200.001a49.799 49.799 0 01-32.272-11.832l-650-550a50 50 0 010-76.338l650-550c21.08-17.838 52.628-15.209 70.466 5.872 17.837 21.08 15.208 52.629-5.872 70.466L327.407 600l604.89 511.83c21.08 17.838 23.71 49.387 5.872 70.467-9.89 11.688-23.995 17.704-38.194 17.704z"/></g>
<view id="dart-right" viewBox="38400 0 1200 1200">
</view>
<g transform="translate(38400,0)"><path d="M300.025 1200.001c-14.2.001-28.303-6.015-38.194-17.704-17.838-21.08-15.208-52.629 5.872-70.466L872.593 600 267.704 88.17c-21.08-17.838-23.71-49.387-5.872-70.467 17.837-21.08 49.386-23.71 70.466-5.872l650 550a50 50 0 010 76.338l-650 550a49.811 49.811 0 01-32.272 11.832z"/></g>
<view id="dart-up" viewBox="39600 0 1200 1200">
</view>
<g transform="translate(39600,0)"><path d="M1150.025 950.001c-14.2.001-28.304-6.015-38.194-17.704L600 327.407 88.17 932.296c-17.838 21.08-49.387 23.709-70.467 5.872s-23.71-49.386-5.872-70.466l550-650a49.998 49.998 0 0176.338 0l550 650c17.838 21.08 15.208 52.629-5.872 70.466a49.81 49.81 0 01-32.272 11.832z"/></g>
<view id="desktop" viewBox="40800 0 1200 1200">
</view>
<g transform="translate(40800,0)"><path d="M1150 150H50c-27.614 0-50 22.386-50 50v600c0 27.614 22.386 50 50 50h350v100H300c-27.614 0-50 22.386-50 50s22.386 50 50 50h600c27.614 0 50-22.386 50-50s-22.386-50-50-50H800V850h350c27.614 0 50-22.386 50-50V200c0-27.614-22.386-50-50-50zM700 950H500V850h200v100zm400-200H100V250h1000v500z"/></g>
<view id="doc" viewBox="42000 0 1200 1200">
</view>
<g transform="translate(42000,0)"><path d="M735.355 14.645A50 50 0 00700 0H200c-27.614 0-50 22.386-50 50v1100c0 27.614 22.386 50 50 50h800c27.614 0 50-22.386 50-50V350a50 50 0 00-14.645-35.355l-300-300zM950 1100H250V100h429.29L950 370.71V1100zM650 250c27.614 0 50 22.386 50 50s-22.386 50-50 50H400c-27.614 0-50-22.386-50-50s22.386-50 50-50h250zM400 450h400c27.614 0 50 22.386 50 50s-22.386 50-50 50H400c-27.614 0-50-22.386-50-50s22.386-50 50-50zm450 250c0 27.614-22.386 50-50 50H400c-27.614 0-50-22.386-50-50s22.386-50 50-50h400c27.614 0 50 22.386 50 50zm0 200c0 27.614-22.386 50-50 50H400c-27.614 0-50-22.386-50-50s22.386-50 50-50h400c27.614 0 50 22.386 50 50z"/></g>
<view id="download" viewBox="43200 0 1200 1200">
</view>
<g transform="translate(43200,0)"><path d="M1050 1100c0 27.614-22.386 50-50 50H200c-27.614 0-50-22.386-50-50s22.386-50 50-50h800c27.614 0 50 22.386 50 50zM564.645 935.355C574.408 945.118 587.205 950 600 950s25.592-4.882 35.355-14.645l400-400c19.526-19.526 19.526-51.184 0-70.71-19.526-19.526-51.184-19.526-70.71 0L650 779.289V100c0-27.614-22.386-50-50-50s-50 22.386-50 50v679.29L235.355 464.644c-19.526-19.526-51.184-19.526-70.71 0-19.527 19.526-19.527 51.184 0 70.71l400 400z"/></g>
<view id="drag" viewBox="44400 0 1200 1200">
</view>
<g transform="translate(44400,0)"><path d="M1185.355 564.645l-150-150c-19.526-19.526-51.184-19.526-70.71 0-19.526 19.526-19.526 51.184 0 70.71L1029.289 550H650V170.71l64.645 64.645C724.408 245.118 737.204 250 750 250s25.592-4.882 35.355-14.645c19.526-19.526 19.526-51.184 0-70.71l-150-150c-19.526-19.526-51.184-19.526-70.71 0l-150 150c-19.526 19.526-19.526 51.184 0 70.71 19.526 19.526 51.184 19.526 70.71 0L550 170.711V550H170.71l64.645-64.645c19.526-19.526 19.526-51.184 0-70.71-19.526-19.526-51.184-19.526-70.71 0l-150 150c-19.526 19.526-19.526 51.184 0 70.71l150 150C174.408 795.118 187.204 800 200 800s25.592-4.882 35.355-14.645c19.526-19.526 19.526-51.184 0-70.71L170.711 650H550v379.29l-64.645-64.645c-19.526-19.526-51.184-19.526-70.71 0-19.526 19.526-19.526 51.184 0 70.71l150 150a50 50 0 0070.71 0l150-150c19.526-19.526 19.526-51.184 0-70.71-19.526-19.525-51.184-19.525-70.71 0L650 1029.289V650h379.29l-64.645 64.645c-19.526 19.526-19.526 51.184 0 70.71C974.408 795.118 987.205 800 1000 800c12.796 0 25.592-4.882 35.355-14.645l150-150c19.526-19.526 19.526-51.184 0-70.71z"/></g>
<view id="exclamation-circle" viewBox="45600 0 1200 1200">
</view>
<g transform="translate(45600,0)"><path d="M1152.829 366.438c-30.223-71.454-73.478-135.615-128.565-190.702-55.087-55.087-119.248-98.342-190.701-128.564C759.558 15.87 680.977 0 600 0S440.44 15.87 366.437 47.172c-71.453 30.222-135.614 73.477-190.701 128.564-55.087 55.087-98.342 119.248-128.565 190.702C15.871 440.44 0 519.023 0 600s15.87 159.56 47.171 233.562c30.223 71.454 73.478 135.615 128.565 190.702 55.087 55.087 119.248 98.342 190.702 128.564C440.44 1184.13 519.022 1200 600 1200s159.56-15.87 233.563-47.172c71.453-30.222 135.614-73.477 190.701-128.564 55.087-55.087 98.342-119.248 128.565-190.702C1184.129 759.56 1200 680.977 1200 600s-15.87-159.56-47.171-233.562zm-92.101 428.17c-25.18 59.533-61.24 113.01-107.175 158.945-45.935 45.936-99.412 81.994-158.946 107.175C732.997 1086.788 667.521 1100 600 1100s-132.997-13.213-194.607-39.272c-59.534-25.18-113.011-61.24-158.946-107.175-45.936-45.935-81.994-99.412-107.175-158.946C113.212 732.997 100 667.522 100 600s13.213-132.997 39.272-194.607c25.18-59.534 61.24-113.011 107.175-158.946 45.935-45.936 99.412-81.994 158.946-107.175C467.003 113.212 532.479 100 600 100s132.997 13.213 194.607 39.272c59.534 25.18 113.011 61.24 158.946 107.175 45.936 45.935 81.994 99.412 107.175 158.946C1086.788 467.003 1100 532.478 1100 600s-13.213 132.997-39.272 194.607zM650 300v350c0 27.614-22.386 50-50 50s-50-22.386-50-50V300c0-27.614 22.386-50 50-50s50 22.386 50 50zm0 550v50c0 27.614-22.386 50-50 50s-50-22.386-50-50v-50c0-27.614 22.386-50 50-50s50 22.386 50 50z"/></g>
<view id="eye-slash" viewBox="46800 0 1200 1200">
</view>
<g transform="translate(46800,0)"><path d="M972.474 305.48c-1.322-1.099-2.645-2.188-3.967-3.276l66.848-66.849c19.527-19.526 19.527-51.184 0-70.71-19.527-19.526-51.183-19.526-70.71 0l-77.88 77.879c-27.541-17.602-55.186-32.773-82.75-45.378C735.616 165.862 666.975 150 600 150s-135.614 15.862-204.016 47.146C339.647 222.91 282.97 259.36 227.526 305.48 115.624 398.565 40.174 505.014 19.715 535.422c-26.395 39.23-26.395 89.926 0 129.156 20.459 30.408 95.909 136.857 207.811 229.942 1.322 1.099 2.645 2.188 3.967 3.276l-66.848 66.849c-19.527 19.526-19.527 51.184 0 70.71 9.763 9.763 22.56 14.645 35.355 14.645s25.592-4.882 35.355-14.645l77.88-77.879c27.541 17.602 55.186 32.773 82.75 45.378C464.384 1034.138 533.025 1050 600 1050s135.614-15.862 204.016-47.146C860.353 977.09 917.03 940.64 972.474 894.52c111.902-93.085 187.352-199.534 207.811-229.942 26.395-39.23 26.395-89.926 0-129.156-20.459-30.408-95.909-136.857-207.811-229.942zm-869.79 303.275a15.624 15.624 0 010-17.51C126.184 556.317 339.793 250 600 250c76.69 0 149.33 26.613 214.25 65.039L302.522 826.767C191.665 737.353 116.116 628.72 102.684 608.755zm994.632 0C1073.816 643.683 860.207 950 600 950c-76.69 0-149.33-26.613-214.25-65.04l511.728-511.727c110.857 89.414 186.406 198.047 199.838 218.012a15.624 15.624 0 010 17.51z"/></g>
<view id="eye" viewBox="48000 0 1200 1200">
</view>
<g transform="translate(48000,0)"><path d="M972.474 305.48c-55.444-46.12-112.121-82.569-168.458-108.334C735.614 165.862 666.974 150 600 150s-135.614 15.862-204.016 47.146C339.647 222.91 282.97 259.36 227.526 305.48 115.624 398.565 40.174 505.014 19.715 535.422c-26.395 39.23-26.395 89.926 0 129.156 20.459 30.408 95.909 136.857 207.811 229.942 55.444 46.12 112.121 82.569 168.458 108.334C464.386 1034.138 533.026 1050 600 1050s135.614-15.862 204.016-47.146C860.353 977.09 917.03 940.64 972.474 894.52c111.902-93.085 187.352-199.534 207.811-229.942 26.395-39.23 26.395-89.926 0-129.156-20.459-30.408-95.909-136.857-207.811-229.942zm124.842 303.275C1073.816 643.683 860.207 950 600 950S126.184 643.683 102.684 608.755a15.624 15.624 0 010-17.51C126.184 556.317 339.793 250 600 250s473.816 306.317 497.316 341.245a15.624 15.624 0 010 17.51zM600 350c-66.777 0-129.558 26.005-176.776 73.223C376.004 470.442 350 533.223 350 600s26.005 129.558 73.224 176.777C470.442 823.995 533.223 850 600 850s129.558-26.005 176.776-73.223C823.996 729.558 850 666.777 850 600s-26.005-129.558-73.224-176.777C729.558 376.005 666.777 350 600 350zm0 400c-82.71 0-150-67.29-150-150s67.29-150 150-150 150 67.29 150 150-67.29 150-150 150z"/></g>
<view id="fb" viewBox="49200 0 1200 1200">
</view>
<g transform="translate(49200,0)"><path d="M984.615 50h-769.23C124.19 50 50 124.191 50 215.385v769.23C50 1075.81 124.191 1150 215.385 1150h769.23c91.194 0 165.385-74.191 165.385-165.385v-769.23C1150 124.19 1075.809 50 984.615 50zM1050 984.615c0 36.054-29.331 65.385-65.385 65.385H750V700h100c27.614 0 50-22.386 50-50s-22.386-50-50-50H750V497.586C750 400 791.585 400 825 400h75c27.614 0 50-22.386 50-50s-22.386-50-50-50h-75c-51.446 0-90.944 13.482-120.753 41.218-18.264 16.994-32.096 39.014-41.112 65.452C654.297 432.587 650 462.325 650 497.586V600h-50c-27.614 0-50 22.386-50 50s22.386 50 50 50h50v350H215.385C179.33 1050 150 1020.669 150 984.615v-769.23C150 179.33 179.331 150 215.385 150h769.23c36.054 0 65.385 29.331 65.385 65.385v769.23z"/></g>
<view id="file" viewBox="50400 0 1200 1200">
</view>
<g transform="translate(50400,0)"><path d="M1099.777 345.352c-.01-.101-.013-.203-.023-.304a49.7 49.7 0 00-8.128-22.745l-.031-.05a49.761 49.761 0 00-1.247-1.774c-.061-.083-.119-.17-.18-.253a51.171 51.171 0 00-1.2-1.541c-.11-.135-.21-.273-.32-.407a50.06 50.06 0 00-1.223-1.419c-.13-.145-.251-.296-.382-.44a50.023 50.023 0 00-1.685-1.771l-.003-.003-300-300a50.412 50.412 0 00-1.773-1.688c-.146-.133-.3-.257-.447-.387a50.858 50.858 0 00-1.413-1.217c-.135-.11-.275-.214-.41-.323a49.981 49.981 0 00-1.537-1.197c-.085-.063-.172-.12-.257-.183a50.293 50.293 0 00-1.77-1.244l-.055-.035A49.7 49.7 0 00754.952.246c-.1-.01-.203-.014-.304-.023a50.28 50.28 0 00-2.144-.16A50.116 50.116 0 00750 0H150c-27.614 0-50 22.386-50 50v1100c0 27.614 22.386 50 50 50h900c27.614 0 50-22.386 50-50V350c0-.837-.021-1.672-.063-2.504a50.011 50.011 0 00-.16-2.144zM800 170.71L929.29 300H800V170.71zM200 1100V100h500v250c0 27.614 22.386 50 50 50h250v700H200z"/></g>
<view id="folder" viewBox="51600 0 1200 1200">
</view>
<g transform="translate(51600,0)"><path d="M1137.5 250H520.71L389.018 118.306C377.212 106.5 361.517 100 344.822 100H62.5C28.038 100 0 128.037 0 162.5v875c0 34.463 28.038 62.5 62.5 62.5h1075c34.462 0 62.5-28.037 62.5-62.5v-725c0-34.463-28.038-62.5-62.5-62.5zm-37.5 750H100V200h229.29l131.693 131.694C472.788 343.5 488.483 350 505.178 350H1100v650z"/></g>
<view id="gear" viewBox="52800 0 1200 1200">
</view>
<g transform="translate(52800,0)"><path d="M675 1200H525c-41.355 0-75-33.645-75-75v-121.085a429.012 429.012 0 01-29.536-12.247l-85.629 85.63c-14.166 14.165-33 21.966-53.033 21.966s-38.868-7.801-53.033-21.967L122.703 971.231c-14.166-14.166-21.967-33-21.967-53.033s7.801-38.867 21.967-53.033l85.629-85.629A428.986 428.986 0 01196.085 750H75c-41.355 0-75-33.645-75-75V525c0-41.355 33.645-75 75-75h121.085a429.012 429.012 0 0112.247-29.536l-85.63-85.629c-14.165-14.166-21.966-33-21.966-53.033s7.801-38.867 21.967-53.033l106.066-106.066c29.243-29.243 76.824-29.242 106.066 0l85.629 85.629A429.007 429.007 0 01450 196.085V75c0-41.355 33.645-75 75-75h150c41.355 0 75 33.645 75 75v121.085a429.007 429.007 0 0129.536 12.247l85.629-85.63c29.242-29.242 76.823-29.241 106.066 0l106.066 106.067c14.166 14.165 21.967 33 21.967 53.033s-7.801 38.867-21.967 53.033l-85.629 85.629A429.012 429.012 0 011003.915 450H1125c41.355 0 75 33.645 75 75v150c0 41.355-33.645 75-75 75h-121.085a429.012 429.012 0 01-12.247 29.536l85.63 85.629c14.165 14.166 21.966 33 21.966 53.033s-7.801 38.868-21.967 53.033l-106.066 106.066c-14.165 14.166-33 21.967-53.033 21.967s-38.867-7.801-53.033-21.967l-85.629-85.629A429.012 429.012 0 01750 1003.915V1125c0 41.355-33.645 75-75 75zm-125-100h100V929.264l36.9-10.017a328.765 328.765 0 0077.357-32.073l33.181-19.025 120.76 120.76 70.71-70.711-120.76-120.76 19.026-33.18a328.765 328.765 0 0032.073-77.357L929.264 650H1100V550H929.264l-10.017-36.9a328.765 328.765 0 00-32.073-77.357l-19.025-33.181 120.76-120.76-70.71-70.71-120.761 120.76-33.18-19.026a328.763 328.763 0 00-77.357-32.073L650 270.736V100H550v170.736l-36.9 10.017a328.763 328.763 0 00-77.357 32.073l-33.18 19.025-120.761-120.76-70.71 70.711 120.76 120.76-19.026 33.18a328.765 328.765 0 00-32.073 77.357L270.736 550H100v100h170.736l10.017 36.9a328.765 328.765 0 0032.073 77.357l19.025 33.181-120.76 120.76 70.71 70.71 120.76-120.76 33.182 19.026a328.765 328.765 0 0077.356 32.073L550 929.264V1100zm50-250c-66.777 0-129.558-26.005-176.776-73.224C376.004 729.558 350 666.777 350 600s26.005-129.558 73.224-176.776C470.442 376.005 533.223 350 600 350s129.558 26.005 176.776 73.224C823.996 470.442 850 533.223 850 600s-26.005 129.558-73.224 176.776C729.558 823.995 666.777 850 600 850zm0-400c-82.71 0-150 67.29-150 150s67.29 150 150 150 150-67.29 150-150-67.29-150-150-150z"/></g>
<view id="github" viewBox="54000 0 1200 1200">
</view>
<g transform="translate(54000,0)"><path d="M1152.828 366.438c-30.222-71.454-73.477-135.615-128.564-190.702-55.087-55.087-119.248-98.342-190.702-128.564C759.56 15.87 680.977 0 600 0S440.44 15.87 366.438 47.172c-71.454 30.222-135.615 73.477-190.702 128.564-55.087 55.087-98.342 119.248-128.564 190.702C15.87 440.44 0 519.022 0 600s15.87 159.56 47.172 233.563c30.222 71.453 73.477 135.614 128.564 190.701 55.087 55.087 119.248 98.342 190.702 128.565C440.44 1184.129 519.023 1200 600 1200s159.56-15.87 233.562-47.171c71.454-30.223 135.615-73.478 190.702-128.565 55.087-55.087 98.342-119.248 128.564-190.701C1184.13 759.558 1200 680.977 1200 600s-15.87-159.56-47.172-233.563zM450 1077.131V971.7c0-45.524 16.316-64.01 29.426-78.863 3.97-4.498 8.076-9.15 11.725-14.436a50 50 0 00-30.494-77.252c-55.576-12.125-97.768-34.867-125.404-67.595C312.19 706.24 300 672.024 300 634.6c0-42.103 20.71-77.383 40.97-106.341a49.998 49.998 0 009.03-28.662v-91.77c35.168 9.903 67.479 26.634 80.574 34.682 7.945 4.965 16.952 7.49 26.323 7.49h286.206c9.32 0 18.454-2.605 26.372-7.52.497-.31 37.278-22.59 80.525-34.755v91.873a49.998 49.998 0 009.03 28.662C879.29 557.218 900 592.498 900 634.6c0 37.423-12.19 71.64-35.253 98.954-27.636 32.728-69.828 55.47-125.404 67.595a50 50 0 00-30.494 77.252c3.649 5.287 7.755 9.938 11.725 14.436C733.684 907.69 750 926.176 750 971.7v105.432C701.724 1092.317 651.458 1100 600 1100s-101.724-7.683-150-22.868zm610.728-282.525c-25.18 59.534-61.24 113.011-107.175 158.946-31.193 31.194-65.869 57.827-103.553 79.598V971.7c0-40.64-8.745-71.37-19.755-94.514 12.313-5.152 24.05-10.876 35.168-17.157 29.718-16.79 55.2-37.637 75.738-61.96C979.651 752.475 1000 695.95 1000 634.6c0-62.66-25.081-112.465-50-150.371V350c0-27.614-22.386-50-50-50-38.37 0-80.927 9.73-126.49 28.92-18.388 7.745-33.647 15.573-43.704 21.08H470.194c-10.057-5.507-25.316-13.335-43.703-21.08C380.927 309.73 338.369 300 300 300c-27.614 0-50 22.386-50 50v134.229c-24.919 37.906-50 87.71-50 150.372 0 61.348 20.35 117.875 58.849 163.468 20.538 24.324 46.02 45.17 75.738 61.96 11.117 6.282 22.855 12.006 35.168 17.158C358.745 900.33 350 931.06 350 971.7v61.45c-37.684-21.77-72.36-48.403-103.553-79.597-45.936-45.935-81.994-99.412-107.175-158.946C113.212 732.997 100 667.521 100 600s13.213-132.997 39.272-194.607c25.18-59.534 61.24-113.011 107.175-158.946 45.935-45.936 99.412-81.994 158.946-107.175C467.003 113.212 532.478 100 600 100s132.997 13.213 194.607 39.272c59.534 25.18 113.011 61.24 158.946 107.175 45.936 45.935 81.994 99.412 107.175 158.946C1086.788 467.003 1100 532.479 1100 600s-13.213 132.997-39.272 194.607z"/></g>
<view id="google" viewBox="55200 0 1200 1200">
</view>
<g transform="translate(55200,0)"><path d="M900 600c0 80.133-31.206 155.47-87.868 212.132C755.47 868.795 680.132 900 600 900s-155.47-31.205-212.132-87.868C331.206 755.47 300 680.132 300 600s31.206-155.47 87.868-212.132C444.53 331.205 519.868 300 600 300c71.626 0 154.812 33.042 211.924 84.179 20.573 18.42 22.318 50.03 3.898 70.602-9.875 11.029-23.545 16.647-37.268 16.648-11.876.002-23.791-4.204-33.335-12.75C706.632 424.129 646.916 400 600 400c-110.28 0-200 89.72-200 200s89.72 200 200 200c93.022 0 171.415-63.835 193.673-150H650c-27.614 0-50-22.386-50-50s22.386-50 50-50h200c27.614 0 50 22.386 50 50zm250-384.615v769.23c0 91.194-74.191 165.385-165.385 165.385h-769.23C124.19 1150 50 1075.809 50 984.615v-769.23C50 124.19 124.191 50 215.385 50h769.23C1075.81 50 1150 124.191 1150 215.385zm-100 0c0-36.054-29.332-65.385-65.385-65.385h-769.23C179.332 150 150 179.331 150 215.385v769.23c0 36.054 29.332 65.385 65.385 65.385h769.23c36.053 0 65.385-29.331 65.385-65.385v-769.23z"/></g>
<view id="heart-fill" viewBox="56400 0 1200 1200">
</view>
<g transform="translate(56400,0)"><path d="M1105.33 210.1c-26.579-50.006-65.664-90.949-113.031-118.4a291.221 291.221 0 00-23.071-12.016c-39.45-18.375-83.018-27.99-127.524-27.99-.546 0-1.102 0-1.649.003-52.975.282-104.703 14.104-149.59 39.97-37.647 21.694-68.598 50.635-91.88 85.064-11.917-17.605-25.838-33.757-41.658-48.304-27.074-24.896-58.714-44.222-94.04-57.442-34.206-12.801-70.262-19.292-107.165-19.292-38.987 0-76.834 7.235-112.49 21.504-37.671 15.076-71.155 37.35-99.52 66.202-62.27 63.342-95.185 153.869-95.185 261.793 0 51.677 9.89 105.557 29.485 161.101a49.809 49.809 0 001.646 4.586c13.52 37.37 31.405 75.482 53.641 114.182 27.801 48.384 62.475 97.893 103.562 147.954.144.18.291.357.438.535 23.034 28.035 48.07 56.242 75.053 84.523 126.949 133.052 252.18 221.46 257.45 225.16a49.938 49.938 0 0028.725 9.075 49.942 49.942 0 0028.76-9.099c5.26-3.698 130.274-92.105 257.108-225.151 75.27-78.956 135.49-157.343 178.989-232.982 56.28-97.863 84.925-191.988 85.143-279.76.18-72.612-14.354-136.946-43.198-191.216zm-364.936-31.788c33.509-19.31 72.268-28.085 110.485-26.374L648.105 354.713c.269-2.1.422-4.234.422-6.405 0-75.488 32.626-135.86 91.867-169.996zm-525.37 31.193c36.65-37.28 86.617-57.812 140.698-57.812 27.603 0 54.778 5.59 79.442 15.96L152.32 450.496c-2.516-16.799-3.794-33.245-3.794-49.304 0-81.153 22.994-147.437 66.496-191.687zM184.31 559.928l329.673-329.672c22.697 32.302 34.543 72.446 34.543 118.052 0 27.614 22.386 50 50 50 2.172 0 4.306-.154 6.405-.423l-324.57 324.57c-23.042-30.905-43.205-61.365-60.356-91.215-13.925-24.234-25.818-48.02-35.695-71.312zm159.49 240.51l612.874-612.875c24.889 17.595 45.158 40.881 60.351 69.47 9.232 17.37 16.453 36.447 21.64 57.12L446.397 906.42c-20.179-19.104-40.95-39.636-61.694-61.378a1504.342 1504.342 0 01-40.901-44.605zm469.372 43.402c-85.162 89.522-171.328 159.04-214.684 192.216-18.918-14.443-45.98-35.792-77.577-62.728l523.854-523.854c-8.442 56.608-31.087 117.277-67.649 181.016-39.322 68.55-94.48 140.331-163.944 213.35z"/></g>
<view id="heart" viewBox="57600 0 1200 1200">
</view>
<g transform="translate(57600,0)"><path d="M599.999 1148.307a49.933 49.933 0 01-28.726-9.076c-5.27-3.698-130.5-92.106-257.449-225.158C238.481 835.11 178.24 756.711 134.771 681.06 78.52 583.163 49.999 489 49.999 401.192c0-107.925 32.914-198.452 95.185-261.793 28.365-28.853 61.848-51.127 99.52-66.202 35.655-14.27 73.503-21.505 112.49-21.505 36.903 0 72.958 6.491 107.165 19.292 35.327 13.22 66.965 32.547 94.04 57.443 15.819 14.547 29.74 30.698 41.659 48.303 23.28-34.43 54.231-63.37 91.879-85.063 44.887-25.866 96.614-39.688 149.59-39.97a309.51 309.51 0 011.649-.005c53.375 0 105.407 13.818 150.595 40.007 47.367 27.452 86.452 68.394 113.03 118.4 28.845 54.27 43.378 118.605 43.198 191.217-.218 87.771-28.864 181.896-85.144 279.76-43.499 75.639-103.72 154.025-178.988 232.981-126.835 133.047-251.85 221.453-257.11 225.151a49.942 49.942 0 01-28.758 9.1zM357.193 151.692c-54.08 0-104.047 20.532-140.698 57.812C172.993 253.754 150 320.04 150 401.192c0 69.893 23.907 147.046 71.058 229.315 39.28 68.537 94.444 140.307 163.958 213.318 85.239 89.526 171.536 159.046 214.96 192.22 43.363-33.182 129.522-102.698 214.67-192.205 69.463-73.019 124.622-144.8 163.944-213.35 47.21-82.302 71.236-159.491 71.41-229.422.14-55.986-10.46-104.447-31.501-144.037-18.053-33.966-43.243-60.482-74.871-78.813-61.059-35.387-140.257-35.35-201.762.093C682.624 212.448 650 272.82 650 348.307c0 27.614-22.386 50-50 50s-50-22.386-50-50c0-60.025-20.502-110.605-59.288-146.27-34.793-31.995-83.459-50.345-133.518-50.345zM1100 401.192h.01-.01z"/></g>
<view id="history" viewBox="58800 0 1200 1200">
</view>
<g transform="translate(58800,0)"><path d="M1152.829 366.438C1184.129 440.44 1200 519.022 1200 600s-15.87 159.56-47.171 233.563c-30.223 71.453-73.478 135.614-128.565 190.701s-119.248 98.342-190.701 128.565C759.558 1184.129 680.977 1200 600 1200c-150.754 0-294.878-56.133-405.822-158.058C83.924 940.65 15.832 803.049 2.444 654.487c-2.479-27.503 17.808-51.807 45.31-54.286 27.508-2.47 51.808 17.808 54.287 45.311C125.389 904.612 339.465 1100 600 1100c275.7 0 500-224.299 500-500S875.7 100 600 100c-159.12 0-305.86 74.62-399.446 199.074l65.57 65.57A50 50 0 01230.77 450H50c-27.614 0-50-22.386-50-50V219.23a50 50 0 0185.355-35.355l43.978 43.978A602.522 602.522 0 01284.48 89.57C379.091 30.973 488.196 0 600 0c80.978 0 159.56 15.87 233.563 47.172 71.453 30.222 135.614 73.477 190.701 128.564 55.087 55.087 98.342 119.248 128.565 190.702zM550 250c-27.614 0-50 22.386-50 50v338.461c0 1.96.125 3.888.344 5.788-1.686 14.638 3.072 29.878 14.3 41.106l200 200C724.409 895.12 737.205 900 750 900s25.592-4.881 35.355-14.645c19.526-19.526 19.526-51.184 0-70.71L600 629.289V300c0-27.614-22.386-50-50-50z"/></g>
<view id="home" viewBox="60000 0 1200 1200">
</view>
<g transform="translate(60000,0)"><path d="M1179.408 559.563l-550-400c-17.531-12.75-41.285-12.75-58.816 0l-550 400c-22.333 16.242-27.27 47.513-11.029 69.846 16.242 22.333 47.514 27.27 69.845 11.028L150 589.097V1000c0 27.614 22.386 50 50 50h250c27.614 0 50-22.386 50-50V700h200v300c0 27.614 22.386 50 50 50h250c27.614 0 50-22.386 50-50V589.098l70.592 51.339a49.77 49.77 0 0029.367 9.566c15.453 0 30.693-7.14 40.478-20.594 16.242-22.333 11.304-53.604-11.029-69.846zM950 950H800V650c0-27.614-22.386-50-50-50H450c-27.614 0-50 22.386-50 50v300H250V516.37l350-254.545L950 516.37V950z"/></g>
<view id="html" viewBox="61200 0 1200 1200">
</view>
<g transform="translate(61200,0)"><path d="M261.589 932.009l-250-300c-15.452-18.542-15.452-45.476 0-64.018l250-300c17.677-21.215 49.207-24.08 70.42-6.402 21.214 17.679 24.08 49.206 6.402 70.42L115.085 600l223.326 267.991c17.678 21.214 14.812 52.741-6.402 70.42a49.797 49.797 0 01-31.982 11.59c-14.327 0-28.55-6.125-38.438-17.992zM938.41 267.99c-17.677-21.214-49.206-24.08-70.42-6.402s-24.08 49.206-6.402 70.42L1084.915 600 861.589 867.991c-17.678 21.214-14.812 52.741 6.402 70.42a49.79 49.79 0 0031.982 11.59c14.326 0 28.55-6.126 38.438-17.992l250-300c15.452-18.542 15.452-45.476 0-64.018l-250-300zm-505.967 778.825a49.884 49.884 0 0017.548 3.198c20.244 0 39.297-12.386 46.824-32.458l300-800c9.697-25.856-3.404-54.676-29.26-64.372-25.856-9.698-54.676 3.405-64.372 29.26l-300 800c-9.697 25.856 3.404 54.676 29.26 64.372z"/></g>
<view id="info-circle" viewBox="62400 0 1200 1200">
</view>
<g transform="translate(62400,0)"><path d="M600 1200c-80.978 0-159.56-15.871-233.563-47.172-71.453-30.222-135.614-73.477-190.701-128.563-55.087-55.087-98.342-119.25-128.565-190.703C15.871 759.56 0 680.978 0 600s15.87-159.56 47.171-233.563c30.223-71.453 73.478-135.615 128.565-190.702 55.087-55.086 119.248-98.341 190.702-128.563C440.44 15.872 519.022 0 600 0s159.56 15.871 233.563 47.172c71.453 30.222 135.614 73.477 190.701 128.563 55.087 55.087 98.342 119.25 128.565 190.702C1184.129 440.44 1200 519.023 1200 600s-15.87 159.56-47.171 233.563c-30.223 71.453-73.478 135.615-128.565 190.702-55.087 55.086-119.248 98.341-190.701 128.563C759.558 1184.128 680.977 1200 600 1200zm0-1100c-67.521 0-132.997 13.213-194.607 39.271-59.534 25.181-113.011 61.24-158.946 107.175-45.936 45.936-81.994 99.413-107.175 158.947C113.212 467.003 100 532.479 100 600s13.213 132.997 39.272 194.607c25.18 59.534 61.24 113.011 107.175 158.947 45.935 45.934 99.412 81.994 158.946 107.175C467.003 1086.787 532.479 1100 600 1100s132.997-13.213 194.607-39.271c59.534-25.181 113.011-61.24 158.946-107.175 45.936-45.936 81.994-99.413 107.175-158.947C1086.788 732.997 1100 667.521 1100 600s-13.213-132.997-39.272-194.607c-25.18-59.534-61.24-113.011-107.175-158.947-45.935-45.934-99.412-81.994-158.946-107.175C732.997 113.213 667.521 100 600 100zm50 800V550c0-27.614-22.386-50-50-50s-50 22.386-50 50v350c0 27.614 22.386 50 50 50s50-22.386 50-50zm0-550v-50c0-27.614-22.386-50-50-50s-50 22.386-50 50v50c0 27.614 22.386 50 50 50s50-22.386 50-50z"/></g>
<view id="kanban" viewBox="63600 0 1200 1200">
</view>
<g transform="translate(63600,0)"><path d="M1111.27 100H88.73C39.803 100 0 139.804 0 188.73v822.54c0 48.926 39.804 88.73 88.73 88.73h1022.54c48.926 0 88.73-39.804 88.73-88.73V188.73c0-48.926-39.804-88.73-88.73-88.73zM500 700H100V500h400v200zm0-500v200H100V200h400zM100 800h400v200H100V800zm1000 200H600V200h500v800z"/></g>
<view id="legal" viewBox="64800 0 1200 1200">
</view>
<g transform="translate(64800,0)"><path d="M1016.826 298.748c105.012-8.334 160.339-55.871 166.808-61.75l-67.268-73.995s.183-.176.558-.496C1115.13 164.038 1072.02 200 985 200H650v-50c0-27.614-22.386-50-50-50s-50 22.386-50 50v50H215c-87.023 0-130.13-35.962-131.923-37.492.375.32.558.496.558.496l-67.27 73.992c6.469 5.88 61.793 53.418 166.809 61.752L52.108 735.633A50.002 50.002 0 00100 800h300a49.998 49.998 0 0047.892-64.367L317.202 300H550v700H450c-27.614 0-50 22.386-50 50s22.386 50 50 50h300c27.614 0 50-22.386 50-50s-22.386-50-50-50H650V300h232.798l-130.69 435.633A50.002 50.002 0 00800 800h300a49.998 49.998 0 0047.892-64.367l-131.066-436.885zM167.201 700L250 424.005 332.799 700H167.2zm700 0L950 424.005 1032.799 700H867.2zM400 900c0 27.614-22.386 50-50 50H150c-27.614 0-50-22.386-50-50s22.386-50 50-50h200c27.614 0 50 22.386 50 50zm700 0c0 27.614-22.386 50-50 50H850c-27.614 0-50-22.386-50-50s22.386-50 50-50h200c27.614 0 50 22.386 50 50z"/></g>
<view id="line-chart" viewBox="66000 0 1200 1200">
</view>
<g transform="translate(66000,0)"><path d="M1150 1100H50c-27.614 0-50-22.386-50-50V150c0-27.614 22.386-50 50-50s50 22.386 50 50v850h1050c27.614 0 50 22.386 50 50s-22.386 50-50 50zM235.355 835.355L503.711 567l215.054 172.043c20.894 16.716 51.244 14.02 68.864-6.118l350-400c18.184-20.782 16.078-52.37-4.704-70.554-20.782-18.184-52.37-16.079-70.554 4.704L743.876 631.07 531.235 460.957c-19.895-15.916-48.575-14.328-66.59 3.688l-300 300c-19.527 19.526-19.527 51.184 0 70.71C174.408 845.118 187.204 850 200 850s25.592-4.882 35.355-14.645z"/></g>
<view id="link" viewBox="67200 0 1200 1200">
</view>
<g transform="translate(67200,0)"><path d="M638.29 800.455c-61.017 0-122.564-20.888-170.935-62.583-20.917-18.03-23.256-49.601-5.227-70.517 18.029-20.916 49.601-23.257 70.517-5.227 57.538 49.596 148.612 51.114 203.785 3.641l271.694-271.693c55.746-55.746 55.746-146.453 0-202.2-27.005-27.004-62.91-41.876-101.1-41.876s-74.095 14.872-101.1 41.876l-.31.309-120.57 118.478c-19.695 19.356-51.353 19.078-70.707-.618-19.355-19.696-19.078-51.354.618-70.708l120.41-118.321C781.238 75.219 842.192 50 907.022 50c64.902 0 125.919 25.274 171.811 71.166 45.892 45.892 71.166 106.909 71.166 171.81s-25.273 125.918-71.166 171.81l-272.91 272.91a49.93 49.93 0 01-2.322 2.18c-45.919 40.411-105.36 60.579-165.312 60.579zm-173.667 278.543l120.422-118.335c19.696-19.355 19.973-51.012.618-70.708-19.354-19.695-51.01-19.974-70.708-.618l-120.569 118.479a46.12 46.12 0 00-.31.308c-27.005 27.004-62.91 41.876-101.1 41.876s-74.095-14.873-101.1-41.877C164.872 981.118 150 945.213 150 907.023s14.872-74.094 41.876-101.099l271.457-271.456c56.844-47.526 147.761-46.32 203.554 2.994 20.692 18.29 52.29 16.34 70.576-4.35 18.288-20.69 16.34-52.289-4.35-70.577-93.777-82.886-241.47-84.127-336.238-2.825a50 50 0 00-2.8 2.593l-272.91 272.91C75.275 781.107 50 842.124 50 907.024s25.273 125.919 71.166 171.811c45.893 45.893 106.91 71.166 171.81 71.166 64.822 0 125.774-25.216 171.647-71.002z"/></g>
<view id="location" viewBox="68400 0 1200 1200">
</view>
<g transform="translate(68400,0)"><path d="M918.345 132.925c-41.307-41.65-89.43-74.36-143.032-97.22C719.763 12.012 660.78 0 600 0S480.237 12.013 424.687 35.704c-53.602 22.86-101.725 55.57-143.032 97.22-41.277 41.623-73.687 90.096-96.329 144.072C161.886 332.88 150 392.207 150 453.333c0 74.378 22.651 159.847 67.324 254.031 34.503 72.745 82.36 151.376 142.24 233.711 101.083 138.99 200.742 239.905 204.934 244.133a50 50 0 0071.004 0c4.192-4.228 103.85-105.143 204.935-244.133 59.88-82.335 107.736-160.966 142.239-233.71C1027.349 613.18 1050 527.71 1050 453.332c0-61.126-11.886-120.454-35.326-176.337-22.642-53.976-55.052-102.45-96.33-144.071zm-318.376 944.137c-37.178-40.649-98.52-110.914-159.532-194.804C315.853 710.954 250 562.634 250 453.333 250 258.505 407.01 100 600 100s350 158.505 350 353.333c0 219.932-254.65 519.317-350.031 623.729zM600 200c-66.777 0-129.558 26.005-176.776 73.224S350 383.223 350 450s26.005 129.558 73.224 176.776S533.223 700 600 700s129.558-26.005 176.776-73.224S850 516.777 850 450s-26.005-129.558-73.224-176.776S666.777 200 600 200zm0 400c-82.71 0-150-67.29-150-150s67.29-150 150-150 150 67.29 150 150-67.29 150-150 150z"/></g>
<view id="lock" viewBox="69600 0 1200 1200">
</view>
<g transform="translate(69600,0)"><path d="M1013.763 450H950V250c0-110.28-89.72-200-200-200H450c-110.28 0-200 89.72-200 200v200h-63.763C138.686 450 100 488.686 100 536.237v527.526c0 47.551 38.686 86.237 86.237 86.237h827.526c47.551 0 86.237-38.686 86.237-86.237V536.237c0-47.551-38.686-86.237-86.237-86.237zM350 250c0-55.14 44.86-100 100-100h300c55.14 0 100 44.86 100 100v200H350V250zm650 800H200V550h800v500zM450 650c0-27.614 22.386-50 50-50h200c27.614 0 50 22.386 50 50s-22.386 50-50 50h-50v100c0 27.614-22.386 50-50 50s-50-22.386-50-50V700h-50c-27.614 0-50-22.386-50-50z"/></g>
<view id="magnify" viewBox="70800 0 1200 1200">
</view>
<g transform="translate(70800,0)"><path d="M808.81 738.1c23.525-29.772 42.885-62.46 57.771-97.656C888.756 588.016 900 532.353 900 475s-11.244-113.016-33.419-165.444c-21.408-50.616-52.045-96.061-91.06-135.077s-84.461-69.652-135.077-91.06C588.016 61.244 532.353 50 475 50S361.984 61.244 309.556 83.419c-50.616 21.408-96.061 52.045-135.077 91.06s-69.652 84.461-91.06 135.077C61.244 361.984 50 417.647 50 475s11.244 113.016 33.42 165.444c21.407 50.616 52.044 96.061 91.06 135.077s84.46 69.652 135.076 91.06C361.984 888.756 417.647 900 475 900s113.016-11.244 165.444-33.419c35.196-14.886 67.884-34.246 97.656-57.77l301.545 301.544c9.763 9.764 22.56 14.645 35.355 14.645s25.592-4.881 35.355-14.645c19.526-19.526 19.526-51.184 0-70.71L808.811 738.1zM475 800c-179.206 0-325-145.794-325-325s145.794-325 325-325 325 145.794 325 325-145.794 325-325 325z"/></g>
<view id="mail" viewBox="72000 0 1200 1200">
</view>
<g transform="translate(72000,0)"><path d="M1150 100H50c-27.614 0-50 22.386-50 50v900c0 27.614 22.386 50 50 50h1100c27.614 0 50-22.386 50-50V150c0-27.614-22.386-50-50-50zm-50 100v151.88L603.4 650h-6.8L100 351.88V200h1000zM100 1000V468.516l457.01 274.352A49.998 49.998 0 00582.745 750h34.51a49.998 49.998 0 0025.735-7.132L1100 468.516V1000H100z"/></g>
<view id="merge" viewBox="73200 0 1200 1200">
</view>
<g transform="translate(73200,0)"><path d="M450 250c0-110.28-89.72-200-200-200S50 139.72 50 250c0 93.022 63.836 171.413 150 193.672v312.656C113.836 778.587 50 856.978 50 950c0 110.28 89.72 200 200 200s200-89.72 200-200c0-93.022-63.836-171.413-150-193.672V443.672C386.164 421.413 450 343.022 450 250zm-300 0c0-55.14 44.86-100 100-100s100 44.86 100 100-44.86 100-100 100-100-44.86-100-100zm200 700c0 55.14-44.86 100-100 100s-100-44.86-100-100 44.86-100 100-100 100 44.86 100 100zm650-193.672V369.022c0-43.933-16.901-85.809-47.59-117.914C920.903 218.15 879.145 200 834.823 200H672.332l63.468-65.095c19.277-19.772 18.877-51.428-.895-70.705s-51.426-18.878-70.705.895l-150 153.846a50 50 0 00.906 70.717l150 146.154c9.722 9.471 22.311 14.188 34.89 14.188 13.014 0 26.017-5.05 35.816-15.107 19.27-19.778 18.859-51.434-.918-70.705L669.016 300h165.808c16.755 0 32.842 7.176 45.298 20.207C892.755 333.422 900 351.214 900 369.022v387.306C813.836 778.587 750 856.978 750 950c0 110.28 89.72 200 200 200s200-89.72 200-200c0-93.022-63.836-171.413-150-193.672zM950 1050c-55.14 0-100-44.86-100-100s44.86-100 100-100 100 44.86 100 100-44.86 100-100 100z"/></g>
<view id="pause" viewBox="74400 0 1200 1200">
</view>
<g transform="translate(74400,0)"><path d="M450 50H100c-27.614 0-50 22.386-50 50v1000c0 27.614 22.386 50 50 50h350c27.614 0 50-22.386 50-50V100c0-27.614-22.386-50-50-50zm-50 1000H150V150h250v900zM1100 50H750c-27.614 0-50 22.386-50 50v1000c0 27.614 22.386 50 50 50h350c27.614 0 50-22.386 50-50V100c0-27.614-22.386-50-50-50zm-50 1000H800V150h250v900z"/></g>
<view id="pen" viewBox="75600 0 1200 1200">
</view>
<g transform="translate(75600,0)"><path d="M1084.944 111.244c-81.528-81.528-214.184-81.527-295.713 0l-76.272 76.272-486.516 486.515c-61.152 61.153-107.607 133.427-138.076 214.814-25.457 68-38.365 139.043-38.365 211.155 0 27.614 22.386 50 50 50 72.109 0 143.148-12.907 211.146-38.361l.01-.004c81.388-30.47 153.662-76.926 214.813-138.077l486.515-486.515 76.272-76.272.315-.318.927-.944c38.924-39.59 60.231-91.967 59.996-147.485-.235-55.517-21.985-107.712-61.24-146.967l-3.812-3.813zM455.26 902.847c-43.501 43.502-93.774 78.089-149.787 103.097L194.059 894.529c25.007-56.012 59.593-106.285 103.095-149.787l451.16-451.16L906.42 451.689l-451.16 451.16zm563.416-563.43l-41.546 41.56-158.105-158.105 40.917-40.917c42.538-42.538 111.753-42.538 154.29-.002l3.809 3.81.002.002c42.18 42.18 42.471 111.1.633 153.652z"/></g>
<view id="phone" viewBox="76800 0 1200 1200">
</view>
<g transform="translate(76800,0)"><path d="M935.355 714.645c-19.527-19.526-51.183-19.526-70.71 0l-68.994 68.994C644.785 665.9 522.662 544.019 416 404.712l69.356-69.357c19.527-19.526 19.527-51.184 0-70.71l-200-200c-19.527-19.526-51.183-19.526-70.71 0l-150 150a50.002 50.002 0 00-12.995 48.097c26.154 99.234 68.033 199.559 121.113 290.13 56.402 96.243 126.096 186.14 207.145 267.195 81.25 81.255 171.022 150.945 266.838 207.141.074.044.148.088.222.13 90.193 52.874 190.571 94.719 290.284 121.01a50.003 50.003 0 0048.104-12.992l150-150c19.526-19.527 19.526-51.185 0-70.711l-200-200zm-.056 329.346c-81.86-24.11-163.453-59.383-237.58-102.816l-.182-.108c-88.552-51.913-171.626-116.413-246.916-191.709-75.027-75.033-139.485-158.152-191.583-247.048-43.648-74.478-78.991-156.078-103.027-237.61L250 170.71 379.29 300l-64.645 64.645c-17.448 17.447-19.56 45.012-4.973 64.913 61.953 84.527 127.991 161.803 201.888 236.245 77.592 78.166 162.09 151.471 258.317 224.105 19.907 15.025 47.842 13.083 65.478-4.553L900 820.711 1029.29 950l-93.991 93.991z"/></g>
<view id="play-circle" viewBox="78000 0 1200 1200">
</view>
<g transform="translate(78000,0)"><path d="M600 1200c-80.978 0-159.56-15.87-233.563-47.172-71.453-30.222-135.615-73.477-190.702-128.564-55.086-55.087-98.341-119.248-128.563-190.702C15.872 759.56 0 680.977 0 600s15.871-159.56 47.172-233.562c30.222-71.454 73.477-135.615 128.563-190.702 55.087-55.087 119.25-98.342 190.702-128.564C440.44 15.87 519.023 0 600 0s159.56 15.87 233.563 47.172c71.453 30.222 135.615 73.477 190.702 128.564 55.086 55.087 98.341 119.248 128.563 190.702C1184.128 440.44 1200 519.023 1200 600s-15.871 159.56-47.172 233.562c-30.222 71.454-73.477 135.615-128.563 190.702-55.087 55.087-119.25 98.342-190.703 128.564C759.56 1184.13 680.979 1200 600 1200zm0-1100c-67.521 0-132.997 13.213-194.607 39.272-59.534 25.18-113.011 61.24-158.947 107.175-45.934 45.935-81.994 99.412-107.175 158.946C113.213 467.003 100 532.478 100 600s13.213 132.997 39.271 194.607c25.181 59.534 61.24 113.011 107.175 158.946 45.936 45.936 99.413 81.994 158.947 107.175C467.003 1086.788 532.479 1100 600 1100s132.997-13.213 194.607-39.272c59.534-25.18 113.011-61.24 158.947-107.175 45.934-45.935 81.994-99.412 107.175-158.946C1086.787 732.997 1100 667.522 1100 600s-13.213-132.997-39.271-194.607c-25.181-59.534-61.24-113.011-107.175-158.946-45.936-45.936-99.413-81.994-158.947-107.175C732.997 113.212 667.521 100 600 100zM500 850a50.001 50.001 0 01-50-50V400a50.001 50.001 0 0174.807-43.412l350 200a50 50 0 010 86.824l-350 200A49.968 49.968 0 01500 850zm50-363.841V713.84L749.222 600 550 486.159z"/></g>
<view id="play" viewBox="79200 0 1200 1200">
</view>
<g transform="translate(79200,0)"><path d="M73.714 1142.532a49.974 49.974 0 0026.288 7.468 49.98 49.98 0 0022.359-5.278l1000-500a50 50 0 000-89.444l-1000-500A50 50 0 0050 100v1000a49.999 49.999 0 0023.714 42.532zM150 180.902L988.197 600 150 1019.099V180.9z"/></g>
<view id="plus" viewBox="80400 0 1200 1200">
</view>
<g transform="translate(80400,0)"><path d="M1150 600c0 27.614-22.386 50-50 50H650v450c0 27.614-22.386 50-50 50s-50-22.386-50-50V650H100c-27.614 0-50-22.386-50-50s22.386-50 50-50h450V100c0-27.614 22.386-50 50-50s50 22.386 50 50v450h450c27.614 0 50 22.386 50 50z"/></g>
<view id="print" viewBox="81600 0 1200 1200">
</view>
<g transform="translate(81600,0)"><path d="M1066.667 300H950V133.333C950 87.383 912.617 50 866.667 50H333.333C287.383 50 250 87.383 250 133.333V300H133.333C87.383 300 50 336.849 50 382.143v385.714C50 813.151 87.383 850 133.333 850H250v247.172c0 29.13 23.699 52.828 52.829 52.828H897.17c29.13 0 52.829-23.698 52.829-52.828V850h116.667c45.95 0 83.333-36.849 83.333-82.143V382.143c0-45.294-37.383-82.143-83.333-82.143zM350 150h500v150H350V150zm500 649.749c0 .084-.006.167-.006.251s.006.167.006.251V1050H350V700h500v99.749zM1050 750H950V650c0-27.614-22.386-50-50-50H300c-27.614 0-50 22.386-50 50v100H150V400h900v350zm-650 50c0-27.614 22.386-50 50-50h300c27.614 0 50 22.386 50 50s-22.386 50-50 50H450c-27.614 0-50-22.386-50-50zm350-300c0-27.614 22.386-50 50-50h100c27.614 0 50 22.386 50 50s-22.386 50-50 50H800c-27.614 0-50-22.386-50-50zM400 950c0-27.614 22.386-50 50-50h100c27.614 0 50 22.386 50 50s-22.386 50-50 50H450c-27.614 0-50-22.386-50-50z"/></g>
<view id="question-circle" viewBox="82800 0 1200 1200">
</view>
<g transform="translate(82800,0)"><path d="M600 1200c-80.978 0-159.56-15.87-233.563-47.171-71.453-30.223-135.615-73.478-190.702-128.565-55.086-55.087-98.341-119.248-128.563-190.701C15.872 759.558 0 680.977 0 600s15.871-159.56 47.172-233.563c30.222-71.453 73.477-135.614 128.563-190.701 55.087-55.087 119.25-98.342 190.702-128.565C440.44 15.871 519.023 0 600 0s159.56 15.87 233.563 47.171c71.453 30.223 135.615 73.478 190.702 128.565 55.086 55.087 98.341 119.248 128.563 190.702C1184.128 440.44 1200 519.022 1200 600s-15.871 159.56-47.172 233.563c-30.222 71.453-73.477 135.614-128.563 190.701-55.087 55.087-119.25 98.342-190.703 128.565C759.56 1184.129 680.979 1200 600 1200zm0-1100c-67.521 0-132.997 13.213-194.607 39.272-59.534 25.18-113.011 61.24-158.947 107.175-45.934 45.935-81.994 99.412-107.175 158.946C113.213 467.003 100 532.479 100 600s13.213 132.997 39.271 194.607c25.181 59.534 61.24 113.011 107.175 158.946 45.936 45.936 99.413 81.994 158.947 107.175C467.003 1086.788 532.479 1100 600 1100s132.997-13.213 194.607-39.272c59.534-25.18 113.011-61.24 158.947-107.175 45.934-45.935 81.994-99.412 107.175-158.946C1086.787 732.997 1100 667.521 1100 600s-13.213-132.997-39.271-194.607c-25.181-59.534-61.24-113.011-107.175-158.946-45.936-45.936-99.413-81.994-158.947-107.175C732.997 113.212 667.521 100 600 100zm50 600c0-10.75 10.95-24.226 20.137-33.638 18.072-18.517 44.42-37.202 67.666-53.687C807.07 563.554 850 515.025 850 425c0-61.173-24.327-117.653-68.499-159.037C735.439 222.81 672.678 200 600 200c-35.451 0-69.027 5.2-99.796 15.457-29.703 9.9-56.195 24.274-78.741 42.72C376.047 295.335 350 347.027 350 400c0 27.614 22.386 50 50 50s50-22.386 50-50c0-22.856 12.68-46.339 34.787-64.427C512.824 312.633 553.741 300 600 300c46.82 0 85.94 13.465 113.13 38.94C736.907 361.213 750 391.776 750 425c0 41.646-10.582 63.937-70.043 106.104C622.057 572.164 550 623.264 550 700c0 27.614 22.386 50 50 50s50-22.386 50-50zm0 250v-50c0-27.614-22.386-50-50-50s-50 22.386-50 50v50c0 27.614 22.386 50 50 50s50-22.386 50-50z"/></g>
<view id="radiobox-off" viewBox="84000 0 1200 1200">
</view>
<g transform="translate(84000,0)"><path d="M1024.264 175.735C969.177 120.65 905.016 77.394 833.562 47.172 759.56 15.872 680.977 0 600 0S440.44 15.871 366.438 47.172c-71.454 30.222-135.615 73.477-190.702 128.563-55.087 55.087-98.342 119.25-128.564 190.702C15.87 440.44 0 519.023 0 600s15.87 159.56 47.172 233.563c30.222 71.453 73.477 135.615 128.564 190.702 55.087 55.086 119.248 98.341 190.702 128.563C440.44 1184.128 519.023 1200 600 1200s159.56-15.871 233.562-47.172c71.454-30.222 135.615-73.477 190.702-128.563 55.087-55.087 98.342-119.25 128.564-190.703C1184.13 759.56 1200 680.979 1200 600s-15.87-159.56-47.172-233.563c-30.222-71.453-73.477-135.615-128.564-190.702zM600 1100c-275.701 0-500-224.299-500-500s224.299-500 500-500 500 224.299 500 500-224.299 500-500 500z"/></g>
<view id="radiobox-on" viewBox="85200 0 1200 1200">
</view>
<g transform="translate(85200,0)"><path d="M1024.264 175.735C969.177 120.65 905.016 77.394 833.563 47.172 759.558 15.872 680.977 0 600 0S440.44 15.871 366.437 47.172c-71.453 30.222-135.614 73.477-190.701 128.563-55.087 55.087-98.342 119.25-128.564 190.702C15.87 440.44 0 519.023 0 600s15.87 159.56 47.172 233.563c30.222 71.453 73.477 135.615 128.564 190.702 55.087 55.086 119.248 98.341 190.702 128.563C440.44 1184.128 519.022 1200 600 1200s159.56-15.871 233.563-47.172c71.453-30.222 135.614-73.477 190.701-128.563 55.087-55.087 98.342-119.25 128.565-190.703C1184.129 759.56 1200 680.979 1200 600s-15.87-159.56-47.171-233.563c-30.223-71.453-73.478-135.615-128.565-190.702zM600 1100c-275.701 0-500-224.299-500-500s224.299-500 500-500 500 224.299 500 500-224.299 500-500 500zm247.487-747.487c-32.127-32.127-69.552-57.357-111.236-74.988C693.069 259.261 647.228 250 600 250s-93.07 9.26-136.251 27.525c-41.684 17.631-79.11 42.86-111.236 74.988-32.128 32.127-57.357 69.552-74.988 111.236C259.261 506.931 250 552.772 250 600s9.26 93.07 27.525 136.251c17.63 41.684 42.86 79.11 74.988 111.236 32.127 32.127 69.552 57.357 111.236 74.988C506.931 940.739 552.772 950 600 950s93.07-9.26 136.251-27.525c41.684-17.631 79.11-42.86 111.236-74.988 32.128-32.127 57.357-69.552 74.988-111.236C940.739 693.069 950 647.228 950 600s-9.26-93.07-27.525-136.251c-17.63-41.684-42.86-79.11-74.988-111.236zM600 850c-137.85 0-250-112.15-250-250s112.15-250 250-250 250 112.15 250 250-112.15 250-250 250z"/></g>
<view id="radiobox-semi" viewBox="86400 0 1200 1200">
</view>
<g transform="translate(86400,0)"><path d="M600 1200c-80.977 0-159.56-15.871-233.562-47.172-71.454-30.222-135.615-73.477-190.702-128.563-55.087-55.087-98.342-119.25-128.564-190.703C15.87 759.56 0 680.978 0 600s15.87-159.56 47.172-233.563c30.222-71.453 73.477-135.615 128.564-190.702 55.087-55.086 119.248-98.341 190.702-128.563C440.44 15.872 519.023 0 600 0s159.56 15.871 233.562 47.172c71.454 30.222 135.615 73.477 190.702 128.563 55.087 55.087 98.342 119.25 128.564 190.702C1184.13 440.44 1200 519.023 1200 600s-15.87 159.56-47.172 233.563c-30.222 71.453-73.477 135.615-128.564 190.702-55.087 55.086-119.248 98.341-190.702 128.563C759.56 1184.128 680.977 1200 600 1200zm0-1100c-67.522 0-132.997 13.213-194.607 39.271-59.534 25.181-113.011 61.24-158.946 107.175-45.936 45.936-81.994 99.413-107.175 158.947C113.212 467.003 100 532.479 100 600s13.213 132.997 39.272 194.607c25.18 59.534 61.24 113.011 107.175 158.947 45.935 45.934 99.412 81.994 158.946 107.175C467.003 1086.787 532.478 1100 600 1100s132.997-13.213 194.607-39.271c59.534-25.181 113.011-61.24 158.946-107.175 45.936-45.936 81.994-99.413 107.175-158.947C1086.788 732.997 1100 667.521 1100 600s-13.213-132.997-39.272-194.607c-25.18-59.534-61.24-113.011-107.175-158.947-45.935-45.934-99.412-81.994-158.946-107.175C732.997 113.213 667.522 100 600 100zm0 850c-47.228 0-93.07-9.26-136.251-27.525-41.684-17.631-79.11-42.86-111.236-74.988s-57.357-69.552-74.988-111.236C259.261 693.069 250 647.228 250 600s9.26-93.07 27.525-136.251c17.631-41.684 42.86-79.11 74.988-111.236s69.552-57.357 111.236-74.988C506.93 259.261 552.772 250 600 250c27.614 0 50 22.386 50 50v600c0 27.614-22.386 50-50 50zm-50-595.03c-47.715 9.634-91.57 33.047-126.777 68.254C376.005 470.442 350 533.223 350 600s26.005 129.558 73.223 176.776c35.207 35.207 79.062 58.62 126.777 68.253V354.971z"/></g>
<view id="redo" viewBox="87600 0 1200 1200">
</view>
<g transform="translate(87600,0)"><path d="M1200 600c0 80.978-15.87 159.56-47.171 233.563-30.223 71.453-73.478 135.615-128.565 190.702-55.087 55.086-119.248 98.341-190.701 128.563C759.558 1184.128 680.977 1200 600 1200s-159.56-15.871-233.563-47.172c-71.453-30.222-135.614-73.477-190.701-128.563-55.087-55.087-98.342-119.25-128.565-190.703C15.871 759.56 0 680.978 0 600s15.87-159.56 47.171-233.563c30.223-71.453 73.478-135.615 128.565-190.702 55.087-55.086 119.248-98.341 190.702-128.563C440.44 15.872 519.022 0 600 0c119.054 0 233.392 34.992 330.306 98.983l84.339-84.338A50.001 50.001 0 011100 50v250c0 27.614-22.386 50-50 50H800a50 50 0 01-46.194-30.866 50 50 0 0110.839-54.49l93.161-93.162C780.915 125.163 692.15 100 600 100c-275.701 0-500 224.299-500 500s224.299 500 500 500 500-224.299 500-500c0-27.614 22.386-50 50-50s50 22.386 50 50z"/></g>
<view id="sad" viewBox="88800 0 1200 1200">
</view>
<g transform="translate(88800,0)"><path d="M600 1200c-80.978 0-159.56-15.871-233.563-47.172-71.453-30.222-135.615-73.477-190.702-128.563-55.086-55.087-98.341-119.25-128.563-190.703C15.872 759.56 0 680.978 0 600s15.871-159.56 47.172-233.563c30.222-71.453 73.477-135.615 128.563-190.702 55.087-55.086 119.25-98.341 190.702-128.563C440.44 15.872 519.023 0 600 0s159.56 15.871 233.563 47.172c71.453 30.222 135.615 73.477 190.702 128.563 55.086 55.087 98.341 119.25 128.563 190.702C1184.128 440.44 1200 519.023 1200 600s-15.871 159.56-47.172 233.563c-30.222 71.453-73.477 135.615-128.563 190.702-55.087 55.086-119.25 98.341-190.703 128.563C759.56 1184.128 680.979 1200 600 1200zm0-1100c-67.521 0-132.997 13.213-194.607 39.271-59.534 25.181-113.011 61.24-158.947 107.175-45.934 45.936-81.994 99.413-107.175 158.947C113.213 467.003 100 532.479 100 600s13.213 132.997 39.271 194.607c25.181 59.534 61.24 113.011 107.175 158.947 45.936 45.934 99.413 81.994 158.947 107.175C467.003 1086.787 532.479 1100 600 1100s132.997-13.213 194.607-39.271c59.534-25.181 113.011-61.24 158.947-107.175 45.934-45.936 81.994-99.413 107.175-158.947C1086.787 732.997 1100 667.521 1100 600s-13.213-132.997-39.271-194.607c-25.181-59.534-61.24-113.011-107.175-158.947-45.936-45.934-99.413-81.994-158.947-107.175C732.997 113.213 667.521 100 600 100zm272.36 794.722c24.7-12.35 34.711-42.384 22.362-67.082-12.433-24.865-43.868-61.15-123.028-92.814C716.364 712.693 653.784 700 600 700s-116.363 12.693-171.694 34.826c-79.16 31.664-110.595 67.95-123.028 92.814-12.35 24.698-2.338 54.732 22.362 67.082 24.698 12.347 54.731 2.338 67.082-22.362 2.658-5.317 21.358-24.94 70.722-44.686C508.766 810.346 559.067 800 600 800s91.234 10.346 134.556 27.674c49.364 19.746 68.064 39.369 70.722 44.686 8.762 17.523 26.418 27.65 44.761 27.65a49.808 49.808 0 0022.321-5.288zM450 550V400c0-27.614-22.386-50-50-50s-50 22.386-50 50v150c0 27.614 22.386 50 50 50s50-22.386 50-50zm400 0V400c0-27.614-22.386-50-50-50s-50 22.386-50 50v150c0 27.614 22.386 50 50 50s50-22.386 50-50z"/></g>
<view id="save" viewBox="90000 0 1200 1200">
</view>
<g transform="translate(90000,0)"><path d="M1135.355 364.645l-300-300A50 50 0 00800 50H100c-27.614 0-50 22.386-50 50v1000c0 27.614 22.386 50 50 50h1000c27.614 0 50-22.386 50-50V400a50 50 0 00-14.645-35.355zM500 150v200H400V150h100zm-100 900V688.461h400V1050H400zm650 0H900V638.461c0-27.614-22.386-50-50-50H350c-27.614 0-50 22.386-50 50V1050H150V150h150v250c0 27.614 22.386 50 50 50h200c27.614 0 50-22.386 50-50V150h179.29L1050 420.71V1050z"/></g>
<view id="shield" viewBox="91200 0 1200 1200">
</view>
<g transform="translate(91200,0)"><path d="M600 1200c-3.284 0-6.57-.324-9.806-.971-66.914-13.383-132.011-40.702-193.482-81.2-57.566-37.924-109.562-85.736-154.544-142.108-44.179-55.364-79.054-115.752-103.657-179.488C112.957 730.034 100 664.012 100 600V150c0-27.614 22.386-50 50-50 67.335 0 174.357-8.173 301.832-47.11 76.984-23.515 125.38-47.4 125.86-47.638 14.114-7.056 30.57-7.064 44.668.027.428.212 48.824 24.096 125.808 47.61C818.528 74.382 928.008 100 1050 100c27.614 0 50 22.386 50 50v450c0 64.012-12.957 130.034-38.51 196.233-24.604 63.736-59.48 124.124-103.658 179.488-44.982 56.372-96.978 104.184-154.544 142.108-61.47 40.498-126.568 67.817-193.482 81.2A49.997 49.997 0 01600 1200zM200 198.734V600c0 103.302 43.86 217.514 120.332 313.349 38.415 48.141 82.622 88.842 131.394 120.973 47.608 31.365 97.443 53.057 148.274 64.56 50.831-11.503 100.666-33.195 148.274-64.56 48.772-32.13 92.979-72.832 131.394-120.973C956.141 817.514 1000 703.302 1000 600V198.734c-114.847-5.758-215.716-30.102-283.454-50.945C663.64 131.51 623.26 115.179 600 105.01c-23.26 10.168-63.64 26.5-116.546 42.779-67.738 20.843-168.607 45.187-283.454 50.945zM650 650V300c0-27.614-22.386-50-50-50s-50 22.386-50 50v350c0 27.614 22.386 50 50 50s50-22.386 50-50zm0 250v-50c0-27.614-22.386-50-50-50s-50 22.386-50 50v50c0 27.614 22.386 50 50 50s50-22.386 50-50z"/></g>
<view id="shift" viewBox="92400 0 1200 1200">
</view>
<g transform="translate(92400,0)"><path d="M850 1200H350c-27.614 0-50-22.386-50-50V700H50a50 50 0 01-36.857-83.786l550-600a50 50 0 0173.714 0l550 600A50 50 0 011150 700H900v450c0 27.614-22.386 50-50 50zm-450-100h400V650c0-27.614 22.386-50 50-50h186.338L600 123.995 163.662 600H350c27.614 0 50 22.386 50 50v450z"/></g>
<view id="smiley" viewBox="93600 0 1200 1200">
</view>
<g transform="translate(93600,0)"><path d="M175.735 1024.265c55.087 55.086 119.25 98.341 190.702 128.563C440.44 1184.128 519.023 1200 600 1200s159.56-15.871 233.563-47.172c71.453-30.222 135.615-73.477 190.702-128.563 55.086-55.087 98.341-119.25 128.563-190.703C1184.128 759.56 1200 680.979 1200 600s-15.871-159.56-47.172-233.563c-30.222-71.453-73.477-135.615-128.563-190.702-55.087-55.086-119.25-98.341-190.703-128.563C759.56 15.872 680.978 0 600 0S440.44 15.871 366.437 47.172c-71.453 30.222-135.615 73.477-190.702 128.563-55.086 55.087-98.341 119.25-128.563 190.702C15.872 440.44 0 519.023 0 600s15.871 159.56 47.172 233.563c30.222 71.453 73.477 135.615 128.563 190.702zM600 100c275.701 0 500 224.299 500 500s-224.299 500-500 500-500-224.299-500-500 224.299-500 500-500zM305.278 822.36c-12.35-24.698-2.338-54.732 22.362-67.082 24.698-12.35 54.731-2.338 67.082 22.362 2.658 5.317 21.358 24.94 70.722 44.686C508.766 839.654 559.067 850 600 850s91.234-10.346 134.556-27.674c49.364-19.746 68.064-39.369 70.722-44.686 12.35-24.7 42.382-34.71 67.082-22.362 24.7 12.35 34.711 42.384 22.362 67.082-22.525 45.048-79.335 75.337-123.028 92.814C716.364 937.307 653.784 950 600 950s-116.363-12.693-171.694-34.826c-43.693-17.477-100.503-47.766-123.028-92.814zM350 550V400c0-27.614 22.386-50 50-50s50 22.386 50 50v150c0 27.614-22.386 50-50 50s-50-22.386-50-50zm400 0V400c0-27.614 22.386-50 50-50s50 22.386 50 50v150c0 27.614-22.386 50-50 50s-50-22.386-50-50z"/></g>
<view id="star-fill" viewBox="94800 0 1200 1200">
</view>
<g transform="translate(94800,0)"><path d="M1195.372 457.334c-10.077-31.01-34.981-54.231-66.622-62.116l-2.33-.58-288.451-43.075-158.122-257.1-.183-.295C662.39 66.511 632.608 50 600 50s-62.39 16.51-79.664 44.168L362.03 351.562l-286.077 42.72-2.375.356-2.33.58c-31.64 7.885-56.544 31.105-66.621 62.116-10.076 31.012-3.576 64.437 17.387 89.413l3.109 3.704 224.13 181.135-48.873 315.778-.146 2.086c-2.28 32.529 12.108 63.39 38.489 82.557 26.38 19.167 60.18 23.313 90.41 11.095l2.313-.936L600 1001.033l268.553 141.133 2.314.936c11.466 4.634 23.44 6.915 35.333 6.914 19.464-.001 38.702-6.112 55.076-18.01 26.38-19.165 40.769-50.027 38.489-82.556l-.146-2.086-48.874-315.778 224.131-181.135 3.109-3.704c20.963-24.976 27.463-58.401 17.387-89.413zM875.094 664.15l-3.109 3.704c-15.74 18.752-23.467 42.53-21.755 66.956l.146 2.085 47.637 307.785-258.29-135.739-2.21-1.16-2.313-.936c-11.35-4.587-23.275-6.881-35.2-6.881s-23.85 2.294-35.2 6.88l-2.314.936-260.499 136.9 47.637-307.785.146-2.085c1.712-24.425-6.014-48.204-21.755-66.956l-3.109-3.704L109.83 490.333l276.135-41.236 2.33-.58c23.756-5.92 43.982-20.616 56.954-41.38L600 155.522l154.567 251.32.184.297c12.972 20.763 33.198 35.459 56.954 41.379l2.33.58 276.135 41.236L875.094 664.15zM832.39 569.67c6.396 26.863-10.196 53.825-37.059 60.222l-112.994 26.903 72.679 106.222c15.593 22.79 9.758 53.906-13.032 69.5a49.778 49.778 0 01-28.19 8.739c-15.95 0-31.623-7.613-41.31-21.77L600 713.544l-72.484 105.94c-9.686 14.156-25.362 21.77-41.31 21.77-9.728 0-19.556-2.832-28.19-8.74-22.79-15.593-28.625-46.71-13.032-69.5l72.679-106.221-112.994-26.903c-26.863-6.397-43.455-33.359-37.06-60.222 6.397-26.862 33.363-43.451 60.222-37.06L550 561.697V450c0-27.614 22.386-50 50-50s50 22.386 50 50v111.697l122.169-29.088c26.861-6.399 53.825 10.196 60.221 37.06z"/></g>
<view id="star" viewBox="96000 0 1200 1200">
</view>
<g transform="translate(96000,0)"><path d="M906.2 1150.016c-11.893 0-23.868-2.28-35.334-6.914l-2.313-.936L600 1001.034l-268.553 141.132-2.313.936c-30.23 12.22-64.029 8.072-90.41-11.094-26.38-19.166-40.769-50.028-38.49-82.556l.147-2.086.32-2.067 48.554-313.713L25.124 550.451l-3.108-3.703c-20.964-24.976-27.464-58.4-17.388-89.413 10.076-31.012 34.981-54.233 66.622-62.117l2.33-.58 288.451-43.076L520.336 94.167C537.61 66.511 567.393 50 600 50s62.389 16.511 79.664 44.167l.183.295 158.122 257.1 288.452 43.075 2.329.581c31.64 7.884 56.546 31.105 66.622 62.117 10.076 31.012 3.576 64.437-17.388 89.413l-3.108 3.703-224.13 181.135 48.873 315.78.147 2.086c2.279 32.528-12.11 63.39-38.49 82.556-16.376 11.897-35.613 18.007-55.077 18.008zM600 899.964c11.926 0 23.85 2.294 35.2 6.882l2.314.935 260.499 136.9-47.637-307.787-.147-2.087c-1.71-24.424 6.016-48.202 21.757-66.954l3.108-3.702 215.077-173.818-276.136-41.236-2.33-.58c-23.757-5.92-43.983-20.615-56.954-41.38l-.184-.296L600 155.521 445.249 407.136c-12.97 20.766-33.197 35.461-56.954 41.38l-2.33.58-276.136 41.237 215.077 173.818 3.108 3.702c15.74 18.752 23.467 42.53 21.757 66.954l-.147 2.087-.32 2.067-47.317 305.72 260.5-136.9 2.313-.935c11.35-4.588 23.274-6.882 35.2-6.882z"/></g>
<view id="stop" viewBox="97200 0 1200 1200">
</view>
<g transform="translate(97200,0)"><path d="M1100 50H100c-27.614 0-50 22.386-50 50v1000c0 27.614 22.386 50 50 50h1000c27.614 0 50-22.386 50-50V100c0-27.614-22.386-50-50-50zm-50 1000H150V150h900v900z"/></g>
<view id="sync" viewBox="98400 0 1200 1200">
</view>
<g transform="translate(98400,0)"><path d="M1200 600c0 80.978-15.87 159.56-47.172 233.563-30.222 71.453-73.477 135.615-128.564 190.7-55.087 55.088-119.248 98.343-190.701 128.565C759.559 1184.128 680.978 1200 600 1200c-119.054 0-233.392-34.992-330.305-98.983l-84.34 84.338a49.996 49.996 0 01-54.489 10.84A50.001 50.001 0 01100 1150V900c0-27.614 22.386-50 50-50h250a50 50 0 0135.355 85.355l-93.161 93.163C419.086 1074.837 507.849 1100 600 1100c275.7 0 500-224.299 500-500 0-27.614 22.386-50 50-50s50 22.386 50 50zm-1100 0c0-275.701 224.3-500 500-500 92.15 0 180.914 25.164 257.806 71.483l-93.161 93.162A50 50 0 00800 350h250c27.614 0 50-22.386 50-50V50a50.001 50.001 0 00-30.866-46.194c-18.683-7.74-40.19-3.461-54.49 10.839l-84.34 84.34C833.392 34.992 719.053 0 600 0c-80.978 0-159.56 15.871-233.563 47.172-71.453 30.222-135.614 73.477-190.701 128.564-55.087 55.086-98.342 119.248-128.564 190.702C15.87 440.44 0 519.022 0 600c0 27.614 22.386 50 50 50s50-22.386 50-50z"/></g>
<view id="tag" viewBox="99600 0 1200 1200">
</view>
<g transform="translate(99600,0)"><path d="M1128.66 591.342L609.283 71.967C595.12 57.8 576.284 50 556.251 50H125c-41.355 0-75 33.645-75 75V556.25c0 20.034 7.801 38.868 21.967 53.033L591.34 1128.66c14.622 14.621 33.827 21.932 53.034 21.932s38.411-7.31 53.033-21.932l431.251-431.251c14.166-14.166 21.967-33 21.967-53.033 0-20.034-7.801-38.868-21.967-53.033zM644.374 1040.27L150 545.896V150h395.896l494.375 494.375-395.896 395.896zM250 425c0 96.495 78.504 175 175 175s175-78.505 175-175-78.504-175-175-175-175 78.505-175 175zm250 0c0 41.355-33.645 75-75 75s-75-33.645-75-75 33.645-75 75-75 75 33.645 75 75z"/></g>
<view id="terminal" viewBox="100800 0 1200 1200">
</view>
<g transform="translate(100800,0)"><path d="M1150 150H50c-27.614 0-50 22.386-50 50v800c0 27.614 22.386 50 50 50h1100c27.614 0 50-22.386 50-50V200c0-27.614-22.386-50-50-50zm-50 800H100V250h1000v700zM210.957 818.765L385.969 600 210.957 381.235c-17.25-21.563-13.755-53.028 7.809-70.278 21.563-17.251 53.027-13.754 70.277 7.808l200 250c14.61 18.261 14.61 44.209 0 62.47l-200 250c-9.875 12.344-24.408 18.767-39.075 18.767a49.786 49.786 0 01-31.202-10.959c-21.564-17.25-25.06-48.715-7.809-70.278zM500 800c0-27.614 22.386-50 50-50h400c27.614 0 50 22.386 50 50s-22.386 50-50 50H550c-27.614 0-50-22.386-50-50z"/></g>
<view id="trashcan" viewBox="102000 0 1200 1200">
</view>
<g transform="translate(102000,0)"><path d="M1100 200H900V86.667C900 38.878 861.549 0 814.286 0H385.714C338.451 0 300 38.878 300 86.667V200H100c-27.614 0-50 22.386-50 50s22.386 50 50 50h50v750c0 82.71 67.29 150 150 150h600c82.71 0 150-67.29 150-150V300h50c27.614 0 50-22.386 50-50s-22.386-50-50-50zM400 100h400v100H400V100zm550 950c0 27.57-22.43 50-50 50H300c-27.57 0-50-22.43-50-50V300h700v750zM450 450v500c0 27.614-22.386 50-50 50s-50-22.386-50-50V450c0-27.614 22.386-50 50-50s50 22.386 50 50zm400 0v500c0 27.614-22.386 50-50 50s-50-22.386-50-50V450c0-27.614 22.386-50 50-50s50 22.386 50 50zm-200 0v500c0 27.614-22.386 50-50 50s-50-22.386-50-50V450c0-27.614 22.386-50 50-50s50 22.386 50 50z"/></g>
<view id="trophy" viewBox="103200 0 1200 1200">
</view>
<g transform="translate(103200,0)"><path d="M1100 100H950V50c0-27.614-22.386-50-50-50H300c-27.614 0-50 22.386-50 50v50H100c-27.614 0-50 22.386-50 50v200c0 52.201 28.428 113.65 76.045 164.376 36.926 39.336 80.29 66.535 123.955 78.595v13.46c0 78.416 30.537 152.136 85.984 207.585 43.645 43.645 98.616 71.842 158.282 81.875L449.733 1100H350c-27.614 0-50 22.386-50 50s22.386 50 50 50h500c27.614 0 50-22.386 50-50s-22.386-50-50-50h-99.733l-44.533-204.11c59.666-10.032 114.637-38.229 158.282-81.874C919.463 758.567 950 684.846 950 606.432v-12.787c44.07-11.064 87.17-36.228 123.112-72.697C1121.975 471.368 1150 409.06 1150 350V150c0-27.614-22.386-50-50-50zM198.955 445.935C165.137 409.909 150 371.793 150 350V200h100v285.884c-17.49-9.29-35.03-22.888-51.045-39.95zM552.085 1100l43.637-200h8.556l43.637 200h-95.83zM850 606.432C850 713.166 763.166 800 656.431 800H543.57C436.834 800 350 713.166 350 606.432V100h500v506.432zM1050 350c0 32.521-17.986 70.187-48.112 100.754-15.796 16.028-33.67 28.697-51.888 37.17V200h100v150z"/></g>
<view id="twt" viewBox="104400 0 1200 1200">
</view>
<g transform="translate(104400,0)"><path d="M1150 350h-15.97l55.013-68.766c17.25-21.562 13.755-53.027-7.809-70.277-21.562-17.253-53.027-13.754-70.277 7.809l-58.781 73.476c-15.464-25.561-34.349-48.483-56.362-68.205C941.752 175.602 872.38 150 795.197 150h-18.641c-51.222 0-100.46 12.942-146.347 38.469-42.626 23.712-81.035 58.203-111.076 99.745-28.786 39.807-49.883 86.99-61.01 136.445a374.3 374.3 0 00-4.022 20.556c-23.604-4.958-47.18-13.799-71.21-26.653-36.61-19.582-73.495-48.036-112.76-86.989-31.004-30.758-58.356-68.366-75.042-103.182-9.972-20.805-32.883-32.087-55.448-27.306-22.569 4.78-38.938 24.379-39.62 47.438-2.184 73.939-2.007 160.828 15.863 244.655 9.606 45.061 23.86 86.696 42.362 123.747 20.666 41.379 47.404 78.682 79.502 110.919-9.759 1.37-19.582 2.156-29.544 2.156-52.075 0-103.573-14.701-142.62-27.51-20.23-6.637-42.446.268-55.352 17.202-12.906 16.936-13.671 40.185-1.908 57.932 53.609 80.877 127.769 148.791 214.465 196.4C313.301 1023.728 415.717 1050 518.965 1050c159.555 0 307.007-59.256 415.195-166.853 52.411-52.125 93.432-113.188 121.92-181.493C1085.224 631.78 1100 557.204 1100 480c0-3.154-.56-15.67-1.441-30H1150c27.614 0 50-22.386 50-50s-22.386-50-50-50zM863.644 812.243C774.32 901.077 651.912 950 518.964 950c-86.467 0-172.237-22.003-248.04-63.629a517.635 517.635 0 01-83.241-56.914c6.78.355 13.624.543 20.521.543 52.117 0 96.16-13.61 138.751-26.771 5.809-1.794 11.629-3.594 17.48-5.358a50 50 0 0012.664-89.89 2960.365 2960.365 0 00-9.764-6.264c-22.794-14.581-39.264-25.116-57.325-43.034-48.298-47.915-79.806-108.872-96.323-186.355-4.609-21.614-7.866-43.747-10.117-65.95 44.865 43.962 88.137 76.82 132.157 100.363C389.395 535.445 444.663 550 500 550a50.002 50.002 0 0049.712-55.36c-.19-4.78.436-25.216 6.956-52.248 8.505-35.27 23.14-67.43 43.498-95.58C644.657 285.286 708.948 250 776.556 250h18.641c52.163 0 98.461 16.777 133.889 48.518 33.893 30.364 57.005 72.905 66.897 123.103 1.822 14.751 3.856 51.858 4.017 58.684-.077 126.685-48.495 244.557-136.356 331.938z"/></g>
<view id="undo" viewBox="105600 0 1200 1200">
</view>
<g transform="translate(105600,0)"><path d="M1152.829 366.438C1184.129 440.44 1200 519.022 1200 600s-15.87 159.56-47.171 233.563c-30.223 71.453-73.478 135.615-128.565 190.702-55.087 55.086-119.248 98.341-190.701 128.563C759.558 1184.128 680.977 1200 600 1200s-159.56-15.871-233.563-47.172c-71.453-30.222-135.614-73.477-190.701-128.563-55.087-55.087-98.342-119.25-128.564-190.703C15.87 759.56 0 680.978 0 600c0-27.614 22.386-50 50-50s50 22.386 50 50c0 275.701 224.299 500 500 500s500-224.299 500-500-224.299-500-500-500c-92.15 0-180.915 25.163-257.806 71.482l93.161 93.163a50 50 0 0110.839 54.489A50 50 0 01400 350H150c-27.614 0-50-22.386-50-50V50a50.001 50.001 0 0185.355-35.355l84.34 84.338C366.608 34.993 480.946 0 600 0c80.978 0 159.56 15.871 233.563 47.172 71.453 30.222 135.614 73.477 190.701 128.563 55.087 55.087 98.342 119.25 128.565 190.702z"/></g>
<view id="unlink" viewBox="106800 0 1200 1200">
</view>
<g transform="translate(106800,0)"><path d="M824.998 700c-12.716 0-25.436-4.82-35.185-14.477-19.619-19.433-19.77-51.09-.336-70.71l218.646-220.737c27.005-27.005 41.877-62.909 41.877-101.1s-14.872-74.094-41.877-101.099c-55.746-55.746-146.453-55.746-202.2 0l-.19.19-195.568 193.478c-19.632 19.42-51.289 19.25-70.71-.38-19.42-19.63-19.25-51.289.38-70.71l195.463-193.373C781.18 75.242 842.162 50 907.023 50c64.902 0 125.918 25.274 171.811 71.166 45.893 45.892 71.166 106.909 71.166 171.81 0 64.858-25.24 125.837-71.074 171.719L860.523 685.187c-9.777 9.87-22.649 14.813-35.525 14.813zm-360.315 378.938l195.482-193.393c19.63-19.421 19.8-51.08.38-70.71-19.421-19.63-51.08-19.8-70.71-.38l-195.568 193.479-.19.189c-55.747 55.746-146.454 55.746-202.2 0-27.005-27.005-41.877-62.91-41.877-101.1s14.872-74.094 41.877-101.099l218.646-220.737c19.433-19.62 19.283-51.277-.336-70.71-19.62-19.434-51.278-19.282-70.71.336l-218.38 220.47C75.248 781.166 50 842.152 50 907.022c0 64.902 25.273 125.918 71.166 171.811 45.893 45.892 106.91 71.166 171.81 71.166 64.854 0 125.826-25.233 171.707-71.062zm-79.328-743.583c19.527-19.526 19.527-51.184 0-70.71l-100-100c-19.527-19.527-51.183-19.527-70.71 0-19.527 19.526-19.527 51.184 0 70.71l100 100C324.408 345.12 337.205 350 350 350s25.592-4.881 35.355-14.645zM300 450c0-27.614-22.386-50-50-50h-50c-27.614 0-50 22.386-50 50s22.386 50 50 50h50c27.614 0 50-22.386 50-50zm250-248.077V150c0-27.614-22.386-50-50-50s-50 22.386-50 50v51.923c0 27.614 22.386 50 50 50s50-22.386 50-50zm435.355 833.432c19.527-19.526 19.527-51.184 0-70.71l-100-100c-19.527-19.527-51.183-19.527-70.71 0-19.527 19.526-19.527 51.184 0 70.71l100 100C924.408 1045.12 937.205 1050 950 1050s25.592-4.881 35.355-14.645zM750 1050v-51.923c0-27.614-22.386-50-50-50s-50 22.386-50 50V1050c0 27.614 22.386 50 50 50s50-22.386 50-50zm300-300c0-27.614-22.386-50-50-50h-50c-27.614 0-50 22.386-50 50s22.386 50 50 50h50c27.614 0 50-22.386 50-50z"/></g>
<view id="unlock" viewBox="108000 0 1200 1200">
</view>
<g transform="translate(108000,0)"><path d="M1013.763 450H900V250c0-110.28-89.72-200-200-200H500c-110.28 0-200 89.72-200 200 0 27.614 22.386 50 50 50s50-22.386 50-50c0-55.14 44.86-100 100-100h200c55.14 0 100 44.86 100 100v200H186.237C138.686 450 100 488.686 100 536.237v527.526c0 47.551 38.686 86.237 86.237 86.237h827.526c47.551 0 86.237-38.686 86.237-86.237V536.237c0-47.551-38.686-86.237-86.237-86.237zM1000 1050H200V550h800v500zM750 650c0 27.614-22.386 50-50 50h-50v100c0 27.614-22.386 50-50 50s-50-22.386-50-50V700h-50c-27.614 0-50-22.386-50-50s22.386-50 50-50h200c27.614 0 50 22.386 50 50z"/></g>
<view id="upload" viewBox="109200 0 1200 1200">
</view>
<g transform="translate(109200,0)"><path d="M1200 825c0 60.1-23.404 116.602-65.901 159.099S1035.099 1050 975 1050H800c-27.614 0-50-22.386-50-50s22.386-50 50-50h175c68.925 0 125-56.075 125-125 0-68.833-55.93-124.85-124.728-125a50.003 50.003 0 01-50.99-53.273c.477-7.233.718-14.542.718-21.727 0-179.205-145.795-325-325-325-123.572 0-234.883 68.627-290.494 179.099a49.999 49.999 0 01-33.77 26.318C173.907 528.142 100 620.489 100 725c0 116.799 87.556 213.092 203.662 223.986a50.04 50.04 0 016.362 1.014H400c27.614 0 50 22.386 50 50s-22.386 50-50 50H300c-5.43 0-10.757-.883-15.794-2.56-76.335-9.579-146.667-45.922-198.967-103.042C30.272 884.366 0 806.448 0 725c0-37.9 6.479-75.052 19.255-110.42 12.346-34.174 30.256-65.863 53.234-94.187 41.053-50.604 96.732-87.87 158.628-106.582 34.632-60.4 83.65-111.53 142.857-148.778C441.6 222.488 519.76 200 600 200c57.353 0 113.016 11.244 165.444 33.419 50.615 21.408 96.06 52.045 135.077 91.06 39.014 39.015 69.652 84.461 91.06 135.077 19.646 46.447 30.712 95.437 32.98 145.888 41.175 9.21 78.977 29.897 109.538 60.456 42.497 42.497 65.901 99 65.901 159.1zm-385.355-39.645C824.408 795.118 837.205 800 850 800s25.592-4.882 35.355-14.645c19.527-19.526 19.527-51.184 0-70.71l-250-250c-19.527-19.526-51.183-19.526-70.71 0l-250 250c-19.527 19.526-19.527 51.184 0 70.71 19.527 19.526 51.183 19.526 70.71 0L550 620.711V1050c0 27.614 22.386 50 50 50s50-22.386 50-50V620.71l164.645 164.645z"/></g>
<view id="user" viewBox="110400 0 1200 1200">
</view>
<g transform="translate(110400,0)"><path d="M200 1200h800c27.614 0 50-22.386 50-50V931.398c0-141.845-66.543-274.735-179.065-359.798 21.171-25.823 38.454-54.41 51.54-85.349C940.739 443.069 950 397.228 950 350s-9.26-93.07-27.525-136.251c-17.631-41.684-42.86-79.11-74.988-111.236s-69.552-57.357-111.236-74.988C693.069 9.261 647.228 0 600 0s-93.07 9.26-136.251 27.525c-41.684 17.631-79.11 42.86-111.236 74.988s-57.357 69.552-74.988 111.236C259.261 256.931 250 302.772 250 350s9.26 93.07 27.525 136.251c13.09 30.944 30.374 59.536 51.551 85.361-47.038 35.59-86.941 80.237-116.988 131.278C171.47 771.887 150 850.903 150 931.398V1150c0 27.614 22.386 50 50 50zM600 100c137.85 0 250 112.15 250 250S737.85 600 600 600 350 487.85 350 350s112.15-250 250-250zM250 931.398c0-116.683 58.682-226.044 154.623-290.931 18.56 12.505 38.313 23.204 59.126 32.008C506.931 690.739 552.772 700 600 700s93.07-9.26 136.251-27.525c20.831-8.81 40.598-19.52 59.172-32.038.401.29.797.588 1.209.87C892.666 706.804 950 815.249 950 931.398V1100H250V931.398z"/></g>
<view id="zip" viewBox="111600 0 1200 1200">
</view>
<g transform="translate(111600,0)"><path d="M700 600c27.614 0 50-22.386 50-50s-22.386-50-50-50H500c-27.614 0-50 22.386-50 50s22.386 50 50 50h50v60h-50c-27.614 0-50 22.386-50 50v240c0 27.614 22.386 50 50 50h200c27.614 0 50-22.386 50-50V710c0-27.614-22.386-50-50-50h-50v-60h50zm-50 300H550V760h100v140zm400-550c0-.165-.01-.327-.012-.49a49.979 49.979 0 00-.051-2.01 50.262 50.262 0 00-.171-2.299l-.012-.148a49.699 49.699 0 00-9.425-24.6c-.054-.074-.105-.15-.16-.224a50.436 50.436 0 00-1.227-1.577c-.099-.122-.192-.249-.292-.37-.41-.5-.836-.986-1.265-1.469-.115-.13-.223-.264-.34-.392a50.322 50.322 0 00-1.695-1.781L735.355 14.645l-.003-.003a50.13 50.13 0 00-1.77-1.685c-.145-.13-.296-.253-.441-.382a50.056 50.056 0 00-1.42-1.222c-.133-.11-.271-.212-.406-.32a51.326 51.326 0 00-1.54-1.2c-.084-.062-.17-.12-.254-.18a49.65 49.65 0 00-1.775-1.248l-.049-.031A49.7 49.7 0 00704.952.246c-.1-.01-.203-.014-.304-.023a50.011 50.011 0 00-2.144-.16A49.688 49.688 0 00700 0H200c-27.615 0-50 22.386-50 50v1100c0 27.614 22.385 50 50 50h800c27.614 0 50-22.386 50-50V550.01 550 350.01 350zM750 170.71L879.29 300H750V170.71zM250 1100V600h100c27.614 0 50-22.386 50-50s-22.386-50-50-50H250V100h400v250c0 27.614 22.386 50 50 50h250v100H850c-27.614 0-50 22.386-50 50s22.386 50 50 50h100v500H250z"/></g>
</svg>